<?xml version="1.0" encoding="UTF-8" standalone="no"?>
<!-- Generator: Adobe Illustrator 14.0.0, SVG Export Plug-In . SVG Version: 6.00 Build 43363)  -->

<svg
   xmlns:dc="http://purl.org/dc/elements/1.1/"
   xmlns:cc="http://creativecommons.org/ns#"
   xmlns:rdf="http://www.w3.org/1999/02/22-rdf-syntax-ns#"
   xmlns:svg="http://www.w3.org/2000/svg"
   xmlns="http://www.w3.org/2000/svg"
   xmlns:sodipodi="http://sodipodi.sourceforge.net/DTD/sodipodi-0.dtd"
   xmlns:inkscape="http://www.inkscape.org/namespaces/inkscape"
   version="1.1"
   id="Layer_1"
   x="0px"
   y="0px"
   width="30px"
   height="30px"
   viewBox="-291 381 30 30"
   enable-background="new -291 381 30 30"
   xml:space="preserve"
   inkscape:version="0.48.3.1 r9886"
   sodipodi:docname="airfieldInv.svg"><metadata
   id="metadata9"><rdf:RDF><cc:Work
       rdf:about=""><dc:format>image/svg+xml</dc:format><dc:type
         rdf:resource="http://purl.org/dc/dcmitype/StillImage" /><dc:title></dc:title></cc:Work></rdf:RDF></metadata><defs
   id="defs7" /><sodipodi:namedview
   pagecolor="#000000"
   bordercolor="#666666"
   borderopacity="1"
   objecttolerance="10"
   gridtolerance="10"
   guidetolerance="10"
   inkscape:pageopacity="0"
   inkscape:pageshadow="2"
   inkscape:window-width="1920"
   inkscape:window-height="1056"
   id="namedview5"
   showgrid="false"
   inkscape:zoom="37.844077"
   inkscape:cx="15.015625"
   inkscape:cy="15.841694"
   inkscape:window-x="0"
   inkscape:window-y="24"
   inkscape:window-maximized="1"
   inkscape:current-layer="Layer_1" />

<path
   style="font-size:medium;font-style:normal;font-variant:normal;font-weight:normal;font-stretch:normal;text-indent:0;text-align:start;text-decoration:none;line-height:normal;letter-spacing:normal;word-spacing:normal;text-transform:none;direction:ltr;block-progression:tb;writing-mode:lr-tb;text-anchor:start;baseline-shift:baseline;color:#000000;fill:#000000;fill-opacity:1;stroke:none;stroke-width:2;marker:none;visibility:visible;display:inline;overflow:visible;enable-background:accumulate;font-family:Sans;-inkscape-font-specification:Sans"
   d="m -278.71875,388.28125 0,1 0,0.59375 0,1 0.625,0 c -0.0501,0.19007 -0.21875,0.32638 -0.21875,0.53125 l 0,0.53125 -3.5,0 -1,0 0,1 0,3.09375 0,1 1,0 3.71875,0 0.34375,1.40625 -0.1875,0 -1,0 0,1 0,1.875 0,1 1,0 3.90625,0 1,0 0,-1 0,-1.875 0,-1 -1,0 -0.1875,0 0.34375,-1.40625 3.71875,0 1,0 0,-1 0,-3.09375 0,-1 -1,0 -3.5,0 0,-0.53125 c 0,-0.20158 -0.16925,-0.3423 -0.21875,-0.53125 l 0.625,0 0,-1 0,-0.59375 0,-1 -1,0 -3.46875,0 -1,0 z M -276,391.0625 c 0.008,7.4e-4 0.0219,-4.9e-4 0.0312,0 0.1846,0 0.3125,0.13083 0.3125,0.34375 l 0,1.53125 0,1 1,0 3.5,0 0,1.09375 -3.5,0 -0.78125,0 -0.1875,0.75 -0.375,1.4375 -0.34375,-1.4375 -0.1875,-0.75 -0.78125,0 -3.5,0 0,-1.09375 3.5,0 1,0 0,-1 0,-1.53125 c 0,-0.18106 0.14133,-0.33613 0.3125,-0.34375 z"
   id="path3865"
   inkscape:connector-curvature="0" /><path
   style="fill:#ffffff;fill-opacity:1;fill-rule:evenodd;stroke:none"
   d="m 13.28125,8.28125 0,0.59375 3.46875,0 0,-0.59375 z m 1.6875,0.9926437 c -0.707706,0.031495 -0.951815,0.4169881 -0.964159,1.1323563 l 0,1.53125 -4.817091,0 0,3.09375 4.817091,0 0.84375,3.617644 -1.785841,0 0,1.663606 3.90625,0 0,-1.663606 -1.785841,0 0.84375,-3.617644 4.817091,0 0,-3.09375 -4.817091,0 0,-1.53125 c 0,-0.7356605 -0.259748,-1.1323563 -0.995409,-1.1323563 -0.009,-0.00374 -0.02233,0.00372 -0.03125,0 -0.0102,0.00263 -0.02124,-0.00272 -0.03125,0 z"
   transform="translate(-291,381)"
   id="rect3072"
   inkscape:connector-curvature="0"
   sodipodi:nodetypes="ccccccsccccccccccccccsccc" /></svg>