<?xml version="1.0" encoding="UTF-8" standalone="no"?>
<!-- Generator: Adobe Illustrator 14.0.0, SVG Export Plug-In . SVG Version: 6.00 Build 43363)  -->

<svg
   xmlns:dc="http://purl.org/dc/elements/1.1/"
   xmlns:cc="http://creativecommons.org/ns#"
   xmlns:rdf="http://www.w3.org/1999/02/22-rdf-syntax-ns#"
   xmlns:svg="http://www.w3.org/2000/svg"
   xmlns="http://www.w3.org/2000/svg"
   xmlns:sodipodi="http://sodipodi.sourceforge.net/DTD/sodipodi-0.dtd"
   xmlns:inkscape="http://www.inkscape.org/namespaces/inkscape"
   version="1.1"
   id="Layer_1"
   x="0px"
   y="0px"
   width="30px"
   height="30px"
   viewBox="-291 381 30 30"
   enable-background="new -291 381 30 30"
   xml:space="preserve"
   inkscape:version="0.48.3.1 r9886"
   sodipodi:docname="bus_station.svg"><metadata
   id="metadata3030"><rdf:RDF><cc:Work
       rdf:about=""><dc:format>image/svg+xml</dc:format><dc:type
         rdf:resource="http://purl.org/dc/dcmitype/StillImage" /><dc:title></dc:title></cc:Work></rdf:RDF></metadata><defs
   id="defs3028" /><sodipodi:namedview
   pagecolor="#ffffff"
   bordercolor="#666666"
   borderopacity="1"
   objecttolerance="10"
   gridtolerance="10"
   guidetolerance="10"
   inkscape:pageopacity="0"
   inkscape:pageshadow="2"
   inkscape:window-width="1920"
   inkscape:window-height="1056"
   id="namedview3026"
   showgrid="false"
   inkscape:zoom="30.3"
   inkscape:cx="14.771023"
   inkscape:cy="15"
   inkscape:window-x="0"
   inkscape:window-y="24"
   inkscape:window-maximized="1"
   inkscape:current-layer="Layer_1" />


<path
   style="font-size:medium;font-style:normal;font-variant:normal;font-weight:normal;font-stretch:normal;text-indent:0;text-align:start;text-decoration:none;line-height:normal;letter-spacing:normal;word-spacing:normal;text-transform:none;direction:ltr;block-progression:tb;writing-mode:lr-tb;text-anchor:start;baseline-shift:baseline;color:#000000;fill:#000000;fill-opacity:1;stroke:none;stroke-width:2;marker:none;visibility:visible;display:inline;overflow:visible;enable-background:accumulate;font-family:Sans;-inkscape-font-specification:Sans"
   d="m -276,387.53125 c -1.56818,0 -3.35923,0.34402 -4.40625,0.78125 -0.44036,0.18292 -0.89255,0.41812 -1.28125,0.78125 -0.3887,0.36313 -0.66366,0.88937 -0.78125,1.46875 l -0.0312,0.0312 0,0.0312 -0.59375,4.53125 0,0.0625 0,0.0625 0,3.46875 0,2.8125 0,1 1,0 0.0312,0 c 0,0.54303 0.22546,1.06969 0.59375,1.40625 0.36829,0.33656 0.83404,0.5 1.28125,0.5 0.44721,0 0.91296,-0.16344 1.28125,-0.5 0.36829,-0.33656 0.59375,-0.86322 0.59375,-1.40625 l 2.3125,0 2.3125,0 0,0.0312 0,0.0312 c 0.0199,0.52771 0.26054,1.05617 0.625,1.375 0.36446,0.31883 0.81425,0.4375 1.25,0.4375 0.43575,0 0.88554,-0.11867 1.25,-0.4375 0.36446,-0.31883 0.60508,-0.84729 0.625,-1.375 l 0,-0.0312 0,-0.0312 0.0312,0 1,0 0,-1 0,-2.8125 0,-3.46875 0,-0.0625 0,-0.0625 -0.59375,-4.53125 0,-0.0312 -0.0312,-0.0312 c -0.11679,-0.57927 -0.39227,-1.10515 -0.78125,-1.46875 -0.38898,-0.3636 -0.83951,-0.59827 -1.28125,-0.78125 -1.04751,-0.43683 -2.83997,-0.78125 -4.40625,-0.78125 z m -3.59375,4.65625 3.59375,0 3.59375,0 0.375,2.59375 -3.96875,0 -3.9375,0 z"
   id="path3936"
   inkscape:connector-curvature="0"
   sodipodi:nodetypes="scscccccccccccssscccccssscccccccccccccscsccccccc" /><path
   d="M 15 7.53125 C 13.61977 7.53125 11.75808 7.92038 10.96875 8.25 C 10.18052 8.57742 9.66647 8.9298 9.5 9.75 L 8.90625 14.28125 L 8.90625 17.75 L 8.90625 20.5625 L 9.9375 20.5625 L 9.9375 21.5625 C 9.9375 22.76193 11.6875 22.76193 11.6875 21.5625 L 11.6875 20.5625 L 15 20.5625 L 18.3125 20.5625 L 18.3125 21.5625 L 18.3125 21.59375 C 18.3555 22.73254 20.01951 22.73254 20.0625 21.59375 L 20.0625 21.5625 L 20.0625 20.5625 L 21.09375 20.5625 L 21.09375 17.75 L 21.09375 14.28125 L 20.5 9.75 C 20.33463 8.9298 19.82168 8.57742 19.03125 8.25 C 18.24082 7.92038 16.37802 7.53125 15 7.53125 z M 12.25 8.5625 L 15 8.5625 L 17.75 8.5625 C 18.29239 8.5625 18.29239 9.5625 17.75 9.5625 L 15 9.5625 L 12.25 9.5625 C 11.70982 9.5625 11.70982 8.5625 12.25 8.5625 z M 10.9375 10.1875 L 15 10.1875 L 19.0625 10.1875 C 19.29732 10.1875 19.49046 10.33871 19.53125 10.5625 L 20.03125 14.15625 C 20.04025 14.19705 20.03125 14.23386 20.03125 14.28125 C 20.03125 14.54362 19.82708 14.78125 19.5625 14.78125 L 15 14.78125 L 10.46875 14.78125 C 10.20417 14.78125 9.96875 14.54472 9.96875 14.28125 C 9.96575 14.23385 9.9939 14.19704 10 14.15625 L 10.46875 10.5625 C 10.50955 10.33871 10.70268 10.1875 10.9375 10.1875 z M 10.8125 16.84375 C 11.32513 16.84375 11.75 17.23958 11.75 17.75 C 11.75 18.26483 11.32513 18.6875 10.8125 18.6875 C 10.30429 18.6875 9.875 18.26483 9.875 17.75 C 9.875 17.23958 10.30429 16.84375 10.8125 16.84375 z M 19.1875 16.84375 C 19.69792 16.84375 20.125 17.23958 20.125 17.75 C 20.125 18.26483 19.69792 18.6875 19.1875 18.6875 C 18.67487 18.6875 18.25 18.26483 18.25 17.75 C 18.25 17.23958 18.67487 16.84375 19.1875 16.84375 z "
   transform="translate(-291,381)"
   id="path3134"
   style="fill:#ffffff;fill-opacity:1;stroke:none" /></svg>