<?xml version="1.0" encoding="UTF-8" standalone="no"?>
<!-- Generator: Adobe Illustrator 14.0.0, SVG Export Plug-In . SVG Version: 6.00 Build 43363)  -->

<svg
   xmlns:dc="http://purl.org/dc/elements/1.1/"
   xmlns:cc="http://creativecommons.org/ns#"
   xmlns:rdf="http://www.w3.org/1999/02/22-rdf-syntax-ns#"
   xmlns:svg="http://www.w3.org/2000/svg"
   xmlns="http://www.w3.org/2000/svg"
   xmlns:sodipodi="http://sodipodi.sourceforge.net/DTD/sodipodi-0.dtd"
   xmlns:inkscape="http://www.inkscape.org/namespaces/inkscape"
   version="1.1"
   id="Layer_1"
   x="0px"
   y="0px"
   width="30px"
   height="30px"
   viewBox="0 0 30 30"
   enable-background="new 0 0 30 30"
   xml:space="preserve"
   inkscape:version="0.48.3.1 r9886"
   sodipodi:docname="golf_small.svg"><metadata
   id="metadata9"><rdf:RDF><cc:Work
       rdf:about=""><dc:format>image/svg+xml</dc:format><dc:type
         rdf:resource="http://purl.org/dc/dcmitype/StillImage" /></cc:Work></rdf:RDF></metadata><defs
   id="defs7" /><sodipodi:namedview
   pagecolor="#ffffff"
   bordercolor="#666666"
   borderopacity="1"
   objecttolerance="10"
   gridtolerance="10"
   guidetolerance="10"
   inkscape:pageopacity="0"
   inkscape:pageshadow="2"
   inkscape:window-width="1147"
   inkscape:window-height="882"
   id="namedview5"
   showgrid="false"
   inkscape:zoom="7.8666667"
   inkscape:cx="-7.5"
   inkscape:cy="15"
   inkscape:window-x="357"
   inkscape:window-y="446"
   inkscape:window-maximized="0"
   inkscape:current-layer="Layer_1" />
<path
   d="m 13.8595,19.43825 -0.217,-6.613 6.095,-1.991 -6.207,-1.494 -0.012,-0.308 c -0.006,-0.206 -0.157,-0.361 -0.388,-0.362 -0.206,0.008 -0.369,0.18 -0.362,0.389 l 0.34,10.384 c -1.604,0.059 -2.847,0.452 -2.847,0.938 0,0.523 1.455,0.95 3.252,0.95 1.798,0 3.253,-0.425 3.253,-0.95 0.002,-0.493 -1.275,-0.892 -2.907,-0.943 z"
   id="path3"
   style="fill:#005600;fill-opacity:1;stroke:#ffffff;stroke-width:2;stroke-miterlimit:4;stroke-opacity:1;stroke-dasharray:none;stroke-linejoin:round"
   inkscape:connector-curvature="0" />
<path
   inkscape:connector-curvature="0"
   d="m 13.8595,19.43825 -0.217,-6.613 6.095,-1.991 -6.207,-1.494 -0.012,-0.308 c -0.006,-0.206 -0.157,-0.361 -0.388,-0.362 -0.206,0.008 -0.369,0.18 -0.362,0.389 l 0.34,10.384 c -1.604,0.059 -2.847,0.452 -2.847,0.938 0,0.523 1.455,0.95 3.252,0.95 1.798,0 3.253,-0.425 3.253,-0.95 0.002,-0.493 -1.275,-0.892 -2.907,-0.943 z"
   id="path3-0"
   style="fill:#005600;fill-opacity:1;stroke:none;stroke-width:0.59999999999999998;stroke-miterlimit:4;stroke-opacity:1;stroke-dasharray:none" /></svg>