<?xml version="1.0" encoding="UTF-8" standalone="no"?>
<!-- Generator: Adobe Illustrator 14.0.0, SVG Export Plug-In . SVG Version: 6.00 Build 43363)  -->

<svg
   xmlns:dc="http://purl.org/dc/elements/1.1/"
   xmlns:cc="http://creativecommons.org/ns#"
   xmlns:rdf="http://www.w3.org/1999/02/22-rdf-syntax-ns#"
   xmlns:svg="http://www.w3.org/2000/svg"
   xmlns="http://www.w3.org/2000/svg"
   xmlns:sodipodi="http://sodipodi.sourceforge.net/DTD/sodipodi-0.dtd"
   xmlns:inkscape="http://www.inkscape.org/namespaces/inkscape"
   version="1.1"
   id="Layer_1"
   x="0px"
   y="0px"
   width="30px"
   height="30px"
   viewBox="-291 381 30 30"
   enable-background="new -291 381 30 30"
   xml:space="preserve"
   inkscape:version="0.48.3.1 r9886"
   sodipodi:docname="marinaInv.svg"><metadata
   id="metadata4343"><rdf:RDF><cc:Work
       rdf:about=""><dc:format>image/svg+xml</dc:format><dc:type
         rdf:resource="http://purl.org/dc/dcmitype/StillImage" /></cc:Work></rdf:RDF></metadata><defs
   id="defs4341" /><sodipodi:namedview
   pagecolor="#ffffff"
   bordercolor="#666666"
   borderopacity="1"
   objecttolerance="10"
   gridtolerance="10"
   guidetolerance="10"
   inkscape:pageopacity="0"
   inkscape:pageshadow="2"
   inkscape:window-width="1920"
   inkscape:window-height="1056"
   id="namedview4339"
   showgrid="false"
   inkscape:zoom="30.3"
   inkscape:cx="15"
   inkscape:cy="15"
   inkscape:window-x="0"
   inkscape:window-y="24"
   inkscape:window-maximized="1"
   inkscape:current-layer="Layer_1" />
<path
   style="font-size:medium;font-style:normal;font-variant:normal;font-weight:normal;font-stretch:normal;text-indent:0;text-align:start;text-decoration:none;line-height:normal;letter-spacing:normal;word-spacing:normal;text-transform:none;direction:ltr;block-progression:tb;writing-mode:lr-tb;text-anchor:start;baseline-shift:baseline;color:#000000;fill:#426091;fill-opacity:1;stroke:none;stroke-width:2;marker:none;visibility:visible;display:inline;overflow:visible;enable-background:accumulate;font-family:Sans;-inkscape-font-specification:Sans"
   d="m -276.28125,386.78125 c -1.64704,0.15939 -2.9375,1.56985 -2.9375,3.25 0,1.05653 0.58548,1.89851 1.375,2.5 l 0,8.25 c -0.50567,-0.29759 -0.90003,-0.69805 -1.21875,-1.1875 0.58666,-0.53858 0.79901,-1.49794 0.28125,-2.1875 -0.10175,-0.13876 -0.17836,-0.19094 -0.25,-0.25 l -0.0625,-0.0625 c -0.70765,-0.67808 -1.5587,-1.48176 -2.24995,-2.06255 -0.33469,-0.3199 -0.75084,-0.5 -1.125,-0.5 -0.76085,0 -1.43175,0.59461 -1.5625,1.3125 -0.22032,1.09152 -0.36464,2.16796 -0.53115,3.1249 -0.0156,0.0354 -0.0312,0.0845 -0.0312,0.3125 0,0.89243 0.76382,1.65625 1.65625,1.65625 -0.0555,0 0.18418,-0.0106 0.25,0 1.21742,2.51286 3.718,4.28125 6.6875,4.28125 2.97881,0 5.47511,-1.7842 6.6875,-4.3125 0.0698,-0.01 0.30674,0.0312 0.25,0.0312 0.89331,0 1.65625,-0.76019 1.65625,-1.65625 l 0,-0.0312 c -0.004,-0.20036 -0.0159,-0.2397 -0.0312,-0.28125 -0.19621,-1.07908 -0.36645,-2.24316 -0.53115,-3.1249 -0.14004,-0.71496 -0.79806,-1.3125 -1.5625,-1.3125 -0.39039,0 -0.83078,0.14236 -1.15625,0.46875 -0.79629,0.75446 -1.59422,1.50603 -2.28115,2.15615 -0.0334,0.0256 -0.11668,0.0682 -0.25,0.25 -0.5039,0.68671 -0.30772,1.6472 0.28125,2.1875 -0.2983,0.45788 -0.65738,0.83574 -1.125,1.125 l 0,-8.125 c 0.25184,-0.13015 0.48261,-0.33241 0.625,-0.49995 0.45769,-0.55118 0.75,-1.26447 0.75,-2.0625 0,-1.80019 -1.49765,-3.25 -3.28125,-3.25 -0.0199,0 -0.13194,-0.0148 -0.3125,0 z"
   id="path4874"
   inkscape:connector-curvature="0"
   sodipodi:nodetypes="cscccccccsccsccsccscccscccccccsscc" /><path
   d="M 14.8125 6.78125 C 13.6655 6.89225 12.78125 7.85025 12.78125 9.03125 C 12.78125 9.96925 13.34525 10.779 14.15625 11.125 L 14.15625 21.3125 C 12.45725 21.0075 11.067 19.81075 10.5 18.21875 L 11.0625 18 C 11.1245 17.977 11.193 17.94725 11.25 17.90625 C 11.543 17.68725 11.62625 17.293 11.40625 17 C 11.37325 16.955 11.32225 16.908 11.28125 16.875 L 9 14.71875 C 8.885 14.59175 8.71125 14.53125 8.53125 14.53125 C 8.22425 14.53125 7.9905 14.74025 7.9375 15.03125 L 7.4375 18.125 C 7.4255 18.174 7.40625 18.22925 7.40625 18.28125 C 7.40625 18.64825 7.6955 18.9375 8.0625 18.9375 C 8.1305 18.9375 8.22125 18.9565 8.28125 18.9375 L 8.8125 18.75 C 9.6675 21.35 12.112 23.21875 15 23.21875 C 17.888 23.21875 20.3325 21.353 21.1875 18.75 L 21.71875 18.9375 C 21.78075 18.9575 21.8675 18.9375 21.9375 18.9375 C 22.3025 18.9375 22.59375 18.64825 22.59375 18.28125 C 22.59275 18.22825 22.5745 18.174 22.5625 18.125 L 22.0625 15.03125 C 22.0055 14.74025 21.76875 14.53125 21.46875 14.53125 C 21.28475 14.53125 21.119 14.59175 21 14.71875 L 18.71875 16.875 C 18.68175 16.908 18.62675 16.955 18.59375 17 C 18.37875 17.293 18.457 17.68725 18.75 17.90625 C 18.809 17.94725 18.8765 17.976 18.9375 18 L 19.5 18.21875 C 18.947 19.78275 17.5995 20.95125 15.9375 21.28125 L 15.9375 11.125 C 16.2705 10.983 16.55325 10.74175 16.78125 10.46875 C 17.10925 10.07375 17.3125 9.58425 17.3125 9.03125 C 17.3125 7.77525 16.28725 6.78125 15.03125 6.78125 C 14.95725 6.78125 14.8855 6.77525 14.8125 6.78125 z M 15.03125 8.09375 C 15.54925 8.09375 15.96875 8.51325 15.96875 9.03125 C 15.96875 9.54525 15.54925 9.96875 15.03125 9.96875 C 14.95425 9.96875 14.8845 9.9555 14.8125 9.9375 C 14.4075 9.8355 14.125 9.46825 14.125 9.03125 C 14.125 8.59225 14.4075 8.25725 14.8125 8.15625 C 14.8855 8.13825 14.95425 8.09375 15.03125 8.09375 z "
   transform="translate(-291,381)"
   id="path4335"
   style="stroke:none;fill:#c4d0e4;fill-opacity:1" />

</svg>