<?xml version="1.0" encoding="UTF-8" standalone="no"?>
<!-- Generator: Adobe Illustrator 15.0.1, SVG Export Plug-In . SVG Version: 6.00 Build 0)  -->

<svg
   xmlns:dc="http://purl.org/dc/elements/1.1/"
   xmlns:cc="http://creativecommons.org/ns#"
   xmlns:rdf="http://www.w3.org/1999/02/22-rdf-syntax-ns#"
   xmlns:svg="http://www.w3.org/2000/svg"
   xmlns="http://www.w3.org/2000/svg"
   xmlns:sodipodi="http://sodipodi.sourceforge.net/DTD/sodipodi-0.dtd"
   xmlns:inkscape="http://www.inkscape.org/namespaces/inkscape"
   version="1.1"
   id="Layer_1"
   x="0px"
   y="0px"
   width="30px"
   height="30px"
   viewBox="0 0 30 30"
   enable-background="new 0 0 30 30"
   xml:space="preserve"
   inkscape:version="0.48.3.1 r9886"
   sodipodi:docname="POIInv.svg"><metadata
   id="metadata3042"><rdf:RDF><cc:Work
       rdf:about=""><dc:format>image/svg+xml</dc:format><dc:type
         rdf:resource="http://purl.org/dc/dcmitype/StillImage" /><dc:title></dc:title></cc:Work></rdf:RDF></metadata><defs
   id="defs3040" /><sodipodi:namedview
   pagecolor="#ffffff"
   bordercolor="#666666"
   borderopacity="1"
   objecttolerance="10"
   gridtolerance="10"
   guidetolerance="10"
   inkscape:pageopacity="0"
   inkscape:pageshadow="2"
   inkscape:window-width="1920"
   inkscape:window-height="1056"
   id="namedview3038"
   showgrid="false"
   inkscape:zoom="7.8666667"
   inkscape:cx="-7.3728814"
   inkscape:cy="15"
   inkscape:window-x="0"
   inkscape:window-y="24"
   inkscape:window-maximized="1"
   inkscape:current-layer="Layer_1" />
<g
   id="g3063"
   style="stroke:#ffffff;stroke-opacity:1;fill:none;stroke-width:2.70000000000000018;stroke-miterlimit:4;stroke-dasharray:none">
	<path
   id="path3065"
   d="M19.5,15.002c-3.56,0.164-4.332,0.939-4.499,4.498C15.322,17.47,17.47,15.324,19.5,15.002z"
   fill="#40423D"
   style="stroke:#ffffff;stroke-opacity:1;fill:none;stroke-width:2.70000000000000018;stroke-miterlimit:4;stroke-dasharray:none" />
	<path
   id="path3067"
   d="M19.5,15.002c-2.032-0.321-4.179-2.471-4.5-4.502C15.167,14.062,15.94,14.836,19.5,15.002z"
   fill="#40423D"
   style="stroke:#ffffff;stroke-opacity:1;fill:none;stroke-width:2.70000000000000018;stroke-miterlimit:4;stroke-dasharray:none" />
	<path
   id="path3069"
   d="M10.5,14.999c3.56-0.166,4.333-0.938,4.5-4.499C14.679,12.53,12.531,14.677,10.5,14.999z"
   fill="#40423D"
   style="stroke:#ffffff;stroke-opacity:1;fill:none;stroke-width:2.70000000000000018;stroke-miterlimit:4;stroke-dasharray:none" />
	<path
   id="path3071"
   d="M15.001,19.5c-0.166-3.56-0.939-4.333-4.501-4.501C12.531,15.32,14.679,17.47,15.001,19.5z"
   fill="#40423D"
   style="stroke:#ffffff;stroke-opacity:1;fill:none;stroke-width:2.70000000000000018;stroke-miterlimit:4;stroke-dasharray:none" />
</g><g
   id="g3028"
   style="fill:#000000;fill-opacity:1">
	<path
   fill="#40423D"
   d="M19.5,15.002c-3.56,0.164-4.332,0.939-4.499,4.498C15.322,17.47,17.47,15.324,19.5,15.002z"
   id="path3030"
   style="fill:#000000;fill-opacity:1" />
	<path
   fill="#40423D"
   d="M19.5,15.002c-2.032-0.321-4.179-2.471-4.5-4.502C15.167,14.062,15.94,14.836,19.5,15.002z"
   id="path3032"
   style="fill:#000000;fill-opacity:1" />
	<path
   fill="#40423D"
   d="M10.5,14.999c3.56-0.166,4.333-0.938,4.5-4.499C14.679,12.53,12.531,14.677,10.5,14.999z"
   id="path3034"
   style="fill:#000000;fill-opacity:1" />
	<path
   fill="#40423D"
   d="M15.001,19.5c-0.166-3.56-0.939-4.333-4.501-4.501C12.531,15.32,14.679,17.47,15.001,19.5z"
   id="path3036"
   style="fill:#000000;fill-opacity:1" />
</g>
</svg>