<?xml version="1.0" encoding="UTF-8" standalone="no"?>
<!-- Generator: Adobe Illustrator 14.0.0, SVG Export Plug-In . SVG Version: 6.00 Build 43363)  -->

<svg
   xmlns:dc="http://purl.org/dc/elements/1.1/"
   xmlns:cc="http://creativecommons.org/ns#"
   xmlns:rdf="http://www.w3.org/1999/02/22-rdf-syntax-ns#"
   xmlns:svg="http://www.w3.org/2000/svg"
   xmlns="http://www.w3.org/2000/svg"
   xmlns:sodipodi="http://sodipodi.sourceforge.net/DTD/sodipodi-0.dtd"
   xmlns:inkscape="http://www.inkscape.org/namespaces/inkscape"
   version="1.1"
   id="Layer_1"
   x="0px"
   y="0px"
   width="30px"
   height="30px"
   viewBox="-291 381 30 30"
   enable-background="new -291 381 30 30"
   xml:space="preserve"
   inkscape:version="0.48.2 r9819"
   sodipodi:docname="rest-area-hyb.svg"><metadata
   id="metadata11"><rdf:RDF><cc:Work
       rdf:about=""><dc:format>image/svg+xml</dc:format><dc:type
         rdf:resource="http://purl.org/dc/dcmitype/StillImage" /><dc:title></dc:title></cc:Work></rdf:RDF></metadata><defs
   id="defs9" /><sodipodi:namedview
   pagecolor="#000000"
   bordercolor="#666666"
   borderopacity="1"
   objecttolerance="10"
   gridtolerance="10"
   guidetolerance="10"
   inkscape:pageopacity="0"
   inkscape:pageshadow="2"
   inkscape:window-width="1452"
   inkscape:window-height="1170"
   id="namedview7"
   showgrid="false"
   inkscape:zoom="1"
   inkscape:cx="-15.802579"
   inkscape:cy="15.000878"
   inkscape:window-x="73"
   inkscape:window-y="24"
   inkscape:window-maximized="0"
   inkscape:current-layer="Layer_1" />


<polygon
   style="fill:none;stroke:#000000;stroke-width:2.5;stroke-miterlimit:4;stroke-opacity:1;stroke-dasharray:none;opacity:1;stroke-linecap:butt"
   points="-282.788,395.455 -282.788,397.19 -280.278,397.19 -281.751,400.851 -279.688,400.851 -278.214,397.19 -276.288,397.19 -276.288,395.455 -277.638,395.455 -276.599,392.888 -276.288,392.888 -276.288,391.149 -280.503,391.149 -280.503,392.888 -278.536,392.888 -279.571,395.455 "
   id="polygon3-6" /><polygon
   style="fill:none;stroke:#000000;stroke-width:2.5;stroke-miterlimit:4;stroke-opacity:1;stroke-dasharray:none;opacity:1;stroke-linecap:butt"
   points="-271.491,391.149 -277.218,391.149 -276.599,392.888 -275.675,392.888 -274.638,395.455 -276.765,395.455 -276.765,397.19 -273.804,397.19 -272.317,400.851 -270.256,400.851 -271.742,397.19 -269.212,397.19 -269.212,395.455 -272.446,395.455 -273.483,392.888 -271.491,392.888 "
   id="polygon5-8" /><polygon
   points="-276.288,391.149 -280.503,391.149 -280.503,392.888 -278.536,392.888 -279.571,395.455 -282.788,395.455 -282.788,397.19 -280.278,397.19 -281.751,400.851 -279.688,400.851 -278.214,397.19 -276.288,397.19 -276.288,395.455 -277.638,395.455 -276.599,392.888 -276.288,392.888 "
   id="polygon3"
   style="fill:#ffffff;fill-opacity:1" /><polygon
   points="-271.742,397.19 -269.212,397.19 -269.212,395.455 -272.446,395.455 -273.483,392.888 -271.491,392.888 -271.491,391.149 -277.218,391.149 -276.599,392.888 -275.675,392.888 -274.638,395.455 -276.765,395.455 -276.765,397.19 -273.804,397.19 -272.317,400.851 -270.256,400.851 "
   id="polygon5"
   style="fill:#ffffff;fill-opacity:1" /></svg>