<?xml version="1.0" encoding="UTF-8" standalone="no"?>
<!-- Generator: Adobe Illustrator 12.0.0, SVG Export Plug-In . SVG Version: 6.00 Build 51448)  -->

<svg
   xmlns:dc="http://purl.org/dc/elements/1.1/"
   xmlns:cc="http://creativecommons.org/ns#"
   xmlns:rdf="http://www.w3.org/1999/02/22-rdf-syntax-ns#"
   xmlns:svg="http://www.w3.org/2000/svg"
   xmlns="http://www.w3.org/2000/svg"
   xmlns:sodipodi="http://sodipodi.sourceforge.net/DTD/sodipodi-0.dtd"
   xmlns:inkscape="http://www.inkscape.org/namespaces/inkscape"
   id="Layer_1"
   xml:space="preserve"
   height="22.066296"
   width="22.56572"
   version="1.1"
   overflow="visible"
   viewBox="0 0 22.565719 22.06648"
   enable-background="new 0 0 450.23 600.225"
   inkscape:version="0.48.3.1 r9886"
   sodipodi:docname="shield_hwy_abcn1.svg"
   style="overflow:visible"><metadata
   id="metadata6718"><rdf:RDF><cc:Work
       rdf:about=""><dc:format>image/svg+xml</dc:format><dc:type
         rdf:resource="http://purl.org/dc/dcmitype/StillImage" /><dc:title></dc:title></cc:Work></rdf:RDF></metadata><defs
   id="defs6716">
	
	
</defs><sodipodi:namedview
   pagecolor="#ffffff"
   bordercolor="#666666"
   borderopacity="1"
   objecttolerance="10"
   gridtolerance="10"
   guidetolerance="10"
   inkscape:pageopacity="0"
   inkscape:pageshadow="2"
   inkscape:window-width="1135"
   inkscape:window-height="866"
   id="namedview6714"
   showgrid="false"
   inkscape:zoom="15"
   inkscape:cx="7.7495837"
   inkscape:cy="12.683394"
   inkscape:window-x="530"
   inkscape:window-y="261"
   inkscape:window-maximized="0"
   inkscape:current-layer="Layer_1"
   fit-margin-top="0"
   fit-margin-left="0"
   fit-margin-right="0"
   fit-margin-bottom="0" />

<path
   style="fill:#ffffff;fill-opacity:1;stroke:#000000;stroke-width:0.78692138;stroke-miterlimit:4;stroke-opacity:1;stroke-dasharray:none"
   sodipodi:nodetypes="cccccccc"
   inkscape:connector-curvature="0"
   id="path6706"
   d="m 22.157154,14.219692 0,-13.82623131 -21.74883459,0 0,13.82623131 c 0,0 -0.3109278,2.310521 1.90282819,3.39183 l 8.9718484,4.061498 8.971849,-4.061498 c 2.213341,-1.081465 1.902569,-3.391986 1.902569,-3.391986" />


<path
   inkscape:connector-curvature="0"
   style="fill:#000000;fill-rule:evenodd;overflow:visible"
   d="m 16.220328,13.139673 c -0.05277,-0.01358 -0.09692,0.03978 -0.07733,0.08925 l 0.02948,0.07276 c 0.0049,0.01358 0.01472,0.02425 0.02693,0.03201 l 0.109222,0.06985 c 0.0049,0 0.0073,0 0.01225,0 l 0.51153,0.204701 c 0.04903,0.01843 0.101805,-0.02425 0.08958,-0.07761 l -0.04173,-0.205962 c -0.0062,-0.02425 -0.02575,-0.04657 -0.05031,-0.05336 l -0.609629,-0.137266 m -0.6085,1.565621 c 0.01231,-0.03007 0,-0.065 -0.02697,-0.08149 l -0.197505,-0.116514 c -0.02823,-0.01649 -0.06503,-0.01067 -0.08707,0.01455 l -0.222093,0.279499 c -0.0061,0.01067 -0.01225,0.01843 -0.01345,0.03104 l -0.06383,0.353133 c -0.0049,0.03104 0.0098,0.05821 0.03682,0.07276 l 0.30302,0.148238 c 0.03927,0.02134 0.08831,0 0.0957,-0.04851 l 0.0601,-0.357887 c 0.0013,0 0.0024,-0.01067 0.0037,-0.01455 l 0.111598,-0.278334 M 14.604753,9.725243 c 0,0 0,0 0.0013,0.010672 l 0.07241,0.2280811 c 0.0013,0 0.0037,0.01067 0.0048,0.01067 l 0.105548,0.2121709 c 0.0013,0 0.0013,0 0.0024,0.01067 l 0.130048,0.203537 c 0.0013,0 0.0037,0.01067 0.0061,0.01067 l 0.154609,0.188791 c 0.0024,0 0.0049,0 0.0061,0 l 0.171726,0.162984 c 0.0013,0 0.0038,0 0.0049,0 l 0.188932,0.148432 c 0.0013,0 0.0037,0 0.0048,0 l 0.180358,0.111567 c 0.02083,0.01358 0.05031,0.01358 0.07113,0 l 0.452647,-0.277074 c 0.02089,-0.01358 0.0491,-0.01358 0.07113,0 l 0.198719,0.122627 c 0.01717,0.01067 0.03808,0.01164 0.05645,0 l 1.041483,-0.376417 c 0.01598,0 0.02821,-0.01455 0.03682,-0.03007 l 0.375343,-0.6792963 c 0.0062,-0.010671 0.01472,-0.018433 0.02456,-0.024254 L 18.1584,9.6424892 c 0.04174,-0.024254 0.09572,0 0.100645,0.050447 l 0.03308,0.2623272 c 0.0061,0.04754 0.06135,0.0747 0.103085,0.04657 l 1.394754,-0.9169822 c 0.04165,-0.026194 0.09938,0 0.10421,0.048507 l 0.05158,0.4585881 c 0.0024,0.024253 -0.0086,0.048507 -0.02821,0.064029 l -0.894285,0.6239971 c -0.0024,0 -0.0024,0 -0.0038,0 l -0.910188,0.717326 c -0.0037,0 -0.0098,0.01067 -0.01472,0.01067 l -1.014543,0.434043 c -0.03433,0.01455 -0.05022,0.0553 -0.03433,0.08925 l 0.133697,0.280663 c 0.01723,0.03396 0.0024,0.0747 -0.03189,0.09022 l -0.267396,0.125051 c -0.0221,0.01067 -0.0442,0.01067 -0.06256,0 l -0.06137,-0.03493 c -0.02329,-0.01261 -0.04903,-0.01261 -0.06986,0 l -0.27846,0.17288 c -0.0601,0.03687 -0.02823,0.129999 0.04293,0.123791 l 0.409692,-0.03881 c 0.0442,0 0.07973,0.03492 0.07241,0.07858 l -0.02337,0.121462 c -0.01092,0.05724 0.05645,0.100411 0.105568,0.06597 l 0.127502,-0.09022 c 0.01964,-0.01552 0.04665,-0.01746 0.06875,-0.01067 l 0.355734,0.181416 c 0.05031,0.02522 0.05031,0.09711 -0.0013,0.121463 l -0.105547,0.04851 c -0.04657,0.02328 -0.05152,0.08925 -0.0073,0.117679 l 0.818199,0.532125 c 0.01598,0.01067 0.03681,0.01358 0.05518,0.01067 l 0.684502,-0.208387 c 0.04301,-0.01455 0.08713,0.01843 0.08713,0.06403 l 0,0.378842 c 0,0.03104 -0.01964,0.05724 -0.04785,0.06597 l -0.464871,0.128738 c -0.03808,0.01067 -0.05891,0.04754 -0.04785,0.08537 l 0.225657,0.681722 c 0.0086,0.02522 0.0014,0.0553 -0.01962,0.07373 l -0.388867,0.3347 c -0.03555,0.03201 -0.09199,0.01552 -0.106706,-0.03007 l -0.07852,-0.239044 c -0.01225,-0.03687 -0.05645,-0.0553 -0.09199,-0.03783 l -0.174217,0.08052 c -0.04414,0.02231 -0.09565,-0.01067 -0.09565,-0.05918 l 0,-0.55182 c 0,-0.03686 -0.0307,-0.06597 -0.06748,-0.06597 l -0.174189,0 c -0.04662,0 -0.07851,0.0456 -0.06256,0.08925 l 0.129991,0.361573 c 0.01717,0.05045 -0.02575,0.100507 -0.07728,0.08828 l -0.283382,-0.05627 c -0.03186,-0.01067 -0.05518,-0.03395 -0.05518,-0.06597 l 0,-0.3347 c 0,-0.04269 -0.03806,-0.07373 -0.08099,-0.065 l -0.274722,0.0553 c -0.0098,0 -0.01844,0 -0.02948,0 l -0.307887,-0.07082 c -0.0038,0 -0.0098,0 -0.0135,0 l -0.165587,0 c -0.03562,0 -0.06503,0.02619 -0.06748,0.06306 l -0.05399,0.70258 c -0.0013,0.01067 -0.0037,0.01358 -0.0061,0.02037 l -0.126398,0.31132 c -0.0024,0 -0.0049,0.01067 -0.0073,0.01358 l -0.279731,0.403289 c -0.01964,0.03008 -0.01352,0.07082 0.01596,0.09216 l 0.207324,0.151925 c 0.03927,0.02619 0.038,0.08149 -0.0014,0.109336 l -0.377804,0.262328 c -0.02451,0.01746 -0.05645,0.01552 -0.07974,0 l -0.610904,-0.496619 c -0.04412,-0.03492 -0.109134,0 -0.109134,0.05336 l 0,0.351872 c 0,0.01067 0.0013,0.01649 0.0049,0.02522 l 0.109189,0.263685 c 0.01225,0.03104 0,0.06597 -0.02699,0.08343 l -0.186441,0.112828 c -0.03559,0.02134 -0.08217,0 -0.09688,-0.03493 l -0.179168,-0.501372 c -0.0037,-0.01067 -0.0049,-0.01455 -0.0049,-0.02231 l 0,-0.826371 c 0,-0.02037 -0.0086,-0.03783 -0.02456,-0.04948 l -0.09442,-0.08246 c -0.02821,-0.02231 -0.06748,-0.02134 -0.09324,0 l -0.320194,0.334701 c -0.0037,0 -0.0086,0.01067 -0.01104,0.01552 l -0.176651,0.351872 c -0.0086,0.01746 -0.0098,0.03493 -0.0024,0.05336 l 0.184036,0.522327 0.18893,0.544349 c 0.0037,0.01067 0.0073,0.01455 0.01225,0.0194 l 0.08092,0.101574 c 0.02702,0.03395 0.01596,0.08537 -0.02451,0.102642 l -0.430577,0.199849 c -0.03189,0.01358 -0.0687,0 -0.08707,-0.02619 l -0.304293,-0.513789 c -0.0073,-0.01067 -0.0097,-0.02231 -0.0097,-0.03395 l 0,-0.385051 c 0,-0.01067 0.0013,-0.01067 0.0024,-0.01746 l 0.198714,-0.713536 c 0.0013,0 0.0013,0 0.0024,-0.01067 l 0.10421,-0.250005 c 0.01231,-0.02619 0.0038,-0.06015 -0.02083,-0.07858 l -0.10549,-0.08149 c -0.01842,-0.01358 -0.04293,-0.01649 -0.0662,-0.01067 l -0.664923,0.269797 c -0.02942,0.01164 -0.0466,0.04172 -0.04048,0.07373 l 0.115361,0.719655 c 0.0013,0.01067 0,0.02425 -0.0049,0.03492 l -0.195073,0.462274 0,0 -0.446506,1.229564 0.333693,-1.230825 c 0.0013,-0.01067 0.0024,-0.01067 0.0024,-0.01746 l 0,-0.357984 c 0,-0.01455 -0.0037,-0.02619 -0.01225,-0.03784 l -0.377834,-0.532126 c -0.02456,-0.03396 -0.07482,-0.03687 -0.103031,-0.01067 l -0.28703,0.299291 c -0.02091,0.02328 -0.05523,0.02619 -0.0822,0.01067 L 11.382997,15.97665 c -0.03308,-0.02037 -0.04165,-0.06112 -0.0221,-0.09313 l 0.201212,-0.318692 c 0.01468,-0.02231 0.01468,-0.04948 0.0013,-0.07082 l -0.127338,-0.207112 c -0.01596,-0.02522 -0.04785,-0.0388 -0.07605,-0.03104 l -0.131236,0.03978 c -0.02823,0.01067 -0.04907,0.03395 -0.04907,0.06403 l 0,0.845967 c 0,0.0194 0.0086,0.03783 0.02451,0.05142 l 0.164369,0.136112 c 0.0037,0 0.0074,0.01067 0.0098,0.01067 l 0.01717,0.02134 c 0.01717,0.02425 0.04906,0.03299 0.07728,0.02328 l 0.723776,-0.273483 c 0.04657,-0.01843 0.09688,0.02231 0.08949,0.07373 l -0.05397,0.377581 c -0.0037,0.02522 -0.0221,0.04657 -0.04414,0.05433 l -0.328768,0.111664 c -0.04174,0.01455 -0.05889,0.06112 -0.0356,0.09828 l 0.127586,0.209649 c 0.0074,0.01455 0.01231,0.03299 0.0074,0.05045 l -0.105492,0.468387 c -0.01106,0.04948 -0.07116,0.06985 -0.109221,0.03783 l -0.39866,-0.344495 c -0.0024,0 -0.0049,0 -0.0086,-0.01067 l -0.193798,-0.236716 c -0.0024,0 -0.0049,0 -0.0074,-0.01067 l -0.131264,-0.236716 c -0.0013,0 -0.0013,0 -0.0024,0 l -0.185225,-0.389999 c -0.0049,-0.01067 -0.0074,-0.0194 -0.0074,-0.03007 l 0,-0.05821 c 0,-0.06306 -0.07852,-0.09022 -0.117725,-0.04269 l -0.153334,0.18394 c -0.0098,0.01261 -0.01597,0.02619 -0.01597,0.04269 l 0,0.266014 c 0,0.02328 -0.01225,0.0456 -0.03188,0.05724 l -0.191407,0.114089 c -0.038,0.02231 -0.08459,0 -0.09938,-0.03687 L 10.08905,16.589039 c -0.0037,-0.01067 -0.0037,-0.02134 -0.0013,-0.03104 l 0.06136,-0.44879 c 0.0013,-0.01067 0.0013,-0.02134 -0.0024,-0.03007 l -0.081,-0.248842 c -0.01591,-0.04657 -0.073615,-0.06112 -0.1091568,-0.02716 l -0.3986873,0.371468 c -0.00863,0.01067 -0.014746,0.01746 -0.018403,0.0291 l -0.2134341,0.649804 0.2931713,-1.80098 c 0.00611,-0.03395 -0.017171,-0.06694 -0.051514,-0.07567 l -0.1889166,-0.04463 c -0.028212,0 -0.055201,0 -0.069909,0.02619 l -0.3214249,0.457327 c -0.025757,0.03492 -0.078495,0.03783 -0.1054918,0 l -0.1717411,-0.202275 0.00863,-0.01067 c 0.04905,-0.05821 -0.0221,-0.138634 -0.087079,-0.10041 l -0.9175683,0.556655 c -0.047819,0.02716 -0.1079485,-0.01067 -0.1017937,-0.06597 l 0.049051,-0.448693 c 0.00246,-0.0194 0.01351,-0.0359 0.030673,-0.04851 l 0.4845501,-0.317529 c 0.065022,-0.04269 0.020854,-0.140962 -0.052744,-0.121268 l -0.3079141,0.07955 c -0.042925,0.01261 -0.084647,-0.0194 -0.084647,-0.06403 l 0,-0.07761 c 0,-0.02425 0.013496,-0.0456 0.033134,-0.05821 l 0.096898,-0.05724 c 0.058869,-0.03395 0.03312,-0.123791 -0.035566,-0.123791 l -0.4060441,0 c -0.025748,0 -0.049079,0.01358 -0.060101,0.03686 l -0.1570265,0.315004 c -0.00123,0 -0.00123,0 -0.00246,0 l -0.1422852,0.36526 c -0.00123,0 -0.00123,0 -0.00246,0.01067 l -0.1079485,0.375156 0,0 -0.084633,0.381267 0,0 -0.058897,0.391065 c 0,0 0,0 0,0.01067 l -0.015944,0.389902 c 0,0 0,0 0,0.01067 l 0.00736,0.391065 0,0 0.034351,0.389903 0,0.01067 0.07606,0.381268 0,0 0.062562,0.263588 c 0.013483,0.05142 -0.038029,0.09711 -0.088311,0.07858 L 6.2838671,17.931807 c -0.00122,0 -0.00122,0 -0.00247,0 L 5.5834224,17.62039 c -0.00123,0 -0.00123,0 -0.00246,0 l -1.250039,-0.613035 c -0.023287,-0.01067 -0.051512,-0.01067 -0.07115,0.01067 l -0.136159,0.112828 c -0.015944,0.01358 -0.038002,0.01843 -0.05887,0.01358 l -0.231841,-0.05821 c -0.00246,0 -0.00616,0 -0.00859,0 l -0.2514917,-0.09934 c -0.00367,0 -0.00736,0 -0.00982,0 L 3.3336233,16.848348 c -0.00122,0 -0.00489,0 -0.00612,0 l -0.212234,-0.162985 c -0.00246,0 -0.00612,0 -0.00735,-0.01067 L 2.9227059,16.488424 c -0.00247,0 -0.00617,-0.01067 -0.00739,-0.01067 L 2.773028,16.276641 c -0.00982,-0.01455 -0.014714,-0.03299 -0.012281,-0.04948 l 0.065024,-0.38379 0,0 0.092004,-0.409498 c 0,0 0,0 0.00246,0 l 0.1238928,-0.392425 c 0,0 0,0 0.00122,0 l 0.149642,-0.392327 c 0.00122,0 0.00122,0 0.00246,0 L 3.3716526,14.27513 c 0.00123,0 0.00123,0 0.00367,0 l 0.2060779,-0.366619 c 0.00123,0 0.00123,0 0.00371,-0.01067 l 0.2330577,-0.340909 c 0.00123,0 0.00123,0 0.0037,0 L 4.0794723,13.23203 c 0.00122,0 0.00122,0 0.00246,0 l 0.2759966,-0.308991 c 0.00122,0 0.00122,0 0.00246,0 l 0.301774,-0.293082 c 0.00125,0 0.00243,0 0.00367,0 l 0.3250756,-0.268536 -0.2404146,0.06597 c -0.00123,0 -0.00492,0 -0.00612,0 l -0.2453523,0.04172 c -0.00246,0 -0.00616,0 -0.00858,0 l -0.2453523,0.01067 c -0.00246,0 -0.00612,0 -0.00859,0 L 3.991158,12.454555 c -0.00123,0 -0.00488,0 -0.00611,0 l -0.2367644,-0.04851 c -0.00246,0 -0.00489,0 -0.00859,0 l -0.2294077,-0.08052 c -0.00122,0 -0.00367,0 -0.00612,0 L 3.2759893,12.218422 c -0.00243,0 -0.00489,0 -0.00859,0 l -0.203612,-0.129999 c -0.00122,0 -0.0037,0 -0.00612,-0.01067 l -0.187714,-0.155709 c -0.00119,0 -0.00489,0 -0.00612,0 L 2.69332,11.750424 c -0.00246,0 -0.00492,0 -0.00611,-0.01067 l -0.053974,-0.07373 c -0.035583,-0.04657 0.00242,-0.113992 0.061318,-0.107007 l 0.1950425,0.02328 c 0.00122,0 0.00492,0 0.00612,0 l 0.3484053,0.01649 c 0.00123,0 0.00366,0 0.00488,0 l 0.356993,-0.01649 c 0.00122,0 0.00367,0 0.00612,0 l 0.3459435,-0.05045 c 0.00367,0 0.00612,0 0.00859,0 l 0.3397895,-0.09119 c 0.00122,0 0.0037,0 0.00611,0 L 4.642561,11.325501 c 0.00246,0 0.00489,0 0.00612,0 L 4.9725257,11.1858 c 0.00122,0 0.00492,0 0.00616,0 L 5.284125,11.011755 c 0.00123,0 0.00367,0 0.00489,0 l 0.2895068,-0.208486 c 0.00246,0 0.00492,0 0.00612,0 l 0.2649754,-0.232835 c 0.00246,0 0.00246,0 0.0037,0 L 6.094977,10.320331 c 0.00246,0 0.00246,0 0.00367,0 l 0.2220509,-0.272223 c 0.00123,0 0.00367,0 0.00489,-0.01067 l 0.191358,-0.297934 c 0.00122,0 0.00122,0 0.00246,-0.010671 L 6.6862275,9.4124685 6.9389366,8.9244846 c 0.00122,0 0.00122,0 0.00246,0 L 7.2173971,8.4573591 c 0.00123,0 0.00123,0 0.00246,0 L 7.5277614,8.0135173 c 0.00123,0 0.00123,0 0.00246,0 L 7.8749383,7.5855858 c 0.0012,0 0.0012,0 0.00243,0 l 0.368,-0.4008644 c 0.00123,0 0.00123,0 0.00246,0 L 8.640403,6.7996704 c 0.00122,0 0.00122,0 0.00366,0 L 9.0636149,6.4489625 c 0.00126,0 0.00126,0 0.00243,0 l 0.435485,-0.31879 c 0.00126,0 0.00126,0 0.00243,0 L 9.9664019,5.8371884 11.975781,4.6258638 c 0.0049,0 0.0086,0 0.0135,-0.010671 l 0.126311,-0.043656 c 0.0062,0 0.01225,0 0.01598,-0.010671 l 0.115248,-0.077612 c 0.0038,0 0.0062,0 0.0086,-0.010672 l 0.09697,-0.089254 c 0.0061,0 0.01092,-0.010671 0.01472,-0.016492 l 0.0662,-0.1189399 c 0.0024,0 0.0049,-0.010671 0.0049,-0.013582 l 0.038,-0.126216 c 0.0014,-0.010672 0.0037,-0.011642 0.0074,-0.018433 l 0.09323,-0.139701 c 0.0013,0 0.0049,-0.010671 0.0062,-0.010671 l 0.07113,-0.1594921 c 0.0013,0 0.0013,-0.010671 0.0024,-0.010671 l 0.05025,-0.172783 0.06503,-0.2477754 c 0.0024,0 0.0024,-0.010672 0.0038,-0.010672 L 12.87372,3.108557 c 0.0014,0 0.0014,0 0.0025,-0.010672 l 0.125097,-0.2208052 c 0.0013,0 0.0024,0 0.0037,-0.010671 L 13.15111,2.6628709 c 0.0013,0 0.0037,-0.010671 0.0049,-0.010671 l 0.171787,-0.180254 c 0.0013,0 0.0037,0 0.0049,0 l 0.196258,-0.1629845 c 0.0024,0 0.0049,0 0.0086,-0.010671 l 0.212246,-0.1311641 c 0.0013,0 0.0048,0 0.0061,0 l 0.229422,-0.1070071 c 0.0013,0 0.0037,0 0.0061,0 l 0.237939,-0.081492 c 0.0024,0 0.0062,0 0.0086,0 l 0.245296,-0.048507 c 0.0013,0 0.0037,0 0.0062,0 l 0.253954,-0.025224 c 0.0024,0 0.0049,0 0.0086,0 l 0.242863,0.010671 c 0.0037,0 0.0061,0 0.0086,0 l 0.253898,0.041716 c 0.0038,0 0.0062,0 0.0086,0 l 0.236751,0.073732 c 0.0024,0 0.0049,0 0.0061,0 l 0.219547,0.095074 c 0.0086,0 0.01717,0.010671 0.02702,0.010671 l 0.328795,0 c 0.0024,0 0.0049,0 0.0086,0 l 0.331174,-0.042686 c 0.0013,0 0.0013,0 0.0024,0 l 0.32758,-0.058208 -0.02455,-0.010672 0.434255,-0.06112 c 0.0013,0 0.0049,0 0.0061,0 l 0.44897,-0.024253 c 0.0014,0 0.0049,0 0.0062,0 l 0.4441,0.017463 c 0.0013,0 0.0013,0 0.0024,0 l 0.441584,0.041716 c 0.0024,0 0.0049,0 0.0061,0 l 0.155797,0.030074 c 0.06995,0.014552 0.07362,0.1128281 0.0062,0.1311639 L 17.18578,2.5819606 c -0.0014,0 -0.0014,0 -0.0038,0 l -0.214623,0.073731 c -0.0014,0 -0.0049,0 -0.0062,0 l -0.201182,0.088284 c -0.0038,0 -0.0074,0 -0.0098,0.010672 l -0.186411,0.1226265 c -0.0024,0 -0.0049,0 -0.0062,0 l -0.03189,0.025224 c -0.04785,0.037835 -0.02208,0.1165145 0.04046,0.1176787 l 0.150957,0 c 0.0013,0 0.0049,0 0.0061,0 l 0.331173,-0.025224 c 0.0014,0 0.0038,0 0.0049,0 l 0.332447,-0.049477 c 0.0013,0 0.0049,0 0.0061,0 l 0.323844,-0.084403 c 0.0014,0 0.0014,0 0.0024,0 l 0.323844,-0.099343 c 0.0038,0 0.0062,0 0.0074,0 l 0.305425,-0.1335892 c 0.0014,0 0.0038,0 0.0062,0 l 0.291901,-0.1580375 -0.240402,0.258641 c -0.0024,0 -0.0049,0 -0.0061,0 l -0.265018,0.2242978 c -0.0024,0 -0.0037,0 -0.0049,0 l -0.289493,0.2084844 c -0.0014,0 -0.0049,0 -0.0062,0 l -0.30667,0.1740442 c -0.0013,0 -0.0037,0 -0.0049,0 l -0.314053,0.1483354 c -0.0013,0 -0.0049,0 -0.0062,0 l -0.332417,0.1152534 c -0.0014,0 -0.0037,0 -0.0062,0 l -0.348406,0.084403 c -0.0024,0 -0.0024,0 -0.0037,0 l -0.204862,0.056269 c -0.0038,0 -0.0062,0 -0.0086,0 l -0.199993,0.088284 c -0.0049,0 -0.0073,0 -0.01104,0 l -0.175378,0.1213652 c -0.0038,0 -0.0062,0 -0.0086,0.010671 l -0.154522,0.1445518 c -0.0013,0 -0.0049,0 -0.0062,0.010671 L 15.62,4.2845678 c -0.0024,0 -0.0061,0 -0.0073,0.010671 l -0.104299,0.192477 c -0.0013,0 -0.0024,0 -0.0037,0.010671 l -0.07488,0.2047979 0,0 -0.107953,0.365357 c -0.0013,0 -0.0013,0.010671 -0.0037,0.010671 l -0.148411,0.3495437 c -0.0014,0 -0.0014,0 -0.0014,0 l -0.04776,0.1361115 c -0.0014,0 -0.0038,0.010671 -0.0049,0.013582 l -0.01598,0.1385369 c 0,0 0,0.010671 0,0.012612 l 0.0086,0.1397981 c 0,0 0,0.010671 0.0024,0.010671 l 0.03068,0.1385369 c 0.0013,0 0.0037,0.010671 0.0061,0.014552 l 0.0601,0.1226264 c 0.0014,0 0.0038,0.010671 0.0049,0.010671 l 0.07974,0.1104027 c 0.0074,0.010672 0.01225,0.018433 0.0135,0.027164 l 0.04906,0.324999 0,0.010671 0.0074,0.3480885 c 0,0 0,0 0,0.010671 l -0.01599,0.3470213 c 0,0 0,0 -0.0024,0.010671 l -0.05761,0.3382901 c 0,0 0,0 -0.0014,0.010671 l -0.09199,0.3395511 c 0,0 0,0 -0.0013,0 l -0.114144,0.3223796 c -0.0013,0 -0.0013,0.010672 -0.0024,0.010672 l -0.15897,0.3125841 c -0.0013,0 -0.0013,0 -0.0024,0 l -0.182819,0.2917237 c -0.0013,0 -0.0013,0 -0.0024,0 l -0.19261,0.2635885 c -0.0098,0.014552 -0.01472,0.031044 -0.01345,0.047537 l 0.0221,0.2144024 c 0,0 0,0.010672 0.0013,0.010672 l 0.05891,0.2367156 M 8.8941751,11.584043 c 2.105e-4,-2.91e-4 1.7599279,1.081132 -4.17e-5,9.7e-4 M 15.242337,2.4536095 c -0.0037,-0.010671 -0.0098,-0.013582 -0.01717,-0.017462 l -0.04411,-0.033955 c -0.0086,-0.010671 -0.01844,-0.010671 -0.02702,-0.010671 l -0.05645,-0.012612 c -0.0086,0 -0.01717,0 -0.02575,0 l -0.05882,0.012612 c -0.0086,0 -0.01844,0 -0.02702,0.010671 l -0.04414,0.033955 c -0.0074,0 -0.0135,0.010671 -0.01723,0.018433 l -0.02816,0.045597 c -0.0038,0.010671 -0.0074,0.014552 -0.0086,0.022313 l -0.01221,0.058209 c -0.0013,0.010671 -0.0013,0.020373 0,0.030074 l 0.01221,0.051417 c 0.0014,0.010672 0.0038,0.012612 0.0086,0.018433 l 0.02816,0.047537 c 0.0038,0.010671 0.0098,0.013582 0.01723,0.017463 l 0.04414,0.033955 c 0.0086,0.010671 0.01842,0.010671 0.02821,0.013582 l 0.05764,0.010672 c 0.0086,0 0.01717,0 0.02575,0 l 0.05523,-0.010672 c 0.0098,0 0.01964,-0.010671 0.02823,-0.013582 l 0.04411,-0.033955 c 0.0074,0 0.01351,-0.010671 0.01717,-0.017463 l 0.02821,-0.046567 c 0.0049,-0.010672 0.0074,-0.014552 0.0086,-0.022313 l 0.01231,-0.048507 c 0.0013,-0.010671 0.0013,-0.018433 0,-0.030074 l -0.01231,-0.058209 c -0.0013,-0.010671 -0.0049,-0.014552 -0.0086,-0.022313 l -0.02821,-0.046567"
   id="path18501"
   sodipodi:nodetypes="cccccccccccccccccccccccccccccccccccccccccccccccccccccccccccccccccccccccccccccccccccssccccccccccssssccccssccccssccccccccccccssccccccsscccccccccccccccsscccccccccccccccssccccccccccccssccccccccccccccccccccccssccssccccccccscccccccccccccccccccssccssccccccccccccccccccccccccccccccccccccccccccccccccccccccccccccccccccccccccccccccccccccccccccccccccccccccccccccccccccccccccccccccccccccccccccccccccccccccccccccccccccccccccccccccsscccccccccccccccccccccccccscccccccccccccccccccccccccccccccccccccccccccccccccccccccccccccccccccccccccccccccccccccccccccccccccccccccccccccccc" /></svg>