<?xml version="1.0" encoding="UTF-8" standalone="no"?>
<!-- Created with Inkscape (http://www.inkscape.org/) -->

<svg
   xmlns:dc="http://purl.org/dc/elements/1.1/"
   xmlns:cc="http://creativecommons.org/ns#"
   xmlns:rdf="http://www.w3.org/1999/02/22-rdf-syntax-ns#"
   xmlns:svg="http://www.w3.org/2000/svg"
   xmlns="http://www.w3.org/2000/svg"
   xmlns:sodipodi="http://sodipodi.sourceforge.net/DTD/sodipodi-0.dtd"
   xmlns:inkscape="http://www.inkscape.org/namespaces/inkscape"
   version="1.1"
   width="26.979454"
   height="18.916309"
   viewBox="0 0 26.979454 18.91631"
   id="svg2"
   xml:space="preserve"
   inkscape:version="0.48.3.1 r9886"
   sodipodi:docname="shield_hwy_abs3.svg"><sodipodi:namedview
   pagecolor="#ffffff"
   bordercolor="#666666"
   borderopacity="1"
   objecttolerance="10"
   gridtolerance="10"
   guidetolerance="10"
   inkscape:pageopacity="0"
   inkscape:pageshadow="2"
   inkscape:window-width="1446"
   inkscape:window-height="1235"
   id="namedview3096"
   showgrid="false"
   inkscape:zoom="20.293664"
   inkscape:cx="14.570273"
   inkscape:cy="17.051872"
   inkscape:window-x="72"
   inkscape:window-y="27"
   inkscape:window-maximized="0"
   inkscape:current-layer="layer2"
   fit-margin-top="0"
   fit-margin-left="0"
   fit-margin-right="0"
   fit-margin-bottom="0" /><metadata
   id="metadata28"><rdf:RDF><cc:Work
       rdf:about=""><dc:format>image/svg+xml</dc:format><dc:type
         rdf:resource="http://purl.org/dc/dcmitype/StillImage" /><dc:title /></cc:Work></rdf:RDF></metadata><defs
   id="defs26" />
<g
   transform="translate(-2.2828228,-580.5102)"
   id="Semi_Offical"
   style="display:none">
	<path
   d="m 43.097,191.96 59.681,-75.728 v 56.031 l -20.116,-16.035 -8.959,11.584 29.368,24.083 h 15.331 v -120.5 l -92.856,120.57 h 17.553 z m 79.602,-0.065 h 16.047 V 59.635 h -16.047 v 132.26 z m 182.95,-74.772 v -7.816 l -16.063,2.299 v 38.706 l -11.49,0.085 c 0,14.164 -11.49,25.658 -25.666,25.658 -14.16,0 -25.65,-11.494 -25.65,-25.658 0,-14.175 11.49,-25.649 25.65,-25.649 4.354,0 8.445,1.074 12.043,2.991 l -17.267,17.26 10.213,10.216 29.059,-28.974 c -7.543,-10.692 -20.01,-17.658 -34.08,-17.658 -13.867,0 -26.154,6.774 -33.738,17.19 -7.585,-10.339 -19.823,-17.056 -33.625,-17.056 -9.65,0 -18.545,3.284 -25.616,8.789 H 159.37 V 71.532 l -16.031,1.725 v 118.64 h 16.031 v -8.642 c 7.079,5.542 15.981,8.837 25.665,8.837 13.867,0 26.146,-6.771 33.723,-17.187 7.584,10.343 19.822,17.056 33.64,17.056 16.242,0 30.305,-9.281 37.189,-22.83 v 22.708 h 16.063 v -41.51 c 0,0 -0.113,-8.923 5.371,-15.697 4.662,-5.75 9.016,-7.234 9.016,-7.234 v -17.28 c 0,0 -6.885,1.217 -14.41,7.1 l 0.022,-0.095 z m -120.6,58.932 c -7.063,0 -13.443,-2.852 -18.081,-7.45 l -7.601,7.592 V 150.23 l 0.016,0.167 c 0,-14.175 11.507,-25.649 25.666,-25.649 14.176,0 25.649,11.474 25.649,25.649 0.001,14.164 -11.473,25.658 -25.649,25.658 m 165.48,-66.707 h -11.531 l -0.09,-0.024 v -10.29 l -15.875,2.583 v 90.278 h 15.875 v -68.347 l 0.09,-0.016 h 8.09 l 3.441,-14.184 z m 58.672,0 v 7.967 l 0.016,0.269 c -7.072,-5.509 -15.934,-8.784 -25.584,-8.784 -23.037,0 -41.697,18.667 -41.697,41.696 0,23.025 18.66,41.693 41.697,41.693 9.635,0 18.504,-3.288 25.568,-8.785 v 8.492 h 16.063 v -80.244 l -16.063,-2.304 z m 0,41.074 v 25.625 l -7.471,-7.511 c -4.639,4.634 -11.051,7.519 -18.131,7.519 -14.176,0 -25.648,-11.494 -25.648,-25.658 0,-14.175 11.473,-25.649 25.648,-25.649 14.168,0 25.666,11.474 25.666,25.649 l -0.064,0.025 z"
   inkscape:connector-curvature="0"
   id="path5"
   style="fill:#222021" />
	<path
   d="m 35.008,403.46 c 0.31,-73.81 86.022,-131.8 190.4,-131.83 104.37,0.03 190.08,58.02 190.39,131.83 -0.31,73.79 -86.02,131.78 -190.39,131.82 -104.38,-0.04 -190.09,-58.03 -190.4,-131.82 m 6.258,0 c -0.016,34.242 20.189,65.507 53.496,88.422 33.267,22.883 79.504,37.14 130.65,37.14 51.121,0 97.373,-14.257 130.64,-37.14 33.314,-22.915 53.496,-54.18 53.496,-88.422 0,-34.26 -20.182,-65.531 -53.496,-88.423 -33.268,-22.882 -79.52,-37.172 -130.64,-37.156 -51.145,-0.016 -97.382,14.273 -130.65,37.156 C 61.456,337.928 41.25,369.2 41.266,403.46"
   inkscape:connector-curvature="0"
   id="path7"
   style="fill:#222021" />
	<path
   d="m 155.1,389.37 c -2.506,5.069 -4.947,10.619 -7.34,16.665 -2.393,6.046 -4.524,12.499 -6.38,19.376 -1.871,6.884 -3.385,14.11 -4.549,21.654 -1.18,7.551 -1.749,15.404 -1.749,23.574 h -20.39 c 0,-8.049 0.521,-15.836 1.53,-23.404 1.025,-7.551 2.36,-14.77 3.987,-21.646 1.636,-6.884 3.508,-13.386 5.647,-19.514 2.116,-6.12 4.264,-11.751 6.429,-16.878 5.127,-12.141 10.953,-23.225 17.487,-33.241 H 99.655 v -19.685 h 75.411 v 20.637 c -7.479,9.749 -14.119,20.564 -19.962,32.462"
   inkscape:connector-curvature="0"
   id="path9" />
	<path
   d="m 250.13,438.01 v 32.632 H 230.616 V 438.01 h -56.068 v -14.696 l 55.896,-87.039 h 19.686 v 83.1 h 8.396 v 18.636 h -8.396 z m -19.514,-66.223 -30.614,47.588 h 30.442 l 0.172,-47.588 z"
   inkscape:connector-curvature="0"
   id="path11" />
	<path
   d="m 351.17,376.94 c 0,8.576 -0.977,17.211 -2.93,25.9 -1.953,8.691 -4.867,17.162 -8.756,25.414 -3.873,8.252 -8.707,16.112 -14.51,23.615 -5.811,7.494 -12.588,14.322 -20.336,20.523 l -13.475,-15.755 c 7.697,-6.005 14.004,-12.304 18.936,-18.896 4.932,-6.592 8.764,-13.061 11.506,-19.416 -1.871,0.464 -4.287,0.74 -7.25,0.83 -2.994,0.082 -6.168,-0.229 -9.545,-0.969 -3.385,-0.724 -6.779,-1.977 -10.197,-3.751 -3.4,-1.774 -6.492,-4.28 -9.275,-7.486 -2.768,-3.206 -5.021,-7.259 -6.771,-12.157 -1.75,-4.899 -2.637,-10.855 -2.637,-17.854 0,-5.127 0.586,-9.732 1.727,-13.818 1.131,-4.076 2.668,-7.697 4.629,-10.839 1.961,-3.157 4.199,-5.858 6.73,-8.097 2.539,-2.254 5.225,-4.077 8.057,-5.51 2.832,-1.432 5.68,-2.481 8.568,-3.148 2.889,-0.676 5.639,-1.01 8.268,-1.01 4.549,0 9.041,0.871 13.467,2.629 4.443,1.741 8.414,4.41 11.947,7.959 3.531,3.556 6.379,7.975 8.568,13.247 2.189,5.283 3.279,11.476 3.279,18.589 m -20.205,0.528 c 0,-4.842 -0.668,-8.748 -2.01,-11.718 -1.336,-2.986 -2.922,-5.281 -4.736,-6.909 -1.791,-1.644 -3.654,-2.733 -5.551,-3.288 -1.887,-0.553 -3.359,-0.83 -4.41,-0.83 -3.148,0 -5.875,0.604 -8.17,1.791 -2.318,1.204 -4.199,2.832 -5.697,4.898 -1.488,2.067 -2.586,4.477 -3.318,7.227 -0.732,2.734 -1.092,5.68 -1.092,8.829 0,2.97 0.326,5.77 1.002,8.397 0.666,2.629 1.732,4.924 3.197,6.869 1.449,1.944 3.328,3.515 5.631,4.678 2.313,1.172 5.127,1.758 8.447,1.758 1.4,0 3.061,-0.235 4.996,-0.699 1.912,-0.473 3.736,-1.48 5.453,-3.027 1.725,-1.529 3.205,-3.743 4.418,-6.607 1.229,-2.848 1.84,-6.641 1.84,-11.369"
   inkscape:connector-curvature="0"
   id="path13" />
</g>
<g
   id="layer2"
   transform="translate(-2.2828577,-579.51025)"><path
     id="path14"
     style="text-indent:0;text-align:start;text-transform:none;direction:ltr;block-progression:tb;baseline-shift:baseline;color:#000000;fill:#ffffff;fill-opacity:1;fill-rule:nonzero;stroke:#000000;stroke-width:0.766119;stroke-miterlimit:4;stroke-opacity:1;stroke-dasharray:none;enable-background:accumulate"
     d="m 15.77055,579.89331 c -3.588976,0 -6.8482752,1.00162 -9.223531,2.63145 -2.3760139,1.62978 -3.8811018,3.90732 -3.8811018,6.44472 0,2.53895 1.5050183,4.8155 3.8806881,6.44504 2.3755995,1.62946 5.6351077,2.62898 9.2235297,2.62898 3.588905,0 6.849585,-0.99952 9.226289,-2.62898 2.376428,-1.62945 3.882828,-3.90585 3.882828,-6.44504 0,-2.53717 -1.5064,-4.8151 -3.882828,-6.44503 -2.375946,-1.62976 -5.63683,-2.63098 -9.225599,-2.63098 z"
     inkscape:connector-curvature="0" /></g></svg>