<?xml version="1.0" encoding="UTF-8" standalone="no"?>
<!-- Generator: Adobe Illustrator 12.0.0, SVG Export Plug-In . SVG Version: 6.00 Build 51448)  -->
<svg id="Layer_1" xmlns:rdf="http://www.w3.org/1999/02/22-rdf-syntax-ns#" xmlns="http://www.w3.org/2000/svg" xml:space="preserve" overflow="visible" height="22.3" viewBox="0 0 22.299999 22.299999" width="22.3" version="1.1" enable-background="new 0 0 384 384" xmlns:cc="http://creativecommons.org/ns#" xmlns:dc="http://purl.org/dc/elements/1.1/"><metadata id="metadata40"><rdf:RDF><cc:Work rdf:about=""><dc:format>image/svg+xml</dc:format><dc:type rdf:resource="http://purl.org/dc/dcmitype/StillImage"/></cc:Work></rdf:RDF></metadata>
<g id="g3" transform="scale(.058073)">
	<g id="g5">
		<path id="path7" d="m0 24c0-13.255 10.745-24 24-24h336c13.255 0 24 10.745 24 24v336c0 13.255-10.745 24-24 24h-336c-13.255 0-24-10.75-24-24v-336z"/>
		<path id="path9" d="m192 192"/>
	</g>
	<g id="g11" fill="#fff">
		<path id="path13" d="m12 24c0-6.6274 5.3726-12 12-12h336c6.627 0 12 5.3726 12 12v336c0 6.627-5.373 12-12 12h-336c-6.6274 0-12-5.373-12-12v-336z"/>
		<path id="path15" d="m192 192"/>
	</g>
	<polygon id="polygon17" points="238.08 301.74 229.24 308.17 232.62 297.78 223.78 291.35 234.7 291.35 238.08 280.96 241.46 291.35 252.38 291.35 243.54 297.78 246.92 308.17" clip-rule="evenodd" fill-rule="evenodd"/>
	<polygon id="polygon19" points="222.08 341.74 213.24 348.17 216.62 337.78 207.78 331.35 218.7 331.35 222.08 320.96 225.46 331.35 236.38 331.35 227.54 337.78 230.92 348.17" clip-rule="evenodd" fill-rule="evenodd"/>
	<polygon id="polygon21" points="161.92 332.94 153.08 339.37 156.46 328.97 147.62 322.55 158.54 322.55 161.92 312.16 165.3 322.55 176.22 322.55 167.38 328.97 170.76 339.37" clip-rule="evenodd" fill-rule="evenodd"/>
	<polygon id="polygon23" points="161.92 289.9 153.08 296.33 156.46 285.94 147.62 279.51 158.54 279.51 161.92 269.12 165.3 279.51 176.22 279.51 167.38 285.94 170.76 296.33" clip-rule="evenodd" fill-rule="evenodd"/>
	<polygon id="polygon25" points="133.92 263.82 125.08 270.25 128.46 259.86 119.62 253.43 130.54 253.43 133.92 243.04 137.3 253.43 148.22 253.43 139.38 259.86 142.76 270.25" clip-rule="evenodd" fill-rule="evenodd"/>
	<polygon id="polygon27" points="92.96 242.86 84.121 249.29 87.497 238.9 78.657 232.47 89.584 232.47 92.96 222.08 96.336 232.47 107.26 232.47 98.423 238.89 101.8 249.29" clip-rule="evenodd" fill-rule="evenodd"/>
	<polygon id="polygon29" points="46.88 231.82 38.041 238.25 41.417 227.86 32.577 221.43 43.504 221.43 46.88 211.04 50.256 221.43 61.182 221.43 52.343 227.86 55.72 238.25" clip-rule="evenodd" fill-rule="evenodd"/>
	<polygon id="polygon31" points="327.04 73.167 312.94 83.415 318.32 66.833 304.22 56.583 321.65 56.583 327.04 40.001 332.43 56.583 349.86 56.584 335.76 66.833 341.14 83.415" clip-rule="evenodd" fill-rule="evenodd"/>
</g>
</svg>
