<?xml version="1.0" encoding="UTF-8" standalone="no"?>
<!-- Generator: Adobe Illustrator 12.0.0, SVG Export Plug-In . SVG Version: 6.00 Build 51448)  -->

<svg
   xmlns:dc="http://purl.org/dc/elements/1.1/"
   xmlns:cc="http://creativecommons.org/ns#"
   xmlns:rdf="http://www.w3.org/1999/02/22-rdf-syntax-ns#"
   xmlns:svg="http://www.w3.org/2000/svg"
   xmlns="http://www.w3.org/2000/svg"
   xmlns:sodipodi="http://sodipodi.sourceforge.net/DTD/sodipodi-0.dtd"
   xmlns:inkscape="http://www.inkscape.org/namespaces/inkscape"
   id="Layer_1"
   xml:space="preserve"
   overflow="visible"
   height="22.300032"
   viewBox="0 0 27.873762 22.300031"
   width="27.873762"
   version="1.1"
   enable-background="new 0 0 384 384"
   inkscape:version="0.48.3.1 r9886"
   sodipodi:docname="shield_hwy_ak3.svg"
   style="overflow:visible"><defs
   id="defs21" /><sodipodi:namedview
   pagecolor="#ffffff"
   bordercolor="#666666"
   borderopacity="1"
   objecttolerance="10"
   gridtolerance="10"
   guidetolerance="10"
   inkscape:pageopacity="0"
   inkscape:pageshadow="2"
   inkscape:window-width="640"
   inkscape:window-height="480"
   id="namedview19"
   showgrid="false"
   fit-margin-top="0"
   fit-margin-left="0"
   fit-margin-right="0"
   fit-margin-bottom="0"
   inkscape:zoom="10.58296"
   inkscape:cx="11.15"
   inkscape:cy="11.150033"
   inkscape:window-x="0"
   inkscape:window-y="27"
   inkscape:window-maximized="0"
   inkscape:current-layer="Layer_1" /><metadata
   id="metadata40"><rdf:RDF><cc:Work
       rdf:about=""><dc:format>image/svg+xml</dc:format><dc:type
         rdf:resource="http://purl.org/dc/dcmitype/StillImage" /><dc:title /></cc:Work></rdf:RDF></metadata>
<g
   id="g3"
   transform="scale(0.058073,0.058073)">
	<g
   id="g5"
   transform="scale(1.0001,1)">
		<path
   id="path7"
   d="M 0,24 C 0,10.745 10.745,0 24,0 h 431.93 c 13.255,0 24,10.745 24,24 v 336 c 0,13.255 -10.745,24 -24,24 H 24 C 10.745,384 0,373.25 0,360 z"
   inkscape:connector-curvature="0" />
		<path
   id="path9"
   d="M 192,192"
   inkscape:connector-curvature="0" />
	</g>
	<g
   id="g11"
   style="fill:#ffffff">
		<path
   id="path13"
   d="m 12.002,24 c 0,-6.6274 5.3733,-12 12.002,-12 h 431.99 c 6.6279,0 12.002,5.3726 12.002,12 v 336 c 0,6.627 -5.3738,12 -12.002,12 H 24.004 c -6.6284,0 -12.002,-5.373 -12.002,-12 z"
   inkscape:connector-curvature="0" />
		<path
   id="path15"
   d="M 192,192"
   inkscape:connector-curvature="0" />
	</g>
	<polygon
   id="polygon17"
   points="223.78,291.35 234.7,291.35 238.08,280.96 241.46,291.35 252.38,291.35 243.54,297.78 246.92,308.17 238.08,301.74 229.24,308.17 232.62,297.78 "
   clip-rule="evenodd"
   style="fill-rule:evenodd" />
	<polygon
   id="polygon19"
   points="207.78,331.35 218.7,331.35 222.08,320.96 225.46,331.35 236.38,331.35 227.54,337.78 230.92,348.17 222.08,341.74 213.24,348.17 216.62,337.78 "
   clip-rule="evenodd"
   style="fill-rule:evenodd" />
	<polygon
   id="polygon21"
   points="147.62,322.55 158.54,322.55 161.92,312.16 165.3,322.55 176.22,322.55 167.38,328.97 170.76,339.37 161.92,332.94 153.08,339.37 156.46,328.97 "
   clip-rule="evenodd"
   style="fill-rule:evenodd" />
	<polygon
   id="polygon23"
   points="147.62,279.51 158.54,279.51 161.92,269.12 165.3,279.51 176.22,279.51 167.38,285.94 170.76,296.33 161.92,289.9 153.08,296.33 156.46,285.94 "
   clip-rule="evenodd"
   style="fill-rule:evenodd" />
	<polygon
   id="polygon25"
   points="119.62,253.43 130.54,253.43 133.92,243.04 137.3,253.43 148.22,253.43 139.38,259.86 142.76,270.25 133.92,263.82 125.08,270.25 128.46,259.86 "
   clip-rule="evenodd"
   style="fill-rule:evenodd" />
	<polygon
   id="polygon27"
   points="78.657,232.47 89.584,232.47 92.96,222.08 96.336,232.47 107.26,232.47 98.423,238.89 101.8,249.29 92.96,242.86 84.121,249.29 87.497,238.9 "
   clip-rule="evenodd"
   style="fill-rule:evenodd" />
	<polygon
   id="polygon29"
   points="32.577,221.43 43.504,221.43 46.88,211.04 50.256,221.43 61.182,221.43 52.343,227.86 55.72,238.25 46.88,231.82 38.041,238.25 41.417,227.86 "
   clip-rule="evenodd"
   style="fill-rule:evenodd" />
<polygon
   id="polygon31"
   transform="translate(90.115,0)"
   points="341.14,83.415 327.04,73.167 312.94,83.415 318.32,66.833 304.22,56.583 321.65,56.583 327.04,40.001 332.43,56.583 349.86,56.584 335.76,66.833 "
   clip-rule="evenodd"
   style="fill-rule:evenodd" /></g>
</svg>