<?xml version="1.0" encoding="UTF-8" standalone="no"?>
<!-- Created with Inkscape (http://www.inkscape.org/) -->

<svg
   xmlns:dc="http://purl.org/dc/elements/1.1/"
   xmlns:cc="http://creativecommons.org/ns#"
   xmlns:rdf="http://www.w3.org/1999/02/22-rdf-syntax-ns#"
   xmlns:svg="http://www.w3.org/2000/svg"
   xmlns="http://www.w3.org/2000/svg"
   xmlns:sodipodi="http://sodipodi.sourceforge.net/DTD/sodipodi-0.dtd"
   xmlns:inkscape="http://www.inkscape.org/namespaces/inkscape"
   id="svg2"
   height="22.3"
   width="22.3"
   version="1.0"
   inkscape:version="0.48.3.1 r9886"
   sodipodi:docname="shield_hwy_al2.svg">
  <defs
     id="defs3226" />
  <sodipodi:namedview
     pagecolor="#ffffff"
     bordercolor="#666666"
     borderopacity="1"
     objecttolerance="10"
     gridtolerance="10"
     guidetolerance="10"
     inkscape:pageopacity="0"
     inkscape:pageshadow="2"
     inkscape:window-width="1226"
     inkscape:window-height="1137"
     id="namedview3224"
     showgrid="false"
     inkscape:zoom="22.627417"
     inkscape:cx="5.6044174"
     inkscape:cy="17.633011"
     inkscape:window-x="82"
     inkscape:window-y="40"
     inkscape:window-maximized="0"
     inkscape:current-layer="g1366" />
  <metadata
     id="metadata7">
    <rdf:RDF>
      <cc:Work
         rdf:about="">
        <dc:format>image/svg+xml</dc:format>
        <dc:type
           rdf:resource="http://purl.org/dc/dcmitype/StillImage" />
      </cc:Work>
    </rdf:RDF>
  </metadata>
  <g
     id="layer1"
     transform="translate(0,-577.7)">
    <g
       id="g1366"
       transform="translate(205.71 95.219)">
      <path
         id="path1483"
         d="m -201.39543,504.2245 c -0.0831,-0.0676 -0.0874,-0.0842 -0.0435,-0.16678 0.0818,-0.15375 0.24005,-0.21476 0.75993,-0.29308 0.51614,-0.0777 0.66672,-0.12012 0.66672,-0.1876 0,-0.0664 -0.48488,-0.72303 -0.65836,-0.89159 -0.14532,-0.1412 -0.16978,-0.1904 -0.22265,-0.44775 -0.15183,-0.73909 -0.45607,-1.16571 -0.82527,-1.15741 -0.45109,0.0105 -0.79302,0.69536 -0.85686,1.71685 -0.0289,0.46355 -0.0507,0.59096 -0.13265,0.77719 -0.0868,0.19727 -0.12371,0.22717 -0.28146,0.22795 -0.0826,4.2e-4 -0.15755,-0.0385 -0.25854,-0.1343 -0.18973,-0.1799 -0.2661,-0.20401 -0.65606,-0.20707 -0.2683,-0.002 -0.34931,-0.0165 -0.42335,-0.075 -0.0504,-0.0398 -0.16872,-0.0831 -0.26296,-0.0961 -0.0943,-0.013 -0.17277,-0.0425 -0.17449,-0.0655 -0.002,-0.023 -0.008,-0.0842 -0.014,-0.1359 -0.006,-0.0517 -0.0228,-0.29436 -0.0374,-0.53926 -0.0146,-0.24489 -0.0317,-0.49024 -0.0381,-0.54522 -0.006,-0.0549 -0.0227,-0.303 -0.0363,-0.55118 -0.0136,-0.24817 -0.0316,-0.53582 -0.0401,-0.63922 -0.008,-0.10343 -0.0244,-0.3276 -0.0353,-0.49823 -0.0109,-0.1706 -0.029,-0.4498 -0.04,-0.62042 -0.011,-0.1706 -0.027,-0.39481 -0.0356,-0.4982 -0.009,-0.10343 -0.0254,-0.34876 -0.0375,-0.54523 -0.0121,-0.19647 -0.0291,-0.44182 -0.038,-0.54522 -0.009,-0.10343 -0.0266,-0.37251 -0.0394,-0.59803 -0.0129,-0.2255 -0.0353,-0.57237 -0.0499,-0.77082 -0.0288,-0.39078 -0.055,-0.20137 0.40267,-2.89895 0.10353,-0.61008 0.2739,-1.61689 0.37865,-2.23734 0.10479,-0.62042 0.38384,-2.2702 0.62019,-3.66618 0.23635,-1.39597 0.5136,-3.03723 0.61612,-3.64738 0.10258,-0.61009 0.19578,-1.15574 0.20725,-1.21265 l 0.0208,-0.10342 h 8.33364 8.33364 l 0.0422,0.19741 c 0.0232,0.10857 0.25273,1.20414 0.51004,2.43474 0.25729,1.23049 0.74574,3.56559 1.08549,5.18899 0.33969,1.62341 0.64039,3.0702 0.66822,3.21489 0.12432,0.64665 0.11194,1.0521 -0.0365,1.19585 -0.0962,0.093 -0.19346,0.36625 -0.23042,0.64662 -0.0137,0.10342 -0.0559,0.24697 -0.0939,0.31905 -0.0934,0.1773 -0.0863,0.33984 0.0306,0.69618 0.0851,0.25995 0.10101,0.38254 0.11587,0.90244 0.0142,0.49374 0.005,0.65892 -0.0523,0.92123 -0.056,0.25698 -0.0673,0.44295 -0.0581,0.94895 0.0114,0.62894 0.0114,0.62939 -0.0825,0.72382 -0.0519,0.0522 -0.14083,0.0963 -0.19852,0.0985 -0.0574,0.002 -3.18843,8.1e-4 -6.95772,-0.003 l -6.85314,-0.007 -0.005,0.0876 c -0.0281,0.52923 0.052,0.75838 0.41745,1.19416 0.37014,0.44138 0.4046,0.9491 0.087,1.28331 -0.0727,0.0766 -0.1728,0.25338 -0.23391,0.41335 l -0.10678,0.27953 -0.74341,0.27408 -0.7434,0.27407 -0.78573,0.0215 c -0.74693,0.0205 -0.79028,0.0179 -0.87797,-0.0536 z"
         style="fill:#ffffff;stroke:#000000;stroke-width:0.78750002;stroke-miterlimit:4;stroke-opacity:1;stroke-dasharray:none"
         inkscape:connector-curvature="0" />
    </g>
  </g>
</svg>
