<?xml version="1.0" encoding="UTF-8" standalone="no"?>
<!-- Created with Inkscape (http://www.inkscape.org/) -->

<svg
   xmlns:dc="http://purl.org/dc/elements/1.1/"
   xmlns:cc="http://creativecommons.org/ns#"
   xmlns:rdf="http://www.w3.org/1999/02/22-rdf-syntax-ns#"
   xmlns:svg="http://www.w3.org/2000/svg"
   xmlns="http://www.w3.org/2000/svg"
   xmlns:sodipodi="http://sodipodi.sourceforge.net/DTD/sodipodi-0.dtd"
   xmlns:inkscape="http://www.inkscape.org/namespaces/inkscape"
   id="svg2"
   height="22.3"
   width="27.88"
   version="1.0"
   inkscape:version="0.48.3.1 r9886"
   sodipodi:docname="shield_hwy_al3.svg">
  <defs
     id="defs4137" />
  <sodipodi:namedview
     pagecolor="#ffffff"
     bordercolor="#666666"
     borderopacity="1"
     objecttolerance="10"
     gridtolerance="10"
     guidetolerance="10"
     inkscape:pageopacity="0"
     inkscape:pageshadow="2"
     inkscape:window-width="1286"
     inkscape:window-height="1238"
     id="namedview4135"
     showgrid="false"
     inkscape:zoom="29.933131"
     inkscape:cx="9.0671998"
     inkscape:cy="14.564113"
     inkscape:window-x="65"
     inkscape:window-y="24"
     inkscape:window-maximized="0"
     inkscape:current-layer="g1366" />
  <metadata
     id="metadata7">
    <rdf:RDF>
      <cc:Work
         rdf:about="">
        <dc:format>image/svg+xml</dc:format>
        <dc:type
           rdf:resource="http://purl.org/dc/dcmitype/StillImage" />
      </cc:Work>
    </rdf:RDF>
  </metadata>
  <g
     id="layer1"
     transform="translate(0,-577.7)">
    <g
       id="g1366"
       transform="translate(205.71 95.219)">
      <path
         id="path1483"
         d="m -200.25379,504.05643 c -0.10311,-0.0666 -0.10842,-0.0829 -0.0539,-0.16414 0.10153,-0.15129 0.29785,-0.21132 0.9429,-0.2884 0.64042,-0.0765 0.82726,-0.11821 0.82726,-0.18461 0,-0.0653 -0.60162,-0.71149 -0.81688,-0.87738 -0.18031,-0.13895 -0.21066,-0.18736 -0.27627,-0.4406 -0.18838,-0.72731 -0.56587,-1.14723 -1.02396,-1.13894 -0.5597,0.009 -0.98395,0.68428 -1.06312,1.68956 -0.0359,0.45614 -0.063,0.58152 -0.16459,0.76481 -0.10768,0.1941 -0.15349,0.22353 -0.34924,0.2243 -0.10248,4.1e-4 -0.19549,-0.0379 -0.32078,-0.13216 -0.23541,-0.17704 -0.33018,-0.20077 -0.81403,-0.20377 -0.33288,-0.002 -0.4334,-0.0162 -0.52529,-0.0738 -0.0625,-0.0392 -0.20931,-0.0817 -0.32626,-0.0945 -0.11695,-0.0128 -0.21438,-0.0418 -0.2165,-0.0645 -0.002,-0.0227 -0.009,-0.0829 -0.0174,-0.13373 -0.007,-0.0509 -0.0283,-0.28968 -0.0464,-0.53066 -0.0182,-0.241 -0.0394,-0.48243 -0.0472,-0.53654 -0.007,-0.0541 -0.028,-0.29817 -0.045,-0.5424 -0.0169,-0.24421 -0.0393,-0.52728 -0.0498,-0.62902 -0.0107,-0.10175 -0.0302,-0.32238 -0.0439,-0.49029 -0.0136,-0.16788 -0.0361,-0.44263 -0.0497,-0.61053 -0.0137,-0.1679 -0.0336,-0.38851 -0.0442,-0.49027 -0.0107,-0.10174 -0.0315,-0.3432 -0.0465,-0.53653 -0.015,-0.19335 -0.0361,-0.43477 -0.0471,-0.53654 -0.011,-0.10174 -0.033,-0.36656 -0.0488,-0.58849 -0.0159,-0.2219 -0.0438,-0.56325 -0.0618,-0.75853 -0.0356,-0.38455 -0.0681,-0.19817 0.49961,-2.85275 0.12842,-0.60036 0.33985,-1.59106 0.46983,-2.20164 0.12998,-0.61053 0.47625,-2.23398 0.76951,-3.60769 0.29325,-1.37372 0.63726,-2.98883 0.76447,-3.58922 0.12721,-0.60036 0.24293,-1.13736 0.25714,-1.19332 l 0.0258,-0.10175 h 10.34019 10.34019 l 0.0524,0.19428 c 0.0289,0.10683 0.31358,1.18503 0.63282,2.39589 0.31926,1.21086 0.92532,3.50868 1.34684,5.10626 0.42149,1.59757 0.79458,3.02127 0.82912,3.16365 0.15425,0.63635 0.13888,1.03533 -0.0453,1.17684 -0.11926,0.0916 -0.24005,0.36041 -0.2859,0.63631 -0.0169,0.10175 -0.0692,0.24303 -0.11643,0.31396 -0.11592,0.17449 -0.10709,0.33445 0.0379,0.68509 0.10575,0.25582 0.12529,0.37644 0.14378,0.88805 0.0176,0.48588 0.006,0.64843 -0.0649,0.90656 -0.0695,0.25288 -0.0836,0.43589 -0.072,0.93381 0.0142,0.61892 0.0141,0.61937 -0.10238,0.71229 -0.0644,0.0513 -0.17475,0.0947 -0.24633,0.0969 -0.0714,0.002 -3.95619,7.9e-4 -8.63289,-0.003 l -8.50321,-0.006 -0.006,0.0862 c -0.0349,0.52079 0.0646,0.74631 0.51794,1.17516 0.45929,0.43434 0.50205,0.93395 0.10808,1.26283 -0.0903,0.0755 -0.2144,0.24934 -0.29022,0.40676 l -0.1325,0.27508 -0.92239,0.2697 -0.9224,0.26971 -0.97491,0.0212 c -0.92677,0.0202 -0.98056,0.0176 -1.08938,-0.0527 z"
         style="fill:#ffffff;stroke:#000000;stroke-width:0.78750002;stroke-miterlimit:4;stroke-opacity:1;stroke-dasharray:none"
         inkscape:connector-curvature="0" />
    </g>
  </g>
</svg>
