<?xml version="1.0" encoding="UTF-8" standalone="no"?>
<!-- Created with Inkscape (http://www.inkscape.org/) -->

<svg
   xmlns:dc="http://purl.org/dc/elements/1.1/"
   xmlns:cc="http://creativecommons.org/ns#"
   xmlns:rdf="http://www.w3.org/1999/02/22-rdf-syntax-ns#"
   xmlns:svg="http://www.w3.org/2000/svg"
   xmlns="http://www.w3.org/2000/svg"
   xmlns:sodipodi="http://sodipodi.sourceforge.net/DTD/sodipodi-0.dtd"
   xmlns:inkscape="http://www.inkscape.org/namespaces/inkscape"
   id="svg2"
   height="22.3"
   width="22.3"
   version="1.0"
   inkscape:version="0.48.3.1 r9886"
   sodipodi:docname="shield_hwy_ar2.svg">
  <defs
     id="defs4897" />
  <sodipodi:namedview
     pagecolor="#ffffff"
     bordercolor="#666666"
     borderopacity="1"
     objecttolerance="10"
     gridtolerance="10"
     guidetolerance="10"
     inkscape:pageopacity="0"
     inkscape:pageshadow="2"
     inkscape:window-width="1252"
     inkscape:window-height="1231"
     id="namedview4895"
     showgrid="false"
     showguides="true"
     inkscape:guide-bbox="true"
     inkscape:zoom="47.17489"
     inkscape:cx="11.15"
     inkscape:cy="11.15"
     inkscape:window-x="65"
     inkscape:window-y="24"
     inkscape:window-maximized="0"
     inkscape:current-layer="layer1" />
  <metadata
     id="metadata7">
    <rdf:RDF>
      <cc:Work
         rdf:about="">
        <dc:format>image/svg+xml</dc:format>
        <dc:type
           rdf:resource="http://purl.org/dc/dcmitype/StillImage" />
      </cc:Work>
    </rdf:RDF>
  </metadata>
  <g
     id="layer1"
     transform="translate(0,-577.7)">
    <path
       id="path3797"
       d="m 3.4297701,597.54348 v -1.49961 h -1.047984 -1.047984 v -5.55408 -5.55408 l -0.40729495,-3.05088 c -0.223965,-1.6695 -0.413595,-3.087 -0.42126,-3.129 l -0.0139419,-0.0907 h 9.56129975 9.5613 l 0.122934,0.0574 c 0.195993,0.0917 0.28538,0.20808 0.343875,0.44775 0.04351,0.17827 0.04635,0.22231 0.02341,0.36282 -0.01436,0.088 -0.03984,0.26332 -0.05661,0.38971 -0.02414,0.18194 -0.05394,0.28266 -0.143094,0.48375 -0.107016,0.24138 -0.113001,0.26599 -0.120687,0.49587 l -0.0081,0.16773 0.09237,0.14066 0.09237,0.0666 h 0.922005 0.921995 v 0.58711 0.58712 l 0.0043,0.0402 c -0.05848,0.15771 -0.06987,0.22294 -0.06987,0.39998 l -0.14826,0.43399 -0.244356,0.61377 c -0.282933,0.61112 -0.320418,0.70684 -0.335717,0.85725 -0.02339,0.22993 -0.191142,0.98885 -0.279457,1.26431 -0.03953,0.12332 -0.112382,0.38334 -0.161879,0.57785 -0.09339,0.36696 -0.08115,0.41532 -0.354112,0.82058 -0.06524,0.0968 -0.207302,0.31033 -0.207827,0.42013 -1.51e-4,0.0318 -0.0613,0.25151 -0.226495,0.57894 -0.165669,0.32835 -0.314402,0.65495 -0.331685,0.72834 -0.03673,0.15595 -0.623185,1.23144 -1.068375,1.95919 -0.253606,0.4146 -0.323127,0.55324 -0.574602,1.14576 -0.179718,0.42348 -0.298977,0.73824 -0.320754,0.8466 -0.01906,0.0948 -0.05043,0.24323 -0.06971,0.3297 -0.02655,0.11916 -0.03515,0.31696 -0.03552,0.81701 l -4.87e-4,0.58564 0.08042,0.32142 c 0.04423,0.13599 0.102574,0.33901 0.129654,0.45115 0.02708,0.11215 0.06472,0.30915 0.08365,0.34717 0.02925,0.0588 0.03339,0.16841 0.02755,1.15038 l -0.0069,1.08129 -0.07743,0.23255 c -0.04259,0.087 -0.123805,0.21345 -0.180495,0.28074 -0.05668,0.0673 -0.103057,0.12953 -0.103057,0.13832 0,0.0225 -0.0626,0.0849 -0.08567,0.0856 -0.01052,3e-4 -0.04533,0.0218 -0.07735,0.0479 -0.05748,0.0467 -0.145856,0.0473 -6.899235,0.0479 l -6.8410654,5.4e-4 v -1.49961 z"
       style="fill:#ffffff;stroke:#000000;stroke-width:0.78750002;stroke-miterlimit:4;stroke-opacity:1;stroke-dasharray:none"
       inkscape:connector-curvature="0" />
  </g>
</svg>
