<?xml version="1.0" encoding="UTF-8" standalone="no"?>
<!-- Created with Inkscape (http://www.inkscape.org/) -->

<svg
   xmlns:dc="http://purl.org/dc/elements/1.1/"
   xmlns:cc="http://creativecommons.org/ns#"
   xmlns:rdf="http://www.w3.org/1999/02/22-rdf-syntax-ns#"
   xmlns:svg="http://www.w3.org/2000/svg"
   xmlns="http://www.w3.org/2000/svg"
   xmlns:sodipodi="http://sodipodi.sourceforge.net/DTD/sodipodi-0.dtd"
   xmlns:inkscape="http://www.inkscape.org/namespaces/inkscape"
   id="svg2"
   height="22.3"
   width="27.88"
   version="1.0"
   inkscape:version="0.48.3.1 r9886"
   sodipodi:docname="shield_hwy_az3.svg">
  <defs
     id="defs4923" />
  <sodipodi:namedview
     pagecolor="#ffffff"
     bordercolor="#666666"
     borderopacity="1"
     objecttolerance="10"
     gridtolerance="10"
     guidetolerance="10"
     inkscape:pageopacity="0"
     inkscape:pageshadow="2"
     inkscape:window-width="1423"
     inkscape:window-height="1417"
     id="namedview4921"
     showgrid="false"
     inkscape:zoom="21.16592"
     inkscape:cx="6.5441709"
     inkscape:cy="3.0316531"
     inkscape:window-x="65"
     inkscape:window-y="24"
     inkscape:window-maximized="0"
     inkscape:current-layer="layer1" />
  <metadata
     id="metadata7">
    <rdf:RDF>
      <cc:Work
         rdf:about="">
        <dc:format>image/svg+xml</dc:format>
        <dc:type
           rdf:resource="http://purl.org/dc/dcmitype/StillImage" />
      </cc:Work>
    </rdf:RDF>
  </metadata>
  <g
     id="layer1"
     transform="translate(0,-577.7)">
    <path
       id="path2311"
       d="m 16.612387,598.94052 c -0.0018,-0.004 -0.592263,-0.10112 -1.31229,-0.21579 -0.720059,-0.1147 -1.37025,-0.21858 -1.4448,-0.23083 -0.07457,-0.0123 -2.955015,-0.47265 -6.4011151,-1.02309 -3.445995,-0.55043 -6.274905,-1.00296 -6.28656,-1.00561 l -0.02104,-0.005 v -7.28795 -7.28795 h 2.13213 2.13213 v -1.56607 -1.56607 h 10.6585501 10.65855 v 10.09774 10.09775 h -5.056065 c -2.78082,0 -5.05743,-0.003 -5.05911,-0.006 z M 4.3567869,581.89902 c -0.587622,-9.7e-4 -1.54917,-9.7e-4 -2.136855,0 -0.587622,9.6e-4 -0.1068375,0.002 1.068375,0.002 1.175265,0 1.65606,-9.7e-4 1.068375,-0.002 z"
       style="fill:#ffffff;stroke:#000000;stroke-width:0.78750002;stroke-miterlimit:4;stroke-opacity:1;stroke-dasharray:none"
       inkscape:connector-curvature="0" />
  </g>
</svg>
