<?xml version="1.0" encoding="UTF-8" standalone="no"?>
<!-- Created with Inkscape (http://www.inkscape.org/) -->

<svg
   xmlns:dc="http://purl.org/dc/elements/1.1/"
   xmlns:cc="http://creativecommons.org/ns#"
   xmlns:rdf="http://www.w3.org/1999/02/22-rdf-syntax-ns#"
   xmlns:svg="http://www.w3.org/2000/svg"
   xmlns="http://www.w3.org/2000/svg"
   xmlns:sodipodi="http://sodipodi.sourceforge.net/DTD/sodipodi-0.dtd"
   xmlns:inkscape="http://www.inkscape.org/namespaces/inkscape"
   width="25.372494"
   height="29.85"
   id="svg3193"
   version="1.1"
   inkscape:version="0.48.3.1 r9886"
   sodipodi:docname="shield_hwy_bccn1.svg">
  <defs
     id="defs3195" />
  <sodipodi:namedview
     id="base"
     pagecolor="#ffffff"
     bordercolor="#666666"
     borderopacity="1.0"
     inkscape:pageopacity="0.0"
     inkscape:pageshadow="2"
     inkscape:zoom="15"
     inkscape:cx="21.497796"
     inkscape:cy="11.903999"
     inkscape:document-units="px"
     inkscape:current-layer="layer1"
     showgrid="false"
     inkscape:window-width="1083"
     inkscape:window-height="899"
     inkscape:window-x="1079"
     inkscape:window-y="545"
     inkscape:window-maximized="0"
     fit-margin-top="0"
     fit-margin-left="0"
     fit-margin-right="0"
     fit-margin-bottom="0" />
  <metadata
     id="metadata3198">
    <rdf:RDF>
      <cc:Work
         rdf:about="">
        <dc:format>image/svg+xml</dc:format>
        <dc:type
           rdf:resource="http://purl.org/dc/dcmitype/StillImage" />
        <dc:title />
      </cc:Work>
    </rdf:RDF>
  </metadata>
  <g
     inkscape:label="Layer 1"
     inkscape:groupmode="layer"
     id="layer1"
     transform="translate(-0.08273317,-1022.4776)">
    <path
       inkscape:connector-curvature="0"
       style="fill:#ffffff;fill-rule:evenodd;overflow:visible"
       d="m 16.906384,1022.4776 -8.2607143,0 c -0.1744887,0 -0.3161062,0.1415 -0.3161062,0.3147 l 0,2.3859 c 0,0.1732 -0.1416322,0.3147 -0.3161208,0.3147 l -7.61327731,0 c -0.26302334,0 -0.41095533,0.3009 -0.25163382,0.5093 l 1.86509313,2.4252 c 0.042976,0.057 0.065726,0.1239 0.065726,0.1908 l 0,15.1411 c 0,5.2914 5.9454808,8.5683 10.6530513,8.5683 4.721466,0 10.73772,-3.2769 10.73772,-8.5683 l 0,-15.1411 c 0,-0.067 0.02278,-0.1339 0.06449,-0.1908 l 1.854987,-2.4289 c 0.159365,-0.2047 0.01013,-0.5056 -0.250336,-0.5056 l -7.601946,0 c -0.174474,0 -0.316136,-0.1415 -0.316136,-0.3147 l 0,-2.3859 c 0,-0.1732 -0.140348,-0.3147 -0.314794,-0.3147 z"
       id="path18485" />
    <path
       inkscape:connector-curvature="0"
       style="fill:none;overflow:visible"
       d="m 16.906384,1022.4776 -8.2607143,0 c -0.1744887,0 -0.3161062,0.1415 -0.3161062,0.3147 l 0,2.3859 c 0,0.1732 -0.1416322,0.3147 -0.3161208,0.3147 l -7.61327731,0 c -0.26302334,0 -0.41095533,0.3009 -0.25163382,0.5093 l 1.86509313,2.4252 c 0.042976,0.057 0.065726,0.1239 0.065726,0.1908 l 0,15.1411 c 0,5.2914 5.9454808,8.5683 10.6530513,8.5683 4.721466,0 10.73772,-3.2769 10.73772,-8.5683 l 0,-15.1411 c 0,-0.067 0.02278,-0.1339 0.06449,-0.1908 l 1.854987,-2.4289 c 0.159365,-0.2047 0.01013,-0.5056 -0.250336,-0.5056 l -7.601946,0 c -0.174474,0 -0.316136,-0.1415 -0.316136,-0.3147 l 0,-2.3859 c 0,-0.1732 -0.140348,-0.3147 -0.314794,-0.3147 z"
       id="path18487" />
    <path
       inkscape:connector-curvature="0"
       style="fill:#000000;fill-rule:evenodd;overflow:visible"
       d="m 16.117315,1027.6653 c -0.0126,0 -0.02522,-0.011 -0.02522,-0.025 l 0,-3.9101 c 0,-0.012 -0.0114,-0.025 -0.02532,-0.025 l -6.6156242,0 c -0.013912,0 -0.025302,0.013 -0.025302,0.025 l 0,3.9101 c 0,0.014 -0.012629,0.025 -0.025287,0.025 l -7.2023221,0 c -0.00761,0 -0.015196,0 -0.018972,-0.011 l -0.3287644,-0.4232 c -0.012658,-0.018 0,-0.042 0.020227,-0.042 l 6.9620923,-0.011 c 0.012659,0 0.025272,-0.011 0.025272,-0.024 l 0,-0.4751 c 0,-0.013 -0.012615,-0.025 -0.025272,-0.025 l -7.3983204,0.011 c -0.00759,0 -0.015196,0 -0.018972,-0.011 l -0.3413933,-0.436 c -0.012658,-0.018 -0.00126,-0.042 0.020213,-0.042 l 7.7397431,0 c 0.013898,0 0.025272,-0.011 0.025272,-0.024 l 0.00636,-2.9901 c 0,-0.013 0.011344,-0.025 0.024004,-0.025 l 7.722026,0.011 c 0.01259,0 0.02531,0.011 0.02531,0.024 l -0.0038,2.98 c 0,0.013 0.01263,0.024 0.02526,0.024 l 7.715696,0 c 0.02024,0 0.03287,0.024 0.01901,0.042 l -0.338915,0.436 c -0.0051,0.011 -0.0126,0.011 -0.01899,0.011 l -7.378064,-0.011 c -0.01391,0 -0.02528,0.013 -0.02528,0.025 l -0.0013,0.4751 c 0,0.013 0.0114,0.024 0.02526,0.024 l 6.941881,0.011 c 0.02147,0 0.03287,0.024 0.02147,0.042 l -0.328736,0.4232 c -0.0051,0.011 -0.01263,0.011 -0.01893,0.011 l -7.154358,0"
       id="path18489" />
    <path
       inkscape:connector-curvature="0"
       style="fill:#000000;fill-rule:evenodd;overflow:visible"
       d="m 22.228447,1028.2087 c 0,-0.012 0.0114,-0.024 0.02531,-0.024 l 0.579129,0 c 0.02272,0 0.0341,0.023 0.02147,0.041 l -0.04932,0.064 c -0.0038,0 -0.0063,0.011 -0.0063,0.016 l 0,15.4545 c 0,3.5372 -3.034712,6.2 -6.594158,7.3336 -1.167096,0.3715 -2.35945,0.5712 -3.46585,0.5712 l -0.0051,-0.011 -0.005,0 c -1.1064,0 -2.29756,-0.1921 -3.4658948,-0.5637 -3.5594458,-1.1336 -6.5928742,-3.7963 -6.5928742,-7.3336 l 0,-15.4544 c 0,0 -0.00126,-0.011 -0.00509,-0.016 l -0.050546,-0.064 c -0.011389,-0.017 0,-0.041 0.020227,-0.041 l 0.5803689,0 c 0.012658,0 0.024048,0.011 0.024048,0.024 l 0,15.5671 c 0,3.1731 2.7438641,5.6742 6.1983544,6.7736 1.1165057,0.3551 2.2507327,0.5372 3.2914067,0.5372 l 0.005,0 0.0051,0.011 c 1.043138,0 2.177392,-0.1883 3.29263,-0.5434 3.455788,-1.0994 6.197085,-3.6005 6.197085,-6.7736 l 0,-15.5671"
       id="path18491" />
    <path
       inkscape:connector-curvature="0"
       style="fill:#ffffff;fill-rule:evenodd;overflow:visible"
       d="m 9.8056196,1047.7934 c -0.017704,0 -0.03163,0.014 -0.03163,0.032 l 0.00381,1.1841 c 0,0 0,0 0,0 0.00885,0.09 0.077102,0.1782 0.2679964,0.1782 0.252888,0 0.52466,-0.2174 0.52466,-0.6861 0,-0.4727 -0.259144,-0.7101 -0.6283615,-0.7101 l -0.1364702,0"
       id="path18503" />
    <path
       inkscape:connector-curvature="0"
       style="fill:#000000;fill-rule:evenodd;overflow:visible"
       d="m 17.775079,1040.5784 c -0.0544,-0.014 -0.0999,0.041 -0.07971,0.092 l 0.03039,0.075 c 0.005,0.014 0.01517,0.025 0.02776,0.033 l 0.112583,0.072 c 0.005,0 0.0075,0 0.01263,0 l 0.527271,0.211 c 0.05054,0.019 0.104937,-0.025 0.09234,-0.08 l -0.04302,-0.2123 c -0.0064,-0.025 -0.02654,-0.048 -0.05186,-0.055 l -0.628392,-0.1415 m -0.627225,1.6138 c 0.01269,-0.031 0,-0.067 -0.0278,-0.084 l -0.203582,-0.1201 c -0.0291,-0.017 -0.06703,-0.011 -0.08975,0.015 l -0.228928,0.2881 c -0.0063,0.011 -0.01263,0.019 -0.01386,0.032 l -0.0658,0.364 c -0.0051,0.032 0.01013,0.06 0.03795,0.075 l 0.312344,0.1528 c 0.04048,0.022 0.09103,0 0.09865,-0.05 l 0.06195,-0.3689 c 0.0013,0 0.0025,-0.011 0.0038,-0.015 l 0.115033,-0.2869 m -1.038064,-5.1295 c 0,0 0,0 0.0013,0.011 l 0.07464,0.2351 c 0.0013,0 0.0038,0.011 0.005,0.011 l 0.108795,0.2187 c 0.0013,0 0.0013,0 0.0025,0.011 l 0.13405,0.2098 c 0.0013,0 0.0038,0.011 0.0063,0.011 l 0.159366,0.1946 c 0.0025,0 0.005,0 0.0063,0 l 0.177011,0.168 c 0.0013,0 0.0039,0 0.0051,0 l 0.194745,0.153 c 0.0013,0 0.0038,0 0.005,0 l 0.185907,0.115 c 0.02147,0.014 0.05186,0.014 0.07332,0 l 0.466576,-0.2856 c 0.02153,-0.014 0.05061,-0.014 0.07332,0 l 0.204835,0.1264 c 0.0177,0.011 0.03925,0.012 0.05819,0 l 1.07353,-0.388 c 0.01647,0 0.02908,-0.015 0.03795,-0.031 l 0.386893,-0.7002 c 0.0064,-0.011 0.01517,-0.019 0.02532,-0.025 l 0.197223,-0.1201 c 0.04302,-0.025 0.09867,0 0.103742,0.052 l 0.0341,0.2704 c 0.0063,0.049 0.06324,0.077 0.106257,0.048 l 1.437673,-0.9452 c 0.04293,-0.027 0.102434,0 0.107417,0.05 l 0.05317,0.4727 c 0.0025,0.025 -0.0089,0.05 -0.02908,0.066 l -0.921805,0.6432 c -0.0025,0 -0.0025,0 -0.0039,0 l -0.938197,0.7394 c -0.0038,0 -0.01013,0.011 -0.01517,0.011 l -1.045763,0.4474 c -0.03539,0.015 -0.05177,0.057 -0.03539,0.092 l 0.137811,0.2893 c 0.01776,0.035 0.0025,0.077 -0.03287,0.093 l -0.275623,0.1289 c -0.02278,0.011 -0.04556,0.011 -0.06449,0 l -0.06326,-0.036 c -0.02401,-0.013 -0.05054,-0.013 -0.07201,0 l -0.287028,0.1782 c -0.06195,0.038 -0.0291,0.134 0.04425,0.1276 l 0.4223,-0.04 c 0.04556,0 0.08219,0.036 0.07464,0.081 l -0.02409,0.1252 c -0.01126,0.059 0.05819,0.1035 0.108817,0.068 l 0.131425,-0.093 c 0.02024,-0.016 0.04809,-0.018 0.07087,-0.011 l 0.366681,0.187 c 0.05186,0.026 0.05186,0.1001 -0.0013,0.1252 l -0.108794,0.05 c -0.048,0.024 -0.05311,0.092 -0.0075,0.1213 l 0.843377,0.5485 c 0.01647,0.011 0.03794,0.014 0.05688,0.011 l 0.705566,-0.2148 c 0.04433,-0.015 0.08981,0.019 0.08981,0.066 l 0,0.3905 c 0,0.032 -0.02024,0.059 -0.04932,0.068 l -0.479176,0.1327 c -0.03925,0.011 -0.06072,0.049 -0.04932,0.088 l 0.232602,0.7027 c 0.0089,0.026 0.0014,0.057 -0.02022,0.076 l -0.400834,0.345 c -0.03664,0.033 -0.09482,0.016 -0.109989,-0.031 l -0.08094,-0.2464 c -0.01263,-0.038 -0.05819,-0.057 -0.09482,-0.039 l -0.179577,0.083 c -0.0455,0.023 -0.09859,-0.011 -0.09859,-0.061 l 0,-0.5688 c 0,-0.038 -0.03164,-0.068 -0.06956,-0.068 l -0.179548,0 c -0.04806,0 -0.08093,0.047 -0.06449,0.092 l 0.133991,0.3727 c 0.0177,0.052 -0.02654,0.1036 -0.07966,0.091 l -0.292102,-0.058 c -0.03284,-0.011 -0.05688,-0.035 -0.05688,-0.068 l 0,-0.345 c 0,-0.044 -0.03923,-0.076 -0.08348,-0.067 l -0.283176,0.057 c -0.01013,0 -0.01901,0 -0.03039,0 l -0.317361,-0.073 c -0.0039,0 -0.01013,0 -0.01392,0 l -0.170683,0 c -0.03672,0 -0.06703,0.027 -0.06956,0.065 l -0.05565,0.7242 c -0.0013,0.011 -0.0038,0.014 -0.0063,0.021 l -0.130287,0.3209 c -0.0025,0 -0.005,0.011 -0.0075,0.014 l -0.28834,0.4157 c -0.02024,0.031 -0.01394,0.073 0.01645,0.095 l 0.213703,0.1566 c 0.04048,0.027 0.03917,0.084 -0.0014,0.1127 l -0.389431,0.2704 c -0.02526,0.018 -0.05819,0.016 -0.08219,0 l -0.629703,-0.5119 c -0.04548,-0.036 -0.112493,0 -0.112493,0.055 l 0,0.3627 c 0,0.011 0.0013,0.017 0.005,0.026 l 0.112549,0.2718 c 0.01263,0.032 0,0.068 -0.02782,0.086 l -0.192178,0.1163 c -0.03669,0.022 -0.0847,0 -0.09986,-0.036 l -0.184682,-0.5168 c -0.0038,-0.011 -0.005,-0.015 -0.005,-0.023 l 0,-0.8518 c 0,-0.021 -0.0089,-0.039 -0.02532,-0.051 l -0.09733,-0.085 c -0.02908,-0.023 -0.06956,-0.022 -0.09611,0 l -0.330047,0.345 c -0.0038,0 -0.0089,0.011 -0.01138,0.016 l -0.182086,0.3627 c -0.0089,0.018 -0.01013,0.036 -0.0025,0.055 l 0.189699,0.5384 0.194745,0.5611 c 0.0038,0.011 0.0075,0.015 0.01263,0.02 l 0.08341,0.1047 c 0.02785,0.035 0.01645,0.088 -0.02526,0.1058 l -0.443826,0.206 c -0.03287,0.014 -0.07082,0 -0.08975,-0.027 l -0.313656,-0.5296 c -0.0075,-0.011 -0.01001,-0.023 -0.01001,-0.035 l 0,-0.3969 c 0,-0.011 0.0013,-0.011 0.0025,-0.018 l 0.204835,-0.7355 c 0.0013,0 0.0013,0 0.0025,-0.011 l 0.107417,-0.2577 c 0.01269,-0.027 0.0039,-0.062 -0.02147,-0.081 l -0.108737,-0.084 c -0.01899,-0.014 -0.04425,-0.017 -0.06824,-0.011 l -0.685384,0.2781 c -0.03033,0.012 -0.04804,0.043 -0.04173,0.076 l 0.118911,0.7418 c 0.0013,0.011 0,0.025 -0.0051,0.036 l -0.201075,0.4765 0,0 -0.460245,1.2674 0.34396,-1.2687 c 0.0013,-0.011 0.0025,-0.011 0.0025,-0.018 l 0,-0.369 c 0,-0.015 -0.0038,-0.027 -0.01263,-0.039 l -0.38946,-0.5485 c -0.02532,-0.035 -0.07712,-0.038 -0.106201,-0.011 l -0.295863,0.3085 c -0.02155,0.024 -0.05693,0.027 -0.08473,0.011 l -0.335122,-0.2035 c -0.0341,-0.021 -0.04293,-0.063 -0.02278,-0.096 l 0.207403,-0.3285 c 0.01513,-0.023 0.01513,-0.051 0.0013,-0.073 l -0.131511,-0.2135 c -0.01645,-0.026 -0.04932,-0.04 -0.07839,-0.032 l -0.135274,0.041 c -0.0291,0.011 -0.05058,0.035 -0.05058,0.066 l 0,0.872 c 0,0.02 0.0089,0.039 0.02526,0.053 l 0.169428,0.1403 c 0.0038,0 0.0076,0.011 0.01013,0.011 l 0.0177,0.022 c 0.0177,0.025 0.05057,0.034 0.07966,0.024 l 0.746048,-0.2819 c 0.048,-0.019 0.09986,0.023 0.09225,0.076 l -0.05563,0.3892 c -0.0038,0.026 -0.02278,0.048 -0.0455,0.056 l -0.338885,0.1151 c -0.04302,0.015 -0.0607,0.063 -0.03669,0.1013 l 0.131512,0.2161 c 0.0076,0.015 0.01269,0.034 0.0076,0.052 l -0.108738,0.4828 c -0.0114,0.051 -0.07335,0.072 -0.112583,0.039 l -0.410927,-0.3551 c -0.0025,0 -0.0051,0 -0.0089,-0.011 l -0.199761,-0.244 c -0.0025,0 -0.0051,0 -0.0076,-0.011 l -0.135304,-0.244 c -0.0013,0 -0.0013,0 -0.0025,0 l -0.190924,-0.402 c -0.0051,-0.011 -0.0076,-0.02 -0.0076,-0.031 l 0,-0.06 c 0,-0.065 -0.08094,-0.093 -0.121348,-0.044 l -0.158052,0.1896 c -0.01013,0.013 -0.01646,0.027 -0.01646,0.044 l 0,0.2742 c 0,0.024 -0.01263,0.047 -0.03286,0.059 l -0.197297,0.1176 c -0.03917,0.023 -0.08719,0 -0.102434,-0.038 l -0.113808,-0.345 c -0.0038,-0.011 -0.0038,-0.022 -0.0013,-0.032 l 0.06325,-0.4626 c 0.0013,-0.011 0.0013,-0.022 -0.0025,-0.031 l -0.08349,-0.2565 c -0.0164,-0.048 -0.07588,-0.063 -0.112516,-0.028 l -0.410956,0.3829 c -0.0089,0.011 -0.0152,0.018 -0.01897,0.03 l -0.220002,0.6698 0.302193,-1.8564 c 0.0063,-0.035 -0.0177,-0.069 -0.0531,-0.078 l -0.19473,-0.046 c -0.02908,0 -0.0569,0 -0.07206,0.027 l -0.331316,0.4714 c -0.02655,0.036 -0.08091,0.039 -0.108738,0 l -0.177026,-0.2085 0.0089,-0.011 c 0.05056,-0.06 -0.02278,-0.1429 -0.089759,-0.1035 l -0.945839,0.5738 c -0.049291,0.028 -0.1112703,-0.011 -0.1049261,-0.068 l 0.050561,-0.4625 c 0.00254,-0.02 0.013926,-0.037 0.031617,-0.05 l 0.4994609,-0.3273 c 0.067024,-0.044 0.021496,-0.1453 -0.054367,-0.125 l -0.3173894,0.082 c -0.044246,0.013 -0.087252,-0.02 -0.087252,-0.066 l 0,-0.08 c 0,-0.025 0.013912,-0.047 0.034154,-0.06 l 0.09988,-0.059 c 0.060681,-0.035 0.034139,-0.1276 -0.036661,-0.1276 l -0.4185391,0 c -0.026541,0 -0.050589,0.014 -0.06195,0.038 l -0.1618594,0.3247 c -0.00127,0 -0.00127,0 -0.00254,0 l -0.1466637,0.3765 c -0.00127,0 -0.00127,0 -0.00254,0.011 l -0.1112704,0.3867 0,0 -0.087237,0.393 0,0 -0.06071,0.4031 c 0,0 0,0 0,0.011 l -0.016435,0.4019 c 0,0 0,0 0,0.011 l 0.00759,0.4031 0,0 0.035408,0.4019 0,0.011 0.0784,0.393 0,0 0.064487,0.2717 c 0.013898,0.053 -0.0392,0.1001 -0.091028,0.081 l -0.6145227,-0.2325 c -0.00126,0 -0.00126,0 -0.00255,0 l -0.7194489,-0.321 c -0.00127,0 -0.00127,0 -0.00254,0 l -1.2885015,-0.6319 c -0.024004,-0.011 -0.053098,-0.011 -0.073339,0.011 l -0.1403489,0.1163 c -0.016435,0.014 -0.039172,0.019 -0.060681,0.014 l -0.2389753,-0.06 c -0.00254,0 -0.00635,0 -0.00885,0 L 4.738383,1044.544 c -0.00378,0 -0.00759,0 -0.010126,0 l -0.2364379,-0.1428 c -0.00126,0 -0.00504,0 -0.00631,0 l -0.2187632,-0.168 c -0.00254,0 -0.00631,0 -0.00758,-0.011 l -0.1909091,-0.192 c -0.00255,0 -0.00636,-0.011 -0.00762,-0.011 l -0.1466638,-0.2073 c -0.010126,-0.015 -0.015167,-0.034 -0.012659,-0.051 l 0.067024,-0.3956 0,0 0.094835,-0.4221 c 0,0 0,0 0.00254,0 l 0.1277053,-0.4045 c 0,0 0,0 0.00126,0 l 0.1542468,-0.4044 c 0.00126,0 0.00126,0 0.00254,0 l 0.1795634,-0.3855 c 0.00127,0 0.00127,0 0.00378,0 l 0.2124195,-0.3779 c 0.00127,0 0.00127,0 0.00382,-0.011 l 0.2402294,-0.3514 c 0.00127,0 0.00127,0 0.00381,0 l 0.2655311,-0.3349 c 0.00126,0 0.00126,0 0.00254,0 l 0.2844897,-0.3185 c 0.00126,0 0.00126,0 0.00254,0 l 0.3110603,-0.3021 c 0.00129,0 0.0025,0 0.00378,0 l 0.335079,-0.2768 -0.2478129,0.068 c -0.00127,0 -0.00507,0 -0.00631,0 l -0.2529024,0.043 c -0.00254,0 -0.00635,0 -0.00884,0 l -0.2529024,0.011 c -0.00254,0 -0.00631,0 -0.00885,0 l -0.2529028,-0.026 c -0.00127,0 -0.00503,0 -0.0063,0 l -0.2440502,-0.05 c -0.00254,0 -0.00504,0 -0.00885,0 l -0.2364671,-0.083 c -0.00126,0 -0.00378,0 -0.00631,0 l -0.2351981,-0.1104 c -0.0025,0 -0.00504,0 -0.00885,0 l -0.2098819,-0.134 c -0.00126,0 -0.00381,0 -0.00631,-0.011 l -0.1934905,-0.1605 c -0.00123,0 -0.00504,0 -0.00631,0 l -0.175757,-0.1769 c -0.00254,0 -0.00507,0 -0.0063,-0.011 l -0.055635,-0.076 c -0.036678,-0.048 0.00249,-0.1175 0.063204,-0.1103 l 0.2010444,0.024 c 0.00126,0 0.00507,0 0.00631,0 l 0.3591266,0.017 c 0.00127,0 0.00377,0 0.00503,0 l 0.3679786,-0.017 c 0.00126,0 0.00378,0 0.00631,0 l 0.356589,-0.052 c 0.00378,0 0.00631,0 0.00885,0 l 0.3502456,-0.094 c 0.00126,0 0.00381,0 0.0063,0 l 0.3401686,-0.1187 c 0.00254,0 0.00504,0 0.00631,0 l 0.3338102,-0.144 c 0.00126,0 0.00507,0 0.00635,0 l 0.3148375,-0.1794 c 0.00127,0 0.00378,0 0.00504,0 l 0.2984166,-0.2149 c 0.00254,0 0.00507,0 0.00631,0 l 0.2731295,-0.24 c 0.00254,0 0.00254,0 0.00381,0 l 0.249096,-0.2578 c 0.00254,0 0.00254,0 0.00378,0 l 0.228884,-0.2806 c 0.00127,0 0.00378,0 0.00504,-0.011 l 0.1972528,-0.3071 c 0.00126,0 0.00126,0 0.00254,-0.011 l 0.1719508,-0.3261 0.2604856,-0.503 c 0.00126,0 0.00126,0 0.00254,0 l 0.2844894,-0.4815 c 0.00127,0 0.00127,0 0.00254,0 l 0.317375,-0.4575 c 0.00127,0 0.00127,0 0.00254,0 l 0.3553204,-0.4411 c 0.00124,0 0.00124,0 0.0025,0 l 0.3793243,-0.4132 c 0.00127,0 0.00127,0 0.00254,0 l 0.4046552,-0.3969 c 0.00126,0 0.00126,0 0.00377,0 l 0.4324657,-0.3615 c 0.0013,0 0.0013,0 0.0025,0 l 0.448886,-0.3286 c 0.0013,0 0.0013,0 0.0025,0 l 0.476682,-0.302 2.071213,-1.2486 c 0.0051,0 0.0089,0 0.01392,-0.011 l 0.130198,-0.045 c 0.0064,0 0.01263,0 0.01647,-0.011 l 0.118795,-0.08 c 0.0039,0 0.0064,0 0.0089,-0.011 l 0.09995,-0.092 c 0.0063,0 0.01126,-0.011 0.01517,-0.017 l 0.06824,-0.1226 c 0.0025,0 0.0051,-0.011 0.0051,-0.014 l 0.03917,-0.1301 c 0.0014,-0.011 0.0038,-0.012 0.0076,-0.019 l 0.0961,-0.144 c 0.0013,0 0.005,-0.011 0.0064,-0.011 l 0.07332,-0.1644 c 0.0013,0 0.0013,-0.011 0.0025,-0.011 l 0.0518,-0.1781 0.06703,-0.2554 c 0.0025,0 0.0025,-0.011 0.0039,-0.011 l 0.101092,-0.2364 c 0.0014,0 0.0014,0 0.0026,-0.011 L 14.457118,1030 c 0.0013,0 0.0025,0 0.0038,-0.011 l 0.150499,-0.2098 c 0.0013,0 0.0038,-0.011 0.005,-0.011 l 0.17707,-0.1858 c 0.0013,0 0.0038,0 0.0051,0 l 0.202298,-0.168 c 0.0025,0 0.0051,0 0.0089,-0.011 l 0.218777,-0.1352 c 0.0013,0 0.005,0 0.0063,0 l 0.236482,-0.1103 c 0.0013,0 0.0038,0 0.0063,0 l 0.245261,-0.084 c 0.0025,0 0.0064,0 0.0089,0 l 0.252844,-0.05 c 0.0013,0 0.0038,0 0.0064,0 l 0.261769,-0.026 c 0.0025,0 0.005,0 0.0089,0 l 0.250336,0.011 c 0.0038,0 0.0063,0 0.0089,0 l 0.261711,0.043 c 0.0039,0 0.0064,0 0.0089,0 l 0.244036,0.076 c 0.0025,0 0.0051,0 0.0063,0 l 0.226303,0.098 c 0.0089,0 0.0177,0.011 0.02785,0.011 l 0.338914,0 c 0.0025,0 0.005,0 0.0089,0 l 0.341365,-0.044 c 0.0013,0 0.0013,0 0.0025,0 l 0.33766,-0.06 -0.02531,-0.011 0.447617,-0.063 c 0.0013,0 0.0051,0 0.0063,0 l 0.462785,-0.025 c 0.0014,0 0.0051,0 0.0064,0 l 0.457767,0.018 c 0.0013,0 0.0013,0 0.0025,0 l 0.455173,0.043 c 0.0025,0 0.0051,0 0.0063,0 l 0.16059,0.031 c 0.0721,0.015 0.07589,0.1163 0.0064,0.1352 l -1.541331,0.4347 c -0.0014,0 -0.0014,0 -0.0039,0 l -0.221227,0.076 c -0.0014,0 -0.0051,0 -0.0064,0 l -0.207373,0.091 c -0.0039,0 -0.0076,0 -0.01013,0.011 l -0.192148,0.1264 c -0.0025,0 -0.0051,0 -0.0064,0 l -0.03287,0.026 c -0.04932,0.039 -0.02276,0.1201 0.04171,0.1213 l 0.155602,0 c 0.0013,0 0.005,0 0.0063,0 l 0.341364,-0.026 c 0.0014,0 0.0039,0 0.0051,0 l 0.342677,-0.051 c 0.0013,0 0.0051,0 0.0063,0 l 0.33381,-0.087 c 0.0014,0 0.0014,0 0.0025,0 l 0.33381,-0.1024 c 0.0039,0 0.0064,0 0.0076,0 l 0.314823,-0.1377 c 0.0014,0 0.0039,0 0.0064,0 l 0.300882,-0.1629 -0.247798,0.2666 c -0.0025,0 -0.0051,0 -0.0063,0 l -0.273173,0.2312 c -0.0025,0 -0.0038,0 -0.005,0 l -0.298402,0.2149 c -0.0014,0 -0.0051,0 -0.0064,0 l -0.316107,0.1794 c -0.0013,0 -0.0038,0 -0.005,0 l -0.323717,0.1529 c -0.0013,0 -0.0051,0 -0.0064,0 l -0.342647,0.1188 c -0.0014,0 -0.0038,0 -0.0064,0 l -0.359127,0.087 c -0.0025,0 -0.0025,0 -0.0038,0 l -0.211165,0.058 c -0.0039,0 -0.0064,0 -0.0089,0 l -0.206148,0.091 c -0.0051,0 -0.0075,0 -0.01138,0 l -0.180774,0.1251 c -0.0039,0 -0.0064,0 -0.0089,0.011 l -0.159277,0.149 c -0.0013,0 -0.0051,0 -0.0064,0.011 l -0.139123,0.1744 c -0.0025,0 -0.0063,0 -0.0075,0.011 l -0.107508,0.1984 c -0.0013,0 -0.0025,0 -0.0038,0.011 l -0.07718,0.2111 0,0 -0.111275,0.3766 c -0.0013,0 -0.0013,0.011 -0.0038,0.011 l -0.152978,0.3603 c -0.0014,0 -0.0014,0 -0.0014,0 l -0.04923,0.1403 c -0.0014,0 -0.0039,0.011 -0.0051,0.014 l -0.01647,0.1428 c 0,0 0,0.011 0,0.013 l 0.0089,0.1441 c 0,0 0,0.011 0.0025,0.011 l 0.03162,0.1428 c 0.0013,0 0.0038,0.011 0.0063,0.015 l 0.06195,0.1264 c 0.0014,0 0.0039,0.011 0.0051,0.011 l 0.08219,0.1138 c 0.0076,0.011 0.01263,0.019 0.01392,0.028 l 0.05057,0.335 0,0.011 0.0076,0.3588 c 0,0 0,0 0,0.011 l -0.01648,0.3577 c 0,0 0,0 -0.0025,0.011 l -0.05938,0.3487 c 0,0 0,0 -0.0014,0.011 l -0.09482,0.35 c 0,0 0,0 -0.0013,0 l -0.117657,0.3323 c -0.0013,0 -0.0013,0.011 -0.0025,0.011 l -0.164441,0.3222 c -0.0013,0 -0.0013,0 -0.0025,0 l -0.188445,0.3007 c -0.0013,0 -0.0013,0 -0.0025,0 l -0.198536,0.2717 c -0.01013,0.015 -0.01517,0.032 -0.01386,0.049 l 0.02278,0.221 c 0,0 0,0.011 0.0013,0.011 l 0.06072,0.244 m -5.886083,1.8854 c 2.17e-4,-3e-4 1.814085,1.1144 -4.3e-5,10e-4 m 6.543553,-9.4124 c -0.0038,-0.011 -0.01013,-0.014 -0.0177,-0.018 l -0.04547,-0.035 c -0.0089,-0.011 -0.01901,-0.011 -0.02785,-0.011 l -0.05819,-0.013 c -0.0089,0 -0.0177,0 -0.02654,0 l -0.06063,0.013 c -0.0089,0 -0.01901,0 -0.02785,0.011 l -0.0455,0.035 c -0.0076,0 -0.01392,0.011 -0.01776,0.019 l -0.02903,0.047 c -0.0039,0.011 -0.0076,0.015 -0.0089,0.023 l -0.01259,0.06 c -0.0013,0.011 -0.0013,0.021 0,0.031 l 0.01259,0.053 c 0.0014,0.011 0.0039,0.013 0.0089,0.019 l 0.02903,0.049 c 0.0039,0.011 0.01013,0.014 0.01776,0.018 l 0.0455,0.035 c 0.0089,0.011 0.01899,0.011 0.02908,0.014 l 0.05941,0.011 c 0.0089,0 0.0177,0 0.02654,0 l 0.05693,-0.011 c 0.01013,0 0.02024,-0.011 0.0291,-0.014 l 0.04547,-0.035 c 0.0076,0 0.01392,-0.011 0.0177,-0.018 l 0.02908,-0.048 c 0.0051,-0.011 0.0076,-0.015 0.0089,-0.023 l 0.01269,-0.05 c 0.0013,-0.011 0.0013,-0.019 0,-0.031 l -0.01269,-0.06 c -0.0013,-0.011 -0.005,-0.015 -0.0089,-0.023 l -0.02908,-0.048"
       id="path18501"
       sodipodi:nodetypes="cccccccccccccccccccccccccccccccccccccccccccccccccccccccccccccccccccccccccccccccccccssccccccccccssssccccssccccssccccccccccccssccccccsscccccccccccccccsscccccccccccccccssccccccccccccssccccccccccccccccccccccssccssccccccccscccccccccccccccccccssccssccccccccccccccccccccccccccccccccccccccccccccccccccccccccccccccccccccccccccccccccccccccccccccccccccccccccccccccccccccccccccccccccccccccccccccccccccccccccccccccccccccccccccccccsscccccccccccccccccccccccccscccccccccccccccccccccccccccccccccccccccccccccccccccccccccccccccccccccccccccccccccccccccccccccccccccccccccccccccc" />
  </g>
</svg>
