<?xml version="1.0" encoding="UTF-8" standalone="no"?>
<!-- Created with Inkscape (http://www.inkscape.org/) -->
<svg id="svg6005" xmlns:rdf="http://www.w3.org/1999/02/22-rdf-syntax-ns#" xmlns="http://www.w3.org/2000/svg" height="29.844" width="25.387" version="1.0" xmlns:cc="http://creativecommons.org/ns#" xmlns:xlink="http://www.w3.org/1999/xlink" xmlns:dc="http://purl.org/dc/elements/1.1/">
 <metadata id="metadata4142">
  <rdf:RDF>
   <cc:Work rdf:about="">
    <dc:format>image/svg+xml</dc:format>
    <dc:type rdf:resource="http://purl.org/dc/dcmitype/StillImage"/>
    <dc:title/>
   </cc:Work>
  </rdf:RDF>
 </metadata>
 <path id="path17881" d="m16.812 0.0625h-8.225c-0.17371 0-0.31471 0.1409-0.31471 0.31333v2.3753c0 0.17245-0.141 0.31327-0.31344 0.31327h-7.5818c-0.26058 0-0.40786 0.29945-0.24924 0.50701l1.8556 2.4144c0.042832 0.056639 0.065467 0.12328 0.065467 0.18997v15.075c0 5.2678 5.9214 8.5313 10.608 8.5313 4.7004 0.0023 10.691-3.2635 10.691-8.5313v-15.075c0-0.066741 0.02266-0.13335 0.06418-0.18997l1.8467-2.4169c0.15858-0.20507 0.01-0.50452-0.25052-0.50452h-7.5679c-0.17377 0-0.31347-0.14083-0.31347-0.31327v-2.3753c0-0.1726-0.141-0.3135-0.315-0.3135z" fill-rule="evenodd" stroke="#000" stroke-width=".049998" fill="#fff"/>
 <path id="path8506" style="color:#000000" d="m22.143 6.3589h-18.9l0.06047 14.575c0 4.1259 4.2174 7.4706 9.4199 7.4706s9.4199-3.3447 9.4199-7.4706v-14.575z" stroke="#00008b" stroke-linecap="round" stroke-width=".96283" fill="none"/>
 <path id="path8537" d="m24.184 3.7945-22.981 0.00114 0.3828 0.49842h22.215l0.3828-0.49998zm-22.213 0.99997 0.38436 0.49999h20.682l0.3828-0.49999h-21.449z" fill-rule="evenodd" fill="#00008b"/>
 <g id="g8463" transform="matrix(.038621 0 0 .038621 8.8733 .65299)">
  <path id="rect12769" fill="#fff" d="m2.0312 88.875 0.0312 44.031c0.0324 40.625 35.036 78.441 71.375 100.59h50.938c36.339-22.153 71.343-59.969 71.375-100.59l0.0312-44.031h-193.75z"/>
  <path id="circle12895" fill="#00008b" d="m3.6354 3.7661v85.337h190.54v-85.337h-190.54z"/>
  <path id="diags_white" fill="#fff" d="m3.6354 3.7661v9.9338l73.12 32.735-73.12 32.735v9.9338h22.228l73.043-32.713 73.043 32.713h22.228v-9.9338l-73.12-32.735 73.12-32.735v-9.9338h-22.228l-73.044 32.713-73.043-32.713h-22.228z"/>
  <path id="diags_red" fill="#cf142b" d="m3.6354 3.7661v6.507l80.742 36.162-80.742 36.162v6.507h14.618l80.653-36.091 80.653 36.091h14.618v-6.507l-80.742-36.162 80.742-36.162v-6.507h-14.618l-80.654 36.091-80.653-36.091h-14.618z"/>
  <path id="eraser_white" fill="#fff" d="m3.6354 3.7661 95.271 42.669h15.243l80.027-35.842v-6.827l-87.65 39.255-87.651-39.255h-15.243zm95.271 42.669h-15.243l-80.027 35.842v6.827l87.649-39.255 87.649 39.255h15.243l-95.271-42.669z"/>
  <path id="rect13978" d="m83.875 3.7813v27.625h-80.25v30.062h80.25v27.625h30.062v-27.625h80.25v-30.062h-80.25v-27.625h-30.062z" fill="#fff"/>
  <path id="rect13976" d="m90.5 3.7813v34.25h-86.875v16.812h86.875v34.25h16.812v-34.25h86.875v-16.812h-86.875v-34.25h-16.812z" fill="#cf142b"/>
  <g id="g12758" transform="matrix(1.0429 0 0 1.0429 98.906 52.868)" stroke="#000" stroke-width=".25px" fill="#ffd600">
   <path id="path12760" d="m0-22 6.5 12.5 8.5-11.5 2 12.5 12-9.5-9 18c0 1.1046-8.954 2-20 2s-20-0.8954-20-2l-9-18 12 9.5 2-12.5 8.5 11.5 6.5-12.5z"/>
   <path id="path12762" fill="none" d="m20 0c0-1.1046-8.9543-2-20-2s-20 0.89543-20 2m40.5-1c0-1.1046-9.1782-2-20.5-2s-20.5 0.89543-20.5 2m43-4c0-1.6569-10.074-3-22.5-3s-22.5 1.3431-22.5 3m45.5-1c0-1.6569-10.297-3-23-3s-23 1.3431-23 3"/>
   <rect id="rect12764" rx=".5" ry=".5" height="3" width="6" y="-7" x="-3"/>
   <path id="stl" d="m8.51-5.245c-0.11 1.91 4.84 2.155 5.04 0.37 0.19779-1.7652-4.9301-2.2778-5.04-0.37zm10.6 1c-0.38503 1.0094 2.5318 2.9212 3.31 1.255 0.78-1.67-2.94-2.225-3.31-1.255z"/>
   <use id="use12767" xlink:href="#stl" transform="scale(-1,1)" height="15" width="25" y="0" x="0"/>
  </g>
  <path id="path2087" d="m2 2 0.0625 130.91c0.0401 50.202 53.458 96.15 96.844 113.5 43.386-17.35 96.804-63.298 96.844-113.5l0.06-130.91h-193.81z" stroke="#fff" stroke-width="4" fill="none"/>
  <g id="b" fill="#00008b" transform="matrix(1.0561 0 0 1.0218 98.906 102.15)">
   <path id="sb" d="m153.84 223.09c-10.561 0-19.114 5.0938-29.781 5.0938-2.4391 0-4.7557-0.26964-7.0312-0.6875 0.0687 0.85648 0.125 1.723 0.125 2.5938 0 3.9491-0.72848 7.7525-2.0625 11.344 2.8794 0.62314 5.828 1.0625 8.9688 1.0625 10.561 0.00001 19.114-5.0938 29.781-5.0938 10.561-0.00001 19.114 5.0938 29.781 5.0938 10.561 0.00001 19.114-5.0938 29.781-5.0938s19.22 5.0938 29.781 5.0938c10.667 0 19.22-5.0938 29.781-5.0938 10.667 0 19.22 5.0938 29.781 5.0938 3.0067 0 5.8307-0.41875 8.5938-1-1.6627-2.1498-2.5938-4.5444-2.5938-7.0938 0-2.6111 0.97962-5.0613 2.7188-7.25-2.8084 0.60214-5.6755 1.0312-8.7188 1.0312-10.667 0-19.22-5.0938-29.781-5.0938-10.667 0-19.22 5.0937-29.781 5.0938-10.667 0-19.22-5.0938-29.781-5.0938s-19.114 5.0938-29.781 5.0938c-10.561-0.00001-19.114-5.0938-29.781-5.0938z" transform="matrix(.94684 0 0 .97864 -202.05 -218.32)"/>
   <path id="path3015" d="m153.84 251.69c-10.561 0-19.114 5.0938-29.781 5.0938-2.4391 0-4.7557-0.26964-7.0312-0.6875 0.0687 0.85648 0.125 1.723 0.125 2.5938 0 2.1054-0.19829 4.175-0.59375 6.1875-0.002 0.0101 0.002 0.0212 0 0.0312 0.42456 1.3566 0.6875 2.9896 0.6875 4.75 0 0.27715-0.0192 0.54214-0.0312 0.8125 2.2103 0.39256 4.4666 0.625 6.8438 0.625 10.561 0.00001 19.114-5.0938 29.781-5.0938 10.561-0.00001 19.114 5.0938 29.781 5.0938 10.561 0.00001 19.114-5.0938 29.781-5.0938s19.22 5.0938 29.781 5.0938c10.667 0 19.22-5.0938 29.781-5.0938 10.667 0 19.22 5.0938 29.781 5.0938 2.1777 0 4.249-0.22052 6.2812-0.5625-0.0143-0.16603-0.0312-0.32983-0.0312-0.5 0-0.98376 0.26154-1.9005 0.6875-2.6875-0.61396-1.3849-0.9375-2.831-0.9375-4.3438 0-2.6111 0.97962-5.0613 2.7188-7.25-2.8084 0.60214-5.6755 1.0312-8.7188 1.0312-10.667 0-19.22-5.0938-29.781-5.0938-10.667 0-19.22 5.0937-29.781 5.0938-10.667 0-19.22-5.0938-29.781-5.0938s-19.114 5.0938-29.781 5.0938c-10.561-0.00001-19.114-5.0938-29.781-5.0938z" transform="matrix(.94684 0 0 .97864 -202.05 -218.32)"/>
   <path id="path3821" d="m153.84 280.28c-10.561 0-19.114 5.0938-29.781 5.0938-1.0889 0-2.1401-0.0596-3.1875-0.15625 4.9732 1.4116 8.625 6.1071 8.625 11.688 0 0.81609-0.10103 1.6041-0.25 2.375 8.3126-1.1881 15.727-4.6875 24.594-4.6875 10.561-0.00001 19.114 5.0938 29.781 5.0938 10.561 0.00001 19.114-5.0938 29.781-5.0938s19.22 5.0938 29.781 5.0938c10.667 0 19.22-5.0938 29.781-5.0938 8.9225 0 16.373 3.553 24.75 4.7188 0.67383-2.8538 2.3432-5.3806 4.6562-7.375-0.15264-0.55929-0.25-1.129-0.25-1.7188 0-1.7916 0.75434-3.4548 2.0312-4.875-0.46729 0.02-0.93081 0.0312-1.4062 0.0312-10.667 0-19.22-5.0938-29.781-5.0938-10.667 0-19.22 5.0937-29.781 5.0938-10.667 0-19.22-5.0938-29.781-5.0938s-19.114 5.0938-29.781 5.0938c-10.561-0.00001-19.114-5.0938-29.781-5.0938zm-36.812 4.4062c0.003 0.0406-0.003 0.0844 0 0.125 0.19971-0.0126 0.39147-0.029 0.59375-0.0312-0.19701-0.0338-0.3974-0.0577-0.59375-0.0937z" transform="matrix(.94684 0 0 .97864 -202.05 -218.32)"/>
  </g>
  <g id="g13709" transform="matrix(.74436 0 0 .74436 98.906 254)" stroke="#000" stroke-width=".64729" fill="#ffd600">
   <path id="path13711" d="m213.41 244.69-4.375 47 3.9062 74.188c0.3174 0.0525 0.62623 0.12764 0.9375 0.1875l3.875-74.375-4.3438-47z" transform="matrix(1.3434 0 0 1.3434 -286.69 -503.7)"/>
   <g id="g13713">
    <path id="use13715" d="m240.47 247.53-14.031 45.062-11.969 75.594c0.24123 0.0273 0.48323 0.0624 0.71875 0.0937l19.781-73.875 5.5-46.875z" transform="matrix(1.3434 0 0 1.3434 -286.69 -503.7)"/>
    <path id="use13717" d="m266.38 255.94-23.094 41.188-26.844 69.906c0.31519 0.0365 0.63097 0.0848 0.9375 0.125l33.875-66.5 15.125-44.719z" transform="matrix(1.3434 0 0 1.3434 -286.69 -503.7)"/>
    <path id="use13719" d="m289.97 269.56-31.156 35.469-39.5 60.844c0.44627 0.0415 0.87814 0.0668 1.3125 0.125l45.25-55.844 24.094-40.594z" transform="matrix(1.3434 0 0 1.3434 -286.69 -503.7)"/>
    <path id="use13721" d="m296.03 298.34-23.69 17.66-44.09 44.09c1.878-0.6378 3.6767-1.144 5.3438-1.5l44.594-36.125 14.844-16.094c0.65576-2.3094 1.5603-4.8043 2.6875-7.3438 0.10375-0.23373 0.20687-0.4573 0.3125-0.6875z" transform="matrix(1.3434 0 0 1.3434 -286.69 -503.7)"/>
    <path id="path13723" d="m227 245.38c-0.70026 6.6626-4.5332 7.777-5 12.219-0.46684 4.4417 3.0606 6.3083 2.5938 10.75-0.31123 2.9611-4.3297 5.5173-4.7188 9.2188-0.38903 3.7014 0.93623 5.3514 0.625 8.3125s-2.75 5.8125-2.75 5.8125l-3.9062 74.781c0.29723 0.0351 0.58412 0.0557 0.875 0.0937l11.72-73.97s-2.3724-4.859-1.75-10.781c0.62245-5.9223 5.979-7.2291 6.5625-12.781 0.70026-6.6626-5.9617-7.37-4.25-23.656z" transform="matrix(1.3434 0 0 1.3434 -286.69 -503.7)"/>
    <path id="use13725" d="m253.66 251.06c-2.0702 6.3714-6.0886 6.6274-7.4688 10.875-1.3801 4.2476 1.7239 6.8149 0.34375 11.062-0.92008 2.8317-5.3812 4.5228-6.5312 8.0625-1.1501 3.5396-0.20492 5.387-1.125 8.2188-0.92008 2.8317-3.9062 5.125-3.9062 5.125l-19.344 72.188c0.29447 0.0658 0.58872 0.14464 0.875 0.21875l26.781-69.688s-1.3089-5.2741 0.53125-10.938c1.8402-5.6634 7.3686-5.8155 9.0938-11.125 2.0702-6.3714-4.3104-8.4255 0.75-24z" transform="matrix(1.3434 0 0 1.3434 -286.69 -503.7)"/>
    <path id="use13727" d="m278.53 262.12c-3.3496 5.8017-7.3294 5.2259-9.5625 9.0938-2.2331 3.8678 0.26433 7.0384-1.9688 10.906-1.4887 2.5785-6.2016 3.2768-8.0625 6.5s-1.3238 5.2652-2.8125 7.8438c-1.4887 2.5785-4.875 4.1875-4.875 4.1875l-32.719 64.25c0.40597-0.009 0.80817-0.0312 1.2188-0.0312 0.0631 0 0.12448-0.00022 0.1875 0l38.875-59.844s-0.19619-5.4054 2.7812-10.562c2.9774-5.1571 8.3962-4.1652 11.188-9 3.3496-5.8017-2.438-9.1618 5.75-23.344z" transform="matrix(1.3434 0 0 1.3434 -286.69 -503.7)"/>
    <path id="use13729" d="m300.56 278.12c-4.4827 4.9785-8.2303 3.6185-11.219 6.9375-2.9884 3.319-1.2303 6.8997-4.2188 10.219-1.9923 2.2127-6.7596 1.9217-9.25 4.6875s-2.3827 4.8811-4.375 7.0938-5.625 3.0938-5.625 3.0938l-43.781 54.062c0.62915 0.0355 1.2469 0.11279 1.8438 0.21875l48.41-48.43s0.92166-5.3246 4.9062-9.75c3.9846-4.4254 9.1082-2.3512 12.844-6.5 4.4827-4.9785-0.48888-9.4553 10.469-21.625z" transform="matrix(1.3434 0 0 1.3434 -286.69 -503.7)"/>
   </g>
   <g id="use13733" transform="scale(-1,1)">
    <path id="path13775" d="m186.31 247.53 5.5 46.875 18.969 70.688c0.37949 0.10635 0.76177 0.22061 1.125 0.34375l-11.562-72.844-14.031-45.062z" transform="matrix(-1.3434 0 0 1.3434 286.69 -503.7)"/>
    <path id="path13777" d="m160.41 255.94 15.156 44.719 33.094 64.938c0.36925-0.0485 0.74822-0.0924 1.125-0.125l-26.25-68.344-23.125-41.188z" transform="matrix(-1.3434 0 0 1.3434 286.69 -503.7)"/>
    <path id="path13779" d="m136.84 269.56 24.094 40.594 42.938 53.031c0.19877-0.005 0.39302-0.0312 0.59375-0.0312 0.44362 0 0.87889 0.0362 1.3125 0.0625l-37.78-58.18-31.16-35.47z" transform="matrix(-1.3434 0 0 1.3434 286.69 -503.7)"/>
    <path id="path13781" d="m128.84 296.94c0.84583 1.9735 1.5689 4.0946 2.0625 6.3438 0.002 0.01-0.002 0.0213 0 0.0312l17.719 19.156 47.312 38.312c1.3445 0.14915 2.6478 0.35027 3.9062 0.59375l-45.4-45.38-25.6-19.06z" transform="matrix(-1.3434 0 0 1.3434 286.69 -503.7)"/>
    <path id="path13783" d="m199.78 245.38c1.7117 16.286-4.9503 16.994-4.25 23.656 0.58355 5.5521 5.9713 6.859 6.5938 12.781 0.62245 5.9223-1.7812 10.781-1.7812 10.781l9.125 57.562c0.85257-0.14898 1.7215-0.26731 2.625-0.3125l-3.0625-58.156s-2.4388-2.8514-2.75-5.8125c-0.31123-2.9611 1.014-4.6111 0.625-8.3125-0.38903-3.7014-4.4075-6.2576-4.7188-9.2188-0.46684-4.4417 3.0918-6.3083 2.625-10.75-0.46684-4.4417-4.331-5.5562-5.0312-12.219z" transform="matrix(-1.3434 0 0 1.3434 286.69 -503.7)"/>
    <path id="use13785" d="m173.16 251.06c5.0604 15.574-1.3202 17.629 0.75 24 1.7252 5.3095 7.2536 5.4616 9.0938 11.125s0.53125 10.938 0.53125 10.938l25.875 67.438c0.44664 0.093 0.88449 0.19741 1.3125 0.3125l-18.92-70.46s-2.9862-2.2933-3.9062-5.125c-0.92008-2.8317 0.0564-4.6791-1.0938-8.2188-1.1501-3.5396-5.6112-5.2308-6.5312-8.0625-1.3801-4.2476 1.6926-6.8149 0.3125-11.062-1.3801-4.2476-5.3673-4.5036-7.4375-10.875z" transform="matrix(-1.3434 0 0 1.3434 286.69 -503.7)"/>
    <path id="use13787" d="m148.28 262.12c8.188 14.182 2.3691 17.542 5.7188 23.344 2.7914 4.8348 8.2413 3.8429 11.219 9 2.9774 5.1571 2.7812 10.562 2.7812 10.562l39.219 60.375c0.42141-0.0422 0.84911-0.0976 1.2812-0.125l-32.938-64.625s-3.4175-1.609-4.9062-4.1875-0.92035-4.6206-2.7812-7.8438c-1.8609-3.2232-6.5738-3.9215-8.0625-6.5-2.2331-3.8678 0.23308-7.0384-2-10.906-2.2331-3.8678-6.1816-3.292-9.5312-9.0938z" transform="matrix(-1.3434 0 0 1.3434 286.69 -503.7)"/>
    <path id="use13789" d="m126.25 278.12c10.958 12.17 5.9548 16.646 10.438 21.625 3.7356 4.1488 8.8592 2.0746 12.844 6.5 3.9846 4.4254 4.9062 9.75 4.9062 9.75l47.125 47.094c0.8381 0.0588 1.664 0.14037 2.4688 0.25l-43.094-53.188s-3.664-0.88108-5.6562-3.0938c-1.9923-2.2127-1.8846-4.3279-4.375-7.0938-2.4904-2.7658-7.2264-2.4748-9.2188-4.6875-2.9884-3.319-1.2303-6.8997-4.2188-10.219-2.9884-3.319-6.7361-1.959-11.219-6.9375z" transform="matrix(-1.3434 0 0 1.3434 286.69 -503.7)"/>
   </g>
   <path id="circle13735" d="m213.41 291.56c-26.341 0-49.813 12.231-65.094 31.312h3.1875v2.6875c3.3822 0.85912 6.2455 3.6763 7.9688 7.5625 0.0121 0.008 0.0191 0.0234 0.0312 0.0312 4.0767 2.6464 7.5584 5.984 10.219 9.8438 4.7289 1.5702 8.7938 4.527 11.719 8.375 7.908 0.47008 14.349 4.7816 15.906 10.406 0.002 0.0003-0.002 0.031 0 0.0312 6.3867 1.1857 12.43 2.9029 18 5.0938 4.8423-4.215 11.97-7.38 20.281-8.7812 3.64-3.1062 7.8975-5.7994 12.625-8 2.4975-4.83 6.7232-8.3881 11.719-9.5938 4.1267-7.1819 10.713-13.2 18.844-17.281-15.269-19.304-38.886-31.688-65.406-31.688z" transform="matrix(1.3434 0 0 1.3434 -286.69 -503.7)"/>
  </g>
  <path id="path13196" d="m2.0074 2.0006 0.0625 130.91c0.018 22.549 10.846 44.217 26.656 62.844 1.9656 1.8709 3.1735 3.3041 4.7212 5.2131 0.86243 1.0638 1.4039 1.5219 2.9976 3.2869 18.448 18.852 41.614 33.816 62.469 42.156 21.114-8.4438 44.567-23.691 63.125-42.875 3.7917-4.0978 7.2471-8.636 11.438-13.125 0.0178-0.023 0.0447-0.0394 0.0625-0.0625 13.384-17.358 22.203-37.043 22.219-57.438l0.0625-130.91h-193.81z" stroke="#00008b" stroke-width="4.0003" fill="none"/>
 </g>
</svg>
