<?xml version="1.0" encoding="UTF-8" standalone="no"?>
<!-- Generator: Adobe Illustrator 12.0.0, SVG Export Plug-In . SVG Version: 6.00 Build 51448)  -->
<svg id="Layer_1" xmlns:rdf="http://www.w3.org/1999/02/22-rdf-syntax-ns#" xmlns="http://www.w3.org/2000/svg" xml:space="preserve" overflow="visible" height="23.209" viewBox="0 0 25.978855 23.2088" width="25.979" version="1.1" enable-background="new 0 0 449 401" xmlns:cc="http://creativecommons.org/ns#" xmlns:dc="http://purl.org/dc/elements/1.1/"><metadata id="metadata3674"><rdf:RDF><cc:Work rdf:about=""><dc:format>image/svg+xml</dc:format><dc:type rdf:resource="http://purl.org/dc/dcmitype/StillImage"/></cc:Work></rdf:RDF></metadata>
<g id="g3606" transform="matrix(.055611 0 0 .055611 .50476 .45440)">
	<g id="g3608" clip-rule="evenodd">
		<path id="path3610" d="m-7.9528 258.38c0-135.9 101.26-248.16 232.45-265.43 131.19 17.273 232.45 129.53 232.45 265.43v68.679c0 31.128-22.105 57.093-51.474 63.054l-0.18039 0.0365-0.17938 0.0355-0.18241 0.0364-0.19052 0.0385-0.19053 0.0365-0.18849 0.0364-0.19153 0.0365c-58.19 11.6-118.24 17.68-179.68 17.68-61.441 0-121.49-6.0784-179.68-17.674l-0.19103-0.0365-0.189-0.0364-0.19001-0.0365-0.19154-0.0385-0.1814-0.0364-0.17988-0.0355-0.18039-0.0365c-29.365-5.96-51.47-31.93-51.47-63.06v-68.679z" fill-rule="evenodd" fill="#fff"/>
			<path id="path3612" stroke-linejoin="round" d="m-7.9528 258.38c0-135.9 101.26-248.16 232.45-265.43 131.19 17.273 232.45 129.53 232.45 265.43v68.679c0 31.128-22.105 57.093-51.474 63.054l-0.18039 0.0365-0.17938 0.0355-0.18241 0.0364-0.19052 0.0385-0.19053 0.0365-0.18849 0.0364-0.19153 0.0365c-58.19 11.6-118.24 17.68-179.68 17.68-61.441 0-121.49-6.0784-179.68-17.674l-0.19103-0.0365-0.189-0.0364-0.19001-0.0365-0.19154-0.0385-0.1814-0.0364-0.17988-0.0355-0.18039-0.0365c-29.365-5.96-51.47-31.93-51.47-63.06v-68.679z" stroke="#000" stroke-linecap="round" stroke-miterlimit="3.8637" stroke-width="1.0377" fill="none"/>
	</g>
	<g id="g3614">
		<path id="path3616" d="m224.5 12.609c119.77 16.55 212 119.35 212 243.67v66.182c0 24.177-17.171 44.369-39.989 49-55.31 11.02-113.61 17.04-172.01 17.04s-115.53-5.79-170.84-16.81c-22.81-4.64-41.16-25.06-41.16-49.23v-66.18c0-124.32 92.231-227.12 212-243.67z" fill-rule="evenodd" clip-rule="evenodd" fill="#006b54"/>
	</g>
</g>
</svg>
