<?xml version="1.0" encoding="UTF-8" standalone="no"?>
<!-- Generator: Adobe Illustrator 12.0.0, SVG Export Plug-In . SVG Version: 6.00 Build 51448)  -->
<svg id="Layer_1" xmlns:rdf="http://www.w3.org/1999/02/22-rdf-syntax-ns#" xmlns="http://www.w3.org/2000/svg" xml:space="preserve" overflow="visible" height="24.354" viewBox="0 0 23.384865 24.354027" width="23.385" version="1.1" enable-background="new 0 0 385 401" xmlns:cc="http://creativecommons.org/ns#" xmlns:dc="http://purl.org/dc/elements/1.1/"><metadata id="metadata3959"><rdf:RDF><cc:Work rdf:about=""><dc:format>image/svg+xml</dc:format><dc:type rdf:resource="http://purl.org/dc/dcmitype/StillImage"/></cc:Work></rdf:RDF></metadata>
<g id="g3899" transform="matrix(.057922 0 0 .057922 .54243 .56364)">
	<g id="g3901" clip-rule="evenodd" transform="matrix(1.0458 0 0 1.0458 -8.8087 -9.1748)">
		<path id="path3903" d="m0.5 262.02c0-122.76 80.731-226.67 192-261.52 111.27 34.852 192 138.76 192 261.52v63.643c0 29.993-21.304 55.014-49.602 60.76l-0.18946 0.0381-0.18652 0.0381-0.1875 0.0371c-45.93 9.17-93.32 13.97-141.84 13.97-48.519 0-95.911-4.7988-141.83-13.966l-0.1875-0.0371-0.18652-0.0381-0.18994-0.0381c-28.302-5.75-49.606-30.77-49.606-60.76v-63.643z" fill-rule="evenodd" fill="#fff"/>
			<path id="path3905" stroke-linejoin="round" d="m0.5 262.02c0-122.76 80.731-226.67 192-261.52 111.27 34.852 192 138.76 192 261.52v63.643c0 29.993-21.304 55.014-49.602 60.76l-0.18946 0.0381-0.18652 0.0381-0.1875 0.0371c-45.93 9.17-93.32 13.97-141.84 13.97-48.519 0-95.911-4.7988-141.83-13.966l-0.1875-0.0371-0.18652-0.0381-0.18994-0.0381c-28.302-5.75-49.606-30.77-49.606-60.76v-63.643z" stroke="#000" stroke-linecap="round" stroke-miterlimit="3.8637" fill="none"/>
	</g>
	<g id="g3907">
		<path id="path3909" d="m192.5 13.104c104.55 34.419 180 132.87 180 248.92v63.643c0 24.173-17.166 44.365-39.982 48.999-45.17 9.02-92.31 13.84-140.02 13.84s-94.329-4.72-139.49-13.74c-22.819-4.63-40.51-24.93-40.51-49.1v-63.643c0-116.04 75.45-214.5 180-248.92z" fill-rule="evenodd" clip-rule="evenodd" fill="#006b54"/>
	</g>
</g>
</svg>
