<?xml version="1.0" encoding="UTF-8" standalone="no"?>
<!-- Created with Inkscape (http://www.inkscape.org/) -->
<svg id="svg2" xmlns:rdf="http://www.w3.org/1999/02/22-rdf-syntax-ns#" xmlns="http://www.w3.org/2000/svg" height="28" width="22.5" version="1.0" xmlns:cc="http://creativecommons.org/ns#" xmlns:dc="http://purl.org/dc/elements/1.1/">
 <metadata id="metadata4144">
  <rdf:RDF>
   <cc:Work rdf:about="">
    <dc:format>image/svg+xml</dc:format>
    <dc:type rdf:resource="http://purl.org/dc/dcmitype/StillImage"/>
   </cc:Work>
  </rdf:RDF>
 </metadata>
 <g id="layer1" transform="matrix(.037167 0 0 .037167 .00020052 .125)">
  <g id="g1877">
   <rect id="rect2029" rx="37.5" ry="37.5" height="749.72" width="599.72" stroke="#000" y=".13882" x=".13904" stroke-width=".27766" fill="#fff"/>
   <rect id="rect4704" rx="28.125" ry="25.137" height="731.25" width="581.25" y="9.375" x="9.3751"/>
   <rect id="rect5591" rx="12.5" ry="12.5" height="700" width="550" y="25" x="25" fill="#fff"/>
   <path id="path2026" d="m235.69 24.484-208.18 223.92l33.56 37.136c8.3078 10.458 33.967 36.675 35.894 36.675 0.72094 0 3.7315 1.6618 6.6901 3.6929 6.5277 4.4813 16.029 8.3982 24.682 10.175 15.591 3.2013 33.734 8.3668 37.446 10.661 2.2203 1.3722 4.9138 2.4949 5.9856 2.4949 2.9949 0 12.612 10.302 13.429 14.385l0.72623 3.6311h12.732 12.732l-0.85316-3.5388c-2.8512-11.826-15.707-28.854-23.193-30.719-2.0186-0.5028-7.6083-2.5348-12.422-4.5154-4.8134-1.9807-10.749-3.9759-13.19-4.4339-11.092-3.6976-30.578-7.6965-34.138-9.7033-11.299-1.7235-37.115-27.518-37.115-27.518-9.7649-11.816-20.571-22.687-30.811-34.074 0 0 185.04-199.15 185.04-199.15l293.96 270-22.043 28.012 19.709 15.664 36.158-45.843-321.17-296.98-15.625 0.0392-7.6267 701.07m24.626-0.2794-1.3747-700.83m-23.251 701.11-0.0939-4.7379c-0.0517-2.3002-0.57661-7.0777-1.1665-10.617-0.58993-3.5388-2.0688-12.804-3.2863-20.59-0.98962-7.5593-1.2224-11.112-2.8755-18.5-0.89433-3.595-4.1594-13.394-5.8992-17.146-9.3789-20.223-9.8419-21.632-9.8419-29.962 0-4.5462 0.50501-9.596 1.1223-11.222 0.61727-1.6258 1.857-5.2723 2.7551-8.1034 0.86104-3.0429 3.4462-5.7257 5.1568-9.4901 1.7105-3.7644 2.5464-8.6106 2.5476-8.6193 0.009 0.01 2.79 0.006 14.155 0.006 14.14 0 14.156 0.0002 14.155 0.001-0.003 0.005-1.9011 11.391-8.2235 19.979-6.9879 9.4923-8.4052 16.037-5.3097 24.517 1.1598 3.1776 2.7144 7.8042 3.4545 10.281 0.74012 2.4772 2.935 7.7197 4.8775 11.65 2.2501 4.5527 3.8524 10.39 4.4152 16.086 0.48583 4.9168 1.6112 11.788 2.5008 15.27l1.8629 7.4412 83.061-105.19 19.187 15.211-97.928 123.45"/>
  </g>
 </g>
</svg>
