<?xml version="1.0" encoding="UTF-8" standalone="no"?>
<!-- Generator: Adobe Illustrator 12.0.0, SVG Export Plug-In . SVG Version: 6.00 Build 51448)  -->
<svg id="Layer_1" xmlns:rdf="http://www.w3.org/1999/02/22-rdf-syntax-ns#" xmlns="http://www.w3.org/2000/svg" xml:space="preserve" overflow="visible" height="22.37" viewBox="0 0 27.93 22.370001" width="27.93" version="1.1" enable-background="new 0 0 481 385" xmlns:cc="http://creativecommons.org/ns#" xmlns:dc="http://purl.org/dc/elements/1.1/"><metadata id="metadata3923"><rdf:RDF><cc:Work rdf:about=""><dc:format>image/svg+xml</dc:format><dc:type rdf:resource="http://purl.org/dc/dcmitype/StillImage"/></cc:Work></rdf:RDF></metadata>
<g id="g3873" transform="matrix(.057922 0 0 .057922 0 .069999)">
	<g id="g3875">
		<g id="g3877" fill="#fff">
			<path id="path3879" d="m0.5 28.5c0-15.464 12.536-28 28-28h424c15.464 0 28 12.536 28 28v328c0 15.465-12.536 28-28 28h-424c-15.464 0-28-12.535-28-28v-328z"/>
			<path id="path3881" d="m240.5 192.5"/>
		</g>
		<g id="g3883" stroke-linejoin="round" stroke="#000" stroke-linecap="round" stroke-miterlimit="3.8637" fill="none">
			<path id="path3885" d="m0.5 28.5c0-15.464 12.536-28 28-28h424c15.464 0 28 12.536 28 28v328c0 15.465-12.536 28-28 28h-424c-15.464 0-28-12.535-28-28v-328z"/>
			<path id="path3887" d="m240.5 192.5"/>
		</g>
	</g>
	<g id="g3889">
		<g id="g3891">
			<path id="path3893" d="m6.5 28.5c0-12.15 9.8496-22 22-22h424c12.15 0 22 9.8496 22 22v328c0 12.15-9.8496 22-22 22h-424c-12.15 0-22-9.8496-22-22v-328z"/>
			<path id="path3895" d="m240.5 192.5"/>
		</g>
	</g>
	<g id="g3897">
		<g id="g3899" fill="#fff">
			<path id="path3901" d="m14.5 28.5c0-7.7319 6.2676-14 14-14h424c7.7324 0 14 6.2681 14 14v328c0 7.7324-6.2676 14-14 14h-424c-7.7324 0-14-6.2676-14-14v-328z"/>
			<path id="path3903" d="m240.5 192.5"/>
		</g>
	</g>
	<g id="g3905">
		<polygon id="polygon3907" points="124.5 28.5 238.04 28.5 239.84 31.24 241.64 38.549 358.79 39.464 362.39 31.24 398.43 32.155 429.97 140.88 423.66 179.25 432.68 230.42 447.09 258.74 452.5 287.98 452.5 323.61 417.36 356.5 395.73 356.5 372.3 345.54 379.08 331.04 399.29 340.5 411.04 340.5 436.5 316.67 436.5 289.44 431.78 263.93 417.33 235.55 407.43 179.34 413.6 141.86 386.33 47.853 372.73 47.508 369.21 55.546 229.52 54.455 226.71 44.5 143.45 44.5 147.2 66.563 160.71 67.673 165.37 62.955 200.85 71.255 240.97 101.76 286.38 92.022 306.88 103.03 299.31 117.12 283.99 108.9 237.14 118.95 193.88 86.058 170.46 80.578 166.85 84.231 133.51 81.492" clip-rule="evenodd" fill-rule="evenodd"/>
	</g>
</g>
</svg>
