<?xml version="1.0" encoding="UTF-8" standalone="no"?>
<!-- Generator: Adobe Illustrator 12.0.0, SVG Export Plug-In . SVG Version: 6.00 Build 51448)  -->
<svg id="Layer_1" xmlns:rdf="http://www.w3.org/1999/02/22-rdf-syntax-ns#" xmlns="http://www.w3.org/2000/svg" xml:space="preserve" overflow="visible" height="22.4" viewBox="0 0 22.4 22.4" width="22.4" version="1.1" enable-background="new 0 0 385 385" xmlns:cc="http://creativecommons.org/ns#" xmlns:dc="http://purl.org/dc/elements/1.1/"><metadata id="metadata4563"><rdf:RDF><cc:Work rdf:about=""><dc:format>image/svg+xml</dc:format><dc:type rdf:resource="http://purl.org/dc/dcmitype/StillImage"/></cc:Work></rdf:RDF></metadata>
<g id="g4523" transform="matrix(.057922 0 0 .057922 0 .099994)">
	<g id="g4525">
		<g id="g4527" fill="#fff">
			<path id="path4529" d="m0.5 28.5c0-15.464 12.536-28 28-28h328c15.464 0 28 12.536 28 28v328c0 15.465-12.536 28-28 28h-328c-15.464 0-28-12.535-28-28v-328z"/>
			<path id="path4531" d="m192.5 192.5"/>
		</g>
		<g id="g4533" stroke-linejoin="round" stroke="#000" stroke-linecap="round" stroke-miterlimit="3.8637" fill="none">
			<path id="path4535" d="m0.5 28.5c0-15.464 12.536-28 28-28h328c15.464 0 28 12.536 28 28v328c0 15.465-12.536 28-28 28h-328c-15.464 0-28-12.535-28-28v-328z"/>
			<path id="path4537" d="m192.5 192.5"/>
		</g>
	</g>
	<g id="g4539">
		<g id="g4541">
			<path id="path4543" d="m6.5 28.5c0-12.15 9.8496-22 22-22h328c12.15 0 22 9.8496 22 22v328c0 12.15-9.8496 22-22 22h-328c-12.15 0-22-9.8496-22-22v-328z"/>
			<path id="path4545" d="m192.5 192.5"/>
		</g>
	</g>
	<g id="g4547">
		<g id="g4549" fill="#fff">
			<path id="path4551" d="m14.5 28.5c0-7.7319 6.2681-14 14-14h328c7.7324 0 14 6.2681 14 14v328c0 7.7324-6.2676 14-14 14h-328c-7.7319 0-14-6.2676-14-14v-328z"/>
			<path id="path4553" d="m192.5 192.5"/>
		</g>
	</g>
	<g id="g4555">
		<polygon id="polygon4557" points="28.5 28.5 142.04 28.5 143.84 31.24 145.64 38.549 262.79 39.464 266.39 31.24 302.43 32.155 333.97 140.88 327.66 179.25 336.68 230.42 351.09 258.74 356.5 287.98 356.5 323.61 321.36 356.5 299.73 356.5 276.3 345.54 283.08 331.04 303.29 340.5 315.04 340.5 340.5 316.67 340.5 289.44 335.78 263.93 321.33 235.55 311.43 179.34 317.6 141.86 290.33 47.853 276.73 47.508 273.21 55.546 133.52 54.455 130.71 44.5 47.451 44.5 51.203 66.563 64.711 67.673 69.365 62.955 104.85 71.255 144.97 101.76 190.38 92.021 210.88 103.03 203.31 117.12 187.99 108.9 141.14 118.95 97.883 86.058 74.457 80.578 70.853 84.231 37.513 81.492" clip-rule="evenodd" fill-rule="evenodd"/>
	</g>
</g>
</svg>
