<?xml version="1.0" encoding="UTF-8" standalone="no"?>
<!-- Created with Inkscape (http://www.inkscape.org/) -->

<svg
   xmlns:dc="http://purl.org/dc/elements/1.1/"
   xmlns:cc="http://creativecommons.org/ns#"
   xmlns:rdf="http://www.w3.org/1999/02/22-rdf-syntax-ns#"
   xmlns:svg="http://www.w3.org/2000/svg"
   xmlns="http://www.w3.org/2000/svg"
   xmlns:sodipodi="http://sodipodi.sourceforge.net/DTD/sodipodi-0.dtd"
   xmlns:inkscape="http://www.inkscape.org/namespaces/inkscape"
   id="svg3978"
   height="22.38"
   width="27.95"
   version="1.0"
   inkscape:version="0.48.3.1 r9886"
   sodipodi:docname="shield_hwy_ga3.svg">
  <defs
     id="defs18697" />
  <sodipodi:namedview
     pagecolor="#ffffff"
     bordercolor="#666666"
     borderopacity="1"
     objecttolerance="10"
     gridtolerance="10"
     guidetolerance="10"
     inkscape:pageopacity="0"
     inkscape:pageshadow="2"
     inkscape:window-width="1499"
     inkscape:window-height="1249"
     id="namedview18695"
     showgrid="false"
     inkscape:zoom="47.810547"
     inkscape:cx="13.975"
     inkscape:cy="11.19"
     inkscape:window-x="65"
     inkscape:window-y="24"
     inkscape:window-maximized="0"
     inkscape:current-layer="g2901" />
  <metadata
     id="metadata3970">
    <rdf:RDF>
      <cc:Work
         rdf:about="">
        <dc:format>image/svg+xml</dc:format>
        <dc:type
           rdf:resource="http://purl.org/dc/dcmitype/StillImage" />
      </cc:Work>
    </rdf:RDF>
  </metadata>
  <g
     id="g2901"
     stroke="#000"
     transform="matrix(.037165 0 0 .037168 .00058302 .079503)">
    <path
       id="path1356"
       d="m 96.2579,424.692 c -3.959,-13.69 -18.809,-60.43 -2.947,-105.83 4.594,-6.71 -12.456,-29.53 -13.552,-37.99 -4.02,-31 -23.985,-212.43 -28.805,-229.01 157.38,-1.115 424.9,-0.88159 424.9,-0.88159 0,0 -3.1357,21.703 -4.1502,25.647 -7.4722,29.046 10.931,28.42 17.21,28.676 16.173,0.66063 9.3594,-0.11265 19.919,2.0764 10.776,2.9872 8.7248,8.3572 33.519,33.852 23.112,27.084 37.801,28.139 61.244,50.761 40.089,27.846 104.09,73.026 94.476,100.44 -27.231,58.706 -44.174,97.764 -52.618,156.84 -4.6815,37.618 -27.093,78.199 -52.029,77.773 -19.259,-0.35596 -11.636,4.1825 -18.903,12.501 -4.2379,4.8514 -10.63,9.4607 -20.501,9.5033 -9.4518,0.0409 -16.696,-1.0456 -22.577,-8.4338 -8.9169,-11.201 2.6906,-15.01 -23.241,-14.222 -23.549,0.71602 -399.44,2.302 -399.44,2.302 C 92.487719,491.84566 89.115642,454.34966 96.2579,424.692 z"
       inkscape:connector-curvature="0"
       style="fill:#ffffff;fill-rule:evenodd;stroke-width:20.1794627;stroke-miterlimit:4;stroke-dasharray:none;stroke:#000000;stroke-opacity:1"
       sodipodi:nodetypes="ccccccccccccccccccc" />
  </g>
</svg>
