<?xml version="1.0" encoding="UTF-8" standalone="no"?>
<!-- Created with Inkscape (http://www.inkscape.org/) -->

<svg
   xmlns:dc="http://purl.org/dc/elements/1.1/"
   xmlns:cc="http://creativecommons.org/ns#"
   xmlns:rdf="http://www.w3.org/1999/02/22-rdf-syntax-ns#"
   xmlns:svg="http://www.w3.org/2000/svg"
   xmlns="http://www.w3.org/2000/svg"
   xmlns:sodipodi="http://sodipodi.sourceforge.net/DTD/sodipodi-0.dtd"
   xmlns:inkscape="http://www.inkscape.org/namespaces/inkscape"
   id="svg3978"
   height="22.4"
   width="22.4"
   version="1.0"
   inkscape:version="0.48.3.1 r9886"
   sodipodi:docname="shield_hwy_ga2.svg">
  <defs
     id="defs18688" />
  <sodipodi:namedview
     pagecolor="#ffffff"
     bordercolor="#666666"
     borderopacity="1"
     objecttolerance="10"
     gridtolerance="10"
     guidetolerance="10"
     inkscape:pageopacity="0"
     inkscape:pageshadow="2"
     inkscape:window-width="1250"
     inkscape:window-height="1240"
     id="namedview18686"
     showgrid="false"
     inkscape:zoom="23.683036"
     inkscape:cx="12.767513"
     inkscape:cy="16.127954"
     inkscape:window-x="335"
     inkscape:window-y="222"
     inkscape:window-maximized="0"
     inkscape:current-layer="g2824" />
  <metadata
     id="metadata4622">
    <rdf:RDF>
      <cc:Work
         rdf:about="">
        <dc:format>image/svg+xml</dc:format>
        <dc:type
           rdf:resource="http://purl.org/dc/dcmitype/StillImage" />
      </cc:Work>
    </rdf:RDF>
  </metadata>
  <g
     id="g2824"
     stroke="#000"
     transform="matrix(.037167 0 0 .037167 0 .09999)">
    <path
       id="path1356"
       d="m 74.951591,430.9958 c -3.19284,-14.385 -15.18195,-63.49245 -2.37552,-111.1845 3.70923,-7.03994 -10.05648,-31.02015 -10.941,-39.9 -3.2466,-32.571 -19.36515,-223.167002 -23.25645,-240.586502 127.060499,-1.1718 343.045499,-0.92715 343.045499,-0.92715 0,0 -2.53165,22.79865 -3.35076,26.94195 -6.03267,30.51195 8.82546,29.85465 13.89465,30.1245 13.0578,0.693987 7.55643,-0.118335 16.0818,2.18127 8.69999,3.138032 7.04403,8.779262 27.06165,35.561402 18.65955,28.45185 30.5193,29.5596 49.4466,53.32425 32.36625,29.25195 84.0378,76.713 76.2762,105.5145 -21.9849,61.6707 -35.6643,102.7005 -42.48195,164.766 -3.77958,39.5178 -21.8736,82.1478 -42.00525,81.7005 -15.5484,-0.37394 -9.39477,4.39362 -15.26175,13.1313 -3.42153,5.09628 -8.58238,9.93835 -16.55115,9.98319 -7.63098,0.0429 -13.4799,-1.0983 -18.228,-8.85969 -7.19911,-11.76735 2.17224,-15.76785 -18.7635,-14.9394 -19.01235,0.75218 -322.486499,2.41825 -322.486499,2.41825 C 74.061389,499.86196 68.852908,464.24392 74.951591,430.9958 z"
       inkscape:connector-curvature="0"
       style="fill:#ffffff;fill-rule:evenodd;stroke-width:21.18815041;stroke-miterlimit:4;stroke-dasharray:none"
       sodipodi:nodetypes="ccccccccccccccscscc" />
  </g>
</svg>
