<?xml version="1.0" encoding="UTF-8" standalone="no"?>
<!-- Generator: Adobe Illustrator 14.0.0, SVG Export Plug-In . SVG Version: 6.00 Build 43363)  -->
<!DOCTYPE svg  PUBLIC '-//W3C//DTD SVG 1.1//EN'  'http://www.w3.org/Graphics/SVG/1.1/DTD/svg11.dtd'>
<svg id="Layer_1" xmlns="http://www.w3.org/2000/svg" xml:space="preserve" height="30px" viewBox="0 0 30 30" width="30px" version="1.1" y="0px" x="0px" xmlns:xlink="http://www.w3.org/1999/xlink" enable-background="new 0 0 30 30">
<g id="Shields">
	<g stroke="#fff" stroke-miterlimit="3.8637" fill="#26994D">
		<path d="m5.302 9.033c0.618-1.77 1.678-3.939 2.632-4.951 1.196 0.809 2.415 1.264 3.633 1.264 1.217 0 2.219-0.455 3.434-1.264 1.217 0.809 2.22 1.264 3.435 1.264 1.219 0 2.438-0.455 3.633-1.264 0.955 1.012 2.015 3.181 2.633 4.951h-19.4z"/>
		<path d="m5.302 9.033c-0.233 0.788-0.919 2.061-0.919 3.547 0 2.919 0.878 5.834 3.332 8.996 1.348 1.758 5.082 4.342 7.285 4.342 2.205 0 5.939-2.584 7.287-4.342 2.453-3.162 3.33-6.077 3.33-8.996 0-1.486-0.686-2.759-0.918-3.547h-19.397z"/>
	</g>
</g>
</svg>
