<?xml version="1.0" encoding="UTF-8" standalone="no"?>
<!-- Generator: Adobe Illustrator 11.0, SVG Export Plug-In . SVG Version: 6.0.0 Build 78)  -->

<svg
   xmlns:dc="http://purl.org/dc/elements/1.1/"
   xmlns:cc="http://creativecommons.org/ns#"
   xmlns:rdf="http://www.w3.org/1999/02/22-rdf-syntax-ns#"
   xmlns:svg="http://www.w3.org/2000/svg"
   xmlns="http://www.w3.org/2000/svg"
   xmlns:sodipodi="http://sodipodi.sourceforge.net/DTD/sodipodi-0.dtd"
   xmlns:inkscape="http://www.inkscape.org/namespaces/inkscape"
   id="svg2"
   xml:space="preserve"
   height="22.477"
   width="27.875"
   version="1.1"
   viewBox="0 0 27.875 22.476582"
   inkscape:version="0.48.3.1 r9886"
   sodipodi:docname="shield_hwy_id3.svg"><defs
   id="defs3001" /><sodipodi:namedview
   pagecolor="#ffffff"
   bordercolor="#666666"
   borderopacity="1"
   objecttolerance="10"
   gridtolerance="10"
   guidetolerance="10"
   inkscape:pageopacity="0"
   inkscape:pageshadow="2"
   inkscape:window-width="721"
   inkscape:window-height="480"
   id="namedview2999"
   showgrid="false"
   inkscape:zoom="10.499622"
   inkscape:cx="1.0322737"
   inkscape:cy="11.2385"
   inkscape:window-x="1041"
   inkscape:window-y="435"
   inkscape:window-maximized="0"
   inkscape:current-layer="Shield_2_" /><metadata
   id="metadata30"><rdf:RDF><cc:Work
       rdf:about=""><dc:format>image/svg+xml</dc:format><dc:type
         rdf:resource="http://purl.org/dc/dcmitype/StillImage" /><dc:title /></cc:Work></rdf:RDF></metadata>
	<g
   id="Layer_1"
   transform="translate(-3.4532e-7 -229.17)">
		<g
   id="Shield_2_"
   transform="matrix(.089318 0 0 .089318 0 229.17)">
			<path
   id="Border_2_"
   d="m310.59 238.15c0 6.627-5.3753 12-12.005 12h-285.08c-6.6299 0-12.005-5.373-12.005-12v-224.65c0-6.627 5.3753-12 12.005-12h285.08c6.6299 0 12.005 5.373 12.005 12z"
   stroke="#000"
   stroke-width="3.0007"
   style="fill:#333333;stroke:#333333;stroke-opacity:1" /><path
   id="White_1_"
   fill="#fff"
   d="m303.84 232.15c0 6.2726-5.0857 11.358-11.358 11.358h-273.04c-6.2726 0-11.358-5.0857-11.358-11.358v-212.63c0-6.2726 5.0857-11.358 11.358-11.358h273.04c6.2726 0 11.358 5.0857 11.358 11.358z" />
			<path
   id="Background_1_"
   d="m294.51 227.26c0 3.5642-2.8756 6.4544-6.4215 6.4544h-283.54v-216.15h283.54c3.5468 0 6.4215 2.8894 6.4215 6.4544z"
   style="fill:#333333" />
			<polygon
   id="State_Mask_1_"
   points="151.95 250.44 14.549 250.44 4.336 246.85 0.954 236.64 0.954 14.931 151.95 14.931"
   transform="matrix(.99026 0 0 .95555 1.1034 10.726)"
   style="fill:#333333" />
			<path
   id="State_Outline_1_"
   fill="#fff"
   d="m50.808 93.161c2.8791 1.7828 2.5588 4.8387 4.9937 6.8345 1.7747 2.2612 4.1721 3.3546 6.7814 3.867 3.4765-0.58431 3.6509 3.8236 1.7473 5.7653-0.15952 3.2049-0.78392 6.4584-1.7201 9.6075 2.1589 3.2468 2.1209 7.645 0 10.894 0.70478 2.5183-1.5486 7.1421 1.3905 8.07 3.1286 2.1149 5.611 0.6439 6.8016-2.639 1.2382-3.7468 4.7087-1.7931 6.4721 0.46071 1.6279 3.3637 1.3665 7.1911 3.599 10.321 0.8926 3.0873 4.9429 4.5147 3.8427 8.1364-0.35185 2.9637 2.963 4.6694 5.3691 5.0978 3.3653 1.2073 3.912 5.3842 5.3995 8.2706-0.04038 4.0165 3.0884 4.4157 4.9926 1.1402 2.3156-1.4552 5.9568 0.30472 8.3723-0.87696 2.7528-3.2136 3.4202-1.9188 5.9309-1.2047 2.4759-2.3688 4.4593 0.42143 7.3751-0.66581 2.3091-0.94916 6.3206-0.72371 5.46-4.4061 0.69327-3.2759 4.9241 0.14821 5.5848 2.4247 1.614 2.5051 4.3464 4.2914 3.5422 7.6366 0.89331 23.373 1.7866 46.746 2.6799 70.118-41.603-0.00091-83.206 0.003-124.81-0.002-2.0294-2.544-6.1885-4.1899-5.1942-8.009 0.073782-14.866-0.16831-29.77 0.10297-44.612 0.9804-3.3451 1.7011-6.7219 1.3805-10.226-3.9988-0.65686-2.9247-4.3976-2.9977-7.441 0.56729-2.6251-1.1479-6.6358 0.87043-8.38 3.1657-1.0327 3.7793-4.9284 4.9374-7.6269 0.24106-3.643 3.9561-6.4935 2.9968-10.41 1.0604-2.4336 1.4386-6.1106 3.4901-7.5881 2.8263-0.65698 0.01763-4.9931-1.8967-6.0372-1.9915-2.333-5.6035-2.6823-5.7561-6.3351-1.7615-2.7504-1.3426-5.5632-0.4184-8.0758-2.1199-2.459-3.3023-5.203-2.7247-8.4821v-73.807h20.609v28.994c3.2177 2.5447 4.6231 6.5208 7.4934 9.3401-0.08475 3.3491-0.35536 6.7264 1.6893 9.5982 0.26836 3.8643 4.7072 2.8899 6.6707 5.2425 1.7054 1.6115 3.3157 3.3159 4.9421 5.006z" />
		</g>
	</g>
</svg>