<?xml version="1.0" encoding="UTF-8" standalone="no"?>
<!-- Generator: Adobe Illustrator 14.0.0, SVG Export Plug-In . SVG Version: 6.00 Build 43363)  -->

<svg
   xmlns:dc="http://purl.org/dc/elements/1.1/"
   xmlns:cc="http://creativecommons.org/ns#"
   xmlns:rdf="http://www.w3.org/1999/02/22-rdf-syntax-ns#"
   xmlns:svg="http://www.w3.org/2000/svg"
   xmlns="http://www.w3.org/2000/svg"
   xmlns:sodipodi="http://sodipodi.sourceforge.net/DTD/sodipodi-0.dtd"
   xmlns:inkscape="http://www.inkscape.org/namespaces/inkscape"
   id="Layer_1"
   xml:space="preserve"
   height="30px"
   viewBox="0 0 30 30"
   width="30px"
   version="1.1"
   y="0px"
   x="0px"
   enable-background="new 0 0 30 30"
   inkscape:version="0.48.3.1 r9886"
   sodipodi:docname="shield_fwy_us3.svg"><metadata
   id="metadata13"><rdf:RDF><cc:Work
       rdf:about=""><dc:format>image/svg+xml</dc:format><dc:type
         rdf:resource="http://purl.org/dc/dcmitype/StillImage" /><dc:title /></cc:Work></rdf:RDF></metadata><defs
   id="defs11" /><sodipodi:namedview
   pagecolor="#ffffff"
   bordercolor="#666666"
   borderopacity="1"
   objecttolerance="10"
   gridtolerance="10"
   guidetolerance="10"
   inkscape:pageopacity="0"
   inkscape:pageshadow="2"
   inkscape:window-width="1880"
   inkscape:window-height="1410"
   id="namedview9"
   showgrid="false"
   inkscape:zoom="39.743578"
   inkscape:cx="12.595663"
   inkscape:cy="15.82649"
   inkscape:window-x="546"
   inkscape:window-y="60"
   inkscape:window-maximized="0"
   inkscape:current-layer="Layer_1" />

<g
   transform="matrix(0.03798773,0,0,0.0366726,0.70290435,4.026522)"
   id="g5"
   style="fill:#ffffff;fill-opacity:1;stroke:none"><path
     inkscape:connector-curvature="0"
     id="path7-8"
     style="fill:#ffffff;fill-opacity:1;stroke:none"
     d="M 38.915039,0 C 92.236328,15.525391 148.625,23.849609 206.95801,23.849609 265.29053,23.849609 321.6792,15.525391 375,4.883e-4 428.32031,15.525391 484.70898,23.849609 543.04199,23.849609 601.375,23.849609 657.76367,15.525391 711.08398,0 736.06445,54.121094 750,114.3877 750,177.90918 750,395.71777 586.16016,575.25391 375,599.99902 163.83887,575.25391 0,395.71777 0,177.90918 0,114.3877 13.935059,54.121094 38.915039,0 z" /><path
     inkscape:connector-curvature="0"
     id="path9"
     style="fill:#ffffff;fill-opacity:1;stroke:none"
     d="M 38.915039,0 C 92.236328,15.525391 147.96265,29.338458 206.29566,29.338458 264.62818,29.338458 321.6792,15.525391 375,4.883e-4 428.32031,15.525391 484.04663,29.338458 542.37964,29.338458 600.71265,29.338458 657.76367,15.525391 711.08398,0 736.06445,54.121094 750,114.3877 750,177.90918 750,395.71777 586.16016,575.25391 375,599.99902 163.83887,575.25391 0,395.71777 0,177.90918 0,114.3877 13.935059,54.121094 38.915039,0 z"
     sodipodi:nodetypes="cscscscsc" /></g><g
   transform="matrix(0.03662315,0,0,0.03390335,1.214623,5.2867121)"
   id="g11"
   style="fill:#1954a6;fill-opacity:1"><path
     inkscape:connector-curvature="0"
     id="path13"
     style="fill:#1954a6;fill-opacity:1"
     d="m 15,166.77696 c 0,-12.78174 -0.321584,-25.42676 0.822459,-37.91016 l 717.448051,0.97927 C 734.41504,142.32947 735,153.99522 735,166.77696 735,376.29063 577.85547,560.22852 375,584.89062 172.14453,560.22852 15,376.29063 15,166.77696 z"
     sodipodi:nodetypes="sccscs" /></g><g
   transform="matrix(0.03663908,0,0,0.03583796,1.2086671,4.5202234)"
   id="g15"
   style="fill:#af1e2d;fill-opacity:1"><path
     inkscape:connector-curvature="0"
     id="path17"
     style="fill:#bf2630;fill-opacity:1;stroke-width:27.596632;stroke-miterlimit:3.86369991;stroke-dasharray:none"
     d="m 47.37793,17.942871 c 50.892089,13.635254 103.70096,33.543782 158.8953,33.543782 58.26074,0 115.31613,-20.738606 168.72677,-35.875325 53.41113,15.136719 109.09257,35.875325 167.35331,35.875325 55.19434,0 109.37716,-19.90804 160.26778,-33.543782 14.26172,33.624512 24.16407,59.01511 28.9961,96.524869 l -714.141505,0 C 22.308693,76.957981 33.116211,51.567383 47.37793,17.942871 z"
     sodipodi:nodetypes="cscscccc" /></g></svg>