<?xml version="1.0" encoding="UTF-8" standalone="no"?>
<!-- Generator: Adobe Illustrator 15.0.1, SVG Export Plug-In . SVG Version: 6.00 Build 0)  -->
<!DOCTYPE svg  PUBLIC '-//W3C//DTD SVG 1.1//EN'  'http://www.w3.org/Graphics/SVG/1.1/DTD/svg11.dtd'>
<svg id="Layer_1" xmlns="http://www.w3.org/2000/svg" xml:space="preserve" height="30px" viewBox="0 0 30 30" width="30px" version="1.1" y="0px" x="0px" xmlns:xlink="http://www.w3.org/1999/xlink" enable-background="new 0 0 30 30">
<g stroke="#fff" stroke-miterlimit="3.8637">
	<path d="m4.952 8.818c0.641-1.834 1.739-4.082 2.727-5.13 1.239 0.838 2.502 1.309 3.764 1.309s2.299-0.471 3.558-1.309c1.261 0.838 2.3 1.309 3.559 1.309 1.263 0 2.526-0.471 3.764-1.309 0.989 1.049 2.088 3.296 2.729 5.13h-20.101z" fill="#BF2630"/>
	<path d="m4.952 8.818c-0.241 0.815-0.952 2.134-0.952 3.675 0 3.024 0.91 6.043 3.452 9.322 1.397 1.82 5.265 4.498 7.548 4.498 2.284 0 6.153-2.678 7.55-4.498 2.542-3.278 3.45-6.298 3.45-9.322 0-1.541-0.71-2.86-0.951-3.675h-20.097z" fill="#1954A6"/>
</g>
</svg>
