<?xml version="1.0" encoding="UTF-8" standalone="no"?>
<!-- Generator: Adobe Illustrator 10.0, SVG Export Plug-In . SVG Version: 3.0.0 Build 76)  -->

<svg
   xmlns:xap="http://ns.adobe.com/xap/1.0/"
   xmlns:pdf="http://ns.adobe.com/pdf/1.3/"
   xmlns:x="0INVALID"
   xmlns:dc="http://purl.org/dc/elements/1.1/"
   xmlns:cc="http://creativecommons.org/ns#"
   xmlns:rdf="http://www.w3.org/1999/02/22-rdf-syntax-ns#"
   xmlns:svg="http://www.w3.org/2000/svg"
   xmlns="http://www.w3.org/2000/svg"
   xmlns:sodipodi="http://sodipodi.sourceforge.net/DTD/sodipodi-0.dtd"
   xmlns:inkscape="http://www.inkscape.org/namespaces/inkscape"
   id="svg2009"
   version="1.1"
   overflow="visible"
   space="preserve"
   height="22.549999"
   width="22.549999"
   viewBox="0 0 22.55 22.55"
   enable-background="new 0 0 510.192 510.192"
   inkscape:version="0.48.3.1 r9886"
   sodipodi:docname="shield_hwy_ks2.svg"
   style="overflow:visible">
  <defs
     id="defs3057" />
  <sodipodi:namedview
     pagecolor="#ffffff"
     bordercolor="#666666"
     borderopacity="1"
     objecttolerance="10"
     gridtolerance="10"
     guidetolerance="10"
     inkscape:pageopacity="0"
     inkscape:pageshadow="2"
     inkscape:window-width="2219"
     inkscape:window-height="1409"
     id="namedview3055"
     showgrid="false"
     inkscape:zoom="43.474788"
     inkscape:cx="6.2149881"
     inkscape:cy="11.198304"
     inkscape:window-x="-461"
     inkscape:window-y="140"
     inkscape:window-maximized="0"
     inkscape:current-layer="svg2009" />
  <metadata
     id="metadata2011">
    <xpacket
       id="xpacket4" />
    <adobe-xap-filters
       id="adobe-xap-filters6" />
    <x:xapmeta>
      <metadata
         id="metadata2027">
        <rdf:RDF>
          <rdf:Description
             about="">
            <pdf:CreationDate>2007-03-07T17:30:07Z</pdf:CreationDate>
            <pdf:ModDate>2007-03-07T17:30:07Z</pdf:ModDate>
          </rdf:Description>
          <rdf:Description
             about="">
            <xap:CreateDate>2007-03-07T17:30:07Z</xap:CreateDate>
            <xap:ModifyDate>2007-03-07T17:30:07Z</xap:ModifyDate>
            <xap:CreatorTool>Adobe Illustrator 10.0</xap:CreatorTool>
          </rdf:Description>
          <cc:Work
             rdf:about="">
            <dc:format>image/svg+xml</dc:format>
            <dc:type
               rdf:resource="http://purl.org/dc/dcmitype/StillImage" />
          </cc:Work>
        </rdf:RDF>
      </metadata>
    </x:xapmeta>
    <xpacket
       id="xpacket9" />
  </metadata>
  <path
     id="path2018"
     d="m 12.140912,1.4564446 c -0.352,-0.0521 -0.67,-0.2924 -0.82,-0.61609996 -0.182,0.45489996 -0.675,0.59999996 -1.105,0.69969996 -0.3832005,0.1683 -0.6491005,0.5783 -0.6424005,0.994 -0.2278,-0.6031 -0.984,-0.8235 -1.5415,-0.5623 -0.291,0.0124 -0.2719,-0.4689 0.0167,-0.4338 -1.1225,-0.1368 -2.1203,1.0614 -1.7657,2.1394 0.1875,0.4092 -0.3542,-0.2208 -0.6021,-0.1216 -0.6122,-0.0916 -1.0493,0.6168 -1.6768,0.3804 -0.1568,0.0121 0.0776,0.5176 -0.0947,0.7218 -0.2677,0.4153 -0.5143,0.9469 -0.2229,1.4241 0.4,0.4283 -0.1463,0.0843 -0.4336,0.1965 -0.4257,0.0601 -0.7015,0.4169 -0.8808,0.7697 -0.2058,0.1819 -0.4994,-0.1663 -0.2759,-0.337 -0.8611,0.6748 -0.7642,2.1452 0.1659,2.7102 0.4055,0.1804 0.1484,0.1306 -0.1506,0.2341 -0.4842,0.1722 -0.6244,0.6824994 -0.7359,1.1244994 -0.10596,0.23194 -0.29847,0.42172 -0.52826999,0.531 0.45358999,0.18291 0.60189999,0.67401 0.69702999,1.1051 0.17024,0.38261 0.57494,0.64859 0.99508,0.6423 -0.60458,0.2272 -0.82092,0.98307 -0.56179,1.5411 0.012861,0.2898 -0.47106,0.2712 -0.43342,-0.017 -0.1394,1.1225 1.0614,2.1184 2.1383,1.7642 0.41078,-0.18701 -0.22277,0.35394 -0.11976,0.6023 -0.095066,0.61202 0.61776,1.0491 0.37772,1.6764 0.012127,0.15988 0.51926,-0.07793 0.72334,0.0958 0.41572,0.26614 0.94787,0.5137 1.4246,0.2216 0.4296,-0.39899 0.083683,0.14671 0.19503,0.435 0.061925,0.42498 0.41684,0.70237 0.77077,0.8805 0.18063,0.20584 -0.16629,0.49937 -0.33743,0.2771 0.67534,0.85951 2.1416,0.76486 2.7101,-0.16238 0.16643,-0.36159 0.1409,-0.22087 0.21677,0.10278 0.15988,0.50616 0.6837005,0.6715 1.1429005,0.7791 0.23092,0.10852 0.4223,0.29861 0.53107,0.5295 0.18317,-0.45404 0.6746,-0.60078 1.1053,-0.6982 0.3832,-0.16868 0.64698,-0.57428 0.6424,-0.9935 0.22807,0.60451 0.98451,0.82094 1.5417,0.5588 0.29129,-0.01364 0.27172,0.46769 -0.0167,0.4338 1.122,0.13604 2.1198,-1.0617 1.7646,-2.1394 -0.18725,-0.40935 0.35486,0.21855 0.60221,0.1199 0.612,0.0916 1.0497,-0.61512 1.6767,-0.3793 0.1597,-0.01612 -0.07674,-0.51879 0.09605,-0.7234 0.26698,-0.41551 0.51347,-0.94756 0.22161,-1.4243 -0.40015,-0.42864 0.14831,-0.08168 0.43627,-0.1951 0.42568,-0.05987 0.69843,-0.41913 0.87939,-0.7697 0.20162,-0.18632 0.50112,0.16337 0.27611,0.3322 0.84155,-0.65969 0.77188,-2.0848 -0.11429,-2.6714 -0.2871,-0.16961 -0.40693,-0.18756 0.0083,-0.2356 0.51203,-0.13956 0.72366,-0.65682 0.81399,-1.1271 0.06701,-0.25706 0.40044,-0.46362 0.51148,-0.577 -0.461,-0.196 -0.562,-0.709 -0.689,-1.133 -0.177,-0.3618994 -0.576,-0.6035994 -0.973,-0.6001994 0.6,-0.2316 0.825,-0.9817 0.56,-1.5396 -0.011,-0.2899 0.47,-0.2715 0.435,0.017 0.14,-1.1228 -1.06,-2.1201 -2.138,-1.7658 -0.409,0.1871 0.219,-0.3548 0.12,-0.6024 0.092,-0.6118 -0.617,-1.0495 -0.378,-1.6763 -0.012,-0.1568 -0.52,0.0787 -0.725,-0.0943 -0.415,-0.2671 -0.947,-0.5155 -1.424,-0.2231 -0.428,0.4 -0.083,-0.146 -0.194,-0.4336 -0.061,-0.4257 -0.418,-0.701 -0.771,-0.8802 -0.183,-0.2053 0.166,-0.4998 0.338,-0.2772 -0.676,-0.86 -2.146,-0.7653 -2.712,0.1655 -0.181,0.4067 -0.131,0.15 -0.234,-0.1507 -0.143,-0.3369 -0.477,-0.6056 -0.836,-0.6447 z"
     style="fill:#f7d117;stroke:#000000;stroke-width:0.75000000000000000;stroke-miterlimit:4;stroke-opacity:1;stroke-dasharray:none;stroke-linejoin:round"
     inkscape:connector-curvature="0" />
</svg>
