<?xml version="1.0" encoding="UTF-8" standalone="no"?>
<!-- Created with Inkscape (http://www.inkscape.org/) -->

<svg
   xmlns:dc="http://purl.org/dc/elements/1.1/"
   xmlns:cc="http://creativecommons.org/ns#"
   xmlns:rdf="http://www.w3.org/1999/02/22-rdf-syntax-ns#"
   xmlns:svg="http://www.w3.org/2000/svg"
   xmlns="http://www.w3.org/2000/svg"
   xmlns:sodipodi="http://sodipodi.sourceforge.net/DTD/sodipodi-0.dtd"
   xmlns:inkscape="http://www.inkscape.org/namespaces/inkscape"
   id="svg2"
   height="22.549999"
   width="27.799999"
   version="1.0"
   inkscape:version="0.48.3.1 r9886"
   sodipodi:docname="shield_hwy_ks3.svg">
  <defs
     id="defs3066" />
  <sodipodi:namedview
     pagecolor="#ffffff"
     bordercolor="#666666"
     borderopacity="1"
     objecttolerance="10"
     gridtolerance="10"
     guidetolerance="10"
     inkscape:pageopacity="0"
     inkscape:pageshadow="2"
     inkscape:window-width="1627"
     inkscape:window-height="1204"
     id="namedview3064"
     showgrid="false"
     inkscape:zoom="21.146954"
     inkscape:cx="9.3651502"
     inkscape:cy="5.7171116"
     inkscape:window-x="65"
     inkscape:window-y="27"
     inkscape:window-maximized="0"
     inkscape:current-layer="layer1" />
  <metadata
     id="metadata7">
    <rdf:RDF>
      <cc:Work
         rdf:about="">
        <dc:format>image/svg+xml</dc:format>
        <dc:type
           rdf:resource="http://purl.org/dc/dcmitype/StillImage" />
      </cc:Work>
    </rdf:RDF>
  </metadata>
  <g
     id="layer1"
     transform="translate(0,-202.45)">
    <path
       id="path3348"
       d="m 24.903712,209.49085 c 0.34435,-0.51599 0.48447,-1.3298 0.08771,-1.9083 -0.25888,-0.16397 -0.12144,-0.63271 0.19849,-0.4987 0.24813,0.28651 0.07663,-0.008 -0.0056,-0.2236 -0.63248,-1.1133 -2.3323,-1.2158 -3.2192,-0.3524 0.18709,-0.661 -0.22744,-1.305 -0.77967,-1.6365 -0.26991,-0.26688 -0.43127,-0.64356 -0.4239,-1.0243 -0.38166,0.46701 -1.0197,0.5228 -1.5742,0.444 -0.51404,0.0335 -0.98976,0.3848 -1.175,0.8652 0.01389,-0.79654 -0.62871,-1.4506 -1.3629,-1.638 -0.23873,-0.1955 0.0887,-0.56671 0.31833,-0.3673 -1.0851,-0.85053 -2.756,0.0387 -3.0343,1.2909 -0.05544,0.54165 -0.15894,-0.31941 -0.40499,-0.42048 -0.45149,-0.53163 -1.3098,-0.30625 -1.7117,-0.9156 -0.1882,-0.41897 -0.21364,-0.14373 -0.37552,0.1323 -0.37069,0.62319 -1.3103,0.53517 -1.5720001,1.2662 -0.19818,0.3243 -0.0291,0.97804 -0.3506,0.3631 -0.4087,-0.51912 -1.1079,-0.65408 -1.7223,-0.5573 -0.29472,-0.0858 -0.15133,-0.52227 0.13592,-0.4614 -0.7287,-0.0224 -1.5864,0.1193 -1.9369,0.8507 -0.31085,0.55998 -0.36623,1.2467 -0.1878,1.8582 -0.51624,-0.45788 -1.2784,-0.35921 -1.8188,-0.005 -0.3558,0.12446 -0.761,0.10528 -1.0998,-0.0621 0.2676,0.5706 -0.0076,1.1728 -0.30216,1.6652 -0.20558,0.46153 0.035407,1.0764 0.25514,1.3789 -0.77989,-0.0365 -1.4485,0.55901 -1.6688,1.2728 -0.20737003,0.23348 -0.56704003,-0.11289 -0.35402003,-0.3357 -0.88186,1.009 -0.13819,2.6592 1.04630003,3.0402 0.5498,0.11445 0.35914,0.13265 -0.01971,0.372 -0.62898,0.43963 -0.37462,1.3795 -1.01760003,1.8083 -0.41695,0.18902 -0.14825,0.21535 0.12876,0.3812 0.61959003,0.37497 0.52327003,1.3138 1.25180003,1.5796 0.33238,0.20161 0.97653,-0.003 0.50711,0.50541 -0.29064,0.59231 -0.099852,1.2773 0.24235,1.7941 0.044355,0.29809 -0.43083,0.35954 -0.48105,0.0703 0.31654,1.3546 2.1988,1.7091 3.1995,0.8838 0.31858,-0.33393 -0.00118,0.47295 0.21105,0.6669 0.20079,0.6348 1.0231,0.81184 1.1196,1.5116 0.015178,0.34672 0.043351,0.37874 0.28798,0.1247 0.58076,-0.49167 1.3941,0.0101 1.9836,-0.4506 0.30144,-0.0494 0.55351,-0.95736 0.54197,-0.3668 0.10553,0.69239 0.6975701,1.1879 1.3377001,1.3683 0.23912,0.19477 -0.09125,0.56925 -0.31832,0.3645 1.0955,0.85952 2.7843,-0.0533 3.0423,-1.3236 0.04937,-0.47203 0.17761,0.41445 0.4346,0.49175 0.46023,0.48435 1.2831,0.28225 1.6742,0.8759 0.19113,0.4187 0.21126,0.13716 0.37569,-0.1362 0.37309,-0.61954 1.3107,-0.53036 1.5721,-1.2607 0.19714,-0.32815 0.02941,-0.97263 0.35058,-0.3596 0.40853,0.51839 1.1071,0.64987 1.7225,0.5537 0.29257,0.0846 0.1563,0.54089 -0.13592,0.4617 0.72153,0.12104 1.4837,-0.17326 1.8671,-0.8129 0.35654,-0.55467 0.44883,-1.2664 0.25582,-1.8958 0.51794,0.45673 1.279,0.35937 1.8203,0.005 0.35585,-0.12559 0.76105,-0.10454 1.1002,0.0622 -0.26709,-0.57002 0.006,-1.1733 0.30217,-1.665 0.2039,-0.46104 -0.03265,-1.0756 -0.25563,-1.3776 0.78067,0.0331 1.4491,-0.56061 1.6686,-1.2758 0.20707,-0.23394 0.56912,0.1162 0.35237,0.3368 0.88598,-1.0064 0.13966,-2.6627 -1.0463,-3.0406 -0.54896,-0.11649 -0.35668,-0.13202 0.01972,-0.3721 0.6307,-0.43941 0.37589,-1.3818 1.0211,-1.8099 0.41852,-0.18569 0.14477,-0.21504 -0.1288,-0.3793 -0.62008,-0.37491 -0.52538,-1.3133 -1.2536,-1.5793 -0.21345,-0.1034 -0.46314,-0.15658 -0.69577,-0.13287 z"
       style="fill:#f7d117;fill-rule:evenodd;stroke:#000000;stroke-width:0.75000000000000000;stroke-miterlimit:4;stroke-opacity:1;stroke-dasharray:none;stroke-linejoin:round"
       inkscape:connector-curvature="0" />
  </g>
</svg>
