<?xml version="1.0" encoding="UTF-8" standalone="no"?>
<!-- Created with Inkscape (http://www.inkscape.org/) -->

<svg
   xmlns:dc="http://purl.org/dc/elements/1.1/"
   xmlns:cc="http://creativecommons.org/ns#"
   xmlns:rdf="http://www.w3.org/1999/02/22-rdf-syntax-ns#"
   xmlns:svg="http://www.w3.org/2000/svg"
   xmlns="http://www.w3.org/2000/svg"
   xmlns:sodipodi="http://sodipodi.sourceforge.net/DTD/sodipodi-0.dtd"
   xmlns:inkscape="http://www.inkscape.org/namespaces/inkscape"
   id="Layer_1"
   xml:space="preserve"
   height="23.83153"
   width="23.824768"
   version="1.1"
   viewBox="0 0 23.824766 23.831496"
   inkscape:version="0.48.3.1 r9886"
   sodipodi:docname="shield_hwy_la2.svg"><defs
   id="defs20956" /><sodipodi:namedview
   pagecolor="#ffffff"
   bordercolor="#666666"
   borderopacity="1"
   objecttolerance="10"
   gridtolerance="10"
   guidetolerance="10"
   inkscape:pageopacity="0"
   inkscape:pageshadow="2"
   inkscape:window-width="1625"
   inkscape:window-height="1074"
   id="namedview20954"
   showgrid="false"
   inkscape:zoom="20.158018"
   inkscape:cx="0.88854128"
   inkscape:cy="7.7772479"
   inkscape:window-x="65"
   inkscape:window-y="27"
   inkscape:window-maximized="0"
   inkscape:current-layer="Layer_1"
   fit-margin-top="0"
   fit-margin-left="0"
   fit-margin-right="0"
   fit-margin-bottom="0" /><metadata
   id="metadata62"><rdf:RDF><cc:Work
       rdf:about=""><dc:format>image/svg+xml</dc:format><dc:type
         rdf:resource="http://purl.org/dc/dcmitype/StillImage" /><dc:title /></cc:Work></rdf:RDF></metadata>
<g
   id="g5"
   transform="matrix(0.060976,0,0,0.060976,0.20725367,0.17084598)">
		
		
	</g><g
   id="g35"
   transform="matrix(0.06241935,0,0,0.06461175,-0.14684474,-0.32372566)"
   style="stroke:#000000;stroke-width:12.4003849;stroke-miterlimit:4;stroke-opacity:1;stroke-dasharray:none">
	<path
   style="fill:#ffffff;stroke:#000000;stroke-width:12.4003849;stroke-linejoin:round;stroke-miterlimit:4;stroke-opacity:1;stroke-dasharray:none"
   d="M 211.375,11.15625 C 169.0578,12.104591 126.66061,11.291411 84.3125,11.5625 59.540226,11.842267 34.523999,11.004267 9.9034352,11.979155 7.4073181,17.140978 9.5688385,24.367714 8.84375,30.3125 9.1315504,48.96923 7.9626235,67.915982 9.5645529,86.398217 14.881137,89.327001 19.655767,94.358938 20.8125,100.71875 c 1.994336,9.54753 4.273019,20.42601 13.1875,26.0625 10.364086,15.05276 12.265474,34.79274 8.75828,52.277 -8.77797,15.58071 -17.954866,33.54212 -14.41453,51.87925 8.621329,17.37431 1.180316,36.86457 -2.143862,54.59043 -1.057541,13.488 1.142206,30.44875 -11.324888,39.50332 -1.666553,6.07137 6.01107,11.87437 12.03125,11.65625 14.348773,0.36367 27.514221,-13.15457 41.6875,-6.1875 13.465957,5.35797 29.664616,13.91708 43.84375,5.375 16.18033,-4.48181 34.57897,-1.16688 49.59375,-10.125 1.64396,-4.17787 -0.89415,-9.87878 2.1875,-14.15625 0.88639,-1.95781 3.60648,-4.31915 5.40625,-4.09375 -2.65392,4.19309 -0.73054,11.16463 5.09375,10.59375 4.33925,0.48014 9.55785,-2.43945 13,-2.40625 1.29783,5.97948 11.45791,7.05261 9.6875,13.96875 1.75574,5.33537 8.64811,0.35471 10.21875,-3.03125 2.18681,-4.7373 1.81409,4.29397 5.15625,3.78125 10.03407,3.52337 9.04543,19.81455 20.96875,20.53125 5.32109,-0.81198 7.72796,6.0224 13,6.71875 13.85706,4.62995 27.00019,-6.84328 33.21875,-18.25 5.37597,-2.53338 7.12843,5.28377 8,8.96875 1.39435,4.81725 2.39616,14.17615 9.3125,13.28125 5.4292,-2.26217 9.79707,-7.04763 12.9375,-11.90625 4.32276,-8.80713 0.65604,-18.96601 2.34375,-28.0625 9.4599,3.53564 9.71993,17.42094 20.21875,19.71875 9.13222,0.46598 14.40473,9.06465 16.82773,16.9646 1.92106,3.15301 2.53923,10.58189 7.26602,9.2229 5.58877,-5.73066 18.18828,-2.51627 20.4375,-12.1875 2.71975,-11.34991 -8.33812,-19.29787 -16.1875,-25.25 -6.38494,-4.28142 -11.7275,-10.06295 -14.8125,-17 -2.5675,-0.70918 -6.04637,-3.64954 -2.75,-5.84375 2.90073,-3.18613 8.70066,-6.53321 6.71875,-11.625 10.13404,0.61897 18.57913,-10.25981 14.40625,-19.78125 -0.95047,-4.35339 -5.62104,-6.88497 -7.40625,-10.15625 -0.1367,-4.59838 -2.60329,-9.43478 -6.28125,-11.9375 8.55564,-12.05774 1.32639,-27.0972 -4.21875,-38.75 -3.16852,-9.10404 -10.71204,-17.56709 -9.75,-27.5625 0.7213,-5.12392 6.38099,-8.618 3.75,-14.0625 -1.71315,-13.75658 5.18292,-28.24878 -0.46875,-41.46875 -3.24661,-6.62947 -12.09825,-2.46696 -17.875,-3.61809 -36.73958,0.0174 -73.47919,0.0494 -110.21875,-0.007 3.12486,-15.60419 9.8662,-32.037706 24.375,-40.1875 11.60503,-8.604823 15.39649,-25.735238 7.5,-38.09375 -6.35179,-6.890127 -1.93637,-16.07884 -2.46875,-24.1875 -0.80194,-6.756758 -8.4747,-9.427186 -13.8125,-12.1875 -5.23183,-2.047456 -10.83992,-2.798477 -16.4375,-2.53125 z"
   id="path37-7"
   inkscape:connector-curvature="0" /></g>
</svg>