<?xml version="1.0" encoding="UTF-8" standalone="no"?>
<!-- Created with Inkscape (http://www.inkscape.org/) -->

<svg
   xmlns:dc="http://purl.org/dc/elements/1.1/"
   xmlns:cc="http://creativecommons.org/ns#"
   xmlns:rdf="http://www.w3.org/1999/02/22-rdf-syntax-ns#"
   xmlns:svg="http://www.w3.org/2000/svg"
   xmlns="http://www.w3.org/2000/svg"
   xmlns:sodipodi="http://sodipodi.sourceforge.net/DTD/sodipodi-0.dtd"
   xmlns:inkscape="http://www.inkscape.org/namespaces/inkscape"
   id="svg2"
   height="22.122061"
   width="27.892206"
   version="1.0"
   inkscape:version="0.48.3.1 r9886"
   sodipodi:docname="shield_hwy_md3.svg">
  <defs
     id="defs2995" />
  <sodipodi:namedview
     pagecolor="#ffffff"
     bordercolor="#666666"
     borderopacity="1"
     objecttolerance="10"
     gridtolerance="10"
     guidetolerance="10"
     inkscape:pageopacity="0"
     inkscape:pageshadow="2"
     inkscape:window-width="640"
     inkscape:window-height="480"
     id="namedview2993"
     showgrid="false"
     fit-margin-top="0"
     fit-margin-left="0"
     fit-margin-right="0"
     fit-margin-bottom="0"
     inkscape:zoom="10.531013"
     inkscape:cx="13.939453"
     inkscape:cy="11.070831"
     inkscape:window-x="0"
     inkscape:window-y="27"
     inkscape:window-maximized="0"
     inkscape:current-layer="svg2" />
  <metadata
     id="metadata4300">
    <rdf:RDF>
      <cc:Work
         rdf:about="">
        <dc:format>image/svg+xml</dc:format>
        <dc:type
           rdf:resource="http://purl.org/dc/dcmitype/StillImage" />
      </cc:Work>
    </rdf:RDF>
  </metadata>
  <path
     id="path1341"
     d="M 0,1.4427431 C 0,0.64598274 0.6459206,0 1.4427431,0 H 26.449462 c 0.796792,0 1.442744,0.64598274 1.442744,1.4427431 V 20.679318 c 0,0.796761 -0.645921,1.442744 -1.442744,1.442744 H 1.4427431 C 0.64595167,22.122062 0,21.476079 0,20.679318 V 1.4427431 z"
     inkscape:connector-curvature="0"
     style="fill-rule:evenodd;stroke:#000000;stroke-width:0.00961808px" />
  <path
     id="path10350"
     d="M 1.8720525,0.84422051 H 26.020052 c 0.51295,0 0.92878,0.41589999 0.92878,0.92879999 v 3.8801 H 0.9428325 v -3.8801 c 0,-0.5129 0.41583,-0.92879999 0.92878,-0.92879999 z"
     inkscape:connector-curvature="0"
     style="fill:#ffffff;fill-rule:evenodd;stroke:#000000;stroke-width:0.0092878px" />
  <path
     id="path1343"
     d="M 0.9432925,6.6007305 H 26.949293 V 20.348731 c 0,0.5129 -0.41583,0.9288 -0.92878,0.9288 H 1.8725125 c -0.51295,0 -0.92878,-0.4159 -0.92878,-0.9288 z"
     inkscape:connector-curvature="0"
     style="fill:#ffffff;fill-rule:evenodd;stroke:#000000;stroke-width:0.0092878px" />
</svg>
