<?xml version="1.0" encoding="UTF-8" standalone="no"?>
<!-- Created with Inkscape (http://www.inkscape.org/) -->

<svg
   xmlns:dc="http://purl.org/dc/elements/1.1/"
   xmlns:cc="http://creativecommons.org/ns#"
   xmlns:rdf="http://www.w3.org/1999/02/22-rdf-syntax-ns#"
   xmlns:svg="http://www.w3.org/2000/svg"
   xmlns="http://www.w3.org/2000/svg"
   xmlns:sodipodi="http://sodipodi.sourceforge.net/DTD/sodipodi-0.dtd"
   xmlns:inkscape="http://www.inkscape.org/namespaces/inkscape"
   id="svg2"
   height="22.336977"
   width="22.336977"
   version="1.0"
   inkscape:version="0.48.3.1 r9886"
   sodipodi:docname="shield_hwy_md2.svg">
  <defs
     id="defs10" />
  <sodipodi:namedview
     pagecolor="#ffffff"
     bordercolor="#666666"
     borderopacity="1"
     objecttolerance="10"
     gridtolerance="10"
     guidetolerance="10"
     inkscape:pageopacity="0"
     inkscape:pageshadow="2"
     inkscape:window-width="640"
     inkscape:window-height="480"
     id="namedview8"
     showgrid="false"
     fit-margin-top="0"
     fit-margin-left="0"
     fit-margin-right="0"
     fit-margin-bottom="0"
     inkscape:zoom="10.26087"
     inkscape:cx="11.088298"
     inkscape:cy="11.088688"
     inkscape:window-x="0"
     inkscape:window-y="27"
     inkscape:window-maximized="0"
     inkscape:current-layer="svg2" />
  <metadata
     id="metadata5437">
    <rdf:RDF>
      <cc:Work
         rdf:about="">
        <dc:format>image/svg+xml</dc:format>
        <dc:type
           rdf:resource="http://purl.org/dc/dcmitype/StillImage" />
      </cc:Work>
    </rdf:RDF>
  </metadata>
  <path
     id="path1341"
     d="M 0,1.4567593 C 0,0.65225845 0.65219574,0 1.4567593,0 H 20.880217 c 0.804532,0 1.456759,0.65225845 1.456759,1.4567593 V 20.880217 c 0,0.804501 -0.652196,1.456759 -1.456759,1.456759 H 1.4567593 C 0.65222704,22.336976 0,21.684718 0,20.880217 V 1.4567593 z"
     inkscape:connector-curvature="0"
     style="fill-rule:evenodd;stroke:#000000;stroke-width:0.00971152px" />
  <path
     id="path10350"
     d="M 1.8804981,0.95168814 H 20.456498 c 0.51295,0 0.92878,0.41589996 0.92878,0.92879996 v 3.8616 H 0.95227814 v -3.8616 c 0,-0.5129 0.41582996,-0.92879996 0.92877996,-0.92879996 z"
     inkscape:connector-curvature="0"
     style="fill:#ffffff;fill-rule:evenodd;stroke:#000000;stroke-width:0.0092878px" />
  <path
     id="path1343"
     d="M 0.95169814,6.7058881 H 21.384698 V 20.455888 c 0,0.5129 -0.41583,0.9288 -0.92878,0.9288 H 1.8799181 c -0.51295,0 -0.92877996,-0.4159 -0.92877996,-0.9288 z"
     inkscape:connector-curvature="0"
     style="fill:#ffffff;fill-rule:evenodd;stroke:#000000;stroke-width:0.0092878px" />
</svg>
