<?xml version="1.0" encoding="UTF-8" standalone="no"?>
<!-- Generator: Adobe Illustrator 14.0.0, SVG Export Plug-In . SVG Version: 6.00 Build 43363)  -->
<svg id="svg2" xmlns:rdf="http://www.w3.org/1999/02/22-rdf-syntax-ns#" xmlns="http://www.w3.org/2000/svg" enable-background="new 0 0 30 30" xml:space="preserve" height="30px" width="30px" version="1.1" y="0px" x="0px" xmlns:cc="http://creativecommons.org/ns#" xmlns:dc="http://purl.org/dc/elements/1.1/" viewBox="0 0 30 30"><metadata id="metadata12"><rdf:RDF><cc:Work rdf:about=""><dc:format>image/svg+xml</dc:format><dc:type rdf:resource="http://purl.org/dc/dcmitype/StillImage"/></cc:Work></rdf:RDF></metadata>
<g id="Shields">
	<path id="path6" d="m19.221 5.4126c-1.252 0-3.337-0.7326-4.222-1.4126-0.884 0.681-2.968 1.4126-4.22 1.4126-1.253 0-3.759-0.7316-4.643-1.4126l-2.136 1.37 0.05 3.731c0 0.007 1.5 1.287 1.467 2.74-0.034 1.454-1.396 3.258-1.396 3.267 0 6.114 9.14 10.124 10.878 10.892 1.739-0.768 10.88-4.777 10.88-10.892 0-0.009-1.362-1.812-1.396-3.267-0.032-1.453 1.468-2.733 1.468-2.74l0.049-3.731-2.137-1.37c-0.884 0.681-3.39 1.4126-4.642 1.4126z" stroke="#000" stroke-miterlimit="3.8637" stroke-width=".75" fill="#fff"/>
</g>
</svg>
