<?xml version="1.0" encoding="UTF-8" standalone="no"?>
<!-- Generator: Adobe Illustrator 14.0.0, SVG Export Plug-In . SVG Version: 6.00 Build 43363)  -->

<svg
   xmlns:dc="http://purl.org/dc/elements/1.1/"
   xmlns:cc="http://creativecommons.org/ns#"
   xmlns:rdf="http://www.w3.org/1999/02/22-rdf-syntax-ns#"
   xmlns:svg="http://www.w3.org/2000/svg"
   xmlns="http://www.w3.org/2000/svg"
   xmlns:sodipodi="http://sodipodi.sourceforge.net/DTD/sodipodi-0.dtd"
   xmlns:inkscape="http://www.inkscape.org/namespaces/inkscape"
   id="svg2"
   enable-background="new 0 0 30 30"
   xml:space="preserve"
   height="30px"
   width="30px"
   version="1.1"
   y="0px"
   x="0px"
   viewBox="0 0 30 30"
   inkscape:version="0.48.3.1 r9886"
   sodipodi:docname="shield_mex3.svg"><defs
   id="defs6499" /><sodipodi:namedview
   pagecolor="#ffffff"
   bordercolor="#666666"
   borderopacity="1"
   objecttolerance="10"
   gridtolerance="10"
   guidetolerance="10"
   inkscape:pageopacity="0"
   inkscape:pageshadow="2"
   inkscape:window-width="1152"
   inkscape:window-height="1308"
   id="namedview6497"
   showgrid="false"
   inkscape:zoom="31.466667"
   inkscape:cx="14.740078"
   inkscape:cy="13.051588"
   inkscape:window-x="86"
   inkscape:window-y="89"
   inkscape:window-maximized="0"
   inkscape:current-layer="Shields" /><metadata
   id="metadata12"><rdf:RDF><cc:Work
       rdf:about=""><dc:format>image/svg+xml</dc:format><dc:type
         rdf:resource="http://purl.org/dc/dcmitype/StillImage" /></cc:Work></rdf:RDF></metadata>
<g
   id="Shields">
	<path
   id="path6"
   d="M 20.605,5.4126 C 18.942,5.4126 16.173,4.68 14.999,4 13.825,4.681 11.057,5.4126 9.395,5.4126 7.73,5.4126 4.4,4.681 3.227,4 L 0.391,5.37 0.456,9.101 c 0,0.007 1.4835,1.287 1.4395,2.74 -0.045,1.454 -1.3455,3.258 -1.3455,3.267 0,6.114 12.139,10.124 14.448,10.892 2.31,-0.768 14.449,-4.777 14.449,-10.892 0,-0.009 -1.1734,-1.812 -1.2184,-3.267 -0.043,-1.453 1.313,-2.733 1.313,-2.74 L 29.6076,5.37 26.7706,4 C 24.788379,4.6842131 22.670496,5.3803027 20.605,5.4126 z"
   stroke-miterlimit="3.8637"
   inkscape:connector-curvature="0"
   style="fill:#ffffff;stroke:#000000;stroke-width:0.75;stroke-miterlimit:3.86369991"
   sodipodi:nodetypes="ccsccccscsccccc" />
</g>
</svg>