<?xml version="1.0" encoding="UTF-8" standalone="no"?>
<!-- Generator: Adobe Illustrator 14.0.0, SVG Export Plug-In . SVG Version: 6.00 Build 43363)  -->
<svg id="svg2" xmlns:rdf="http://www.w3.org/1999/02/22-rdf-syntax-ns#" xmlns="http://www.w3.org/2000/svg" enable-background="new -4 0 38 30" xml:space="preserve" height="30px" width="38px" version="1.1" y="0px" x="0px" xmlns:cc="http://creativecommons.org/ns#" xmlns:dc="http://purl.org/dc/elements/1.1/" viewBox="-4 0 38 30"><metadata id="metadata12"><rdf:RDF><cc:Work rdf:about=""><dc:format>image/svg+xml</dc:format><dc:type rdf:resource="http://purl.org/dc/dcmitype/StillImage"/></cc:Work></rdf:RDF></metadata>
<g id="Shields">
	<path id="path6" d="m32.918 9.102 0.082-3.732-3.496-1.37c-1.448 0.681-5.022 1.4357-7.598 1.4126-2.35-0.0211-5.46-0.7316-6.907-1.4126-1.446 0.681-4.857 1.4126-6.905 1.4126-2.051 0-6.153-0.7326-7.6-1.4126l-3.494 1.37 0.081 3.731c0 0.007 1.4371 1.287 1.3831 2.74-0.056 1.454-1.2671 3.258-1.2671 3.267 0 6.114 14.956 10.124 17.802 10.892 2.846-0.768 17.803-4.777 17.803-10.892 0-0.009-1.2121-1.812-1.2681-3.267-0.053-1.452 1.384-2.733 1.384-2.739z" stroke="#000" stroke-miterlimit="3.8637" stroke-width=".75" fill="#fff"/>
</g>
</svg>
