<?xml version="1.0" encoding="UTF-8" standalone="no"?>
<!-- Created with Inkscape (http://www.inkscape.org/) -->

<svg
   xmlns:dc="http://purl.org/dc/elements/1.1/"
   xmlns:cc="http://creativecommons.org/ns#"
   xmlns:rdf="http://www.w3.org/1999/02/22-rdf-syntax-ns#"
   xmlns:svg="http://www.w3.org/2000/svg"
   xmlns="http://www.w3.org/2000/svg"
   xmlns:sodipodi="http://sodipodi.sourceforge.net/DTD/sodipodi-0.dtd"
   xmlns:inkscape="http://www.inkscape.org/namespaces/inkscape"
   id="svg2"
   height="21.950001"
   width="27.950001"
   version="1.0"
   inkscape:version="0.48.3.1 r9886"
   sodipodi:docname="shield_hwy_mo3.svg">
  <defs
     id="defs25764" />
  <sodipodi:namedview
     pagecolor="#ffffff"
     bordercolor="#666666"
     borderopacity="1"
     objecttolerance="10"
     gridtolerance="10"
     guidetolerance="10"
     inkscape:pageopacity="0"
     inkscape:pageshadow="2"
     inkscape:window-width="1281"
     inkscape:window-height="1221"
     id="namedview25762"
     showgrid="false"
     inkscape:zoom="30.91236"
     inkscape:cx="13.581307"
     inkscape:cy="7.4610808"
     inkscape:window-x="65"
     inkscape:window-y="24"
     inkscape:window-maximized="0"
     inkscape:current-layer="layer1" />
  <metadata
     id="metadata4515">
    <rdf:RDF>
      <cc:Work
         rdf:about="">
        <dc:format>image/svg+xml</dc:format>
        <dc:type
           rdf:resource="http://purl.org/dc/dcmitype/StillImage" />
      </cc:Work>
    </rdf:RDF>
  </metadata>
  <g
     id="layer1"
     transform="translate(0,-2138.05)">
    <path
       id="path2821"
       d="M 0.86425815,2138.6274 H 20.494009 c 0,0 0.761733,0.7538 0.820333,1.1559 0.05859,0.402 -0.292971,0.9045 0.117191,1.2062 0.410161,0.3015 1.874985,1.8093 1.874985,2.3117 0,0.5026 0.292971,1.2062 0.468762,1.4072 0.17578,0.2011 0.937524,0.8042 1.230495,1.3569 0.292971,0.5528 0.527352,4.3221 0.527352,4.3221 0,0 2.28522,4.322 1.87509,5.1261 -0.410162,0.8041 -0.878924,0.7037 -1.171905,1.357 -0.292971,0.6534 -1.230495,1.0051 -1.289085,1.3067 -0.0586,0.3015 -0.527352,1.4072 -0.527352,1.4072 h -4.74621 c 0,0 1.171905,-1.4575 1.289085,-1.8093 0.11719,-0.3517 -0.292971,-0.8544 -0.292971,-0.8544 H 3.7353782 c -0.35196,0 -0.35364,-0.047 -0.3515715,-0.3014 v -7.9908 c 0,0 -0.4101615,-3.4678 -0.6445425,-4.7745 -0.234381,-1.3066 -0.996114,-1.8594 -1.171905,-2.5127 -0.1757805,-0.6535 -0.88854155,-2.0714 -0.99611405,-2.3118 -0.0827778,-0.1851 0.118104,-0.3513 0.292971,-0.4021 z"
       style="fill:#ffffff;fill-rule:evenodd;stroke:#000000;stroke-width:0.78750002;stroke-miterlimit:4;stroke-dasharray:none"
       inkscape:connector-curvature="0" />
  </g>
</svg>
