<?xml version="1.0" encoding="UTF-8" standalone="no"?>
<!-- Generator: Adobe Illustrator 12.0.0, SVG Export Plug-In . SVG Version: 6.00 Build 51448)  -->

<svg
   xmlns:dc="http://purl.org/dc/elements/1.1/"
   xmlns:cc="http://creativecommons.org/ns#"
   xmlns:rdf="http://www.w3.org/1999/02/22-rdf-syntax-ns#"
   xmlns:svg="http://www.w3.org/2000/svg"
   xmlns="http://www.w3.org/2000/svg"
   xmlns:sodipodi="http://sodipodi.sourceforge.net/DTD/sodipodi-0.dtd"
   xmlns:inkscape="http://www.inkscape.org/namespaces/inkscape"
   version="1.1"
   id="Layer_1"
   width="22.6"
   height="22.6"
   viewBox="0 0 22.600001 22.600001"
   overflow="visible"
   enable-background="new 0 0 385 385"
   xml:space="preserve"
   inkscape:version="0.48.3.1 r9886"
   sodipodi:docname="shield_hwy_nbs3.svg"
   style="overflow:visible"><metadata
   id="metadata4563"><rdf:RDF><cc:Work
       rdf:about=""><dc:format>image/svg+xml</dc:format><dc:type
         rdf:resource="http://purl.org/dc/dcmitype/StillImage" /><dc:title></dc:title></cc:Work></rdf:RDF></metadata><defs
   id="defs4561" /><sodipodi:namedview
   pagecolor="#ffffff"
   bordercolor="#666666"
   borderopacity="1"
   objecttolerance="10"
   gridtolerance="10"
   guidetolerance="10"
   inkscape:pageopacity="0"
   inkscape:pageshadow="2"
   inkscape:window-width="1209"
   inkscape:window-height="1140"
   id="namedview4559"
   showgrid="false"
   inkscape:zoom="32"
   inkscape:cx="9.9768562"
   inkscape:cy="12.442699"
   inkscape:window-x="831"
   inkscape:window-y="262"
   inkscape:window-maximized="0"
   inkscape:current-layer="g4549" />

<g
   id="g4523"
   transform="matrix(0.05792208,0,0,0.05792208,0,0.29999421)">
	<g
   id="g4525"
   transform="matrix(1.0030045,0,0,1.0030045,2.0097504,-3.1664282)">
		<g
   id="g4527">
			<path
   d="m 0.5,28.5 c 0,-15.463867 12.535645,-28 28,-28 h 328 c 15.46387,0 28,12.536133 28,28 v 328 c 0,15.46484 -12.53613,28 -28,28 h -328 c -15.464355,0 -28,-12.53516 -28,-28 v -328 l 0,0 z"
   id="path4529"
   inkscape:connector-curvature="0"
   style="fill:#ffffff" />
			<path
   d="M 192.5,192.5"
   id="path4531"
   inkscape:connector-curvature="0"
   style="fill:#ffffff" />
		</g>
		<g
   id="g4533">
			<path
   stroke-miterlimit="3.863693"
   d="m 0.5,28.5 c 0,-15.463867 12.535645,-28 28,-28 h 328 c 15.46387,0 28,12.536133 28,28 v 328 c 0,15.46484 -12.53613,28 -28,28 h -328 c -15.464355,0 -28,-12.53516 -28,-28 v -328 l 0,0 z"
   id="path4535"
   inkscape:connector-curvature="0"
   style="fill:none;stroke:#000000;stroke-linecap:round;stroke-linejoin:round;stroke-miterlimit:3.863693" />
			<path
   stroke-miterlimit="3.863693"
   d="M 192.5,192.5"
   id="path4537"
   inkscape:connector-curvature="0"
   style="fill:none;stroke:#000000;stroke-linecap:round;stroke-linejoin:round;stroke-miterlimit:3.863693" />
		</g>
	</g>
	<g
   id="g4539"
   transform="matrix(1.0030045,0,0,1.0030045,2.0097504,-3.1664282)">
		<g
   id="g4541">
			<path
   d="m 6.5,28.5 c 0,-12.150391 9.849609,-22 22,-22 h 328 c 12.15039,0 22,9.849609 22,22 v 328 c 0,12.15039 -9.84961,22 -22,22 h -328 c -12.150391,0 -22,-9.84961 -22,-22 v -328 l 0,0 z"
   id="path4543"
   inkscape:connector-curvature="0" />
			<path
   d="M 192.5,192.5"
   id="path4545"
   inkscape:connector-curvature="0" />
		</g>
	</g>
	<g
   id="g4547"
   style="fill:#008400;fill-opacity:1"
   transform="matrix(1.0030045,0,0,1.0030045,2.0097504,-3.1664282)">
		<g
   id="g4549"
   style="fill:#000080;fill-opacity:1">
			<path
   d="m 14.5,28.5 c 0,-7.731934 6.268066,-14 14,-14 h 328 c 7.73242,0 14,6.268066 14,14 v 328 c 0,7.73242 -6.26758,14 -14,14 h -328 c -7.731934,0 -14,-6.26758 -14,-14 v -328 l 0,0 z"
   id="path4551"
   inkscape:connector-curvature="0"
   style="fill:#008400;fill-opacity:1" />
			<path
   d="M 192.5,192.5"
   id="path4553"
   inkscape:connector-curvature="0"
   style="fill:#000080;fill-opacity:1" />
		</g>
	</g>
	<g
   id="g4555"
   transform="matrix(1.0030045,0,0,1.0030045,2.0097504,-3.1664282)">
		
	</g>
<path
   style="fill:#ffffff;fill-opacity:1;fill-rule:nonzero;stroke:#c39f60;stroke-width:0;stroke-miterlimit:4;stroke-opacity:1;stroke-dasharray:none"
   d="m 116.43785,352.14471 c -1.8006,-0.34685 -1.48929,-1.46566 1.00085,-3.5972 2.10536,-1.8021 2.1995,-2.01087 1.8472,-4.0961 l -0.37121,-2.19723 -2.43732,1.42843 c -1.34052,0.78565 -5.27655,2.31265 -8.74672,3.39342 -5.94085,1.85028 -6.61981,1.94833 -11.623386,1.67866 l -5.313989,-0.28663 -2.42701,-2.5704 c -1.334853,-1.41373 -2.520447,-2.57041 -2.634653,-2.57041 -0.114289,0 -1.106349,1.45596 -2.20474,3.23554 -1.0984,1.77954 -2.14963,3.14127 -2.33607,3.02603 -0.186445,-0.11522 -1.755153,-2.27306 -3.486023,-4.79518 l -3.147035,-4.58571 -1.259495,-15.52161 c -0.692719,-8.53689 -1.345027,-15.5728 -1.449568,-15.63535 -0.104544,-0.0626 -5.275291,-3.47801 -11.490544,-7.58987 l -11.300468,-7.47613 3.589238,-3.61695 3.589236,-3.61694 0.0082,-90.35662 0.0082,-90.35662 -2.799464,-7.575946 c -1.539705,-4.16677 -2.957932,-7.760759 -3.151617,-7.986641 -0.193686,-0.225884 -3.016436,1.660062 -6.272781,4.190997 l -5.920626,4.601697 -6.020172,0.0027 c -3.311093,0.0016 -6.781147,-0.149363 -7.711229,-0.335381 l -1.691055,-0.338084 0,-3.697697 0,-3.697687 5.276104,0.30245 5.276105,0.302447 10.146354,-7.423593 10.146354,-7.423583 0,-14.005925 0,-14.005923 6.764236,0 6.764238,0 0,-5.952532 0,-5.95251 32.81661,0 32.81661,0 -0.3453,3.715319 -0.34531,3.715318 6.36788,3.860626 c 5.63719,3.417615 6.67692,3.860513 9.0611,3.859773 2.02649,0 11.59838,-2.873271 38.66466,-11.603705 19.78428,-6.381566 36.04661,-11.527675 36.13849,-11.435784 0.0918,0.09193 -0.43343,1.821192 -1.1673,3.842947 l -1.33423,3.675879 4.09352,4.824873 c 2.25141,2.653684 4.68618,5.050226 5.41059,5.325629 2.27416,0.864639 6.75846,0.527968 11.50046,-0.863451 2.51454,-0.737818 5.46481,-1.34148 6.55617,-1.34148 l 1.98424,0 5.79949,9.46159 5.79946,9.46159 -0.66789,2.037616 c -0.36727,1.120682 -2.58155,7.12856 -4.92053,13.35086 -2.339,6.222286 -4.14769,11.418292 -4.01928,11.546688 0.12814,0.128315 8.08976,-4.77994 17.69192,-10.907397 l 17.45851,-11.14084 14.11823,0 14.11825,0 4.05172,4.193819 c 2.22844,2.306621 5.11322,5.328639 6.41062,6.715612 l 2.3589,2.52177 -2.93586,1.949308 -2.93587,1.949305 -2.0618,15.036336 -2.06177,15.03632 -5.33366,6.46727 c -2.93351,3.55699 -5.34053,6.65453 -5.34892,6.88342 -0.008,0.22889 0.53266,0.29553 1.20228,0.14806 3.29983,-0.72662 20.02952,-3.03706 20.26755,-2.79904 0.15065,0.15013 -1.71867,6.24838 -4.15292,13.55152 -4.2467,12.7405 -4.51205,13.3466 -6.54998,14.96067 -1.16818,0.92522 -2.12399,1.85097 -2.12399,2.0572 0,0.20624 2.79924,2.19476 6.22053,4.41893 5.28148,3.43347 6.25971,4.28901 6.48008,5.66736 0.14201,0.89288 1.85832,20.61738 3.81237,43.83224 1.95404,23.21486 3.65988,42.71882 3.79074,43.34215 0.15758,0.75084 5.37507,4.75643 15.45991,11.86897 12.22029,8.61863 15.06211,10.84947 14.41109,11.31288 -0.44607,0.31741 -13.98024,7.76085 -30.07607,16.54082 l -29.26514,15.9636 -1.72627,5.14082 c -3.22446,9.60218 -3.22179,9.60348 -3.04783,-1.48817 0.10043,-6.4053 -0.0381,-9.87564 -0.39292,-9.87536 -0.30131,2.4e-4 -3.82637,5.82781 -7.83351,12.95017 l -7.28571,12.94975 -3.8554,-3.45056 -3.8554,-3.45057 -37.83196,8.62126 c -20.80757,4.74168 -38.14628,8.62453 -38.53045,8.62853 -0.38425,0.004 -3.67158,-2.22321 -7.30537,-4.94935 -3.63379,-2.72617 -6.67774,-5.00892 -6.76434,-5.0728 -0.0866,-0.0641 0.23585,-3.33492 0.71655,-7.26896 0.48071,-3.93404 0.76245,-7.26448 0.62599,-7.40096 -0.1368,-0.1368 -1.94557,2.05444 -4.02017,4.86872 l -3.77199,5.11689 -3.05933,-3.97444 c -1.68264,-2.18594 -3.20277,-4.34819 -3.37806,-4.80501 -0.1753,-0.45681 0.15602,-1.6281 0.7364,-2.60301 0.58027,-0.97492 2.19958,-3.90318 3.59835,-6.5074 l 2.54324,-4.73498 -3.22854,0 -3.22851,0 -3.83462,7.32876 c -2.10904,4.0308 -3.83461,7.53397 -3.83461,7.7848 0,0.25091 4.98244,5.76949 11.0721,12.26367 6.08966,6.49419 10.99882,11.88092 10.90921,11.97052 -0.16451,0.1645 -71.97244,10.49885 -72.01404,10.36333 -0.0125,-0.0398 -0.57052,-0.17922 -1.24019,-0.30823 l 0,0 z"
   id="path3328"
   inkscape:connector-curvature="0" /><path
   style="fill:#ffffff;fill-opacity:1;fill-rule:nonzero;stroke:#c39f60;stroke-width:0;stroke-miterlimit:4;stroke-opacity:1;stroke-dasharray:none"
   d="m 334.4443,74.245929 c -0.0346,-0.520845 -1.68609,-1.428002 -1.68609,-2.029252 0,-0.841779 0.93562,-2.595265 2.19833,-2.595265 1.443,0 4.83648,-1.746643 4.83648,-4.168984 0,-1.803806 -1.90844,-5.661605 -2.84077,-5.841191 -0.88054,-0.169514 2.54333,-2.005333 2.84099,-2.005333 0.29768,0 3.78762,3.787983 3.78762,4.870257 0,1.082275 3.24649,3.757922 3.24649,4.599678 0,1.142399 -12.38305,7.17009 -12.38305,7.17009 z"
   id="path3330"
   inkscape:connector-curvature="0"
   sodipodi:nodetypes="cssscsssc" /><path
   style="fill:#ffffff;fill-opacity:1;fill-rule:nonzero;stroke:#c39f60;stroke-width:0;stroke-miterlimit:4;stroke-opacity:1;stroke-dasharray:none"
   d="m 351.76076,55.306076 c -0.51879,0.08433 -1.68611,-1.428009 -1.68611,-2.02927 0,-0.841779 3.61205,-2.705687 4.05847,-2.705687 0.60122,0 0.8116,-0.631323 0.8116,-2.435128 0,-1.803806 -0.21038,-2.435129 -0.8116,-2.435129 -0.56696,0 -0.81163,-0.5712 -0.81163,-1.893992 l 0,-1.893992 6.08781,0 c 0,0 -0.73642,9.529544 -1.84573,10.61626 -1.6349,1.601584 -5.80281,2.776938 -5.80281,2.776938 z"
   id="path3332"
   inkscape:connector-curvature="0"
   sodipodi:nodetypes="csssssccsc" /></g></svg>