<?xml version="1.0" encoding="UTF-8" standalone="no"?>
<!-- Created with Inkscape (http://www.inkscape.org/) -->

<svg
   xmlns:dc="http://purl.org/dc/elements/1.1/"
   xmlns:cc="http://creativecommons.org/ns#"
   xmlns:rdf="http://www.w3.org/1999/02/22-rdf-syntax-ns#"
   xmlns:svg="http://www.w3.org/2000/svg"
   xmlns="http://www.w3.org/2000/svg"
   xmlns:sodipodi="http://sodipodi.sourceforge.net/DTD/sodipodi-0.dtd"
   xmlns:inkscape="http://www.inkscape.org/namespaces/inkscape"
   id="svg3096"
   height="22.3"
   width="22.3"
   version="1.1"
   inkscape:version="0.48.3.1 r9886"
   sodipodi:docname="shield_hwy_nd2.svg">
  <defs
     id="defs28764" />
  <sodipodi:namedview
     pagecolor="#ffffff"
     bordercolor="#666666"
     borderopacity="1"
     objecttolerance="10"
     gridtolerance="10"
     guidetolerance="10"
     inkscape:pageopacity="0"
     inkscape:pageshadow="2"
     inkscape:window-width="1382"
     inkscape:window-height="1256"
     id="namedview28762"
     showgrid="false"
     inkscape:zoom="42.33184"
     inkscape:cx="9.1183415"
     inkscape:cy="10.48535"
     inkscape:window-x="65"
     inkscape:window-y="24"
     inkscape:window-maximized="0"
     inkscape:current-layer="g3768" />
  <metadata
     id="metadata3102">
    <rdf:RDF>
      <cc:Work
         rdf:about="">
        <dc:format>image/svg+xml</dc:format>
        <dc:type
           rdf:resource="http://purl.org/dc/dcmitype/StillImage" />
        <dc:title />
      </cc:Work>
    </rdf:RDF>
  </metadata>
  <g
     id="g3768"
     transform="scale(.037167)">
    <path
       id="path3108"
       d="m 354.04408,578.1311 c 25.84575,-1.10051 50.1354,-13.7088 76.32975,-10.6197 11.1216,-5.46263 -4.16818,-38.9214 19.04595,-24.05655 11.88495,19.7337 63.54915,24.4566 44.28375,-8.65862 -17.8521,-31.983 53.44605,-0.83479 40.06275,-37.8987 -5.89512,-13.5954 -35.94045,-44.7111 -1.68808,-39.14715 24.5448,-1.29118 31.55355,-22.9593 10.204,-37.0398 -5.23456,-17.97285 58.95015,-26.7708 22.9551,-47.3844 -28.2639,-13.59225 38.6295,-33.55065 6.10386,-48.7116 -34.58805,-8.57052 34.38435,-41.1579 -6.19584,-50.3034 -37.20885,-7.27125 27.15825,-51.0867 -17.12235,-51.7923 -40.67805,2.33489 16.74225,-46.32285 -22.08465,-44.44335 -39.3162,3.3326 -7.81641,-32.0565 -14.0553,-52.50735 -10.9011,-9.7441 -50.4147,14.3451 -31.7289,-15.9096 14.41125,-8.93235 18.9273,-34.301396 -5.06961,-25.192646 -34.4442,9.71859 22.01955,-39.8076 -17.5077,-31.8192 -31.18185,8.076075 -58.67085,26.64585 -88.6641,38.28405 -10.4749,8.494395 -23.42025,7.24836 -7.79373,-4.05741 12.84465,-6.87813 60.3078,-38.47095 20.65035,-36.95895 -26.6028,1.55337 -43.73355,28.9317 -69.12255,31.5735 6.22608,-20.4561 50.0745,-36.3993 39.2427,-57.68595 -38.53185,-4.55931 -71.4819,20.7606 -99.23235,44.0244 -28.46235,2.88393 -45.5469,26.03685 -68.95875,38.753396 -24.9249,11.01765 -42.61425,33.4719 -59.62005,53.9574 -17.3691,28.1883 -44.992499,48.2538 -60.041099,78.0066 -14.89845,22.24635 -2.94966,52.63755 -23.82135,74.1657 -8.724975,24.6435 -26.51355,49.0329 -23.80875,75.95175 11.06385,13.93035 42.97125,0.52459 29.526,28.96845 11.28855,22.15185 -13.69515,66.9039 28.4634,66.2697 21.2562,3.05487 62.627249,-23.48745 65.902199,11.96055 10.6722,23.08005 3.11147,62.055 34.2069,69.30945 20.27445,-4.24399 40.5321,-14.95095 59.8773,2.21981 27.8964,13.40535 60.2805,5.07055 89.95245,11.1174 9.90129,0.13634 19.8135,-0.0563 29.7087,-0.37506 z"
       style="fill:#ffffff;stroke:#000000;stroke-width:21.18815041;stroke-miterlimit:4;stroke-opacity:1;stroke-dasharray:none"
       inkscape:connector-curvature="0" />
  </g>
</svg>
