<?xml version="1.0" encoding="UTF-8" standalone="no"?>
<!-- Created with Inkscape (http://www.inkscape.org/) -->

<svg
   xmlns:dc="http://purl.org/dc/elements/1.1/"
   xmlns:cc="http://creativecommons.org/ns#"
   xmlns:rdf="http://www.w3.org/1999/02/22-rdf-syntax-ns#"
   xmlns:svg="http://www.w3.org/2000/svg"
   xmlns="http://www.w3.org/2000/svg"
   xmlns:sodipodi="http://sodipodi.sourceforge.net/DTD/sodipodi-0.dtd"
   xmlns:inkscape="http://www.inkscape.org/namespaces/inkscape"
   id="svg2"
   height="22.3"
   width="27.88"
   version="1.1"
   inkscape:version="0.48.3.1 r9886"
   sodipodi:docname="shield_hwy_nd3.svg">
  <defs
     id="defs28772" />
  <sodipodi:namedview
     pagecolor="#ffffff"
     bordercolor="#666666"
     borderopacity="1"
     objecttolerance="10"
     gridtolerance="10"
     guidetolerance="10"
     inkscape:pageopacity="0"
     inkscape:pageshadow="2"
     inkscape:window-width="1172"
     inkscape:window-height="1136"
     id="namedview28770"
     showgrid="false"
     inkscape:zoom="1"
     inkscape:cx="11.487921"
     inkscape:cy="10.842993"
     inkscape:window-x="65"
     inkscape:window-y="24"
     inkscape:window-maximized="0"
     inkscape:current-layer="svg2" />
  <metadata
     id="metadata8">
    <rdf:RDF>
      <cc:Work
         rdf:about="">
        <dc:format>image/svg+xml</dc:format>
        <dc:type
           rdf:resource="http://purl.org/dc/dcmitype/StillImage" />
        <dc:title />
      </cc:Work>
    </rdf:RDF>
  </metadata>
  <path
     id="path2989"
     d="m 11.64057,21.479511 c 0.997689,-0.0866 2.67099,0.143136 2.605365,-1.32153 0.758909,-1.32279 2.594235,-0.674195 3.752805,-0.328944 1.30473,0.313414 2.190405,1.640205 3.574725,1.652595 1.17075,-0.15141 0.158897,-1.10586 -0.13126,-1.53615 0.862323,-0.354165 2.40093,1.86627 2.86923,0.353619 -0.605168,-0.770081 -0.203039,-1.172115 0.681649,-0.965769 1.580775,-0.277043 -0.198523,-1.637475 0.05751,-2.256555 0.804573,0.127764 2.092755,-0.523268 1.016568,-1.293075 -0.492996,-0.749658 2.207835,-1.11216 0.788812,-1.864275 -0.801129,-0.604086 1.622775,-1.543605 -0.04079,-1.952055 -0.374556,-0.528465 1.337805,-1.428525 0.03596,-1.767675 -1.281735,-0.2981792 1.066065,-1.8963002 -0.664104,-1.9149902 -1.41435,-0.015399 0.751296,-1.823745 -0.862806,-1.647975 -1.7262,0.237405 0.62265,-2.2533 -0.9828,-2.0076 -0.91455,0.41013 -0.91665,-0.306915 -0.3654,-0.789285 1.1655,-1.19364 -1.70415,-0.112875 -0.6909,-1.22682 0.57435,-1.21191 -1.49835,-0.34776 -2.01495,0.00357 -0.7077,0.174825 -1.7997,1.079505 -2.25225,0.8631 0.4326,-0.419265 2.66385,-1.56576 1.0626,-1.72494 -1.40595,-0.02394 -2.6754,0.741195 -4.0593,0.89376 -0.4557,-0.80808 2.3772,-1.29612 1.2957,-1.70677499 -1.6002,0.14930999 -3.0849,0.87905999 -4.55175,1.49267999 -0.41055,0.370755 -1.701,0.98532 -0.76965,0.05649 0.6342,-0.34461 2.03595,-1.91089499 0.40005,-1.58392499 -1.1739,0.17471999 -2.1126,0.93082499 -3.0596999,1.57121999 -1.190595,0.26628 -2.00382,1.21695 -3.08994,1.697115 -1.255485,0.88998 -2.01054,2.258025 -3.054555,3.348555 -0.57603,0.6699 -1.398495,1.46286 -1.28898,2.419305 -0.1044141,1.2685052 -1.14029995,2.2661102 -1.41802495,3.5146652 -0.48496350438,0.886536 0.337701,1.286775 1.02399145,1.356285 0.4064865,1.009449 -0.60272095,2.966775 1.0251255,3.10212 0.8266545,0.101976 2.641485,-0.864707 2.47254,0.66906 0.6123915,0.906643 0.1716015,2.67246 1.616685,2.83101 1.104495,-0.273074 2.209305,-0.295838 3.312855,0.06175 0.5674309,0.03239 1.1375699,0.01055 1.7053049,0.0013 z m 15.4581,-9.67512 c -0.05407,-0.01456 0.0041,0.06187 0,0 z"
     style="fill:#ffffff;stroke:#000000;stroke-width:0.78750002;stroke-miterlimit:4;stroke-opacity:1;stroke-dasharray:none"
     inkscape:connector-curvature="0" />
</svg>
