<?xml version="1.0" encoding="UTF-8" standalone="no"?>
<!-- Created with Inkscape (http://www.inkscape.org/) -->

<svg
   xmlns:dc="http://purl.org/dc/elements/1.1/"
   xmlns:cc="http://creativecommons.org/ns#"
   xmlns:rdf="http://www.w3.org/1999/02/22-rdf-syntax-ns#"
   xmlns:svg="http://www.w3.org/2000/svg"
   xmlns="http://www.w3.org/2000/svg"
   xmlns:sodipodi="http://sodipodi.sourceforge.net/DTD/sodipodi-0.dtd"
   xmlns:inkscape="http://www.inkscape.org/namespaces/inkscape"
   id="svg14687"
   height="22.5"
   width="28.75"
   version="1.1"
   inkscape:version="0.48.3.1 r9886"
   sodipodi:docname="shield_hwy_ne3.svg">
  <defs
     id="defs28825" />
  <sodipodi:namedview
     pagecolor="#ffffff"
     bordercolor="#666666"
     borderopacity="1"
     objecttolerance="10"
     gridtolerance="10"
     guidetolerance="10"
     inkscape:pageopacity="0"
     inkscape:pageshadow="2"
     inkscape:window-width="1250"
     inkscape:window-height="1212"
     id="namedview28823"
     showgrid="false"
     inkscape:zoom="32"
     inkscape:cx="13.121838"
     inkscape:cy="8.9715893"
     inkscape:window-x="65"
     inkscape:window-y="24"
     inkscape:window-maximized="0"
     inkscape:current-layer="g3045" />
  <metadata
     id="metadata14692">
    <rdf:RDF>
      <cc:Work
         rdf:about="">
        <dc:format>image/svg+xml</dc:format>
        <dc:type
           rdf:resource="http://purl.org/dc/dcmitype/StillImage" />
        <dc:title />
      </cc:Work>
    </rdf:RDF>
  </metadata>
  <g
     id="g3045"
     transform="matrix(0.046458,0,0,0.037167,0,0.20000153)"
     style="stroke:#000000;stroke-width:1.01074195;stroke-miterlimit:4;stroke-opacity:1;stroke-dasharray:none">
    <path
       id="rect14769"
       d="M 11.126858,5.6764 H 607.18036 l -108.402,582.5505 h -379.428 z"
       style="fill:#ffffff;stroke:#000000;stroke-width:18.9514122;stroke-miterlimit:4;stroke-opacity:1;stroke-dasharray:none"
       inkscape:connector-curvature="0" />
    <g
       id="g15580"
       transform="matrix(1.05,0,0,1.05,-79.347442,233.06545)"
       style="fill-rule:evenodd;stroke:#000000;stroke-width:1.01074195;stroke-miterlimit:4;stroke-opacity:1;stroke-dasharray:none">
      <path
         id="path11444"
         d="m 523.49,339.25 c -1.3319,-2.5687 -4.1513,-1.5636 -6.2017,-2.428 -12.371,-1.8868 -23.417,-9.7306 -37.136,-11.202 -10.642,-1.067 -21.592,1.0956 -31.676,-0.96465 -2.5881,-0.13636 -5.801,-0.99004 -8.4911,-1.7411 2.4862,-3.3496 3.1649,-8.0246 4.0828,-11.477 2.8653,0.9739 8.5058,-0.53426 5.7177,-3.9947 0.38393,-3.0753 0.85006,-6.9754 2.2915,-9.5538 3.6571,-1.0904 1.3279,-5.3176 3.6768,-6.5888 9.4071,-7.6691 18.699,-17.828 19.196,-30.61 1.432,-9.2541 -4.0156,-21.86 -14.537,-21.563 -4.3769,0.93805 -3.8056,-5.47 -7.027,-7.4654 -2.9024,-3.1266 -7.0578,-4.452 -11.274,-3.6554 -3.0919,-4.1469 -1.925,-10.172 -5.7774,-14.103 -4.0808,-5.346 -11.459,-8.5675 -18.086,-6.4056 -3.1189,-5.2036 -3.6256,-11.815 -8.482,-16.109 -3.9925,-4.5165 -10.842,-4.5959 -15.874,-4.0592 -4.8731,-4.3665 -2.5855,-11.672 -6.4075,-16.819 -5.0922,-10.018 -16.969,-16.212 -26.857,-16.994 -11.624,-0.75135 -22.433,3.9269 -32.232,9.7338 -16.225,10.281 -25.313,29.641 -24.048,48.775 1.0786,14.741 9.4242,28.299 18.3,39.972 -3.5816,0.23508 -6.328,-0.5445 -9.4032,-2.0144 -3.155,-1.1896 -6.5629,-2.227 -9.5518,-3.7323 1.3175,-2.6394 -0.18185,-7.6953 -3.5991,-6.9525 1.1647,-3.3722 -4.2179,-3.3655 -4.4097,-0.17476 -5.6049,0.50187 -1.1136,-1.5402 -0.0617,-4.5252 2.2704,-4.1534 -0.70779,-10.768 -5.3294,-10.762 -2.2459,2.3197 4.8589,5.3541 0.65783,8.4043 -2.2198,1.8543 -6.1268,3.1625 -8.5598,1.7665 -2.6262,-0.14973 -4.9695,-0.51311 -7.4618,-0.26162 -2.2765,0.91191 -5.3425,0.20675 -7.6819,2.0803 -3.6038,-1.066 -2.4824,-6.8095 0.32725,-8.5192 -0.42835,-4.3542 -7.1967,1.1432 -6.9296,4.0588 -1.4485,4.2494 1.6497,7.6758 4.1565,10.368 -2.0527,2.8574 -1.0582,6.2132 -4.418,8.5192 -4.0912,1.3352 -5.0481,3.9891 -3.8964,-2.0844 -0.13441,-2.5609 -3.7346,-7.7747 -6.0763,-4.5189 1.5221,2.4562 3.4305,5.9239 -0.97316,7.2998 -1.2,-3.0709 -4.4466,2.9242 -6.4813,-0.17513 -2.6485,-0.46742 -4.9425,-1.2832 -7.6733,0.17513 -2.4394,-1.2873 -4.1468,1.1042 -6.4367,1.2186 -3.2504,2.0396 -4.9454,-4.4305 -3.1089,-6.7884 -1.3435,-3.8455 -5.2248,2.0921 -4.7366,4.4097 -0.81699,4.0544 2.8367,6.6209 4.4094,9.4953 3.3005,0.84424 -1.1288,5.5834 2.1272,7.8219 1.1531,4.1209 -4.5113,5.0251 -3.5912,8.876 -1.8177,3.5663 2.0986,5.1263 3.5912,7.4658 4.0773,1.1452 8.7558,-0.33109 11.6,-3.2975 -1.5911,3.6696 -1.7858,9.6361 3.4362,10.076 3.832,-0.90858 2.3069,6.7533 6.0456,7.4841 2.9331,5.0771 0.2741,11.632 -3.4362,15.809 -1.1426,4.0507 3.1002,6.7906 1.7999,10.78 -4.7728,1.7862 -8.9055,6.3927 -13.891,7.1276 -4.5232,1.7182 -9.419,4.0944 -12.419,7.8128 m 201.99,-39.798 c -1.591,-0.98566 -6.4725,-1.1459 -4.09,-4.002 1.9871,-0.6109 10.077,6.813 4.091,4.0028 m -80.901,-66.911 c 2.0938,3.023 -2.8558,2.5937 -1.473,0.16268 0.63687,-0.0398 0.98665,0.26426 1.473,-0.16488 m 0,-8.1704 c -0.21565,4.4637 -2.6138,-2.7463 -3.5e-4,0 m 84.82,76.996 c -1.7337,-2.9797 -3.621,-6.4444 -4.9099,-9.5637 2.753,-2.0186 3.5196,5.1452 4.7456,7.1265 -0.95118,0.90062 1.5604,1.7414 0.16431,2.4361 m -53.282,-60.142 c -1.1425,10.72 -2.285,21.44 -3.4276,32.159 -9.0972,1.4472 -18.194,2.8944 -27.291,4.3416 1.591,-2.8734 6.2146,-3.5459 4.6695,-9.3738 -3.8171,0.27963 -7.3566,-1.4617 0.2397,-2.9642 -0.58239,-3.436 3.5715,-12.432 -2.8529,-9.01 -6.5872,-1.8198 -3.7043,9.4175 -6.7116,2.1356 -3.2673,-4.4566 6.3711,-3.0146 9.0553,-4.7498 7.7728,-2.109 16.131,-3.2123 23.547,-5.9347 2.8361,-7.0344 -5.8009,-1.7214 -9.3048,-1.4442 -10.222,2.806 -21.036,5.555 -30.896,8.3967 -7.5159,-3.4659 -11.08,-11.693 -15.527,-18.083 -5.9974,-10.983 -10.532,-23.549 -7.6822,-36.145 2.3475,-14.71 10.063,-30.015 24.19,-36.677 10.905,-5.9592 25.098,-10.522 37.092,-6.43 12.326,4.1543 19.871,16.43 21.238,28.934 2.6305,18.729 -2.8972,38.388 -14.21,53.456 -2.3576,-0.1472 -11.475,4.1292 -7.822,0.0142 0.72238,-4.5912 4.8686,-5.425 8.153,-7.9003 5.6685,-4.3116 1.5195,-3.1497 -2.5785,-0.30607 -6.061,4.0432 -1.6128,-3.1426 -1.507,-6.4178 3.5187,-1.0867 8.021,-2.565 11.6,-4.6806 -4.0992,-1.067 -7.3493,2.8844 -11.437,2.2441 1.0416,-5.0764 7.6554,-5.2669 10.443,-9.2878 6.4396,-5.1233 -2.0241,-1.2139 -4.7709,0.93636 -5.6623,4.7949 -3.7993,-1.8282 -3.419,-5.9452 2.3395,-4.022 7.8376,-5.7164 10.657,-9.6843 -3.2487,0.64816 -9.0351,6.528 -10.727,3.473 -1.4376,-3.4306 0.4413,-6.2136 3.0702,-8.1905 1.4714,-1.8046 7.6865,-7.3979 5.2014,-6.1278 -2.7557,2.2449 -6.8163,6.1458 -9.4732,6.6774 -1.1666,-4.2869 -3.9408,-8.6831 -1.4457,-12.904 0.563,-4.2118 4.8904,-7.4332 3.5642,-11.956 -0.51684,4.8219 -4.8282,7.8336 -7.0188,11.816 -1.7138,-2.6986 -9.3822,-4.0657 -7.0661,-7.73 1.6007,-3.8458 -0.17372,-8.5534 1.993,-12.431 -3.8991,3.8782 -2.8644,10.375 -7.191,13.739 -3.1638,0.65503 -8.105,1.2834 -6.0456,-3.8291 -0.92217,-7.8101 -1.2981,-3.5706 -2.2691,1.7248 -0.5602,2.3827 -3.0592,7.0734 -4.923,2.966 -2.4671,-1.5954 -5.6067,-9.8152 -5.8887,-8.8804 1.5898,3.7425 2.8326,7.6552 4.7516,11.143 -3.8886,1.3033 -7.8851,5.0849 -11.734,1.6429 -1.9635,-2.2848 -10.158,-6.0203 -4.1121,-1.8889 0.4672,2.9855 8.1402,5.0108 4.8122,7.1699 -2.9875,2.0273 -5.0882,6.0396 -9.0757,3.8577 -6.062,-2.3011 -7.4268,-1.0731 -0.86158,1.2856 4.9549,2.5803 -0.0928,6.9118 -1.0674,10.448 -1.2376,5.4089 -7.0936,0.18922 -8.8528,-2.4053 -2.7178,-2.3149 2.9854,6.444 5.8812,6.8294 4.3878,1.0401 2.9459,8.0921 -0.81814,9.2146 -3.7067,2.297 -9.1682,-9.5192 -7.0628,-2.6548 1.7339,1.9153 7.1244,6.9857 9.1896,3.8646 1.8699,0.0905 1.7665,7.4749 1.4644,10.433 -3.9222,0.45507 -11.621,-6.3416 -5.2276,-0.009 4.7815,0.91961 7.8222,4.479 9.028,9.0078 -3.6573,0.439 -6.7262,-0.9824 0.0979,2.2214 5.9885,2.7888 -1.4852,6.9604 -2.26,4.7973 3.8857,1.0119 7.4982,2.3086 8.3348,6.9284 -1.1733,2.7443 5.0506,4.3596 8.4338,1.8931 11.95,-3.2385 23.899,-6.4769 35.849,-9.7154 m -31.692,-5.9079 c 2.3369,0.0987 -0.75491,-7.451 4.564,-3.6448 0.60123,2.7615 -1.9522,5.807 0.81711,7.1196 -0.0839,3.3466 -6.087,8.454 -2.1288,2.7978 -1.996,-1.3948 -3.9172,4.9368 -5.1864,6.7262 -2.747,-1.3516 2.9571,-4.7361 1.2696,-6.2744 1.1471,-2.2985 -2.852,-6.6401 0.66313,-6.721 m 17.482,6.7873 c -0.28513,5.5544 -3.7921,0.26019 3.4e-4,0 m 3.1003,-15.654 c 2.9754,-0.70117 2.7333,3.8168 4.2292,1.3381 3.5071,-1.8567 2.9634,2.7257 1.8171,4.3958 -0.18718,2.0591 0.52772,6.1246 -2.4555,5.7442 2.1536,-1.4094 0.18001,-2.3083 0.33725,-3.8316 -1.6816,3.8036 -2.3227,-0.476 -0.33483,-1.7403 -2.3021,0.0973 -1.9264,6.4485 -2.9364,1.7392 -1.1056,-2.348 0.39678,4.4116 -0.97351,1.9151 -2.0056,-2.1466 0.70614,-4.8209 0.97316,-7.1295 -2.2503,0.43141 -1.6086,2.4213 -2.6187,4.8718 0.82777,1.6116 0.11059,3.6797 -0.31761,4.8553 -1.0261,1.9278 -3.9412,0.60342 -3.7631,-1.7293 -1.9919,1.6901 -4.0674,3.7561 -4.9016,-0.3488 -1.6722,-1.449 0.7173,-5.1664 1.8002,-5.3968 1.6697,2.8732 6.6405,-0.10436 7.673,-2.254 1.0687,-0.74999 0.56536,-1.819 1.473,-2.4372 m 71.419,56.139 c -3.1439,-3.3139 -4.3418,-0.84535 -6.2093,-3.6e-4 2.663,-3.3998 -5.5318,-6.5022 -3.2726,-6.7781 4.2311,1.5959 9.8101,3.1076 11.928,7.475 -0.31827,0.93672 -1.991,-0.34735 -2.4458,-0.69686 m -69.292,-44.836 c 3.1767,0.60195 1.1592,3.0719 -0.98108,0.86027 -0.61363,-0.37198 0.30679,-1.3068 0.98178,-0.86027 m -2.9453,2.2533 c 2.0141,-0.85621 3.5745,3.5459 0.81952,3.3074 -1.0396,0.6445 -4.6508,1.1117 -1.7923,-0.70419 -0.20697,-0.54957 0.59335,-1.9117 0.9735,-2.6021 m 67.329,57.009 c 0.19938,-3.4279 0.43984,-7.0081 1.1547,-10.251 3.8025,-0.6634 0.0565,5.6413 0.50579,7.8681 -0.19454,1.6819 -1.5177,10.079 -1.6605,2.3815 m -91.675,-52.659 c -1.9065,-1.2616 0.0142,-8.5407 -2.4548,-5.3858 1.283,1.963 1.4354,5.4592 -0.81917,6.9525 0.50262,1.79 6.2428,4.6657 0.81814,4.8652 -1.2143,-2.4494 -3.3999,-4.0076 -3.264,-7.3006 1.4924,-3.6968 -0.61871,-9.199 4.3527,-10.755 0.57442,2.7409 2.5343,3.5799 3.6557,3.8036 1.7864,3.1636 0.97637,7.1812 -1.309,9.7279 -1.1571,-0.0325 -1.189,-0.93272 -0.98176,-1.9052 m 102.79,-1.0442 c 3.3013,-0.9877 6.0572,-1.4504 9.4729,-1.2076 5.0196,-1.9097 2.804,-3.064 -1.7357,-1.7488 -2.0821,0.43044 -8.6271,-3.7881 -3.0195,-2.9505 2.1116,1.2104 6.4972,1.2937 7.3822,-1.2186 -2.8232,1.2626 -6.6604,1.1921 -8.9909,-1.0457 5.7182,-2.0996 1.1502,-1.663 -0.81815,-3.4722 0.88252,0.88539 6.3904,-0.0198 4.8999,-1.4018 -2.9543,1.3007 -6.1217,-1.7874 -1.3097,-0.86979 9.2382,1.9163 13.745,13.51 11.016,22.136 -2.3792,12.883 -8.8313,25.174 -18.206,34.362 -1.6965,-1.2384 -2.1759,-6.57 -5.727,-7.4742 3.6647,0.38264 8.6894,0.76969 11.072,-2.1376 -1.6016,-0.64985 -4.4767,0.96871 -6.4916,0.74464 -4.7151,0.51445 -5.3958,-2.771 -8.9909,-3.9943 -4.3127,-3.2352 5.6485,-0.91187 3.11,-3.8294 -5.459,-1.5147 0.81635,-3.143 3.0996,-0.87199 3.7137,1.26 8.6187,0.095 11.282,-2.9498 -2.5985,0.60467 -5.6736,2.1569 -8.7132,0.59216 -2.7421,0.12482 -6.4355,-4.6994 -2.2954,-4.9437 3.3632,2.2773 10.033,1.3508 12.155,-2.0796 -2.8954,1.0825 -6.9134,1.1958 -9.4811,-0.87932 2.119,-1.7958 -6.2487,-3.3071 -0.98141,-3.4733 2.6719,1.4264 6.9799,1.7044 10.009,1.9707 4.0071,-2.2751 -7.2649,-1.9791 -2.9822,-4.0577 -2.1649,-2.6983 4.4774,0.67916 6.4404,-1.2533 4.4528,-1.9389 -2.8939,-0.83352 -4.3133,-0.82488 -1.5417,-1.0179 -8.1294,-6.2657 -3.4276,-4.6904 1.8433,1.4212 10.172,0.63193 6.9425,-0.89631 -2.9273,1.7557 -6.2493,-0.95516 -9.3969,-1.1924 v -0.34807 m 5.3911,48.317 c 3.2055,-0.7497 5.2392,3.5136 1.3094,1.2179 -0.0871,-0.50637 -2.4183,-0.7561 -1.3087,-1.2193 m -45.764,-6.082 c 1.5435,2.3315 -5.271,1.0641 -2.6101,-0.5232 2.1262,0.98885 3.0784,-5.6058 2.6094,0.52247 m -3.4276,12.686 c -4.0857,-4.2892 3.4515,1.1157 0.001,0.86943 -0.45661,0.13818 -0.28316,-0.73743 0,-0.87053 m 0,-25.033 c -3.4576,-1.7089 -7.9203,-0.72839 -10.946,0.18246 3.4403,-3.153 9.89,-2.8017 12.747,0.51257 -0.59997,-0.23204 -1.1999,-0.46409 -1.7999,-0.69613 m -4.0907,0.69613 c 0.75937,1.9561 -0.94816,13.226 -1.3001,6.7772 0.50789,-1.7094 -1.1028,-7.4258 1.3001,-6.7776 m 6.7088,-85.514 c 2.5945,1.6289 -5.3149,1.8323 -2.945,0.1744 0.95288,-0.31785 1.9654,-0.11437 2.9453,-0.1744 m 16.018,47.456 c 6.278,2.6072 14.44,1.6863 19.281,-3.1326 -2.4291,-0.54585 -5.1518,3.191 -8.1738,3.1319 -2.9312,0.92554 -7.4687,-1.1634 -8.9913,-3.2978 -0.91181,-3.9296 3.0149,-3.0425 5.3911,-3.3077 3.9357,-1.1448 6.0041,-2.8266 0.65383,-1.5681 -2.6108,-0.17067 -6.9331,-0.8921 -4.2457,-4.1782 3.2596,-1.6514 7.3909,1.5772 9.8943,-2.3729 3.8211,-2.2703 3.727,-4.5038 -0.15557,-1.0651 -3.3137,1.7499 -6.634,-2.1483 -10.066,-2.4706 -0.83024,-3.1073 3.6556,-2.3689 5.7191,-1.9147 2.9449,-0.79794 7.2739,-3.9024 1.7084,-2.1404 -5.5174,-1.6037 -3.5919,-2.3191 -0.23642,-4.117 -0.66024,-0.84608 -4.7247,0.7685 -4.7352,-0.69687 7.9226,-1.5556 16.175,4.799 17.43,12.99 4.2236,11.042 -0.96609,22.88 -5.0143,33.229 -3.2037,7.1316 -8.064,14.61 -13.724,19.134 0.69416,-4.8066 -5.1211,-5.8757 -7.5183,-8.6837 3.9695,-0.28223 -6.3827,-4.0965 0.32725,-2.9589 5.9533,0.27946 -1.8348,-2.298 -3.7641,-2.6006 -3.3667,0.28661 -5.8654,-4.1924 -1.1364,-1.5659 3.7673,2.0824 5.8803,0.16241 1.3011,-1.5659 3.7677,-0.53516 8.8485,2.1218 13.237,0.34806 5.8396,-1.9274 -0.20063,-1.6444 -2.6105,-0.69613 -4.3539,0.61645 -7.9435,-3.5534 -11.28,-5.9083 -0.62527,-1.8766 2.4521,-5.1848 4.5823,-3.133 4.5096,0.69256 9.7997,3.9182 14.055,0.34916 2.2082,-0.19386 7.283,-4.1626 2.4455,-2.7849 -3.6264,3.3466 -9.5762,3.0019 -13.728,1.3923 -3.0887,-0.48721 -4.1199,-4.5235 0.0642,-3.0454 1.8248,1.7121 9.1778,-1.777 4.2537,-1.2977 -2.4208,-0.2109 -5.2852,-0.67143 -7.0909,-1.7425 0.48378,-0.99895 6.9978,-1.7303 2.8535,-2.7578 -1.1466,0.0967 -2.2064,-1.0169 -0.72597,-1.5838 m -73.219,44.149 c 9.4244,-1.2762 18.849,-2.5525 28.273,-3.8287 -1.1546,4.2235 -8.5375,2.0087 -12.284,3.5525 -5.3296,0.73018 -10.659,1.4604 -15.989,2.1905 v -1.9144 z m 0.81814,-50.057 c -1.2181,1.9114 -4.0471,4.9267 -4.737,1.0339 1.3685,2.4002 2.8274,-2.6078 4.7366,-1.035 m 8.5001,72.306 c 1.6096,1.8404 -2.1458,6.0963 -3.264,2.4273 -0.22741,-2.0411 -4.3542,-5.9363 -2.1272,-6.6052 1.8016,1.0434 2.865,5.3969 5.3908,4.1775 m -12.582,-69.183 c 2.6343,1.5486 -2.0337,4.4483 -0.99073,0.53163 -0.0328,-0.35699 0.66392,-0.62793 0.99003,-0.53199 m 14.709,64.667 c -0.1216,5.1333 -3.7325,3.3206 -5.3915,0 -2.7768,-4.0245 3.2205,-1.9097 5.2182,-1.4014 -0.0204,0.47269 0.13674,0.93299 0.17224,1.4018 m -11.118,-0.53125 c -1.0787,2.4618 -1.0766,8.2388 -3.3376,2.6682 -0.5739,-2.8383 -1.3241,-7.0501 -5.1538,-6.1397 -3.4688,2.9385 -5.8573,-1.1788 -7.8545,-3.8192 -3.0393,-3.339 -2.0393,-7.9227 -0.97247,-11.651 -2.4539,2.9027 -3.2369,9.3835 -8.0088,8.6943 -3.2397,0.2382 -6.5415,-1.4704 -8.6658,-3.8309 -0.20332,-3.172 -0.0154,-7.5094 -1.3504,-2.2252 -1.7279,3.1817 -2.7538,7.8207 -6.8131,8.6538 -1.6064,-0.29086 1.1057,6.2791 -2.4474,7.6348 0.63859,4.0715 -0.42277,8.4141 1.6428,11.916 2.3601,3.794 -3.0152,3.4078 -1.6488,5.6566 0.39036,3.2052 0.3162,7.7751 -4.0904,7.3013 -2.8827,0.7267 -7.9527,-1.4812 -4.2457,-4.3431 1.4855,6.4063 2.5399,-1.5998 4.4094,-1.7403 -0.62496,1.8938 -0.32096,6.8424 2.1272,3.8294 2.8684,-3.7476 -1.4815,-5.9385 -5.2541,-4.7146 -1.3967,-3.0745 1.5911,-7.5226 1.0707,-11.113 0.57708,-3.8298 -1.432,-6.4451 -1.6987,-9.7959 1.8556,-3.2477 1.8073,-6.8877 2.4979,-10.569 0.44522,-2.0753 1.5164,-9.9329 -1.9695,-6.8415 -0.19697,3.7849 -3.1642,0.94482 -2.8191,-1.4634 -0.99035,-4.2578 0.24249,-3.8208 2.4544,-1.741 0.60689,-2.9961 5.1081,-1.427 4.0821,-5.221 1.118,-0.95629 2.8308,-6.6461 1.1454,-8.1707 0.0849,-2.4799 3.7913,-2.6571 5.0632,-2.0888 1.9183,-2.7605 3.1443,-4.8128 6.5448,-4.1673 2.1169,1.6614 4.9213,4.1589 8.1652,2.6098 2.868,-0.88894 5.7096,-2.6985 8.3361,0 1.592,1.3914 3.3926,10.503 5.0639,5.3866 0.95958,-2.9924 5.4776,-2.1768 7.267,-1.6142 2.1296,3.6925 6.0744,9.4431 1.7246,12.745 -3.6561,0.50424 -9.7333,4.7395 -5.2554,8.4593 3.8626,1.9579 -0.24804,5.3536 1.3006,7.6137 1.3151,4.1444 8.801,0.0187 7.5453,5.6444 -1.8262,1.7606 0.47064,1.4487 1.1457,2.4372 m 32.846,7.8223 c 2.504,2.5046 -4.6807,1.9743 -0.31899,7.3e-4 h 0.31899 m -9.6368,1.5663 c -2.2051,1.5702 -5.3626,-2.1242 -8.3651,-0.73706 -6.4477,2.1174 -2.7436,-3.1671 -1.7015,-6.4134 0.0201,-4.1369 3.6078,-1.361 5.6586,-1.5317 4.7337,-0.6221 2.909,4.009 3.9584,6.9639 0.04,0.60037 0.28125,1.1511 0.44989,1.7198 m 13.728,-1.035 c -4.2931,2.1089 -4.4445,-4.9802 -5.5551,-7.8219 -1.5544,-9.0853 1.1928,-20.908 10.347,-24.937 2.8545,-0.39115 -4.3126,4.2789 -4.5113,6.6467 -4.5284,7.7829 -4.0329,18.134 -0.28109,26.113 m -7.3546,-5.0469 c 3.8709,-0.74025 1.9151,4.4937 0,2.0796 0.0385,-0.72406 -0.31431,-1.4142 0,-2.0796 z m -3.4276,-9.3886 c -7.8212,0.42468 -15.828,2.036 -23.537,1.7403 -2.1396,-3.9921 6.341,-1.5311 8.5217,-2.7582 5.0567,-0.47309 10.113,-0.94618 15.17,-1.4193 -0.0517,0.81215 -0.10334,1.6243 -0.15501,2.4365 m 2.1186,16.167 c -3.6114,2.8524 -4.7324,-2.5683 -4.8528,-5.6086 -1.8869,-4.5625 5.312,-2.0235 3.7494,1.3783 0.40812,1.3936 0.56717,2.8832 1.1034,4.2307 m -82.529,4.8638 c 0.28342,4.7241 -1.7503,6.2776 -5.8268,4.5252 -4.5178,1.2088 -7.2953,-1.0047 -6.352,-5.787 -0.95629,-3.0548 0.78211,-5.8802 4.1696,-4.6462 2.5631,0.31118 4.8,2.5892 7.3547,3.1249 1.306,0.63401 1.098,1.4755 0.65451,2.7849 m -0.81815,-26.242 c -2.2676,3.1311 4.7547,3.6996 1.5118,6.6945 -2.2687,2.7758 3.8499,7.5598 1.5971,10.683 -1.7216,2.2382 -0.50394,-3.6439 -2.1081,-4.6496 -1.4542,-3.6849 -4.4898,-6.2304 -4.4284,-10.337 -0.1267,-4.5738 -5.2676,-7.3054 -3.5998,-12.128 1.9801,2.3574 4.1735,6.3529 6.3714,9.3275 0.10348,0.24556 0.38049,0.45549 0.65594,0.40985 m -48.038,-11.825 c 0.75954,2.6171 -2.706,7.4148 -2.7817,2.7271 -0.28628,-0.6351 2.5774,-4.5292 2.7817,-2.7267 m 12.083,38.241 c -2.9598,2.2281 1.1953,5.3694 -1.464,6.2556 -3.7565,-0.4051 -3.2806,-6.1252 0.49088,-6.43 0.3269,0.0481 0.71001,-0.12885 0.97316,0.1744 z m 54.592,-0.51293 c -0.36822,1.3704 -3.6949,1.7501 -5.0725,1.9147 0.003,-2.2579 0.2333,-5.5086 0,-7.1368 2.4203,1.1373 4.4837,2.4149 5.0725,5.2217 m 35.292,-5.569 c -3.0569,2.947 -5.5628,-2.264 -6.473,-4.9142 -2.468,-5.3204 3.5149,-1.2177 4.681,0.9213 0.51631,1.3477 1.6906,2.4543 1.7913,3.9943 m -7.191,0 c -1.7475,-0.70953 -6.1011,2.2693 -6.8641,-0.23256 3.0061,-2.278 2.9847,-3.8027 4.091,-6.8947 1.43,1.0414 2.0086,5.2043 2.7727,7.1265 m -10.782,-7.6391 c 0.40583,3.8859 -3.3351,6.0428 -4.089,9.5538 -2.561,-0.41792 -6.4451,3.6011 -7.346,-0.1744 0.31697,-3.7278 -3.3408,-5.7712 -2.7796,-9.6342 -1.8407,-3.4572 -1.8701,-7.1176 2.6413,-4.3079 3.6517,1.4537 7.7014,2.0587 11.086,3.5097 l 0.31844,0.68379 0.1721,0.36957 m -53.119,18.759 c -3.1785,2.0578 -7.8536,2.3384 -11.273,4.0119 -2.6,0.65141 -6.4344,3.5286 -4.7366,-1.4014 1.8694,-2.466 1.0219,-6.2255 4.0821,-8.3356 1.2494,-1.4542 5.0752,-0.3681 6.8828,0.439 1.9199,1.5788 3.9693,3.0908 5.0448,5.2865 m 172.75,-24.85 c 0.3361,3.0841 -4.8395,-4.7214 -7.3299,-5.6275 -1.8645,-2.9927 5.9819,0.69656 6.1876,3.2455 0.57891,0.69982 0.86165,1.5325 1.1416,2.3805 m -18.636,20.16 c -0.91473,4.0057 -4.5938,3.5023 -6.8645,1.0534 -5.875,-0.98228 0.25111,-3.2733 3.3727,-2.446 1.5383,0.18341 3.1667,-0.73736 3.4914,1.3926 m 20.1,-19.464 c 1.7151,0.44541 7.3567,4.4565 3.455,3.075 -1.1383,-1.0116 -4.2424,-1.4141 -3.456,-3.0761 m 4.573,14.774 c -0.53611,4.7038 -3.9653,-1.4543 0.16294,-3.1318 0.52094,0.61056 -0.35264,2.2039 -0.16327,3.1333 m -33.01,1.2182 c -3.6527,-1.6773 6.1584,-1.0574 7.8459,-0.87016 -2.235,0.99093 -5.2336,0.65589 -7.8455,0.87052 m 58.346,-50.763 c -0.5196,13.701 -8.7822,26.412 -20.591,33.377 -4.1212,-0.24374 -4.4898,-2.0764 -3.5916,-3.6452 -3.2506,-0.71723 -6.5515,-2.9069 -0.99003,-2.6109 1.5237,-1.169 -5.6556,-1.1603 -1.627,-2.6123 4.9165,2.0401 11.035,1.2212 15.526,-1.5582 -1.5322,-0.64963 -4.5212,1.3843 -6.8638,1.2105 -2.998,0.82541 -4.3708,-2.3161 -6.8628,-2.6028 1.7747,-2.5817 7.0484,-0.52886 10.127,-1.5681 1.7552,0.7773 6.5778,-1.7234 3.7631,-2.7849 -2.194,0.67087 -8.1449,0.93902 -7.7647,-0.5043 4.7412,-0.85559 3.4539,-2.4512 -0.57173,-2.4451 -3.7397,0.21275 0.004,-5.9114 2.1199,-3.4818 2.1288,0.6998 8.9464,0.66616 8.1731,-0.68661 -2.9219,0.0101 -6.7904,-0.49378 -8.8187,-2.2716 3.3183,-1.6071 7.6521,1.59 10.783,-1.7319 6.0558,-4.2733 0.14905,-1.0755 -3.7715,-1.3912 -2.4002,-0.8903 5.0487,-1.624 5.4064,-3.8287 -2.5899,0.15657 -6.5787,4.0115 -10.217,1.4077 -3.4511,0.48224 -1.0773,-6.4945 1.5539,-4.0087 3.8454,1.4066 7.867,-0.7084 9.9634,-4.3504 -1.6274,-0.3912 -3.8814,3.5278 -6.4737,2.786 -2.7753,1.0156 -5.677,-4.0271 -1.5372,-2.7852 3.6271,-0.0684 5.2624,-5.8508 1.7996,-1.7407 -5.1686,1.4896 -0.19827,-0.80197 -1.1468,-2.2437 -2.641,3.2948 -5.2387,-2.2656 -0.9735,-1.7498 4.7236,-1.7807 3.1058,-3.0785 -0.65451,-1.74 -4.1493,-2.2519 0.59221,-0.49842 2.664,-1.8373 1.989,-0.8551 -8.1498,-0.88933 -2.9549,-2.3292 8.72,0.60577 14.16,9.5004 13.527,17.725 m -23.537,38.425 c 1.7846,0.87625 -1.5514,4.3959 -2.4455,3.8192 0.88683,-0.85318 0.98941,-4.5744 2.4451,-3.8188 m -0.15502,-2.0976 c 0.59887,-3.1138 4.4014,2.466 1.309,1.2274 -0.45495,-0.44581 -1.5414,-0.45536 -1.309,-1.2288 m -53.773,-20.325 c 8.2336,7.6514 8.7196,20.945 2.1446,29.798 -1.0879,3.0681 -8.9048,9.8243 -4.3211,3.1456 6.4809,-7.1388 9.668,-18.166 4.7942,-27.036 -2.3706,3.945 -6.3219,7.1126 -1.8056,0.88402 4.5206,-1.9842 -4.8003,-6.4167 -1.139,-7.1488 l 0.32725,0.35759 m 10.136,37.71 c -1.6924,0.59961 -5.9313,0.96453 -7.1924,-0.69613 -0.1445,-4.6992 5.264,-2.9798 6.9801,-1.3434 0.16646,0.67345 -0.11092,1.3873 0.21192,2.0392 m 9.146,-20.508 c -4.0068,6.3243 -5.1231,14.006 -4.5733,21.204 -5.4048,1.3732 -3.3082,-4.4668 -3.4748,-7.8721 1.1204,-9.2593 6.6955,-19.311 16.711,-20.807 -2.7411,2.084 -6.6423,4.0899 -8.6647,7.475 m -23.855,14.948 c -0.38753,6.771 -2.4234,-1.667 -1.473,-4.3526 0.1736,-7.1542 1.3875,-1.6924 0.65486,2.2166 -0.0252,0.95821 -0.22803,1.6626 0.81813,2.1364 m -47.719,-19.812 c -1.9638,-1.7031 -1.6804,-4.9021 1.4723,-4.1779 0.15607,3.0388 8.0252,-1.1946 5.718,3.1337 -2.604,0.33488 -4.5627,0.63167 -7.191,1.0449 m -4.58,-15.15 c 2.5063,1.7168 0.21572,6.4645 0.68511,9.2111 1.2262,5.2952 -2.7092,5.0225 -1.8305,0.003 1.2172,-2.9296 0.32066,-6.3766 1.1464,-9.2149 m 12.26,-25.39 c 0.30614,-2.1207 5.6978,-5.518 4.4097,-1.5575 -1.1874,0.80456 -2.8952,1.2897 -4.4097,1.5571 m -59.165,-12.164 c -0.13503,-1.2329 0.54299,-6.2939 1.4727,-5.9083 1.0227,1.659 0.78885,5.3182 -1.4727,5.908 m -7.8369,2.4364 c 0.50043,-2.906 4.2203,-1.3816 5.882,-0.17513 0.28739,1.0677 -2.2208,2.5405 0,3.4821 -1.0181,1.9281 -5.1485,0.8503 -5.3911,-1.2274 1.8943,-1.3912 3.4334,-1.8506 -0.49089,-2.0789 m 16.664,8.6925 c 1.8592,-6.9072 2.8268,3.0859 -0.20362,4.6895 -3.3533,5.9174 -1.1846,-3.6642 0.205,-4.6895 m -9.9727,16.332 c -2.8992,6.4796 -8.2997,14.323 -16.337,13.391 1.7427,5.4263 -0.63731,4.4212 -1.8167,4.9075 0.63505,5.0038 2.9833,9.7504 3.1257,14.732 -0.48483,4.6948 -6.1436,5.601 -7.3546,0.52246 -2.6486,-2.397 -2.74,-11.559 -3.1398,-3.4231 -0.54179,4.3222 1.6718,8.9232 4.7761,11.585 -1.579,2.0439 -1.0526,5.1687 1.4726,6.9532 0.0281,1.3734 1.9767,6.5526 -0.73608,7.2914 -2.3313,-1.3049 -3.6074,-5.423 -5.8325,-7.7189 -2.6292,-5.136 -6.4573,-10.367 -5.8585,-16.426 -0.70848,-3.4253 1.6866,-8.6459 -0.64591,-10.955 -1.397,0.63379 -0.0607,10.527 -2.6267,7.1262 -2.4304,-0.61952 -0.76431,9.8658 -3.9697,3.814 -1.1752,-5.4028 -3.7403,-4.84 -8.9685,-4.9007 -4.2394,1.0851 -4.8019,-9.3686 -1.5989,-6.3869 -2.1503,4.5872 1.7687,5.5356 5.3173,3.897 5.6555,0.52034 0.67513,-3.6661 1.5688,-7.1316 -0.8629,-7.3824 2.917,-1.3187 2.8358,2.7257 0.90471,6.0962 3.0793,0.37129 3.4054,-2.4422 1.7009,-2.4519 0.93639,-6.6807 2.4321,-7.1593 1.0811,-1.9826 0.76684,-7.8863 3.7228,-6.5714 0.4304,3.8613 -0.12396,4.7534 2.4458,4.1684 1.1868,3.5012 2.633,4.5176 4.9088,6.082 3.0165,0.2789 -0.1079,-4.8378 -0.8118,-6.5913 -2.0937,-3.6567 0.44627,-5.032 3.4298,-6.0874 1.8706,-0.87515 4.7662,-1.3644 6.5365,-0.69686 -0.22438,3.0577 -6.0486,-0.22803 -3.1089,3.2975 1.8706,1.429 -0.83859,8.5436 2.894,6.0988 7.9867,-2.7598 11.934,-11.053 13.615,-18.784 -3.7978,-2.9705 4.3479,-1.0115 5.8734,-1.7418 0.12247,-3.1021 -9.5778,1.0749 -7.0188,-3.1333 0.0482,-2.008 2.8934,-3.6985 2.1272,-5.2114 -1.4321,-1.5264 -0.61427,-3.4409 2.4265,-2.6108 2.7693,-0.95818 5.0018,-4.0756 4.529,0.11438 5.412,-0.96594 1.1477,4.9469 0.13085,7.2771 -3.1536,1.5773 2.2132,7.7144 -1.6949,6.8623 -4.3989,-3.7671 -4.5925,4.6574 -6.0542,7.1265 m 57.855,-33.194 c 1.6542,0.47232 1.0233,1.91 2.2908,2.7772 1.4537,0.29385 -2.0678,2.5159 -1.309,4.1782 0.45248,1.1201 3.0501,6.2778 0.15536,5.0389 0.50436,-1.135 -2.3502,-1.944 -0.3183,-2.0796 -0.43663,-2.1629 -2.6607,-0.96141 -3.4365,-3.3092 0.46656,-2.3703 0.0963,-5.6141 2.6177,-6.6052 m -5.5547,19.995 c 1.535,-2.3058 2.7614,-8.9093 5.882,-7.8304 2.8954,2.5516 -1.7681,7.5576 -4.7323,7.489 -0.49868,-0.24363 -0.71861,0.43652 -1.1494,0.34283 m 22.391,-33.726 c 0.2221,2.3588 -0.97049,7.3537 -3.7638,6.4293 -0.98294,-3.5744 -2.1743,2.9774 -2.2832,-3.307 -0.4978,-0.72571 -2.6413,9.3515 -3.9271,6.6136 2.962,-4.0213 -0.81286,-11.215 4.8995,-13.044 2.0992,-1.2663 5.8259,0.71509 5.0728,3.3066 m -26.318,14.939 c -1.852,3.1652 -6.5643,-6.6434 -1.9549,-2.4368 0.15601,-3.6296 1.4371,3.5103 1.9553,2.4365 m 17.164,-17.376 c -3.6609,-0.78931 -3.6835,3.2344 -2.9453,5.7427 -2.9642,2.0479 1.0076,5.9434 0.82744,7.291 -3.1382,-2.4538 -2.7355,-7.969 -2.6263,-11.642 0.4083,-2.2397 4.5848,-4.7628 4.7459,-1.3923 m 1.6363,11.825 c 3.2164,-0.4067 -3.6925,3.047 -0.65451,2.6028 0.51402,0.82077 -2.6797,1.0881 -2.6187,0.69686 -2.0923,2.729 -3.9712,2.7533 -1.0206,0.25873 2.4442,-0.40091 -5.2617,-4.2953 -0.36946,-2.3833 1.589,2.9206 3.1041,0.0148 4.6609,-1.1758 m -1.309,6.943 c -1.2493,1.6567 -5.4011,0.0171 -2.937,-1.7312 2.9839,0.56537 5.4762,-1.8834 5.873,-4.8645 3.5672,1.4499 -0.41654,4.834 -2.1192,6.0838 0.18218,0.44417 -0.48191,0.57361 -0.81779,0.51294 m -2.2822,-11.816 c 4.6497,-1.4667 -0.94815,8.0024 -0.82538,2.0884 -0.77564,-1.363 -0.4964,-1.5299 0.82607,-2.0891 m -0.82676,-1.7403 c 1.495,-5.7151 4.5732,3.0572 -3.4e-4,7.3e-4 m -104.09,40.852 c 1.215,-2.9886 5.248,-3.9381 3.264,1.0347 3.1342,4.4697 -2.4786,0.0459 -3.264,-1.0347 z m -15.855,-3.6547 c -0.77482,-1.4802 0.84165,-3.1225 2.7817,-2.6028 2.083,-1.1825 5.0169,-0.35071 6.3729,0.51294 -1.2683,1.2034 -4.5544,1.914 -6.3729,2.6105 -1.1412,1.173 -1.0496,-1.4116 -2.7817,-0.52247 m -4.9002,15.297 c 1.2235,2.7931 -1.644,5.5648 -2.0253,1.9045 0.561,-1.7288 3.2895,-8.9678 2.0253,-1.9045 z m 1.1454,-7.6391 c 2.4,0.37874 0.52591,-4.3938 1.7913,-5.9171 2.0483,-0.0966 5.0164,-0.68616 7.3547,0.1744 1.9316,2.5024 -0.24396,6.041 -1.1454,8.1711 -3.0923,-0.0583 -6.6861,2.5677 -9.146,-0.17367 -3.4702,0.009 -1.5652,-4.1398 -1.1454,-5.9094 2.2849,-1.2344 -0.1209,2.4464 2.2908,3.2975 v 0.35686 m 52.292,-14.262 c 4.3465,2.7313 1.3945,9.5444 -2.3419,11.819 -3.016,3.0944 -4.5924,0.26016 -4.9489,-1.0383 -1.3327,-0.37509 -6.575,0.1952 -3.755,-1.7957 4.097,-0.11066 4.3417,-4.8884 5.4824,-7.2444 2.1505,-0.59095 3.5463,-3.6864 5.5634,-1.74 m -36.282,6.7781 c 0.84121,-3.4898 2.7584,-0.97936 2.618,0.69613 -0.29855,1.8746 -2.3604,0.76217 -2.618,-0.69576 m -13.064,27.122 c 0.35235,1.7356 -8.4773,0.76188 -4.263,-0.69613 1.5324,0.0913 3.0431,-0.16263 4.263,0.69687 m 0.48226,-3.3066 c 0.34098,4.1695 -4.5859,-0.19614 -6.2092,1.914 -4.2414,0.15451 -2.7249,-8.8085 0.65451,-5.2122 4.525,-1.6034 0.0982,4.9384 4.0821,3.6452 -1.423,-2.7814 1.2724,-4.4242 1.4726,-0.5221 v 0.1744 m -7.6819,-20.518 c 0.42667,-1.1454 1.3862,-4.0329 3.2726,-4.6809 2.1371,-0.0996 -2.1979,6.1221 -3.2726,4.6809 z m -1.6277,-5.0286 c -0.458,3.8059 -2.7083,0.18354 -2.6267,-2.0888 -1.22,-2.0266 3.2948,-7.4944 1.7999,-3.6543 -1.2082,1.517 -0.42394,4.3148 0.82675,5.7427 m 18.137,18.594 c 2.5553,0.76191 1.9526,-5.8792 4.2457,-7.475 1.9715,0.24794 0.14435,5.0978 -0.32726,6.7788 0.34213,2.8119 -6.9001,6.3994 -4.8402,1.9636 0.48462,-0.10952 0.29934,-1.4005 0.92173,-1.2671 m 24.837,-33.03 c -0.6534,-3.7954 6.685,-3.9614 2.7817,-0.1744 2.4691,-0.17776 5.1714,-0.5654 7.6819,7.3e-4 2.9343,-1.0217 5.0531,1.5635 1.7562,4.348 -2.7544,2.3304 -7.3834,4.0698 -11.074,2.7866 0.76299,-0.8114 6.653,-3.2336 2.8559,-3.3466 -2.4766,-3.7855 -4.872,1.591 -5.6376,3.5195 -0.93239,-2.4016 0.35683,-5.7271 1.6363,-7.1357 m -6.2093,-4.5157 c -2.324,-3.5353 7.2701,-9.6163 3.7984,-5.9401 -1.5833,0.55411 -3.8592,7.9063 -3.7984,5.9401 z m 18.791,33.717 c 0.42713,-1.9838 -4.1738,-5.5999 0.32725,-7.117 1.6176,0.79599 1.4756,6.2888 0.32726,8.3356 -0.33336,0.80619 -0.95547,-0.91984 -0.65451,-1.2179 m -43.956,-0.69613 c 0.73493,2.7564 -3.1347,9.6908 -3.0062,3.9097 0.18675,-1.415 0.64744,-5.9479 3.0062,-3.9101 m 23.364,-14.774 c 1.4332,-0.81153 3.4955,-4.9992 4.9088,-2.6021 1.2339,-2.2986 4.0223,-3.454 5.7098,-2.2533 4.551,-0.62262 0.006,1.3229 -0.97272,3.1824 -2.4106,4.4876 -5.3678,0.72458 -8.6641,2.3786 -0.50615,0.17523 -0.6697,-0.43512 -0.98177,-0.70493 m -3.7548,4.1768 c -0.50884,-3.3698 2.5125,-4.5554 4.573,-2.612 0.73917,1.5098 -0.27232,4.5868 1.309,6.0823 -1.6085,-0.62796 -3.5337,1.6846 -4.0821,-0.33853 2.3329,0.17687 1.1206,-7.6505 -0.4995,-4.6908 0.63301,1.1757 -0.25664,2.4798 -1.3004,1.5571 m 9.6368,-1.2182 c 1.0875,3.4924 -3.3102,6.8417 -1.4726,1.3345 -1.4045,-2.0107 -1.2849,-5.3244 1.4451,-1.3753 l 0.0275,0.0401 m 140.88,24.328 c 2.2834,2.1632 12.399,3.2407 8.2686,6.2591 -2.3216,2.9269 -6.5652,8.0013 -6.7959,1.1569 0.38997,-2.673 -0.52831,-4.9688 -1.4726,-7.4161 z m 2.2822,12.521 c -4.0766,-2.3923 -3.0438,3.3346 -4.4388,6.7232 -0.0891,1.4927 -4.2302,10.137 -3.5745,6.6673 5.1482,-8.6829 5.8921,-19.925 0.65974,-28.68 2.5445,1.4276 3.3053,6.779 4.0102,9.9858 -0.12648,2.4654 2.276,3.4919 3.3441,5.3019 m -73.047,-70.044 c 3.7885,1.7133 8.6557,-2.3449 1.8935,1.9494 -5.7772,2.7383 -5.2457,3.2196 -2.5484,-0.20981 -2.1243,-1.3767 0.11312,-7.6893 0.65452,-1.7403 m 25.655,13.556 c 0.6051,0.64947 1.9832,2.3969 0.82675,2.7768 1.0829,-0.0761 4.1193,2.4195 2.2825,1.9147 -2.1511,-1.2884 -3.5957,-1.0332 -3.5421,-3.7498 -0.27116,-0.45861 0.39564,-0.64257 0.43355,-0.94062 m 13.409,5.2118 c 7.4169,5.8139 15.061,11.355 23.037,16.34 -2.8469,-3.6877 -7.5001,-5.9578 -11.085,-8.7727 -4.3673,-2.8454 -3.3956,-2.4053 1.2854,-1.8371 3.3295,-0.38186 7.1491,-2.1591 8.3275,-5.3851 -3.8772,1.011 -8.521,3.5326 -12.091,0.52064 -6.0782,-2.4206 5.8149,-0.88032 1.3722,-2.7757 -4.3033,-0.33884 -0.74258,-2.2116 1.8027,-0.85343 6.9646,3.0946 13.161,-2.5818 17.743,-7.3169 -3.3926,0.41224 -6.7862,5.1907 -11.118,3.655 -1.8177,0.39155 -8.7189,-1.9159 -4.8567,-2.2716 6.5551,-0.49866 14.315,-1.2834 18.755,-6.7803 -4.2429,0.78708 -8.5746,4.5017 -13.503,3.582 -2.9263,-0.44098 -7.0777,-0.56294 -9.2244,-3.0504 2.9177,-2.4912 8.0635,-0.32682 10.628,-4.1768 -0.61628,-0.54786 -8.495,1.3352 -5.3908,-2.0891 7.0918,1.7176 14.154,-3.2829 18.627,-8.51 -1.3078,-0.90765 -4.3987,3.2077 -6.6905,3.9859 -3.6023,0.31307 -7.8845,0.13281 -11.117,-1.3827 4.0528,-2.5912 -1.8696,-2.2953 2.7727,-4.6912 3.2891,-1.8805 7.6546,-0.93446 10.373,-4.3287 0.42248,-2.0533 -5.0112,2.4208 -6.9381,-0.19508 -1.5291,-1.4369 5.8255,-2.6852 7.5132,-5.0745 5.0425,-2.5352 0.39408,-2.1233 -2.5875,-0.58576 -2.4779,0.74371 -6.2486,2.221 -7.7063,-0.59682 -4.3049,-1.7383 4.5432,-0.46377 5.727,-2.254 4.1048,-1.9764 3.798,-5.256 -0.20467,-1.8049 -2.0523,0.26679 -5.3949,-1.62 -1.9235,-3.068 2.4367,-4.2409 8.5058,-1.4313 10.947,1.7414 9.502,10.758 7.427,26.295 3.086,38.824 -2.81,9.515 -7.3097,18.489 -12.569,26.877 5.6823,4.2922 11.955,7.6691 17.655,11.817 3.4888,5.1635 -3.9894,-1.8518 -2.2829,4.1775 0.36078,4.1916 6.8164,4.686 9.4632,7.7091 1.5206,2.5017 -4.1311,-1.0877 -5.5451,-1.8004 -2.566,-2.573 -3.9509,-1.7899 -6.2089,-0.17403 1.3885,-2.5582 -1.3689,-5.2917 -4.5816,-6.4396 -2.1544,-0.61107 -6.3272,-5.674 -6.201,-0.6965 -1.5559,6.2921 -1.8215,-1.9314 -1.3183,-4.3325 -4.3213,-3.1033 -8.9116,-5.7685 -13.228,-8.876 -1.1993,3.5022 0.46202,9.4808 -2.2991,11.477 -2.058,-1.1534 0.60127,-7.3523 0.59093,-10.353 1.2527,-4.7214 -5.5038,-5.2324 -7.774,-7.9021 -3.6204,-3.7761 -3.9275,0.63036 -4.006,3.8836 -0.60486,4.8464 -0.87559,9.6954 -1.3941,14.546 1.57,1.5671 8.4667,2.7937 4.5816,5.0389 -3.0981,-1.5617 -7.6042,-2.4534 -5.6324,-6.8719 1.0623,-9.6442 2.1246,-19.288 3.1869,-28.933 m 20.91,46.586 c 1.4812,3.9403 -1.5237,11.961 -6.5369,9.5524 -2.5451,2.7604 -4.2841,7.3638 -7.1824,9.2153 -4.8422,-5.1368 -4.9259,-12.756 -3.9267,-19.29 1.1553,-2.9112 3.3137,-10.34 5.7266,-9.5626 0.85991,2.0735 3.9198,9.3729 6.036,8.344 1.9748,-1.6226 4.8633,-0.66388 5.8827,1.7396 m 46.746,14.774 c 0.58679,7.0835 -1.4079,14.047 -4.5816,20.325 -4.2074,-1.0597 0.82904,-6.509 -4.6715,-9.1068 -2.1732,-0.56548 -7.8639,-0.48744 -7.581,-5.6048 -1.0113,-4.2391 3.3739,-7.8084 6.7067,-7.0482 1.7592,-3.1394 8.0016,-5.7012 4.3336,-9.4526 -4.6614,-6.0373 -2.9877,-5.699 1.6895,-0.76487 3.1956,3.0084 4.1151,7.42 4.1046,11.653 m -7.191,17.211 c 0.12745,3.5628 -6.4474,0.47799 -4.4183,-2.3872 -0.70014,-5.7036 3.4243,1.3059 4.418,2.3879 m -7.0274,-4.8729 c 2.2531,4.8403 -4.6115,4.1386 -2.4489,0.82477 0.23819,-1.233 1.618,-1.2192 2.4489,-0.82477 z"
         style="stroke:#000000;stroke-width:1.01074195;stroke-miterlimit:4;stroke-opacity:1;stroke-dasharray:none"
         inkscape:connector-curvature="0" />
      <path
         id="path11448"
         d="m 357.3,273.2 c 1.105,-5.3472 1.6151,-10.049 -5.1152,-6.8966 -3.9891,-0.96037 -4.928,10.999 -0.25587,7.9058 1.7904,-0.33638 3.5807,-0.67277 5.3711,-1.0092 z"
         style="stroke:#000000;stroke-width:1.01074195;stroke-miterlimit:4;stroke-opacity:1;stroke-dasharray:none"
         inkscape:connector-curvature="0" />
      <path
         id="path11452"
         d="m 368.58,271.64 c 0.43482,-4.6249 2.2651,-10.818 -4.5259,-7.3231 -4.8938,-1.7427 -5.9661,9.8979 -2.0662,8.3628 2.1973,-0.34657 4.3947,-0.69314 6.592,-1.0397 z"
         style="stroke:#000000;stroke-width:1.01074195;stroke-miterlimit:4;stroke-opacity:1;stroke-dasharray:none"
         inkscape:connector-curvature="0" />
      <path
         id="path11456"
         d="m 370.21,250.79 c -4.5959,1.0651 -10.814,0.70874 -9.2543,7.168 -2.6821,7.1454 4.0771,3.6716 8.2725,3.0816 0.32726,-3.4165 0.65451,-6.8331 0.98177,-10.25 z"
         style="stroke:#000000;stroke-width:1.01074195;stroke-miterlimit:4;stroke-opacity:1;stroke-dasharray:none"
         inkscape:connector-curvature="0" />
      <path
         id="path11460"
         d="m 358.12,263.47 c -0.54305,-3.5694 3.7894,-12.564 -2.7131,-9.5023 -6.5739,-0.8241 -4.8351,5.5965 -5.392,10.016 -0.42379,2.3871 6.4822,-0.83169 8.105,-0.51416 z"
         style="stroke:#000000;stroke-width:1.01074195;stroke-miterlimit:4;stroke-opacity:1;stroke-dasharray:none"
         inkscape:connector-curvature="0" />
      <path
         id="path11476"
         d="m 304.68,276.86 c -1.5406,-2.2682 -3.9554,-1.0122 -6.0539,-0.18466 1.4298,2.0999 -1.43,6.5488 1.0699,7.2662 2.8073,-0.98367 4.0813,-4.749 4.984,-7.0815 z"
         style="stroke:#000000;stroke-width:1.01074195;stroke-miterlimit:4;stroke-opacity:1;stroke-dasharray:none"
         inkscape:connector-curvature="0" />
      <path
         id="path11488"
         d="m 386.55,251.31 c -3.4815,-2.5416 -7.3498,-5.2772 -10.956,-6.9518 -1.1632,3.5948 -0.89272,6.0632 3.1086,7.6486 2.8287,1.5143 8.6978,8.0076 7.6754,0.93564 0.0608,-0.54111 0.10876,-1.0934 0.17188,-1.6325 z"
         style="stroke:#000000;stroke-width:1.01074195;stroke-miterlimit:4;stroke-opacity:1;stroke-dasharray:none"
         inkscape:connector-curvature="0" />
      <path
         id="path11492"
         d="m 398.32,260 c -3.1341,-2.2781 -6.453,-4.8701 -9.9727,-6.9529 -1.9834,5.1224 1.1533,7.9185 5.5541,9.9103 2.5114,0.9033 7.9648,8.0631 7.8452,2.0796 1.1003,-3.1183 -1.5181,-3.2362 -3.4266,-5.037 z"
         style="stroke:#000000;stroke-width:1.01074195;stroke-miterlimit:4;stroke-opacity:1;stroke-dasharray:none"
         inkscape:connector-curvature="0" />
      <path
         id="path11496"
         d="m 413.84,270.6 c -3.5205,-2.0235 -7.497,-5.3919 -10.628,-6.6048 -2.4157,5.107 2.0422,6.5997 5.7089,8.9238 4.7708,3.2792 4.1496,3.2696 4.9186,-2.319 z"
         style="stroke:#000000;stroke-width:1.01074195;stroke-miterlimit:4;stroke-opacity:1;stroke-dasharray:none"
         inkscape:connector-curvature="0" />
      <path
         id="path11500"
         d="m 379.85,284.33 c -3.1968,4.9576 4.3018,4.2409 7.3546,5.569 1.5111,-3.4272 -3.8836,-9.2787 -5.278,-10.128 -0.96249,1.3971 -1.4581,2.9965 -2.0766,4.5589 z"
         style="stroke:#000000;stroke-width:1.01074195;stroke-miterlimit:4;stroke-opacity:1;stroke-dasharray:none"
         inkscape:connector-curvature="0" />
      <path
         id="path11504"
         d="m 378.05,294.24 c -0.73573,4.7426 8.151,-0.15739 8.8277,-1.5571 0.5693,-2.8331 -8.9999,-4.8464 -8.916,-2.3227 -0.15737,1.2951 0.0278,2.5859 0.0883,3.8798 z"
         style="stroke:#000000;stroke-width:1.01074195;stroke-miterlimit:4;stroke-opacity:1;stroke-dasharray:none"
         inkscape:connector-curvature="0" />
      <path
         id="path11508"
         d="m 380.51,302.93 c 1.8559,3.2019 6.2671,-5.315 7.3546,-6.9521 -0.47438,-3.0063 -9.7191,0.80501 -8.8151,3.1626 0.42362,1.2874 0.95821,2.5319 1.4604,3.7896 z"
         style="stroke:#000000;stroke-width:1.01074195;stroke-miterlimit:4;stroke-opacity:1;stroke-dasharray:none"
         inkscape:connector-curvature="0" />
      <path
         id="path11512"
         d="m 433.13,302.93 c 1.4029,3.2466 9.4437,1.5771 6.7554,-3.3486 0.64939,-6.7183 -6.6741,1.7044 -6.8895,3.2069 l 0.13405,0.14063 v 0.001 z"
         style="stroke:#000000;stroke-width:1.01074195;stroke-miterlimit:4;stroke-opacity:1;stroke-dasharray:none"
         inkscape:connector-curvature="0" />
      <path
         id="path11516"
         d="m 434.11,305.71 c -1.3187,3.7069 6.9816,5.9097 5.882,0.8698 0.69482,-2.5364 -4.4951,-0.3839 -5.882,-0.8698 z"
         style="stroke:#000000;stroke-width:1.01074195;stroke-miterlimit:4;stroke-opacity:1;stroke-dasharray:none"
         inkscape:connector-curvature="0" />
      <path
         id="path11520"
         d="m 433.45,310.92 c -0.0656,2.7748 6.0346,7.5106 5.3911,0.52247 -1.8698,-0.21865 -4.9551,-3.75 -5.3911,-0.52247 z"
         style="stroke:#000000;stroke-width:1.01074195;stroke-miterlimit:4;stroke-opacity:1;stroke-dasharray:none"
         inkscape:connector-curvature="0" />
      <path
         id="path11472"
         d="m 296.18,297.02 c -0.51853,-3.8105 -2.0696,-0.72747 -3.5912,-0.69614 -3.8649,1.9253 2.823,2.2209 1.2055,5.3944 -0.47415,1.6164 0.34398,7.7482 1.7312,4.2848 -0.23954,-3.137 0.13173,-6.1387 0.65451,-8.9831 z"
         style="stroke:#000000;stroke-width:1.01074195;stroke-miterlimit:4;stroke-opacity:1;stroke-dasharray:none"
         inkscape:connector-curvature="0" />
      <path
         id="path11480"
         d="m 232.93,263.47 c 1.8203,2.9209 4.1908,-1.3712 4.7366,-2.9611 -0.2419,-2.8047 -0.66731,-5.3844 -3.5912,-0.86064 -0.0862,1.35 -1.0545,2.451 -1.1454,3.8218 z"
         style="stroke:#000000;stroke-width:1.01074195;stroke-miterlimit:4;stroke-opacity:1;stroke-dasharray:none"
         inkscape:connector-curvature="0" />
    </g>
  </g>
</svg>
