<?xml version="1.0" encoding="UTF-8" standalone="no"?>
<!-- Created with Inkscape (http://www.inkscape.org/) -->

<svg
   xmlns:dc="http://purl.org/dc/elements/1.1/"
   xmlns:cc="http://creativecommons.org/ns#"
   xmlns:rdf="http://www.w3.org/1999/02/22-rdf-syntax-ns#"
   xmlns:svg="http://www.w3.org/2000/svg"
   xmlns="http://www.w3.org/2000/svg"
   xmlns:sodipodi="http://sodipodi.sourceforge.net/DTD/sodipodi-0.dtd"
   xmlns:inkscape="http://www.inkscape.org/namespaces/inkscape"
   id="svg14687"
   height="22.65"
   width="23.200001"
   version="1.1"
   inkscape:version="0.48.3.1 r9886"
   sodipodi:docname="shield_hwy_ne2.svg">
  <defs
     id="defs28798" />
  <sodipodi:namedview
     pagecolor="#ffffff"
     bordercolor="#666666"
     borderopacity="1"
     objecttolerance="10"
     gridtolerance="10"
     guidetolerance="10"
     inkscape:pageopacity="0"
     inkscape:pageshadow="2"
     inkscape:window-width="1269"
     inkscape:window-height="1281"
     id="namedview28796"
     showgrid="false"
     inkscape:zoom="29.933131"
     inkscape:cx="12.327926"
     inkscape:cy="8.0381572"
     inkscape:window-x="65"
     inkscape:window-y="24"
     inkscape:window-maximized="0"
     inkscape:current-layer="svg14687" />
  <metadata
     id="metadata14692">
    <rdf:RDF>
      <cc:Work
         rdf:about="">
        <dc:format>image/svg+xml</dc:format>
        <dc:type
           rdf:resource="http://purl.org/dc/dcmitype/StillImage" />
        <dc:title />
      </cc:Work>
    </rdf:RDF>
  </metadata>
  <path
     id="rect14769"
     d="M 0.54109918,0.45502435 H 22.694 L 18.66515,22.106024 H 4.5636492 z"
     style="fill:#ffffff;stroke:#000000;stroke-width:0.78750002;stroke-miterlimit:4;stroke-opacity:1;stroke-dasharray:none"
     inkscape:connector-curvature="0" />
  <g
     id="g15580"
     transform="matrix(0.03902535,0,0,0.03902535,-2.8215678,8.9064009)"
     style="fill-rule:evenodd">
    <path
       id="path11444"
       d="m 530.95,339.25 c -1.4706,-2.6013 -4.4192,-1.5499 -6.596,-2.428 -7.186,-1.046 -13.356,-3.5775 -20.346,-6.2575 -8.986,-3.2811 -19.03,-6.0191 -28.947,-5.2214 -9.3532,0.26151 -18.949,0.64766 -27.796,-1.232 -4.5476,-0.22619 -5.9014,-1.6843 -2.693,-5.5469 1.7838,-2.2773 0.0633,-7.3042 3.3925,-7.1269 4.0227,1.4526 6.5953,-2.2096 4.5874,-5.0674 1.2665,-3.0198 0.2393,-7.9785 3.8364,-9.1868 2.3542,-2.5051 -0.10448,-5.5043 3.8192,-6.9529 6.7912,-5.3134 13.392,-11.863 16.874,-19.84 3.751,-8.7548 3.5652,-19.583 -2.7867,-26.912 -3.2268,-3.7026 -8.2708,-4.6926 -13.217,-4.3519 -2.3736,-6.9537 -9.0949,-12.826 -16.681,-11.121 -3.2532,-4.0761 -2.0813,-10.215 -6.1125,-14.06 -4.4917,-5.511 -12.289,-8.5718 -19.269,-6.4486 -3.2734,-4.9154 -3.6541,-11.437 -8.4886,-15.506 -4.2432,-5.1818 -11.845,-5.187 -17.416,-4.6624 -5.119,-4.2388 -2.7834,-11.7 -6.8039,-16.8 -4.8823,-9.0615 -15.307,-14.538 -24.475,-16.569 -7.0738,-1.1811 -15.445,-0.44808 -22.451,2.2504 -20.1,5.5323 -37.923,22.242 -40.813,43.641 -3.018,14.841 2.5835,29.7 11.12,41.887 2.2982,3.5956 5.0147,6.8932 7.6483,10.259 -3.7353,0.19055 -6.6948,-0.49425 -9.9437,-2.0073 -3.3849,-1.1646 -6.9991,-2.2306 -10.217,-3.7394 1.2947,-2.3143 -0.0282,-7.6837 -3.3063,-6.7693 0.21851,-1.8951 -3.1669,-4.5364 -4.5157,-1.4022 -3.0931,2.3921 -5.3173,0.44509 -1.4821,-2.1619 3.6007,-4.2772 0.367,-12.154 -4.9479,-12.081 -2.4176,2.2902 5.1397,5.3033 0.71962,8.3815 -2.3906,1.8927 -6.4686,3.1384 -9.0734,1.8063 -2.6361,-0.10015 -5.1807,-0.58433 -7.6389,-0.27851 -2.6555,0.85897 -5.85,0.18732 -8.5184,2.0803 -3.7995,-0.96457 -2.6423,-6.8967 0.34806,-8.5192 -0.24798,-4.1573 -7.0473,0.59822 -7.1043,3.3143 -1.94,4.3306 1.0011,8.4305 4.1549,10.938 -2.0811,2.9169 -1.1187,6.3245 -4.625,8.6115 -2.7003,0.45617 -6.4329,4.6365 -4.1169,-0.48591 0.29091,-3.1313 -2.4939,-7.8493 -5.8676,-6.9059 -2.3027,2.6123 4.5938,5.0281 -0.3464,7.4814 -1.7124,0.14728 -4.0032,-0.30587 -6.2577,1.5493 -2.128,-1.2236 -5.1571,-1.9943 -7.6483,-1.5564 -2.3661,1.6262 -5.4177,-0.90787 -7.3002,1.5571 -2.5255,0.8419 -5.6045,1.4988 -6.082,-2.428 0.26215,-1.962 1.6802,-7.1884 -2.0792,-4.6894 -3.739,3.7312 -2.722,10.318 1.7312,13.034 2.3595,2.1445 1.8097,3.6865 1.7403,7.1258 3.1002,3.3493 -0.19158,6.6926 -2.4365,9.0314 -0.59422,2.6178 -1.3642,6.873 2.4365,7.823 1.6339,3.9768 7.549,1.6901 10.607,0.69649 4.9369,-5.1204 0.89724,1.5757 2.1755,4.5527 0.52186,4.0494 5.6092,1.8846 6.8559,4.3145 0.47771,3.153 2.5943,5.5554 4.5248,7.3105 2.7225,5.679 -1.5038,11.212 -4.1768,15.683 -0.91795,3.7501 3.3512,6.2434 1.9144,10.036 -5.0523,1.7688 -9.5177,6.4195 -14.774,7.1276 -4.7644,1.7033 -9.9457,4.0433 -13.208,7.8128 m 214.84,-39.798 c -1.6402,-0.99625 -6.8468,-1.0772 -4.3501,-4.002 2.5145,-0.49264 9.6232,6.1381 4.4525,4.0788 l -0.10135,-0.0761 m -86.045,-66.911 c 2.1812,3.0432 -3.0093,2.5995 -1.5667,0.16268 0.66083,-0.0424 1.0521,0.2659 1.5667,-0.16488 m 0,-8.1704 c -0.36354,4.3434 -2.6093,-2.5867 -3.7e-4,0 m 90.213,76.996 c -1.841,-2.9645 -3.8523,-6.4566 -5.2221,-9.5637 2.872,-2.0432 3.7518,5.1109 5.0473,7.1265 -1.0447,0.89662 1.7242,1.7391 0.17476,2.4361 m -56.67,-60.142 -3.6455,32.159 c -9.6756,1.4472 -19.351,2.8944 -29.027,4.3416 1.5465,-2.9452 6.5886,-3.2711 4.9573,-9.275 -2.661,-0.12817 -8.8111,-0.83059 -0.81056,-2.7856 1.4668,-1.1715 3.7414,-11.506 -0.23799,-9.6854 -5.5947,-1.4318 -7.3802,5.5687 -7.7371,4.5352 -5.0772,-5.1399 1.2311,-5.1838 5.5613,-6.102 9.2611,-2.3196 19.072,-3.6458 27.991,-6.5841 3.0743,-6.8184 -5.1514,-2.1206 -8.4766,-1.8036 -11.353,2.927 -23.282,5.7858 -34.28,8.7561 -7.8371,-3.3408 -11.777,-11.634 -16.514,-18.083 -6.0718,-10.608 -11.098,-22.812 -8.3085,-35.18 2.2782,-15.406 10.967,-31.116 25.866,-37.641 11.22,-5.8551 25.067,-9.7842 37.545,-7.1357 11.738,3.347 21.479,13.307 23.632,25.556 4.7086,19.97 -1.6067,41.697 -14.252,57.54 -2.4679,-0.17522 -12.101,4.1295 -8.3292,0.0324 0.84755,-4.6501 5.074,-5.3974 8.4991,-7.8003 5.1064,-3.85 3.1746,-3.7743 -1.8008,-0.86926 -5.5778,3.9812 -4.2436,-0.53083 -2.5366,-4.7546 0.76611,-3.5182 7.1161,-1.7541 9.6458,-4.6489 6.5559,-2.5423 -3.525,-0.96156 -5.5048,0.5476 -6.5718,2.4941 -1.8909,-4.6009 2.0224,-4.8932 2.1869,-1.484 9.5213,-6.5677 7.1539,-6.528 -3.9864,1.3319 -7.3733,4.2806 -11.412,5.6205 0.89243,-3.9839 -0.69733,-9.2828 3.948,-11.211 1.891,-1.0573 10.73,-7.6842 6.2301,-5.5253 -3.0396,0.2532 -8.166,5.8083 -9.4816,2.3089 -1.2308,-3.1064 0.20594,-5.8485 2.7842,-7.4746 1.8753,-2.2901 7.1173,-6.2029 6.7264,-7.1871 -3.3863,2.762 -6.9182,5.6282 -10.72,7.5263 -0.97368,-4.4318 -4.3188,-8.9061 -1.5413,-13.23 0.60212,-4.2435 5.185,-7.3812 3.7946,-11.97 -0.59795,4.9049 -5.1354,7.8286 -7.4651,11.816 -1.9066,-2.6826 -9.7318,-4.0241 -7.533,-7.708 1.7334,-3.8073 -0.1694,-8.6017 2.1373,-12.453 -4.1122,3.8084 -3.1238,10.477 -7.6483,13.739 -3.1766,0.53525 -8.5262,1.431 -6.43,-3.8291 -0.97492,-7.791 -1.3863,-3.5908 -2.4054,1.7079 -0.64548,2.4729 -3.2632,7.0802 -5.244,2.9829 -3.0872,-2.3266 -4.1115,-6.5505 -6.6044,-9.563 1.9387,3.9165 3.1989,8.162 5.395,11.825 -4.1317,1.3132 -8.3455,5.0011 -12.444,1.6667 -1.2631,-1.8417 -9.8841,-5.3468 -5.4632,-3.0502 2.2502,2.7518 4.8972,5.2714 7.6398,7.2826 -3.6942,1.7669 -6.1149,7.0405 -10.558,4.9934 -5.1548,-1.8694 -9.8636,-1.8182 -2.3419,0.79239 5.7829,1.8488 1.8504,6.5523 0.11371,10.061 -0.94358,5.9141 -7.1203,1.9443 -9.2802,-1.062 -4.0322,-4.2678 2.2862,5.879 5.3931,6.017 4.6761,0.80577 3.7882,7.963 -0.16693,9.2305 -3.5742,2.483 -7.6725,-5.278 -8.5025,-4.6306 0.41311,4.435 6.0278,6.384 9.5436,7.226 2.9889,-4.5402 2.2271,5.2706 2.6585,7.5794 -0.24143,4.7882 -8.6142,-2.1279 -8.574,-1.0896 2.9561,4.4978 10.535,3.6257 11.42,9.891 4.1458,5.8256 -9.3338,-1.4753 -1.2281,3.2943 3.9883,-0.27969 7.2064,6.6763 1.5252,6.1015 -6.0601,-1.0482 5.6779,0.23853 5.6549,3.3161 1.7399,3.3469 1.0313,6.3873 5.7829,6.2277 14.294,-3.6422 28.588,-7.2844 42.882,-10.927 m -33.707,-5.9079 c 2.4144,0.0529 -0.66587,-7.4964 4.8542,-3.6448 0.61191,2.8127 -2.054,5.8611 0.86906,7.1196 0.0216,2.5278 -5.8296,8.7533 -2.8239,3.4197 0.75302,-3.5103 -4.3563,3.8326 -4.4361,5.4926 -3.682,1.8366 1.7971,-4.8116 0.82994,-4.9084 1.2832,-2.5201 -2.9545,-7.4742 0.70529,-7.4753 m 18.594,6.7873 c -0.43153,5.5347 -3.9652,0.1816 3.6e-4,0 m 3.2975,-15.654 c 3.0463,-0.74547 2.9529,3.7741 4.4592,1.3612 3.5149,-1.9898 3.4408,2.5117 1.9715,4.2078 0.0189,2.0631 0.19849,6.7716 -2.6116,5.7354 2.161,-0.39238 0.33883,-4.244 0.0157,-2.9981 -2.2907,2.993 -1.1252,-1.9922 -0.17804,-2.4002 -2.1232,0.73069 -2.1816,6.3283 -2.9582,1.4007 -1.2381,-1.0913 0.34354,4.7893 -1.0354,2.0792 -2.4768,-2.0822 1.3961,-4.9095 0.86064,-7.1383 -2.2287,1.0374 -1.9098,2.9142 -2.4277,5.568 0.3329,1.2362 0.19749,3.4172 -0.521,4.3424 -1.0863,1.8961 -4.1313,0.67839 -4.0024,-1.7293 -2.0801,1.6224 -4.2964,3.8188 -5.2133,-0.3488 -1.7807,-1.46 0.78703,-5.1974 1.9147,-5.3968 1.8269,2.8598 6.9704,-0.0584 8.1608,-2.254 1.1244,-0.74105 0.60933,-1.8337 1.5667,-2.4372 m 75.961,56.139 c -3.0392,-2.6393 -4.7073,-1.7611 -6.4297,0.18283 2.2727,-3.4962 -5.4902,-6.5526 -3.7872,-6.9881 4.5152,1.5654 10.394,3.0309 12.819,7.5017 -0.37273,0.93118 -2.0855,-0.34559 -2.6013,-0.69686 m -73.698,-44.836 c 3.3902,0.61607 1.1949,3.0655 -1.0435,0.86027 -0.66711,-0.38907 0.37522,-1.3163 1.0442,-0.86027 m -3.1326,2.2533 c 2.1172,-0.89974 3.7868,3.5807 0.87163,3.3074 -1.0859,0.63195 -4.9231,1.1246 -1.9063,-0.70419 -0.47276,-0.37408 1.0344,-2.4334 1.0354,-2.6021 m 71.61,57.009 c 0.21125,-3.4301 0.47167,-7.0273 1.2281,-10.251 3.9814,-0.76525 0.12387,5.5973 0.54039,7.856 -0.19358,1.8125 -1.6237,9.9574 -1.7685,2.3936 m -97.504,-52.659 c -2.0055,-1.2635 -0.0147,-8.5628 -2.6109,-5.3858 1.3407,1.943 1.5294,5.5133 -0.87126,6.9525 0.56147,1.8098 6.5194,4.5555 1.0446,4.8652 -1.8226,-2.1539 -2.8363,-3.6386 -3.8203,-6.7781 1.8491,-3.702 -0.58736,-9.7422 4.7306,-11.231 1.1802,1.6832 1.9629,4.5058 4.071,3.4194 1.3122,3.162 1.1997,6.882 -0.9888,9.7255 -1.1557,0.98651 -2.0795,-0.4943 -1.5571,-1.5659 m 109.33,-1.0442 c 3.2328,-0.94031 6.323,-1.3622 9.4741,-1.2076 4.3326,-0.53744 5.3203,-3.8804 0.0885,-1.7488 -1.9677,0.77114 -8.6523,-2.1557 -6.2081,-2.9505 3.2993,0.16535 6.9402,2.0681 9.6796,-0.87053 -2.5569,0.10356 -6.393,1.275 -9.2146,-0.87053 0.139,-1.2105 5.2684,-2.9526 0.13438,-2.891 -4.0317,-1.712 2.4885,-0.13317 4.1252,-1.6151 0.60753,-2.0569 -5.7786,0.55042 -4.4343,-1.7608 9.5707,-0.95589 17.248,10.971 14.691,20.097 -2.1885,13.85 -9.4422,26.904 -19.728,36.401 -1.8226,-1.0047 -2.0845,-6.4599 -5.7033,-7.1107 1.352,-0.47154 6.4488,0.34181 9.1748,-0.88602 5.288,-2.2641 -0.93906,-1.8247 -2.7757,-1.0354 -2.8295,0.0384 -7.664,0.51279 -8.3448,-2.6196 -2.9183,0.0443 -6.6552,-4.0254 -1.4138,-3.2989 6.2108,-0.40142 -3.7009,-2.8804 0.19632,-3.8302 3.9628,0.52022 7.7201,2.8892 11.483,1.1606 4.0501,-0.5483 7.3069,-4.7169 1.2114,-1.8571 -3.0599,0.47863 -9.5595,-0.38237 -9.7359,-4.5157 2.3185,-2.2903 5.709,1.712 8.8665,0.17367 2.1943,0.5182 9.0874,-4.3784 3.994,-2.4277 -2.6483,0.10023 -5.8899,0.1851 -7.996,-1.5762 2.3438,-1.8823 -6.667,-3.0747 -1.2087,-3.4733 2.9604,1.3826 7.4543,1.6752 10.763,1.9902 3.2388,-2.0584 -3.5241,-1.7484 -4.5076,-3.3809 1.1597,-2.6951 1.7576,-1.2579 5.9476,-1.502 4.2438,-0.0178 4.8835,-2.623 0.47367,-1.4459 -3.752,1.2487 -6.4947,-2.7752 -8.6837,-5.0385 3.4625,0.58381 7.942,2.6318 10.946,0.16451 -1.6245,-1.1721 -4.9139,1.2083 -7.1562,-0.84956 -1.2433,-0.40968 -3.5319,-0.16591 -4.138,-1.23 m 5.7339,48.317 c 3.3574,-0.75994 5.5934,3.5136 1.3926,1.2179 -0.10864,-0.50072 -2.5613,-0.7585 -1.3919,-1.2193 m -48.674,-6.082 c 1.6079,2.346 -5.5702,1.0647 -2.7761,-0.5232 2.1763,1.0251 3.3162,-5.6182 2.7754,0.52247 m -3.6455,12.686 c -4.3199,-4.2833 3.6495,1.1092 0.001,0.86943 -0.46717,0.14846 -0.3013,-0.74886 0,-0.87053 m 0,-25.033 c -3.6925,-1.7248 -8.3714,-0.73574 -11.642,0.18246 3.6894,-3.1696 10.476,-2.7798 13.557,0.51257 -0.63812,-0.23204 -1.2762,-0.46409 -1.9144,-0.69613 m -4.3508,0.69613 c 0.79352,1.9921 -0.99946,13.191 -1.3827,6.8092 0.63048,-1.6314 -1.3154,-7.6924 1.3827,-6.8096 m 7.1353,-85.514 c 2.6619,1.6857 -5.6162,1.8274 -3.1322,0.1744 1.0183,-0.31142 2.0886,-0.12144 3.1326,-0.1744 m 17.037,47.456 c 6.6842,2.5669 15.224,1.7485 20.507,-3.1326 -2.3486,-0.58868 -5.0061,2.7853 -7.823,2.9575 -3.6121,1.4678 -7.5025,-0.9617 -10.434,-2.6105 -0.90918,-2.9325 1.591,-4.4658 3.9936,-3.6558 1.9242,-0.2221 6.2532,-0.90716 6.0904,-2.6021 -2.6021,1.6747 -6.8467,0.79124 -9.0402,-0.6976 -0.18083,-4.8683 5.7628,-2.5087 8.3448,-2.9501 1.2873,-0.80049 8.2171,-5.1652 5.5599,-4.8736 -2.3787,2.3286 -5.5634,3.1127 -8.3542,0.98322 -2.1424,-0.80657 -7.2815,-1.5704 -4.1578,-3.933 2.9418,-0.31469 6.0422,1.2369 8.3454,-1.1315 5.4703,-2.4285 -4.021,0.65904 -5.508,-2.493 -0.37568,-0.7701 7.3211,-2.4262 2.0264,-2.6338 -2.8072,0.943 -4.5461,-0.73874 -0.6475,-0.52246 8.2962,-0.38121 15.101,6.5274 16.526,14.47 3.5818,10.477 -1.5597,21.517 -5.444,31.236 -3.5311,7.4455 -8.793,15.211 -14.948,19.812 0.63824,-4.9362 -5.4838,-5.8756 -7.9963,-8.6837 4.3931,-0.35288 -6.9124,-3.8322 0.34806,-3.1238 5.9188,0.45959 -1.101,-1.5149 -3.481,-2.6101 -1.9809,1.2328 -7.611,-3.2394 -2.9164,-1.9422 1.4344,1.9736 8.9977,1.6947 3.9609,0.029 -4.0292,-2.6661 4.3471,-0.35802 5.8053,-0.25567 3.2147,0.16593 7.543,0.3143 9.8385,-1.832 -2.92,-0.89006 -7.0105,2.5234 -10.075,-0.17513 -2.6237,-1.4798 -6.2516,-3.3084 -7.9952,-5.561 1.0823,-3.7272 4.1906,-3.4009 7.1269,-2.2617 4.1564,0.98722 9.1173,3.1844 13.034,10e-4 2.3387,-0.18927 7.7457,-4.164 2.601,-2.7849 -3.3797,3.1002 -9.0748,2.8698 -13.034,1.9147 -1.5922,-0.23698 -6.6804,-2.5516 -3.7767,-3.7298 3.0095,0.10141 6.2156,1.2766 8.9877,-0.78776 -1.841,-0.89212 -5.2832,-0.0553 -7.4647,-1.393 -4.7871,-0.49513 -0.0401,-1.8273 2.0792,-2.2635 1.8729,-1.9838 -5.1787,-0.46339 -2.0785,-2.7757 m -77.875,44.149 c 10.024,-1.2762 20.047,-2.5525 30.071,-3.8287 -1.1534,4.195 -8.4329,1.9384 -12.149,3.4345 -5.974,0.76953 -11.948,1.5391 -17.922,2.3086 v -1.9144 z m 0.87016,-50.057 c -1.3154,1.9053 -4.2681,4.9372 -5.0382,1.0339 1.4464,2.466 2.9968,-2.6864 5.0378,-1.035 m 9.0405,72.306 c 1.668,1.9023 -2.3051,6.0982 -3.4715,2.4273 -0.26916,-2.0486 -4.634,-5.9956 -2.2624,-6.6052 1.879,1.0158 3.156,5.4122 5.7336,4.1775 m -13.382,-69.183 c 2.7912,1.6809 -2.2463,4.4097 -1.0537,0.34843 0.40549,-0.13515 0.56795,-0.51248 1.053,-0.34879 m 15.645,64.667 c -0.19115,5.2121 -3.9666,3.253 -5.7343,0 -2.8461,-3.7549 2.6912,-2.1095 4.7294,-1.6353 1.0781,-0.093 0.85449,0.85306 1.0038,1.6357 m -11.825,-0.53125 c -1.1439,2.4914 -1.1622,8.2253 -3.5363,2.6886 -0.60679,-2.9553 -1.5732,-7.1134 -5.4951,-6.1601 -3.481,2.8349 -6.0332,-0.86476 -8.1254,-3.5365 -3.3895,-3.2909 -2.5088,-8.1129 -1.2629,-11.934 -2.6163,2.9104 -3.5297,9.5628 -8.5181,8.6943 -3.3904,0.22887 -6.9299,-1.4218 -9.2168,-3.8309 -0.22079,-3.1988 -0.01,-7.5121 -1.4321,-2.2389 -1.8298,3.2453 -3.0456,7.9126 -7.2504,8.6675 -1.7081,-0.35723 1.1663,6.3498 -2.5943,7.6173 0.84887,3.7083 -0.71794,8.1354 1.5549,11.186 2.5036,3.8183 -2.0122,4.4019 -1.7437,6.0563 0.65306,3.1597 0.6405,7.9999 -3.8287,7.6494 -2.6556,0.27167 -8.4274,-0.35281 -5.3858,-4.1782 1.9809,3.4325 3.3777,1.9008 4.5157,-2.2533 1.7477,0.98297 -0.85536,7.3329 2.7845,4.3424 2.6924,-2.6741 0.0439,-6.1654 -3.8196,-5.0473 -4.2398,1.0818 -0.91078,-5.2886 -0.79302,-7.4696 0.90838,-3.8668 0.2629,-8.5901 -1.2954,-11.638 -0.48279,-3.893 3.0641,-6.7761 2.06,-10.986 0.87482,-2.6321 1.8496,-7.6419 -0.3288,-9.0082 -1.7023,1.9616 -3.4046,4.7811 -4.1676,0.18355 -1.5085,-1.8558 0.13355,-7.1794 1.2182,-2.4372 1.5575,-1.6585 6.0189,-1.4063 5.3622,-4.9321 1.9652,-0.81214 1.7303,-5.5136 2.286,-7.9283 -2.6298,-1.7773 2.7196,-3.8129 4.0028,-2.62 2.4114,-0.35123 2.9487,-5.7773 6.3024,-3.8192 3.0805,-1.5919 4.2266,4.3581 7.94,2.6193 3.7012,-0.17328 7.3812,-3.7356 10.781,-0.35759 1.6942,1.4002 3.6219,10.531 5.3858,5.3866 1.1317,-3.8776 4.6738,-0.36328 7.128,-2.4269 2.3501,3.8371 6.7536,8.991 3.1315,13.209 -2.8756,0.95738 -9.2446,2.8875 -7.6486,6.9422 1.9372,2.3687 5.1924,5.1512 1.9144,7.8329 0.56851,5.0613 6.3055,2.6726 8.6833,5.0378 1.1394,2.7458 -2.0922,3.3147 1.3923,4.6897 m 34.935,7.8223 c 2.419,2.8834 -5.0624,1.4518 0,7.3e-4 m -10.25,1.5663 c -2.3504,1.5664 -5.6531,-2.0915 -8.7809,-0.74676 -6.6397,2.1216 -3.363,-2.8644 -1.9304,-6.3895 0.10966,-4.2212 3.8761,-1.3196 6.0231,-1.5459 4.8488,-0.70275 3.1872,3.8405 4.201,6.916 l 0.13915,0.73052 c 0.068,0.35832 0.25459,0.68556 0.34846,1.0371 m 14.6,-1.035 c -4.287,2.2749 -4.684,-4.5264 -5.782,-7.3529 -2.1562,-9.7164 1.6617,-22.396 11.863,-25.85 -0.97711,2.2529 -5.3887,5.0048 -6.524,8.3544 -3.9416,7.5344 -3.3713,17.379 0.44271,24.85 m -7.8223,-5.0469 c 4.0685,-0.76974 2.0717,4.5077 0,2.0796 0.0413,-0.7282 -0.33537,-1.4168 0,-2.0796 z m -3.6455,-9.3886 c -8.3226,0.43309 -16.817,2.0235 -25.033,1.7403 -2.2577,-3.9529 6.2217,-1.5131 8.3678,-2.697 5.6102,-0.4935 11.22,-0.98699 16.831,-1.4805 -0.055,0.81215 -0.10991,1.6243 -0.16487,2.4365 m 2.2533,16.167 c -3.2668,2.6732 -5.135,-1.6808 -5.0374,-4.8634 -2.7461,-4.5619 4.6382,-3.8537 3.6684,-0.12598 0.49425,1.6468 0.74186,3.3935 1.369,4.9897 m -87.776,4.8638 c 0.30312,4.886 -2.0134,6.2381 -6.1387,4.5252 -4.5438,1.1068 -7.8669,-0.67907 -6.8131,-5.7758 -1.0591,-3.218 1.016,-5.8831 4.4333,-4.6574 2.7134,0.30199 5.1191,2.5909 7.8223,3.1249 1.3593,0.62278 1.1893,1.4311 0.69613,2.7849 m -0.87017,-26.242 c -2.1956,3.4472 3.8166,2.7981 2.2624,6.2582 -3.6976,2.2882 2.5258,7.2006 1.5663,10.607 -2.0689,3.5346 -1.3516,-2.1417 -2.4055,-3.419 -1.1534,-3.8479 -5.0998,-6.1692 -4.807,-10.325 -0.0398,-4.443 -4.6055,-6.7806 -4.2645,-11.116 0.40756,-4.5441 3.7534,4.5489 5.569,5.7335 0.72645,0.64081 1.054,2.0896 2.0792,2.2628 m -51.092,-11.825 c 0.77455,2.6641 -2.8714,7.4135 -2.9586,2.7377 -0.29392,-0.6846 2.733,-4.5205 2.9586,-2.7374 m 12.851,38.241 c -3.1122,2.2591 1.2434,5.4046 -1.5571,6.2556 -3.9644,-0.35126 -3.4584,-6.214 0.52209,-6.43 0.34717,0.049 0.74836,-0.13037 1.035,0.1744 z m 58.063,-0.51293 c -0.43622,1.5176 -3.7022,1.3917 -5.2206,2.0796 -0.75305,-2.2414 0.69192,-5.3306 -0.34806,-7.3017 2.5449,1.0039 4.8999,2.3134 5.5687,5.2217 m 37.536,-5.569 c -2.2573,2.5294 -5.7282,-0.81279 -6.1155,-3.5195 -3.5821,-4.9092 0.96626,-4.9218 3.6636,-1.1254 0.98371,1.2924 2.1208,2.931 2.4511,4.6464 m -7.6483,0 c -2.3842,-0.0977 -4.4315,0.862 -7.3006,0.69613 1.2003,-3.4288 4.1484,-3.7912 4.1303,-7.7304 1.8894,0.14411 2.1848,5.2908 3.1699,7.0336 m -11.468,-7.6391 c 0.4893,3.8968 -3.5291,5.8365 -4.1658,9.3794 -2.6212,-0.22571 -6.671,3.6619 -7.9963,0.1744 0.69932,-3.6558 -3.431,-5.4197 -2.7801,-9.0595 -1.0116,-2.9815 -3.3033,-8.0649 1.9019,-5.3676 4.0859,1.7064 8.6684,2.2881 12.522,3.8203 l 0.33007,0.66639 0.19166,0.38697 m -56.496,18.759 c -2.9932,2.0109 -7.5208,2.0247 -10.772,3.655 -2.456,-0.4341 -7.7266,4.8777 -6.43,-0.6742 1.9911,-2.0753 1.0212,-5.6408 3.6455,-7.8354 1.4395,-3.7738 4.2576,0.20526 6.9613,-1.401 2.3225,1.9549 5.1892,3.5875 6.5949,6.256 m 183.74,-24.87 c 0.33365,3.0752 -5.1887,-4.767 -7.7583,-5.6041 -2.0597,-2.9958 6.1984,0.58011 6.5148,3.1807 0.61095,0.70991 0.9489,1.5452 1.2428,2.422 m -19.821,20.16 c -1.0572,4.0629 -4.8927,3.4647 -7.3009,1.0534 -6.2096,-0.96583 0.29721,-3.3207 3.5285,-2.446 1.5673,0.23543 3.4584,-0.84173 3.772,1.3926 m 21.379,-19.464 c 1.7605,0.43863 7.7948,4.3956 3.7132,3.0982 -1.1852,-1.0202 -4.5319,-1.3922 -3.7144,-3.0993 m 4.8638,14.774 c -0.54331,4.7191 -4.2122,-1.4342 0.1733,-3.1318 0.55929,0.57702 -0.37667,2.2158 -0.17366,3.1333 m -35.109,1.2182 c -3.7738,-1.7758 6.2494,-0.82545 8.1704,-1.0446 -1.4417,1.3179 -5.6484,0.75997 -8.17,1.0449 m 62.056,-50.763 c -0.57099,14.027 -9.6984,26.638 -21.901,33.377 -4.2796,-0.23476 -4.8257,-2.051 -3.8199,-3.6452 -3.4776,-0.71315 -6.938,-2.9209 -1.053,-2.6109 1.5725,-1.1778 -5.97,-1.1624 -1.7304,-2.6123 5.2788,2.0395 11.652,1.2375 16.514,-1.5582 -1.6908,-0.62943 -4.8209,1.3821 -7.3002,1.2105 -3.0885,0.97738 -4.4744,-2.443 -7.1254,-2.4284 0.42487,-2.7577 5.8647,-0.73822 8.2647,-1.5681 2.5716,-0.79225 6.6727,0.99493 7.3693,-2.6017 -2.6883,-1.0796 -6.414,1.3679 -9.4097,-0.43351 -0.31155,-0.19978 7.8481,-3.0359 0.90005,-2.5247 -3.4202,0.18411 -3.8762,-2.5669 -1.2168,-4.3523 3.5971,0.43406 7.888,2.077 11.469,0 -2.7575,-0.39424 -7.734,-0.30288 -10.076,-2.4365 3.407,-1.6731 7.8068,1.6704 11.089,-1.5422 6.061,-3.8145 1.9324,-2.0249 -2.5955,-1.5809 -5.3578,-0.29749 3.925,-1.3504 4.3654,-3.6455 -0.64369,-1.4438 -5.3036,3.7957 -8.0655,1.7595 -4.3406,1.2575 -5.783,-4.3362 -1.9713,-4.8925 3.9063,1.4837 8.5331,0.74727 11.209,-3.1807 1.0697,-3.0282 -3.292,2.3145 -5.0428,1.8999 -2.1172,1.0265 -7.5002,-1.7655 -4.0945,-2.9132 2.052,1.6131 7.7487,-4.1144 4.3171,-2.757 -1.2112,2.721 -7.4212,1.5156 -2.0891,0.17476 0.9356,-3.031 -5.3628,2.5612 -3.8291,-2.6108 2.7819,1.3478 8.8937,-4.7617 3.828,-2.2529 -2.1658,1.9764 -5.6378,-2.8899 -2.6101,-0.6954 6.7661,-2.0541 1.6896,-0.67302 -1.3158,-2.6824 1.5354,-1.6349 6.9426,0.42051 9.1381,2.1614 4.72,3.3432 7.1246,9.1055 6.7777,14.94 m -25.033,38.425 c 1.8831,0.89077 -1.6699,4.4192 -2.601,3.8192 0.93671,-0.87068 1.0821,-4.6005 2.6006,-3.8188 m -0.17,-2.1 c 0.66745,-3.1254 4.6476,2.4664 1.3923,1.2274 -0.46751,-0.4491 -1.6282,-0.43388 -1.3923,-1.2288 m -57.193,-20.325 c 8.6099,7.3782 9.3334,20.937 2.3618,29.663 -1.0622,1.9114 -7.6601,9.7856 -5.7298,4.4956 7.3103,-7.1094 11.722,-18.815 6.1521,-28.251 -1.9864,3.0363 -6.9594,7.6053 -2.2617,1.5667 4.9778,-2.5984 -3.5768,-6.0857 -1.2182,-8.0059 l 0.34807,0.1744 0.34806,0.35759 m 10.781,37.71 c -1.8481,0.58059 -6.239,0.97767 -7.6497,-0.69613 0.48177,-4.7488 4.0866,-2.4972 7.3006,-2.0888 0.31617,0.9121 -0.008,1.8883 0.3488,2.7845 m 9.7275,-20.508 c -4.2194,6.2419 -5.4633,13.983 -4.8641,21.204 -5.0942,1.3483 -3.8054,-3.115 -3.8199,-6.6044 0.79295,-10.021 7.1952,-20.657 17.898,-22.075 -2.8779,2.078 -7.0244,4.0353 -9.2157,7.475 m -25.372,14.948 c -0.37754,6.7262 -2.5886,-1.491 -1.5667,-4.2568 -0.23558,-6.5243 1.7005,-2.9029 0.6965,1.3239 0.192,1.0997 -0.61004,2.464 0.87016,2.9333 m -50.753,-19.812 c -2.1438,-1.7661 -1.6705,-4.9394 1.5659,-4.1779 0.21325,3.0847 8.4207,-1.2518 6.0816,3.1337 -2.7523,0.3616 -4.8816,0.61517 -7.6483,1.0449 m -4.88,-15.13 c 2.6228,1.6099 0.26576,6.4519 0.7307,9.1787 1.281,5.3009 -2.8539,5.1108 -1.9489,0.0355 1.3228,-2.9283 0.34601,-6.3886 1.2193,-9.2149 m 13.04,-25.39 c 0.37412,-2.1163 6.0199,-5.5434 4.6901,-1.5575 -1.257,0.80064 -3.105,1.3059 -4.6901,1.5571 m -62.926,-12.164 c -0.15393,-1.2209 0.59085,-6.3272 1.5663,-5.9083 1.1196,1.669 0.778,5.3806 -1.5663,5.908 m -8.3352,2.4364 c 0.54727,-2.9115 4.4874,-1.354 6.256,-0.17513 0.29236,1.0654 -2.3446,2.5575 0,3.4821 -1.1099,1.9125 -5.3902,0.89215 -5.7339,-1.2274 2.1085,-1.4312 3.5419,-1.8407 -0.5221,-2.0789 m 17.724,8.6925 c 1.9538,-6.8943 3.0128,3.0202 -0.16829,4.6112 -3.3048,5.9306 -1.5553,-3.4164 0.16976,-4.6112 m -10.607,16.332 c -3.163,6.7152 -9.1049,14.372 -17.376,13.391 1.83,5.4505 -0.68918,4.4377 -1.9348,4.8952 0.68933,5.0145 3.1511,9.7583 3.327,14.744 -0.3269,3.7181 -5.6634,6.3244 -7.1049,1.5545 -3.0016,-0.84553 -3.1853,-11.253 -4.024,-6.4968 -0.85107,5.0798 1.1238,10.606 5.0469,13.626 -1.6529,1.9861 -1.114,5.0313 1.4182,6.7572 0.68218,1.3779 1.2679,5.5754 0.14804,7.3226 -3.2527,0.46178 -3.9264,-5.0318 -6.48,-6.9008 -2.8225,-4.2652 -5.5576,-8.9924 -6.7373,-13.956 -0.44631,-4.7372 0.68452,-9.2029 0.17403,-13.904 -3.3837,-1.0762 -0.22099,8.6236 -3.2974,7.6479 -2.87,-3.9162 -0.91381,7.8158 -3.6547,4.3508 -2.8221,-4.1767 -2.5574,-7.3194 -8.5725,-5.9982 -4.8158,1.896 -7.6443,-6.2573 -4.4558,-7.2074 1.4871,1.888 -0.8199,7.1718 4.1619,5.0356 5.6026,-0.37215 5.8946,-0.94347 4.1768,-5.7343 -1.3728,-4.0754 1.1753,-8.6838 2.1176,-2.1268 -0.61772,4.0049 4.0015,8.5225 3.4422,2.9867 1.2434,-2.8234 2.4949,-6.2952 2.7845,-9.0325 1.5212,0.0813 1.439,-5.9126 3.2974,-7.4735 3.581,-0.82726 0.10677,7.4355 2.7845,4.342 2.363,-1.4537 2.426,6.4769 4.8638,4.8641 3.4122,3.8772 3.2072,-1.0568 1.5945,-3.6786 -1.2294,-1.6761 -3.0973,-6.4381 0.65826,-6.5108 2.6751,-1.7822 5.8087,-2.3382 8.8762,-1.9771 0.64579,1.5938 -3.122,2.2366 -4.0028,1.5659 0.42764,2.9217 3.2529,5.2263 1.5663,8.6936 9.4116,-1.7355 15.026,-10.695 16.863,-19.465 -3.9587,-2.8176 4.3287,-1.2948 5.9079,-1.5674 1.557,-3.3863 -9.8675,0.9201 -7.1262,-3.1333 0.6921,-1.982 1.5468,-3.4393 2.7754,-5.0857 -0.99021,-0.71365 -2.5337,-3.2126 0.40475,-2.911 2.6034,1.9045 7.7332,-5.7375 5.7658,-0.1273 4.891,-0.83573 3.7111,3.0295 1.6528,6.2107 -4.1508,1.8941 1.0369,7.9014 -2.254,8.3448 -4.7818,-4.2107 -5.1988,4.0204 -6.7873,6.9521 m 61.534,-33.194 c 1.5816,0.46464 1.2096,1.5689 2.0884,2.6028 2.358,0.32778 -2.1464,2.7749 -1.0442,4.8751 1.139,0.84787 2.8292,5.9674 0.16524,4.5164 0.50405,-1.1628 -2.4854,-1.9466 -0.33854,-2.0796 -0.48541,-2.1848 -2.7993,-0.93546 -3.655,-3.3092 0.48065,-2.4002 0.15611,-5.6808 2.7842,-6.6052 m -5.9079,19.995 c 1.6286,-2.3486 3.013,-8.9568 6.256,-7.8304 3.0728,2.4973 -1.8983,7.5203 -4.8147,7.4392 -0.53336,-0.11417 -0.9585,0.39057 -1.441,0.39261 m 23.815,-33.726 c 0.26099,2.4617 -1.1435,7.4024 -4.0031,6.4293 -1.0192,-3.6054 -2.3165,3.0022 -2.4284,-3.307 -0.54031,-0.69486 -2.8073,9.3405 -4.1768,6.6136 2.4563,-3.5561 0.54795,-8.4305 2.7838,-11.825 2.5706,-2.1357 8.1846,-2.4274 7.8227,2.0884 m -27.992,14.939 c -1.3366,3.2221 -6.3056,-5.0627 -3.2228,-3.0282 2.0064,-0.65521 2.032,1.3622 2.8838,2.8534 l 0.17439,0.1744 h 0.16488 m 18.255,-17.376 c -3.7488,-0.8215 -3.9905,3.1377 -3.1326,5.7427 -3.1542,2.0296 1.0813,5.9677 0.88005,7.291 -3.2635,-2.2106 -2.7221,-7.4972 -2.9582,-11.12 0.33012,-2.3588 4.7464,-5.6034 5.2125,-1.914 m 1.7403,11.825 c 3.4131,-0.40926 -3.9166,3.0489 -0.69613,2.6028 0.57403,0.85513 -2.9614,1.0718 -2.7852,0.69686 -1.7234,1.94 -4.1435,3.3462 -1.74,0.69503 4.9989,-1.3186 -3.9094,-2.2928 -0.87126,-3.647 2.574,2.7265 3.583,2.3866 6.09,-0.34843 m -1.3923,6.943 c -1.2964,1.6355 -5.7374,0.0528 -3.1238,-1.7312 3.0531,0.55694 5.7877,-1.7558 6.2465,-4.8645 3.5751,1.0633 0.089,4.7563 -1.7794,5.5614 -0.64636,0.29126 -0.31586,1.3179 -1.3444,1.0354 m -2.4273,-11.816 c 4.4068,-1.7991 0.0111,7.6069 -1.0523,2.6108 0.22382,-1.4879 -1.1675,-2.1114 1.053,-2.6116 m -0.87932,-1.7403 c 1.0396,-5.0323 4.7822,2.1374 0.18283,0.3488 l -0.1832,-0.34807 m -110.71,40.852 c 1.2157,-2.8801 5.5646,-4.0543 3.4715,1.0347 3.3399,4.4509 -2.7597,0.0105 -3.4715,-1.0347 z m -16.863,-3.6547 c -0.83311,-1.5282 0.97935,-3.132 2.9586,-2.6028 2.2564,-1.2596 4.9892,-0.19949 6.7781,0.33854 -0.96455,1.5247 -4.7419,1.9645 -6.5529,2.6482 -1.3647,1.5172 -1.3577,-1.2649 -3.1838,-0.38579 m -5.2118,15.297 c 1.2681,2.8608 -1.7218,5.553 -2.1603,1.92 0.76292,-2.3435 3.4171,-7.9203 2.1603,-1.92 z m 1.2182,-7.6391 c 2.5302,0.43341 0.57568,-4.3959 1.9044,-5.9162 2.1304,-0.21783 4.9711,-0.41243 7.4751,-8.6e-4 2.7406,2.1369 -0.023,5.9398 -0.69613,8.3455 -3.3276,-0.13064 -7.1973,2.6105 -9.9015,-0.17367 -3.6224,0.11143 -1.7081,-4.1401 -1.2182,-5.9094 2.4242,-1.237 -0.12926,2.4292 2.4364,3.2975 v 0.35686 m 55.617,-14.262 c 4.3351,2.3592 1.8253,9.2258 -1.9144,11.294 -1.4222,2.4732 -6.9071,2.6131 -5.0378,-0.51367 -1.5638,-0.68428 -6.1819,0.86369 -5.5599,-1.5652 4.189,-0.096 5.7117,-4.1098 6.4209,-7.3006 2.0868,-0.59596 3.9356,-3.8418 6.0911,-1.9144 m -38.589,6.7781 c 0.89613,-3.5017 2.9241,-0.98639 2.7845,0.69613 -0.32436,1.874 -2.4858,0.77502 -2.7845,-0.69576 m -13.895,27.122 c 0.43878,1.7043 -8.6969,0.76999 -4.6989,-0.52173 1.4691,-0.35975 3.4232,-0.20387 4.6989,0.52247 m 0.51293,-3.3066 c 0.29856,4.2104 -4.7607,-0.21471 -6.43,1.914 -4.6467,0.51079 -3.1243,-8.945 0.5221,-5.2122 4.7607,-1.721 0.19898,4.797 4.1676,3.6452 -0.88605,-2.1647 0.92342,-4.801 1.7403,-0.82264 v 0.30054 0.1744 m -8.1704,-20.518 c 0.44012,-1.143 1.512,-4.0775 3.4806,-4.6809 2.2893,-0.11322 -2.4013,6.1698 -3.4806,4.6809 z m -1.7312,-5.0286 c -0.48356,3.7968 -2.8634,0.22639 -2.7937,-2.0888 -1.272,-2.1097 3.519,-7.4722 1.9144,-3.6543 -1.2946,1.4878 -0.42864,4.3584 0.87932,5.7427 m 19.29,18.594 c 2.5714,0.85111 2.236,-5.4368 4.1676,-7.3006 2.6354,-0.91952 0.54345,4.9746 0.0719,6.4248 0.0922,2.3972 -5.64,6.4456 -5.66,2.9315 0.42824,-0.51095 0.76645,-1.8699 1.4204,-2.0553 m 26.416,-33.03 c -0.86715,-3.713 7.2966,-4.1008 2.9586,-0.33928 2.0567,0.93199 5.2741,-1.5096 7.4742,0.51367 1.5566,-1.3881 6.8059,-0.14543 3.3787,2.6244 -1.9791,3.8254 -6.8682,4.2781 -10.853,4.675 -4.5999,-0.78473 2.395,-1.6787 2.6013,-3.2971 -1.6394,-0.90745 -4.5484,-3.7234 -6.1536,0.51762 -2.3042,7.6249 -1.6329,-4.552 0.59373,-4.6962 m -6.6041,-4.5157 c -1.9886,-3.4846 6.2196,-8.8737 4.6584,-6.4749 -2.1482,0.79677 -4.4591,7.748 -4.6584,6.4749 z m 19.986,33.717 c 0.42753,-1.9594 -4.4017,-5.6653 0.34806,-7.117 1.7084,0.72093 1.5694,6.3325 0.34807,8.3356 -0.34029,0.80321 -1.0155,-0.8862 -0.69613,-1.2179 m -46.751,-0.69613 c 0.74807,2.8203 -3.3268,9.6854 -3.2019,3.9337 0.18631,-1.5204 0.76107,-5.974 3.2019,-3.934 m 24.85,-14.774 c 1.5133,-0.82518 3.7128,-4.9854 5.221,-2.6021 1.3677,-2.3328 4.2658,-3.4455 6.0728,-2.2533 4.3308,-0.62294 0.85832,1.0323 -0.5221,2.6021 -2.3058,4.0807 -5.1333,2.5668 -8.3352,2.6021 -1.0287,-0.25134 -1.7433,1.1996 -2.4365,-0.34807 m -3.9936,4.1768 c -0.53712,-3.3173 2.6694,-4.7426 4.6897,-2.612 1.3787,1.006 -0.45906,4.6712 1.5663,5.9175 -1.33,-0.20456 -3.6619,1.5466 -4.2723,-0.002 1.9422,-0.0196 1.5737,-7.2967 -0.60061,-5.0456 0.65218,1.2818 -0.19207,2.6858 -1.3831,1.7403 m 10.25,-1.2182 c 1.4587,2.7397 -3.4787,7.1492 -1.5663,2.0888 -0.0601,-1.9653 -2.7393,-5.9747 1.0516,-2.7938 l 0.43877,0.60042 0.0759,0.10394 m 149.83,24.328 c 2.4573,1.9924 11.781,3.1841 9.3794,5.7431 -2.68,1.9984 -6.5854,9.0022 -7.8132,2.5063 0.35402,-2.9536 -0.31714,-5.587 -1.5663,-8.2494 z m 2.4273,12.521 c -4.1946,-2.3911 -3.2902,3.1549 -4.7038,6.6676 -0.62272,2.0421 -3.103,8.2489 -4.1528,7.4088 5.51,-8.6929 6.9325,-20.358 1.0354,-29.201 2.0292,0.2182 3.4208,5.7237 3.9349,8.2933 0.0362,3.2077 1.9277,4.7034 3.887,6.8296 m -77.692,-70.044 c 2.0834,2.4589 9.5938,-2.783 3.6037,1.1552 -2.7151,1.785 -11.411,5.1006 -3.9017,1.4126 -2.1944,-0.91008 -0.75948,-8.241 0.2976,-2.5686 m 27.286,13.556 c 0.64178,0.64392 2.1171,2.4128 0.87932,2.7768 0.99337,0.0586 4.1665,1.8996 2.6013,2.0891 -1.313,-1.7049 -4.5167,-0.59683 -3.4799,-3.307 -0.93511,-0.67721 -0.36363,-1.1376 0,-1.5579 m 14.262,5.2118 c 7.9083,5.831 16.049,11.368 24.502,16.34 -2.8538,-3.5536 -7.5906,-5.684 -11.129,-8.3459 -4.2128,-2.6557 -5.5265,-3.3434 0.27861,-2.2639 3.6519,-0.20182 7.8846,-1.991 9.284,-5.3851 -4.1469,0.99136 -9.0239,3.5585 -12.859,0.52064 -5.8278,-2.6913 4.117,-0.29831 2.2617,-2.7757 -4.1742,0.36409 -3.361,-2.3331 0.33891,-1.0442 5.326,2.0708 10.402,0.79796 14.783,-2.7845 3.4869,-2.3898 6.7944,-6.5693 0.91944,-2.5912 -4.1593,3.0389 -10.664,2.4766 -14.65,-0.009 6.567,-1.1048 15.434,-0.81596 21.011,-6.4568 1.0975,-2.2411 -4.5741,1.4501 -5.7153,1.582 -5.8596,2.407 -12.002,1.4061 -17.559,-1.0442 -0.47955,-3.1341 5.4609,-1.2544 7.3009,-2.6028 5.0427,-2.1102 3.3628,-3.1908 -1.2168,-2.0884 -4.9321,-2.7253 2.5579,-2.1042 4.5724,-2.0789 5.0791,-1.0985 11.486,-4.5329 14.369,-9.0501 -2.5817,0.50702 -5.6755,4.8 -9.3246,4.6571 -2.7192,-1.1532 -8.3342,0.63881 -9.6156,-2.3932 4.368,-1.6211 -2.207,-2.297 3.6108,-4.3343 3.4052,-1.3164 7.544,-0.86589 10.342,-3.9652 0.50374,-2.1093 -5.3218,2.4118 -7.3501,-0.21932 -1.8354,-1.4532 5.6861,-2.3168 7.3002,-4.6908 4.9469,-1.982 2.9871,-3.3422 -1.2382,-1.1952 -2.8912,0.72181 -7.1382,2.6808 -9.0195,-0.37108 -4.5582,-1.777 4.2726,-0.28385 5.3862,-2.0891 3.695,-0.49445 5.9537,-6.2358 1.2266,-2.2624 -1.2328,1.2826 -7.1138,-1.2248 -3.307,-2.0888 1.935,-4.157 6.9557,-3.0178 10.106,-0.87327 10.874,9.0139 10.958,24.918 6.4086,37.209 -2.9452,10.901 -8.1833,21.065 -14.436,30.419 6.0758,4.2837 12.692,7.6708 18.778,11.817 3.6848,5.2075 -4.1709,-1.8997 -2.428,4.1775 0.43064,4.2448 7.0992,4.5979 9.8834,7.5907 2.3227,2.3929 -3.4106,-0.17885 -4.6808,-1.1691 -2.1799,-0.82412 -5.1834,-4.4724 -6.4205,-1.0358 -2.8781,1.464 0.73689,-5.4196 -4.4149,-5.1045 -2.6594,-0.9169 -5.3527,-4.0882 -7.9238,-3.762 -0.0872,6.4719 -3.3195,4.2679 -1.6852,-0.74081 -0.58012,-3.7572 -6.511,-4.8566 -9.3889,-7.2855 -4.9149,-5.2774 -5.5585,-0.91032 -5.6322,4.2805 1.0623,4.6957 -4.3117,5.6935 -2.0104,0.40302 -0.10106,-3.9266 3.7514,-9.831 -1.945,-11.417 -3.1547,-1.2603 -5.7624,-3.9869 -8.7146,-4.7048 -1.215,6.5748 -1.5072,13.334 -2.2716,19.986 1.4998,1.7077 8.35,2.2462 5.2972,4.9499 -2.7099,-1.0501 -8.235,-1.9076 -6.5079,-5.9885 1.1609,-9.909 2.3217,-19.818 3.4826,-29.727 m 22.24,46.586 c 1.6104,4.1326 -1.8253,12.028 -6.9525,9.5524 -2.6006,2.8138 -4.6416,7.1171 -7.4742,9.2153 -5.2667,-4.6924 -5.3943,-12.677 -4.3667,-19.176 1.6343,-3.5478 2.4752,-8.412 6.1162,-10.373 0.0116,2.8799 4.0072,7.957 5.9076,9.5626 1.7152,-2.2341 5.6081,-1.5116 6.769,1.2171 m 49.718,14.774 c 0.62951,7.1256 -1.5312,14.1 -4.8729,20.325 -4.4841,-0.92307 0.91893,-6.3826 -4.8216,-8.928 -1.9513,-1.4952 -7.8453,0.29859 -8.0307,-5.0219 -1.412,-3.6789 2.3943,-9.3292 6.4223,-7.2451 1.601,-3.1638 8.5358,-5.6489 5.5353,-9.336 -2.2315,-4.1202 -6.8877,-8.2072 -0.18939,-3.2032 3.9993,3.5235 6.2058,7.9956 5.9574,13.41 m -7.6483,17.211 c 0.10566,3.5252 -6.7438,0.59437 -4.6992,-2.3659 -0.74202,-5.7462 3.6478,1.3064 4.6989,2.3666 m -7.4742,-4.8729 c 2.3188,4.8974 -4.842,4.1099 -2.6333,0.86627 0.31611,-1.2845 1.7168,-1.2599 2.6333,-0.86627 z"
       inkscape:connector-curvature="0" />
    <path
       id="path11448"
       d="m 354.18,273.2 0.87016,-7.9963 -9.0405,1.5755 -0.69613,7.9872 8.8665,-1.5663 z"
       inkscape:connector-curvature="0" />
    <path
       id="path11452"
       d="m 366.18,271.64 0.69613,-8.3444 -9.3886,1.7403 -0.69613,7.9963 9.3886,-1.3923 z"
       inkscape:connector-curvature="0" />
    <path
       id="path11456"
       d="m 367.92,250.79 -9.3886,1.9052 -0.87016,10.085 9.2146,-1.7403 1.0442,-10.25 z"
       inkscape:connector-curvature="0" />
    <path
       id="path11460"
       d="m 355.06,263.47 1.0442,-10.259 -9.0405,1.7403 -0.69613,10.076 8.6925,-1.5571 z"
       inkscape:connector-curvature="0" />
    <path
       id="path11476"
       d="m 298.22,276.86 -0.34807,-0.35759 v -0.1744 l -0.52173,-0.16488 h -0.1744 -0.52173 l -0.34806,-0.69613 h -0.1744 l -0.52247,-0.1744 h -0.17366 l -1.0442,0.52174 -0.69613,0.51293 -0.34806,-0.16487 h -0.68661 -0.18319 l -0.52173,0.33854 -0.1744,0.1744 v 0.18319 l -0.16487,0.33854 v 0.18319 l 0.51293,1.035 v 0.34806 l 0.1744,0.52173 -0.1744,2.6105 -0.34806,0.68661 -0.16487,0.53125 v 0.1744 l 0.33927,0.33854 v 0.18319 h 0.17366 l 1.0442,0.1744 0.52246,-0.1744 0.87017,-0.87932 h 0.1744 l 1.3923,-1.548 v -0.18319 l 0.87016,-1.5663 v -0.16487 -0.35759 l 0.17366,-0.34807 0.1744,-0.1744 0.52173,-0.34806 h 0.16488 v -0.1744 l 0.18319,-1.2091 z"
       inkscape:connector-curvature="0" />
    <path
       id="path11488"
       d="m 385.3,251.31 -0.18319,-0.1744 -1.5571,-1.2091 -0.34806,-0.17367 -0.34807,-0.18319 -0.52173,-0.34807 -0.33927,-0.17366 -1.2274,-0.68661 -0.17366,-0.18319 h -0.1744 l -0.33927,-0.16487 -0.17367,-0.18319 -0.34806,-0.16488 -1.5663,-1.0534 -0.1744,-0.16488 h -0.17366 -0.1744 l -2.2624,-1.5663 -0.33928,-0.1744 -0.53125,-0.34806 -0.33927,-0.1744 -0.1832,0.1744 h -0.1744 l -0.34806,2.2533 -0.1744,0.35759 h 0.1744 l -0.34807,1.3923 -0.17439,0.16488 v 0.87016 l 2.0976,1.2182 2.0792,1.3923 1.3923,0.87016 1.2182,0.87016 4.8638,2.9494 0.34807,-0.17439 0.1744,-0.69614 v -1.3831 l 0.34806,-3.1326 z"
       inkscape:connector-curvature="0" />
    <path
       id="path11492"
       d="m 397.81,260 h -0.17366 v -0.1744 h -0.1744 l -4.6897,-3.2974 v -0.1744 l -1.7495,-1.0442 -0.51294,-0.18319 -3.3066,-2.0792 -0.1744,1.3923 -0.17367,2.9586 -0.17439,1.5663 3.8287,2.4273 1.9144,1.2091 0.6866,0.35686 4.1768,2.7754 3.2975,2.0884 h 0.17367 l 0.34806,-0.33854 v -0.87932 l 0.34807,-1.5663 v -0.33853 -0.52247 l 0.35686,-1.3923 -4.0028,-2.7845 z"
       inkscape:connector-curvature="0" />
    <path
       id="path11496"
       d="m 414.33,270.6 -0.1744,-0.1744 -2.7845,-1.5571 -0.861,-0.70492 -1.9144,-1.0442 -1.3923,-0.87016 -0.69613,-0.33927 -0.69613,-0.69613 -2.0884,-1.0442 -0.52173,-0.52246 -0.1744,0.34806 -0.16487,1.9144 -0.53126,2.7754 0.1744,0.18319 v 0.16488 l 1.3923,0.69613 0.69613,0.34806 3.8287,2.4365 4.3416,2.6013 h 0.1744 l 0.17366,0.18319 h 0.1744 l 0.17367,-0.18319 0.1744,-0.16488 0.52173,-3.3066 0.1744,-0.86101 v -0.18319 z"
       inkscape:connector-curvature="0" />
    <path
       id="path11500"
       d="m 378.17,284.33 -1.0442,3.3066 2.4365,0.69613 3.2974,0.87016 3.1326,0.69613 0.52173,-1.5663 0.1744,-0.53126 -5.908,-8.6833 -1.3923,2.2624 -1.2182,2.9494 z"
       inkscape:connector-curvature="0" />
    <path
       id="path11504"
       d="m 376.26,294.24 0.34806,2.4365 9.2146,-3.1326 -0.17367,-0.34807 v -0.51293 -0.87933 -0.861 l -9.3886,-2.0884 -0.17439,2.7845 0.17439,2.6013 z"
       inkscape:connector-curvature="0" />
    <path
       id="path11508"
       d="m 378.87,302.93 1.0442,1.5663 7.1262,-8.1704 -0.34807,-0.34806 -0.17367,-0.16487 v -0.1832 l -0.52246,-1.3923 -9.2146,3.4807 1.0442,2.7754 1.0442,2.4364 z"
       inkscape:connector-curvature="0" />
    <path
       id="path11512"
       d="m 434.84,302.93 0.34807,0.52173 0.17367,1.0442 6.7781,-0.52247 v -2.4273 -1.2182 l -0.34806,-2.2624 -0.52173,-1.7403 -7.1262,5.9171 0.69613,0.6866 z"
       inkscape:connector-curvature="0" />
    <path
       id="path11516"
       d="m 435.88,305.71 v 0.34807 l 0.1744,0.52246 v 0.52173 0.33927 0.35686 l -0.1744,0.52173 5.5599,1.3923 0.69613,-3.1326 v -1.2182 l -6.256,0.34806 z"
       inkscape:connector-curvature="0" />
    <path
       id="path11520"
       d="m 435.18,310.92 -0.69613,0.52247 1.5663,1.3923 1.9052,1.7312 1.5755,1.3923 1.3831,-4.5157 -5.0378,-2.0884 -0.34806,0.87016 -0.34807,0.69613 z"
       inkscape:connector-curvature="0" />
    <path
       id="path11472"
       d="m 289.18,297.02 -0.34806,-0.69614 v -0.51293 l -0.17404,-0.52247 h -0.17403 l -0.16487,-0.1744 -0.17403,-0.19271 h -0.1832 -0.17403 -0.16487 -0.17403 l -0.1832,0.19271 -0.3389,0.33854 -0.18319,0.1744 v 0.52247 0.17439 l -0.34807,0.1744 h -0.68697 l -0.34807,-0.1744 v -0.17439 h -0.18319 l -0.68697,0.34806 -0.34806,0.34807 v 1.0442 0.1744 l 0.17403,0.34807 0.17403,0.17439 h 0.17403 l 0.17404,0.16488 h 0.3389 0.87017 l 0.34806,0.35686 0.17403,0.34806 0.17404,5.3858 -0.17404,0.69613 0.17404,0.1744 v 0.1744 h 0.18319 l 0.16487,0.87016 v 0.1744 0.1744 h 0.17403 1.0534 l 0.16487,-0.1744 v -0.1744 -6.7781 l 0.17403,-0.87016 0.5221,-0.69613 0.17403,-0.87016 -0.17403,-0.52247 z"
       inkscape:connector-curvature="0" />
    <path
       id="path11480"
       d="m 221.91,263.47 0.35723,0.69613 0.51294,0.33854 h 0.17403 0.5221 l 0.69613,-0.16488 h 0.17403 v -0.17439 l 0.17403,-0.34807 0.34807,-0.1744 0.69613,-0.52173 0.16487,-0.1744 0.18319,-0.35759 v -0.16487 l 0.17403,-0.16487 v -0.3576 -0.17366 l 0.17404,-0.1744 h 0.16487 l 0.35722,-0.34807 0.16488,-0.17439 v -0.52247 -0.16487 l -0.34807,-0.35686 -0.51294,-0.33927 -0.17403,-0.18319 0.87016,-1.2091 0.16488,-0.52173 v -0.1832 l -0.16488,-0.16487 -0.52209,-0.52246 h -0.17404 -0.17403 -0.18319 l -0.51294,0.33927 -0.34806,0.53126 -1.7403,1.9144 -0.17403,0.1744 h -0.17403 v 0.16488 l -0.17404,0.52173 0.17404,0.52246 0.17403,0.1744 v 0.1744 l -0.34807,0.52173 -0.3389,0.35759 h -0.18319 l -0.17404,0.32975 -0.17403,0.18319 v 0.51294 l 0.17403,0.18319 z"
       inkscape:connector-curvature="0" />
  </g>
</svg>
