<?xml version="1.0" encoding="UTF-8" standalone="no"?>
<!-- Generator: Adobe Illustrator 12.0.0, SVG Export Plug-In . SVG Version: 6.00 Build 51448)  -->

<svg
   xmlns:dc="http://purl.org/dc/elements/1.1/"
   xmlns:cc="http://creativecommons.org/ns#"
   xmlns:rdf="http://www.w3.org/1999/02/22-rdf-syntax-ns#"
   xmlns:svg="http://www.w3.org/2000/svg"
   xmlns="http://www.w3.org/2000/svg"
   xmlns:sodipodi="http://sodipodi.sourceforge.net/DTD/sodipodi-0.dtd"
   xmlns:inkscape="http://www.inkscape.org/namespaces/inkscape"
   id="Layer_1"
   xml:space="preserve"
   overflow="visible"
   height="22.3"
   viewBox="0 0 22.299999 22.299999"
   width="22.3"
   version="1.1"
   enable-background="new 0 0 600 600"
   inkscape:version="0.48.3.1 r9886"
   sodipodi:docname="shield_hwy_nh2.svg"><defs
   id="defs28836" /><sodipodi:namedview
   pagecolor="#ffffff"
   bordercolor="#666666"
   borderopacity="1"
   objecttolerance="10"
   gridtolerance="10"
   guidetolerance="10"
   inkscape:pageopacity="0"
   inkscape:pageshadow="2"
   inkscape:window-width="1294"
   inkscape:window-height="1390"
   id="namedview28834"
   showgrid="false"
   inkscape:zoom="28.301756"
   inkscape:cx="11.369968"
   inkscape:cy="11.208542"
   inkscape:window-x="92"
   inkscape:window-y="61"
   inkscape:window-maximized="0"
   inkscape:current-layer="g6453" /><metadata
   id="metadata6467"><rdf:RDF><cc:Work
       rdf:about=""><dc:format>image/svg+xml</dc:format><dc:type
         rdf:resource="http://purl.org/dc/dcmitype/StillImage" /></cc:Work></rdf:RDF></metadata>
<g
   id="g6453"
   transform="scale(.037167)">
	
	<path
   id="path6461"
   d="m 68.572116,578.82939 c -19.8786,2.08005 -31.1556,-21.3738 -30.2274,-38.472 4.333455,-22.31145 15.3006,-42.86625 25.1097,-63.2079 8.15766,-14.5572 17.14125,-29.86935 14.8344,-47.25525 -2.50782,-17.3208 12.99165,-29.0367 16.3065,-45.11325 2.6082,-12.5475 3.24555,-25.4625 5.062995,-38.15595 -17.3922,-0.47326 -35.32725,1.17075 -52.38765,-0.59338 -12.42675,-3.6078 -12.3123,-17.8206 -9.07095,-27.99405 2.779035,-11.5626 2.568195,-25.0824 7.13244,-35.47635 10.024455,-5.32465 19.0764,-10.71945 5.007555,-17.7786 -7.641795,-5.59503 1.153005,-15.0066 2.77473,-22.0647 6.89829,-10.4328 -9.3471,-8.81433 -15.6303,-9.44454 -6.67968,-1.59012 -18.6753,-2.45668 -13.39485,-12.19575 -0.396816,-13.6332 10.43889,-24.31065 14.69265,-36.84345 4.11012,-10.20726 10.153395,-19.78725 9.865695,-31.1682 -9.7398,-0.94809 -20.4918,-1.59012 -20.47185,-13.8894 -5.31468,-8.23872 1.802325,-17.01315 -2.541945,-24.2382 -5.069505,-8.776 -6.59148,-21.085046 -1.546545,-30.055196 7.746795,-4.96524 10.320975,-16.2141 19.3956,-20.48865 7.598115,-6.41088 19.1667,-4.741275 28.35945,-8.80656 8.223495,-2.872485 14.5656,-4.382595 23.00655,-0.762038 13.709849,1.96224 27.392399,-3.314745 37.613099,-12.3648 13.0095,4.26363 29.65725,4.981935 39.42225,-6.053145 8.20806,-5.18532 19.7316,0.905478 27.468,-6.410565 7.2996,-4.003125 13.0095,-11.2266 22.26525,-8.834385 h 332.934 c 22.75665,-0.29275 26.0694,24.1941 24.2886,41.6388 V 554.53788 c 0.29298,22.75665 -24.1941,26.0694 -41.6388,24.2886 H 68.575791 z"
   style="fill:#ffffff;fill-rule:evenodd;stroke:#000000;stroke-width:21.18815041;stroke-miterlimit:4;stroke-opacity:1;stroke-dasharray:none"
   inkscape:connector-curvature="0" />
</g>
</svg>