<?xml version="1.0" encoding="UTF-8" standalone="no"?>
<!-- Created with Inkscape (http://www.inkscape.org/) -->

<svg
   xmlns:dc="http://purl.org/dc/elements/1.1/"
   xmlns:cc="http://creativecommons.org/ns#"
   xmlns:rdf="http://www.w3.org/1999/02/22-rdf-syntax-ns#"
   xmlns:svg="http://www.w3.org/2000/svg"
   xmlns="http://www.w3.org/2000/svg"
   xmlns:sodipodi="http://sodipodi.sourceforge.net/DTD/sodipodi-0.dtd"
   xmlns:inkscape="http://www.inkscape.org/namespaces/inkscape"
   id="svg1948"
   height="24.999453"
   width="25.000616"
   version="1.0"
   inkscape:version="0.48.3.1 r9886"
   sodipodi:docname="shield_hwy_nm2.svg">
  <defs
     id="defs46" />
  <sodipodi:namedview
     pagecolor="#ffffff"
     bordercolor="#666666"
     borderopacity="1"
     objecttolerance="10"
     gridtolerance="10"
     guidetolerance="10"
     inkscape:pageopacity="0"
     inkscape:pageshadow="2"
     inkscape:window-width="1294"
     inkscape:window-height="1044"
     id="namedview44"
     showgrid="false"
     fit-margin-top="0"
     fit-margin-left="0"
     fit-margin-right="0"
     fit-margin-bottom="0"
     inkscape:zoom="15.79"
     inkscape:cx="1.2387817"
     inkscape:cy="12.446285"
     inkscape:window-x="0"
     inkscape:window-y="27"
     inkscape:window-maximized="0"
     inkscape:current-layer="g6623" />
  <metadata
     id="metadata6621">
    <rdf:RDF>
      <cc:Work
         rdf:about="">
        <dc:format>image/svg+xml</dc:format>
        <dc:type
           rdf:resource="http://purl.org/dc/dcmitype/StillImage" />
      </cc:Work>
    </rdf:RDF>
  </metadata>
  <g
     id="g6623"
     transform="matrix(0.037167,0,0,0.037167,1.2961993,1.4053772)">
    <path
       id="path6627"
       d="m 615.22427,298.56232 a 313.76903,313.76903 0 0 1 -627.53805,0 313.76903,313.76903 0 1 1 627.53805,0 z"
       inkscape:connector-curvature="0"
       style="fill:#ffffff;stroke:#000000;stroke-width:20.17919122;stroke-miterlimit:4;stroke-opacity:1;stroke-dasharray:none" />
    <path
       id="path6629"
       d="m 300,73.594 c -124.98,0 -226.41,101.43 -226.41,226.41 0.004,124.98 101.43,226.41 226.41,226.41 124.98,0 226.41,-101.43 226.41,-226.41 C 526.41,175.024 424.98,73.594 300,73.594 z M 300,90 c 115.92,0 210,94.08 210,210 0,115.92 -94.08,210 -210,210 C 184.08,510 90,415.92 90,300 90,184.08 184.08,90 300,90 z"
       inkscape:connector-curvature="0"
       style="fill:#ff0000" />
    <rect
       id="rect6631"
       transform="scale(-1,-1)"
       height="15.625"
       width="53.125"
       y="-385.16"
       x="-95.625"
       style="fill:#ff0000" />
    <rect
       id="rect6633"
       transform="scale(-1,-1)"
       height="15.625"
       width="62.5"
       y="-333.59"
       x="-87.5"
       style="fill:#ff0000" />
    <rect
       id="rect6635"
       transform="scale(-1,-1)"
       height="15.625"
       width="62.5"
       y="-282.03"
       x="-87.5"
       style="fill:#ff0000" />
    <rect
       id="rect6637"
       transform="scale(-1,-1)"
       height="15.625"
       width="53.125"
       y="-230.47"
       x="-95.625"
       style="fill:#ff0000" />
    <rect
       id="rect6639"
       height="15.625"
       width="53.125"
       y="214.84"
       x="504.38"
       style="fill:#ff0000" />
    <rect
       id="rect6641"
       height="15.625"
       width="62.5"
       y="266.41"
       x="512.5"
       style="fill:#ff0000" />
    <rect
       id="rect6643"
       height="15.625"
       width="62.5"
       y="317.97"
       x="512.5"
       style="fill:#ff0000" />
    <rect
       id="rect6645"
       height="15.625"
       width="53.125"
       y="369.53"
       x="504.38"
       style="fill:#ff0000" />
    <rect
       id="rect6647"
       transform="matrix(0,-1,1,0,0,0)"
       height="15.625"
       width="52.011002"
       y="214.84"
       x="-94.511002"
       style="fill:#ff0000" />
    <rect
       id="rect6649"
       transform="matrix(0,-1,1,0,0,0)"
       height="15.625"
       width="62.5"
       y="266.41"
       x="-87.5"
       style="fill:#ff0000" />
    <rect
       id="rect6651"
       transform="matrix(0,-1,1,0,0,0)"
       height="15.625"
       width="62.5"
       y="317.97"
       x="-87.5"
       style="fill:#ff0000" />
    <rect
       id="rect6653"
       transform="matrix(0,-1,1,0,0,0)"
       height="15.625"
       width="50.341"
       y="369.53"
       x="-92.841003"
       style="fill:#ff0000" />
    <rect
       id="rect6655"
       transform="matrix(0,1,-1,0,0,0)"
       height="15.625"
       width="50.341"
       y="-385.16"
       x="507.16"
       style="fill:#ff0000" />
    <rect
       id="rect6657"
       transform="matrix(0,1,-1,0,0,0)"
       height="15.625"
       width="62.5"
       y="-333.59"
       x="512.5"
       style="fill:#ff0000" />
    <rect
       id="rect6659"
       transform="matrix(0,1,-1,0,0,0)"
       height="15.625"
       width="62.5"
       y="-282.03"
       x="512.5"
       style="fill:#ff0000" />
    <rect
       id="rect6661"
       transform="matrix(0,1,-1,0,0,0)"
       height="15.625"
       width="50.341"
       y="-230.47"
       x="507.16"
       style="fill:#ff0000" />
  </g>
</svg>
