<?xml version="1.0" encoding="UTF-8" standalone="no"?>
<!-- Created with Inkscape (http://www.inkscape.org/) -->

<svg
   xmlns:dc="http://purl.org/dc/elements/1.1/"
   xmlns:cc="http://creativecommons.org/ns#"
   xmlns:rdf="http://www.w3.org/1999/02/22-rdf-syntax-ns#"
   xmlns:svg="http://www.w3.org/2000/svg"
   xmlns="http://www.w3.org/2000/svg"
   xmlns:sodipodi="http://sodipodi.sourceforge.net/DTD/sodipodi-0.dtd"
   xmlns:inkscape="http://www.inkscape.org/namespaces/inkscape"
   id="svg2"
   height="25.000004"
   width="31.269476"
   version="1.0"
   inkscape:version="0.48.3.1 r9886"
   sodipodi:docname="shield_hwy_nm3.svg">
  <defs
     id="defs34299" />
  <sodipodi:namedview
     pagecolor="#ffffff"
     bordercolor="#666666"
     borderopacity="1"
     objecttolerance="10"
     gridtolerance="10"
     guidetolerance="10"
     inkscape:pageopacity="0"
     inkscape:pageshadow="2"
     inkscape:window-width="2164"
     inkscape:window-height="1149"
     id="namedview34297"
     showgrid="false"
     inkscape:zoom="27.695862"
     inkscape:cx="-4.7989884"
     inkscape:cy="15.345983"
     inkscape:window-x="83"
     inkscape:window-y="60"
     inkscape:window-maximized="0"
     inkscape:current-layer="layer1"
     fit-margin-top="0"
     fit-margin-left="0"
     fit-margin-right="0"
     fit-margin-bottom="0" />
  <metadata
     id="metadata7">
    <rdf:RDF>
      <cc:Work
         rdf:about="">
        <dc:format>image/svg+xml</dc:format>
        <dc:type
           rdf:resource="http://purl.org/dc/dcmitype/StillImage" />
        <dc:title />
      </cc:Work>
    </rdf:RDF>
  </metadata>
  <g
     id="layer1"
     transform="translate(1.0471213,-575.82395)">
    <path
       id="rect2183"
       d="m 10.964043,576.66197 h 7.247148 c 6.155374,0 11.110447,5.20143 11.110447,11.66199 0,6.46099 -4.955402,11.66197 -11.110447,11.66197 h -7.247148 c -6.155374,0 -11.11044829,-5.20142 -11.11044829,-11.66197 0,-6.461 4.95540269,-11.66199 11.11044829,-11.66199 z"
       style="fill:#ffffff;fill-opacity:1;stroke:#000000;stroke-width:0.75;stroke-miterlimit:4;stroke-dasharray:none"
       inkscape:connector-curvature="0" />
    <rect
       id="rect6631"
       transform="scale(-1,-1)"
       height="0.58072001"
       width="1.9744999"
       y="-591.5484"
       x="-4.2534165"
       style="fill:#ff0000" />
    <rect
       id="rect6633"
       transform="scale(-1,-1)"
       height="0.58074999"
       width="2.1375999"
       y="-589.62836"
       x="-3.7661166"
       style="fill:#ff0000" />
    <rect
       id="rect6635"
       transform="scale(-1,-1)"
       height="0.58074999"
       width="2.1375999"
       y="-587.71838"
       x="-3.7661166"
       style="fill:#ff0000" />
    <rect
       id="rect6637"
       transform="scale(-1,-1)"
       height="0.58074999"
       width="1.8304"
       y="-585.7984"
       x="-4.1093163"
       style="fill:#ff0000" />
    <rect
       id="rect6639"
       height="0.58074999"
       width="1.7686"
       y="585.21838"
       x="25.044916"
       style="fill:#ff0000" />
    <rect
       id="rect6641"
       height="0.58074999"
       width="2.0553"
       y="587.13837"
       x="25.408916"
       style="fill:#ff0000" />
    <rect
       id="rect6643"
       height="0.58074999"
       width="2.0346999"
       y="589.0484"
       x="25.428915"
       style="fill:#ff0000" />
    <rect
       id="rect6645"
       height="0.58074999"
       width="1.8098"
       y="590.96838"
       x="25.003916"
       style="fill:#ff0000" />
    <rect
       id="rect6647"
       transform="matrix(0,-1,1,0,0,0)"
       height="0.58072001"
       width="1.8304"
       y="11.319917"
       x="-580.14838"
       style="fill:#ff0000" />
    <rect
       id="rect6649"
       transform="matrix(0,-1,1,0,0,0)"
       height="0.58072001"
       width="2.0346999"
       y="13.235917"
       x="-580.06836"
       style="fill:#ff0000" />
    <rect
       id="rect6651"
       transform="matrix(0,-1,1,0,0,0)"
       height="0.58072001"
       width="2.0346999"
       y="15.151917"
       x="-580.06836"
       style="fill:#ff0000" />
    <rect
       id="rect6653"
       transform="matrix(0,-1,1,0,0,0)"
       height="0.58072001"
       width="1.8304"
       y="17.068916"
       x="-580.14838"
       style="fill:#ff0000" />
    <rect
       id="rect6655"
       transform="matrix(0,1,-1,0,0,0)"
       height="0.58072001"
       width="1.7686"
       y="-17.649916"
       x="596.51837"
       style="fill:#ff0000" />
    <rect
       id="rect6657"
       transform="matrix(0,1,-1,0,0,0)"
       height="0.58072001"
       width="2.1171"
       y="-15.732917"
       x="596.50836"
       style="fill:#ff0000" />
    <rect
       id="rect6659"
       transform="matrix(0,1,-1,0,0,0)"
       height="0.58072001"
       width="2.1377001"
       y="-13.816916"
       x="596.4884"
       style="fill:#ff0000" />
    <rect
       id="rect6661"
       transform="matrix(0,1,-1,0,0,0)"
       height="0.58072001"
       width="1.8098"
       y="-11.899917"
       x="596.46838"
       style="fill:#ff0000" />
    <path
       id="path3057-5"
       d="m 11.861917,579.8884 h 5.4523 c 4.6309,0 8.3591,3.7556 8.3591,8.4205 0,4.665 -3.7281,8.4205 -8.3591,8.4205 h -5.4523 c -4.6309004,0 -8.3591004,-3.7556 -8.3591004,-8.4205 0,-4.665 3.7281,-8.4205 8.3591004,-8.4205 z"
       inkscape:connector-curvature="0"
       style="fill:none;stroke:#ff0000;stroke-width:0.58099997" />
  </g>
</svg>
