<?xml version="1.0" encoding="UTF-8" standalone="no"?>
<!-- Generator: Adobe Illustrator 15.0.1, SVG Export Plug-In . SVG Version: 6.00 Build 0)  -->

<svg
   xmlns:dc="http://purl.org/dc/elements/1.1/"
   xmlns:cc="http://creativecommons.org/ns#"
   xmlns:rdf="http://www.w3.org/1999/02/22-rdf-syntax-ns#"
   xmlns:svg="http://www.w3.org/2000/svg"
   xmlns="http://www.w3.org/2000/svg"
   xmlns:sodipodi="http://sodipodi.sourceforge.net/DTD/sodipodi-0.dtd"
   xmlns:inkscape="http://www.inkscape.org/namespaces/inkscape"
   id="Layer_1"
   xml:space="preserve"
   height="19.9"
   viewBox="0 0 19.9 19.9"
   width="19.9"
   version="1.1"
   y="0px"
   x="0px"
   enable-background="new 0 0 30 30"
   inkscape:version="0.48.3.1 r9886"
   sodipodi:docname="shield_hwy_us2.svg"><metadata
   id="metadata9"><rdf:RDF><cc:Work
       rdf:about=""><dc:format>image/svg+xml</dc:format><dc:type
         rdf:resource="http://purl.org/dc/dcmitype/StillImage" /></cc:Work></rdf:RDF></metadata><defs
   id="defs7" /><sodipodi:namedview
   pagecolor="#ffffff"
   bordercolor="#666666"
   borderopacity="1"
   objecttolerance="10"
   gridtolerance="10"
   guidetolerance="10"
   inkscape:pageopacity="0"
   inkscape:pageshadow="2"
   inkscape:window-width="1156"
   inkscape:window-height="1444"
   id="namedview5"
   showgrid="false"
   inkscape:zoom="31.466667"
   inkscape:cx="11.282237"
   inkscape:cy="8.0194406"
   inkscape:window-x="65"
   inkscape:window-y="27"
   inkscape:window-maximized="0"
   inkscape:current-layer="Layer_1" />
<path
   d="M 4.3848472,0.94517481 C 5.3811496,1.9841048 6.3281384,2.6561078 7.1806795,2.6561078 c 0.926929,0 2.315233,-0.672839 2.7782795,-1.71093299 0.460538,1.03892999 1.888126,1.71093299 2.812547,1.71093299 0.855049,0 1.797858,-0.672839 2.775773,-1.71093299 l 3.364192,3.05075799 c -0.501495,0.209792 -1.192721,1.480245 -1.208602,2.465682 0,1.111646 1.727649,2.608607 1.727649,5.4462292 0,3.808015 -2.689682,6.821997 -4.721571,6.821997 -0.903526,0 -1.404185,-0.157135 -1.813739,-0.332658 -0.427106,-0.159643 -0.748898,-0.335166 -1.033078,-0.335166 -0.553316,0 -1.33314,0.600122 -1.902335,1.271289 -0.5708685,-0.672003 -1.3356475,-1.271289 -1.8881275,-1.271289 -0.28418,0 -0.605972,0.175523 -1.03475,0.335166 -0.4078824,0.176359 -0.9219142,0.332658 -1.8137386,0.332658 -2.0318886,0 -4.71906332,-3.013982 -4.71906332,-6.821997 0,-2.8384582 1.72681272,-4.3354192 1.72681272,-5.4462292 0,-0.985437 -0.6937341,-2.25589 -1.1935569,-2.465682 L 4.3848472,0.94517481 z"
   id="path3"
   style="fill:#ffffff;stroke:#282324;stroke-width:0.75;stroke-miterlimit:4;stroke-dasharray:none"
   inkscape:connector-curvature="0" />
</svg>