<?xml version="1.0" encoding="UTF-8" standalone="no"?>
<!-- Generator: Adobe Illustrator 14.0.0, SVG Export Plug-In . SVG Version: 6.00 Build 43363)  -->

<svg
   xmlns:dc="http://purl.org/dc/elements/1.1/"
   xmlns:cc="http://creativecommons.org/ns#"
   xmlns:rdf="http://www.w3.org/1999/02/22-rdf-syntax-ns#"
   xmlns:svg="http://www.w3.org/2000/svg"
   xmlns="http://www.w3.org/2000/svg"
   xmlns:sodipodi="http://sodipodi.sourceforge.net/DTD/sodipodi-0.dtd"
   xmlns:inkscape="http://www.inkscape.org/namespaces/inkscape"
   id="Layer_1"
   xml:space="preserve"
   height="19.299999"
   viewBox="-291 381 26.200001 19.3"
   width="26.200001"
   version="1.1"
   y="0px"
   x="0px"
   enable-background="new -291 381 30 30"
   inkscape:version="0.48.3.1 r9886"
   sodipodi:docname="shield_hwy_us3.svg"><metadata
   id="metadata9"><rdf:RDF><cc:Work
       rdf:about=""><dc:format>image/svg+xml</dc:format><dc:type
         rdf:resource="http://purl.org/dc/dcmitype/StillImage" /></cc:Work></rdf:RDF></metadata><defs
   id="defs7" /><sodipodi:namedview
   pagecolor="#ffffff"
   bordercolor="#666666"
   borderopacity="1"
   objecttolerance="10"
   gridtolerance="10"
   guidetolerance="10"
   inkscape:pageopacity="0"
   inkscape:pageshadow="2"
   inkscape:window-width="1107"
   inkscape:window-height="1216"
   id="namedview5"
   showgrid="false"
   inkscape:zoom="27.404932"
   inkscape:cx="11.878012"
   inkscape:cy="10.224499"
   inkscape:window-x="183"
   inkscape:window-y="160"
   inkscape:window-maximized="0"
   inkscape:current-layer="Layer_1" />

<path
   style="fill:#ffffff;stroke:#37332f;stroke-width:0.75;stroke-miterlimit:4;stroke-dasharray:none"
   d="m -285.89685,381.51977 -3.8267,3.12116 c 0.7826,0.76035 1.16698,1.49088 1.16698,2.46972 0,1.10298 -2.00822,2.47323 -2.00822,5.29222 0,3.78232 3.62792,6.78505 6.35064,6.78505 1.19587,0 1.8675,-0.17839 2.41545,-0.35274 0.5733,-0.15826 1.00114,-0.32574 1.38421,-0.32574 0.55435,0 1.28124,0.33884 1.92696,0.78699 0.21518,0.14952 0.43283,0.32218 0.62423,0.48849 0.20813,-0.17651 0.40817,-0.33475 0.59701,-0.48849 0.64573,-0.44815 1.34551,-0.78699 1.8998,-0.78699 0.38299,0 0.81095,0.16748 1.38413,0.32574 0.54801,0.17435 1.24671,0.35274 2.44261,0.35274 2.72269,0 6.3236,-3.00273 6.3236,-6.78505 0,-2.81899 -1.98121,-4.18924 -1.98121,-5.29222 0,-0.97884 0.38442,-1.70937 1.16701,-2.46972 l -3.82672,-3.12116 c -1.3366,1.03176 -2.81948,1.68272 -3.96244,1.68272 -0.81944,0 -1.85112,-0.2677 -2.76829,-0.75997 -0.42196,-0.30731 -0.81646,-0.59192 -1.2755,-0.92275 -0.46834,0.3672 -0.92446,0.64853 -1.30271,0.92275 -0.9227,0.49977 -1.94244,0.75997 -2.76836,0.75997 -1.14289,0 -2.6259,-0.65096 -3.96248,-1.68272 z"
   id="path3"
   inkscape:connector-curvature="0"
   sodipodi:nodetypes="ccssscssccscsssccscccsc" /></svg>