<?xml version="1.0" encoding="UTF-8" standalone="no"?>
<!-- Created with Inkscape (http://www.inkscape.org/) -->

<svg
   xmlns:dc="http://purl.org/dc/elements/1.1/"
   xmlns:cc="http://creativecommons.org/ns#"
   xmlns:rdf="http://www.w3.org/1999/02/22-rdf-syntax-ns#"
   xmlns:svg="http://www.w3.org/2000/svg"
   xmlns="http://www.w3.org/2000/svg"
   xmlns:sodipodi="http://sodipodi.sourceforge.net/DTD/sodipodi-0.dtd"
   xmlns:inkscape="http://www.inkscape.org/namespaces/inkscape"
   id="svg2"
   height="21.742483"
   width="17.147955"
   version="1.0"
   inkscape:version="0.48.3.1 r9886"
   sodipodi:docname="shield_hwy_nv2.svg">
  <defs
     id="defs4904" />
  <sodipodi:namedview
     pagecolor="#ffffff"
     bordercolor="#666666"
     borderopacity="1"
     objecttolerance="10"
     gridtolerance="10"
     guidetolerance="10"
     inkscape:pageopacity="0"
     inkscape:pageshadow="2"
     inkscape:window-width="1338"
     inkscape:window-height="1128"
     id="namedview4902"
     showgrid="false"
     inkscape:zoom="25.792851"
     inkscape:cx="8.0665384"
     inkscape:cy="8.9095274"
     inkscape:window-x="65"
     inkscape:window-y="27"
     inkscape:window-maximized="0"
     inkscape:current-layer="svg2"
     fit-margin-top="0"
     fit-margin-left="0"
     fit-margin-right="0"
     fit-margin-bottom="0" />
  <metadata
     id="metadata7">
    <rdf:RDF>
      <cc:Work
         rdf:about="">
        <dc:format>image/svg+xml</dc:format>
        <dc:type
           rdf:resource="http://purl.org/dc/dcmitype/StillImage" />
        <cc:license
           rdf:resource="" />
      </cc:Work>
    </rdf:RDF>
  </metadata>
  <g
     id="layer2"
     transform="matrix(1.05,0,0,1.05,-806.40314,-1174.8352)"
     style="fill:none;stroke:#000000;stroke-width:1.42857145999999990;stroke-miterlimit:4;stroke-opacity:1;stroke-dasharray:none;stroke-linejoin:round">
    <path
       style="fill:none;stroke:#000000;stroke-width:1.42857146;stroke-linejoin:round;stroke-miterlimit:4;stroke-opacity:1;stroke-dasharray:none"
       d="m 783.49,1138.8 c -0.19234,-0.6829 -0.89695,-1.1726 -0.90696,-1.9808 -0.78875,-0.4316 0.50693,-1.5223 0.66732,-0.5446 0.50215,-0.1505 0.33863,-0.9877 0.36818,-1.4608 -0.0134,-5.0696 -0.0268,-10.1392 -0.0403,-15.2088 -4.95367,0 -9.90733,0 -14.861,0 0,3.1524 0,6.3047 0,9.4571 4.86738,3.2601 9.73189,6.5245 14.60106,9.7819 0.0471,0.064 0.17209,0.045 0.17166,-0.044 z"
       id="path2226"
       inkscape:connector-curvature="0" />
  </g>
  <path
     id="path2226-6"
     d="m 16.261365,20.904748 c 0.0587,-0.15435 -0.02415,-0.354585 -0.231525,-0.559545 -0.41203,-0.4074 -0.473056,-0.498015 -0.473056,-0.702555 0,-0.14217 -0.0231,-0.21735 -0.09209,-0.299985 -0.06227,-0.07455 -0.09838,-0.17787 -0.111741,-0.319305 -0.01764,-0.187425 -0.03696,-0.223965 -0.187404,-0.353535 -0.157973,-0.135975 -0.166341,-0.153405 -0.143357,-0.298305 0.01617,-0.10185 0.05912,-0.18018 0.127407,-0.231945 0.0567,-0.04305 0.168746,-0.14532 0.249092,-0.227535 0.113148,-0.115815 0.170772,-0.14658 0.25557,-0.136605 0.09324,0.0105 0.117379,0.0399 0.162771,0.19656 0.0503,0.173355 0.167538,0.304185 0.272485,0.304185 0.08159,0 0.169722,-0.118545 0.169722,-0.22827 0,-0.05775 0.02772,-0.145215 0.06174,-0.19362 0.04462,-0.06405 0.0778,-0.209475 0.07696,-0.52584 L 16.354059,0.74999733 H 0.75000919 V 10.679952 L 15.941409,20.859808 c 0.230129,0.154245 0.267614,0.1806 0.319326,0.0441 z"
     style="fill:#ffffff;stroke:none"
     inkscape:connector-curvature="0" />
</svg>
