<?xml version="1.0" encoding="UTF-8" standalone="no"?>
<!-- Created with Inkscape (http://www.inkscape.org/) -->

<svg
   xmlns:dc="http://purl.org/dc/elements/1.1/"
   xmlns:cc="http://creativecommons.org/ns#"
   xmlns:rdf="http://www.w3.org/1999/02/22-rdf-syntax-ns#"
   xmlns:svg="http://www.w3.org/2000/svg"
   xmlns="http://www.w3.org/2000/svg"
   xmlns:sodipodi="http://sodipodi.sourceforge.net/DTD/sodipodi-0.dtd"
   xmlns:inkscape="http://www.inkscape.org/namespaces/inkscape"
   id="svg3882"
   height="22.3"
   width="27.88"
   version="1.0"
   inkscape:version="0.48.3.1 r9886"
   sodipodi:docname="shield_hwy_ny3.svg">
  <defs
     id="defs4929" />
  <sodipodi:namedview
     pagecolor="#ffffff"
     bordercolor="#666666"
     borderopacity="1"
     objecttolerance="10"
     gridtolerance="10"
     guidetolerance="10"
     inkscape:pageopacity="0"
     inkscape:pageshadow="2"
     inkscape:window-width="1300"
     inkscape:window-height="1438"
     id="namedview4927"
     showgrid="false"
     inkscape:zoom="21.16592"
     inkscape:cx="14.088281"
     inkscape:cy="10.057085"
     inkscape:window-x="65"
     inkscape:window-y="24"
     inkscape:window-maximized="0"
     inkscape:current-layer="g2401" />
  <metadata
     id="metadata4748">
    <rdf:RDF>
      <cc:Work
         rdf:about="">
        <dc:format>image/svg+xml</dc:format>
        <dc:type
           rdf:resource="http://purl.org/dc/dcmitype/StillImage" />
      </cc:Work>
    </rdf:RDF>
  </metadata>
  <g
     id="layer1"
     transform="matrix(.010324 0 0 .010324 0 -.000010272)">
    <g
       id="g2401">
      <path
         id="rect4804"
         d="m 1349.999,58.79 c -221.0355,0 -410.87545,32.6004 -616.58095,151.368 -204.9495,118.3245 -404.754,180.9885 -682.794,180.9885 v 1198.05 c 0,106.4175 0.207165,106.47 70.05495,160.293 122.0415,93.975 1229.34,340.935 1229.34,340.935 0,0 1107.225,-246.9705 1229.34,-341.019 69.8481,-53.8241 70.0549,-53.8671 70.0549,-160.293 v -1198.05 c -278.04,0 -477.8445,-62.66715 -682.794,-180.999 -205.695,-118.7655 -395.535,-151.368 -616.56,-151.368 z"
         style="fill:#ffffff;stroke:#000000;stroke-width:76.27857971;stroke-miterlimit:4;stroke-opacity:1;stroke-dasharray:none"
         inkscape:connector-curvature="0" />
    </g>
  </g>
</svg>
