<?xml version="1.0" encoding="UTF-8" standalone="no"?>
<!-- Created with Inkscape (http://www.inkscape.org/) -->

<svg
   xmlns:dc="http://purl.org/dc/elements/1.1/"
   xmlns:cc="http://creativecommons.org/ns#"
   xmlns:rdf="http://www.w3.org/1999/02/22-rdf-syntax-ns#"
   xmlns:svg="http://www.w3.org/2000/svg"
   xmlns="http://www.w3.org/2000/svg"
   xmlns:sodipodi="http://sodipodi.sourceforge.net/DTD/sodipodi-0.dtd"
   xmlns:inkscape="http://www.inkscape.org/namespaces/inkscape"
   id="svg2"
   height="21.837299"
   width="21.619301"
   version="1.0"
   inkscape:version="0.48.3.1 r9886"
   sodipodi:docname="shield_hwy_oh2.svg">
  <defs
     id="defs2995" />
  <sodipodi:namedview
     pagecolor="#ffffff"
     bordercolor="#666666"
     borderopacity="1"
     objecttolerance="10"
     gridtolerance="10"
     guidetolerance="10"
     inkscape:pageopacity="0"
     inkscape:pageshadow="2"
     inkscape:window-width="1442"
     inkscape:window-height="1076"
     id="namedview2993"
     showgrid="false"
     fit-margin-top="0"
     fit-margin-left="0"
     fit-margin-right="0"
     fit-margin-bottom="0"
     inkscape:zoom="10.58296"
     inkscape:cx="-5.9149918"
     inkscape:cy="10.81007"
     inkscape:window-x="-14"
     inkscape:window-y="244"
     inkscape:window-maximized="0"
     inkscape:current-layer="g3766" />
  <title
     id="title4">Ohio State Route 00</title>
  <metadata
     id="metadata6">
    <rdf:RDF>
      <cc:Work
         rdf:about="">
        <dc:format>image/svg+xml</dc:format>
        <dc:type
           rdf:resource="http://purl.org/dc/dcmitype/StillImage" />
        <dc:title>Ohio State Route 00</dc:title>
      </cc:Work>
    </rdf:RDF>
  </metadata>
  <g
     id="g3766"
     transform="matrix(0.037167,0,0,0.037167,-0.33999195,-0.12277115)">
    <path
       id="path8"
       d="M 33.569415,33.432554 H 187.59391 c 11.97315,7.522935 26.0316,13.4085 41.39205,17.96235 15.36045,4.554165 33.2157,-5.921895 50.40105,-3.72225 8.59247,1.09977 15.52845,7.453215 24.28335,7.632765 8.75532,0.179603 19.3305,-5.814585 28.05285,-5.58495 17.44575,0.459249 22.7178,17.47515 49.58205,15.0213 16.08915,-1.46958 27.75675,-10.383975 43.7199,-16.3107 15.96315,-5.92725 36.2754,-8.064525 53.1363,-7.866705 32.2854,0.378714 64.5708,-16.14375 96.8562,-23.1357 l 1.68462,228.227996 c -17.0142,11.41245 -4.26037,30.59385 -5.39805,48.3966 -0.62176,9.72962 -1.94019,19.79355 -9.37828,24.9795 -7.40922,5.16579 -6.70058,17.40585 -3.21059,31.4475 4.62,18.5871 -3.024,37.24245 -6.68503,55.46415 -3.66093,18.2217 -11.1048,35.37975 -25.8069,50.2719 -14.38185,14.56875 -35.8617,39.14295 -61.24755,42.97965 -32.76945,4.95317 -43.71045,19.99095 -61.3116,39.1608 -8.11734,8.84058 -11.89965,11.34315 -30.8616,13.02735 -10.57035,0.93889 -7.83689,9.10203 -31.40655,10.49937 -23.2596,1.37897 -44.8392,14.86275 -58.6866,14.83965 -38.829,-0.063 -70.6755,-51.702 -121.842,-58.8525 -25.536,-3.57 -49.1715,-14.889 -72.3219,-27.2265 -11.62665,-6.195 -22.77765,-18.48 -35.6223,-20.706 -15.46965,-2.667 -18.82125,-15.246 -29.62995,-20.5485 V 44.415134 c -0.367815,-7.45143 4.31844,-11.11215 10.26816,-10.983 z"
       style="fill:#ffffff;stroke:#000000;stroke-width:20.17919121999999987;stroke-miterlimit:4;stroke-opacity:1;stroke-dasharray:none;stroke-linejoin:round"
       inkscape:connector-curvature="0" />
  </g>
</svg>
