<?xml version="1.0" encoding="UTF-8" standalone="no"?>
<svg
   xmlns:dc="http://purl.org/dc/elements/1.1/"
   xmlns:cc="http://creativecommons.org/ns#"
   xmlns:rdf="http://www.w3.org/1999/02/22-rdf-syntax-ns#"
   xmlns:svg="http://www.w3.org/2000/svg"
   xmlns="http://www.w3.org/2000/svg"
   xmlns:sodipodi="http://sodipodi.sourceforge.net/DTD/sodipodi-0.dtd"
   xmlns:inkscape="http://www.inkscape.org/namespaces/inkscape"
   version="1.1"
   width="22.06649"
   height="34.345345"
   overflow="visible"
   viewBox="0 0 22.06649 34.345344"
   enable-background="new 0.0 0.0 210.0 340.0"
   id="svg4222"
   inkscape:version="0.48.3.1 r9886"
   sodipodi:docname="shield_hwy_on3.svg"
   style="overflow:visible">
  <metadata
     id="metadata4420">
    <rdf:RDF>
      <cc:Work
         rdf:about="">
        <dc:format>image/svg+xml</dc:format>
        <dc:type
           rdf:resource="http://purl.org/dc/dcmitype/StillImage" />
      </cc:Work>
    </rdf:RDF>
  </metadata>
  <sodipodi:namedview
     pagecolor="#ffffff"
     bordercolor="#666666"
     borderopacity="1"
     objecttolerance="10"
     gridtolerance="10"
     guidetolerance="10"
     inkscape:pageopacity="0"
     inkscape:pageshadow="2"
     inkscape:window-width="1634"
     inkscape:window-height="1389"
     id="namedview4418"
     showgrid="false"
     inkscape:zoom="32.175549"
     inkscape:cx="5.7993489"
     inkscape:cy="20.184983"
     inkscape:window-x="768"
     inkscape:window-y="76"
     inkscape:window-maximized="0"
     inkscape:current-layer="g4230"
     fit-margin-top="0"
     fit-margin-left="0"
     fit-margin-right="0"
     fit-margin-bottom="0" />
  <defs
     id="defs4224">
    <inkscape:perspective
       sodipodi:type="inkscape:persp3d"
       inkscape:vp_x="0 : 170 : 1"
       inkscape:vp_y="0 : 1000 : 0"
       inkscape:vp_z="210 : 170 : 1"
       inkscape:persp3d-origin="105 : 113.33333 : 1"
       id="perspective4422" />
  </defs>
  <g
     id="g4228"
     transform="translate(0.47695923,-306.50403)">
    <g
       transform="matrix(0.10023519,0,0,0.10023519,0.01667004,306.21732)"
       id="g4230">
      <path
         style="fill:#f5f5f5;stroke:none;fill-opacity:1"
         d="m 204.52885,100.70257 c 11.80579,-1.361749 10.82239,15.47444 10.55537,23.44084 -0.69747,32.59264 2.84217,65.75551 -6.38109,97.54878 -13.70999,54.45055 -55.43869,97.25515 -103.55307,123.81577 C 57.035699,318.94733 15.306991,276.14273 1.5969968,221.69218 c -9.2280743,-31.84754 -5.6804862,-65.06621 -6.3810876,-97.71341 -0.2947957,-7.9259 -1.1652073,-24.650909 10.5553677,-23.2762 14.6719611,0 26.2711101,-0.30543 40.9430711,-0.30543 3.341901,-7.18231 -1.730793,-4.866879 -0.614056,-13.899021 2.797037,-6.194826 -5.72258,-13.19256 -6.105787,-20.042428 1.070974,-7.891285 -7.923287,-16.520324 -4.246,-23.227056 16.700035,-11.371912 31.45793,-12.884919 48.369952,-21.210263 0,-7.212834 0.310066,-11.945143 0.310066,-19.1579775 9.886868,0 30.005887,10e-8 39.892757,10e-8 0,7.2128344 -0.31007,12.5652754 -0.31007,19.7781084 16.77015,7.312059 33.77225,9.340843 50.80431,20.682503 2.62589,8.075233 -5.76061,11.642733 -3.41096,18.716569 -0.13356,8.948353 -8.82077,18.314425 -5.98766,24.409003 2.48203,8.089811 -2.94253,9.177219 1.77907,14.561422 16.35168,0 23.77179,-0.30543 37.33288,-0.30543 z"
         id="path4232"
         inkscape:connector-curvature="0"
         sodipodi:nodetypes="cccccccccccccccccccc" />
      <path
         d="m 155.79886,59.601346 0.15,1.148703 c 0.23333,2.236142 0.23333,4.380387 0,6.432738 -0.21812,3.458946 -2.31395,6.374551 -3.9,9.419367 l -0.55,0.505429 c -6.1,5.605667 -11.58333,6.616531 -16.45,3.032577 l -2.35,-2.113614 c 0.33333,-0.673903 0.33333,-1.363125 0,-2.067666 1.4,-2.144247 3.06668,-3.813695 5,-5.008346 0.0667,2.358674 0.8,4.104703 2.2,5.238087 1.03333,-2.205511 1.25001,-4.564181 0.65,-7.076012 -0.76667,-1.776667 -1.88334,-2.236146 -3.35,-1.378444 -1.5,0.857695 -2.86667,2.037031 -4.1,3.538006 0.80001,-4.441652 0.23334,-7.765234 -1.7,-9.970744 -1.93334,2.20551 -2.5,5.529092 -1.7,9.970744 -1.23334,-1.500975 -2.58334,-2.680311 -4.05,-3.538006 -1.5,-0.857699 -2.61667,-0.398223 -3.35,1.378444 -0.63334,2.511831 -0.43334,4.870501 0.6,7.076012 1.4,-1.133384 2.13333,-2.879413 2.2,-5.238087 1.93333,1.194651 3.6,2.864099 5,5.008346 -0.53333,0.643274 -0.53333,1.347806 0,2.113614 -6.6,7.229172 -14.23334,6.815642 -22.9,-1.2406 -0.40001,-0.398219 -0.68334,-1.194656 -0.85,-2.389302 l 8.55,3.308265 0,-8.822041 -8.55,3.032577 2.35,-7.443597 -3.10066,-4.962398 c 3.83333,-2.20551 11.80066,-3.001941 17.70066,-2.389303 6.23333,-2.573095 11.88332,-2.573095 16.95,0 5.90001,-0.73517 11.08334,0.07658 15.55,2.435251 z m -3.5,17.644082 c -1.56666,3.124477 -2.35,6.509324 -2.35,10.154536 l -89.600006,0 c 0,-3.645221 -0.78333,-7.030064 -2.35,-10.154536 6.20001,8.485084 13.16667,9.664422 20.9,3.538005 8.36666,7.382334 16.91667,6.800324 25.650006,-1.746028 l 1.2,0 c 8.73333,8.546347 17.28333,9.128358 25.65,1.746028 7.73333,6.126417 14.7,4.947079 20.9,-3.538005 z m -44.65,-25.817341 -5,0 0,-21.877086 -3.250006,0 c 2.366666,-1.378444 3.599996,-2.864101 3.700006,-4.456969 l 0,-1.654132 -1.75,0 c -1.833346,0.0919 -3.500006,1.225284 -5.000006,3.400161 l 0,-10.338329 c 1.5,2.174879 3.16666,3.308266 5.000006,3.400162 l 1.75,0 0,-1.746029 c -0.1,-1.684765 -1.33333,-3.216369 -3.700006,-4.594813 l 11.500006,0 c -2.36667,1.378444 -3.60001,2.910048 -3.7,4.594813 l 0,1.746029 1.75,0 c 1.83333,-0.0919 3.5,-1.225283 5,-3.400162 l 0,10.338329 c -1.5,-2.174879 -3.16667,-3.308266 -5,-3.400161 l -1.75,0 0,1.654132 c 0.1,1.592868 1.33333,3.078525 3.7,4.456969 l -3.25,0 z m -2.32921,8.127311 -3.72079,4.962398 2.35,7.443597 -8.550006,-3.032577 0,8.822041 8.550006,-3.308265 c -0.16667,1.194646 -0.45,1.991083 -0.85,2.389302 -8.666666,8.056242 -16.300006,8.469772 -22.900006,1.2406 0.53333,-0.765808 0.53333,-1.47034 0,-2.113614 1.4,-2.144247 3.06666,-3.813695 5,-5.008346 0.0667,2.358674 0.80001,4.104703 2.2,5.238087 1.03334,-2.205511 1.25,-4.564181 0.65,-7.076012 -0.76667,-1.776667 -1.88333,-2.236146 -3.35,-1.378444 -1.5,0.857695 -2.86667,2.037031 -4.1,3.538006 0.8,-4.441652 0.23334,-7.765234 -1.7,-9.970744 -1.93333,2.20551 -2.5,5.529092 -1.7,9.970744 -1.23333,-1.500975 -2.58333,-2.680311 -4.05,-3.538006 -1.5,-0.857699 -2.61667,-0.398223 -3.35,1.378444 -0.63333,2.511831 -0.43334,4.870501 0.6,7.076012 1.4,-1.133384 2.13333,-2.879413 2.2,-5.238087 1.93333,1.194651 3.6,2.864099 5,5.008346 -0.33334,0.704541 -0.33334,1.393763 0,2.067666 l -2.3,2.113614 c -4.9,3.583954 -10.4,2.573095 -16.5,-3.032577 l -0.5,-0.505429 c -1.585048,-3.322777 -1.950143,-3.37563 -3.95,-9.419367 -0.23333,-2.052351 -0.23333,-4.196596 0,-6.432738 l 0.15,-1.148703 c 4.46667,-2.358671 9.65,-3.170421 15.55,-2.435251 5.06667,-2.573095 10.71667,-2.573095 16.95,0 5.9,-0.612642 14.487466,0.183791 18.320796,2.389303 z"
         id="path4234"
         inkscape:connector-curvature="0"
         style="fill:#000000;stroke-linecap:round;stroke-linejoin:round"
         sodipodi:nodetypes="ccccsccccccccccccccccccccccccccccccccccccccccccccccccccccccccccccccccccccccccccccccccccccccccccc" />
      <path
         d="m 203.89886,178.3 0,-58.05 c 0.0333,-4.46667 -2.24999,-6.75 -6.85,-6.85 l -45.95,0 c -30.1,1.86666 -60.733345,1.86666 -91.900005,0 l -45.95,0 c -4.5999998,0.1 -6.8833335,2.38333 -6.8499998,6.85 l 0,58.05 1.2,17.1 c 1.133334,7.03333 2.6166668,13.88334 4.4499998,20.55 12.066665,44.2 39.199996,79.23332 81.4,105.1 3.76667,2.33333 7.666675,4.58333 11.700005,6.75 4.03333,-2.16667 7.95,-4.41667 11.75,-6.75 42.16667,-25.86668 69.3,-60.9 81.4,-105.1 1.8,-6.66667 3.26667,-13.51668 4.4,-20.55 z"
         id="path4388"
         inkscape:connector-curvature="0"
         style="fill:none;stroke:#000000;stroke-width:7.98122888;stroke-linecap:round;stroke-linejoin:round;stroke-miterlimit:4;stroke-dasharray:none"
         sodipodi:nodetypes="cccccccccccccccc" />
      <path
         d="m 58.512125,100.33485 93.273455,0"
         id="path4392"
         inkscape:connector-curvature="0"
         style="fill:none;stroke:#000000;stroke-width:7.21656275;stroke-linecap:butt;stroke-linejoin:round"
         sodipodi:nodetypes="cc" />
      <path
         sodipodi:type="arc"
         style="fill:#000000;fill-opacity:1;stroke:none"
         id="path3152"
         sodipodi:cx="10.642285"
         sodipodi:cy="3.6427603"
         sodipodi:rx="0.9113692"
         sodipodi:ry="0.82698315"
         d="m 11.553655,3.6427603 c 0,0.4567302 -0.408034,0.8269831 -0.91137,0.8269831 -0.503335,0 -0.9113689,-0.3702529 -0.9113689,-0.8269831 0,-0.4567302 0.4080339,-0.8269832 0.9113689,-0.8269832 0.503336,0 0.91137,0.370253 0.91137,0.8269832 z"
         transform="matrix(7.8824322,0,0,7.5233175,21.261762,11.421037)" />
      <path
         d="m 152.29902,75.049592 c -0.78405,2.709866 -1.09306,6.321423 -1.54992,10.255768 1.14643,4.290632 1.38188,6.058269 0.13438,13.069019 -0.41143,2.312281 0.36225,3.304081 2.10818,7.458361 0.54592,1.299 0.97511,1.56463 -1.1442,5.67254 m 2.80154,-41.605687 0,0.04998 m -1.15,2.7 -0.0499,0.149997 M 60.999016,44.849593 c 3.900001,-2.700003 7.566666,-3.916673 11,-3.650003 3.4,0.26667 6.55,0.966671 9.45,2.100002 2.83333,1.133334 5.650001,2.450001 8.45,3.950001 2.76667,1.466667 5.36667,2.350001 7.8,2.65 5.316964,1.401182 10.213874,1.122109 14.900004,0 2.43333,-0.299995 5.05,-1.183333 7.85,-2.65 2.76667,-1.5 5.58333,-2.816667 8.45,-3.950001 2.86667,-1.133336 6.01667,-1.833332 9.45,-2.100002 0.92872,-0.0728 1.87614,-0.035 2.84219,0.11352 2.57053,0.39518 5.27314,1.574012 8.10781,3.536483 3.6,2.466666 5.76667,6.133334 6.5,11 l 0.14995,1.25 c 0.23335,2.433333 0.23335,4.766664 0,7 -0.23335,2.03333 -0.66663,3.966665 -1.3,5.8 l -1.15,2.75 -0.59999,1.149999 -0.45004,0.950006 M 54.499017,55.849593 c 0.733333,-4.866666 2.899999,-8.533334 6.499999,-11 m -0.65,41.25 c -0.971605,4.768637 -1.558935,6.624285 0.04918,12.455768 0.611472,2.217409 0.282596,2.748759 -1.937539,6.541819 -0.614465,1.0498 -0.38248,3.73266 0.549029,5.62533 M 57.999012,75.049592 c 1.566666,3.400006 2.35,7.083341 2.35,11.050001 m -5.999999,-29 c -0.233332,2.433333 -0.233332,4.766664 0,7 m 0.149997,-8.25 -0.149997,1.25 m 1.349999,12.85 0,-0.04998 c -0.666663,-1.833355 -1.116663,-3.76669 -1.349995,-5.80002 m 2.449999,8.55 -1.1,-2.7 c -0.666667,-1.866665 -1.116667,-3.816661 -1.349999,-5.85 m 2.549999,8.699999 0.500004,1 0.450002,0.950006 m -0.950006,-1.950006 -0.1,-0.149999"
         id="path4388-0"
         inkscape:connector-curvature="0"
         style="fill:none;stroke:#000000;stroke-width:4.98826805;stroke-linecap:round;stroke-linejoin:round;stroke-miterlimit:4;stroke-dasharray:none;overflow:visible"
         sodipodi:nodetypes="ccssccccccccccccscscccccccccccsscccccccccccccccccc" />
    </g>
  </g>
</svg>
