<?xml version="1.0" encoding="UTF-8" standalone="no"?>
<!-- Created with Inkscape (http://www.inkscape.org/) -->

<svg
   xmlns:dc="http://purl.org/dc/elements/1.1/"
   xmlns:cc="http://creativecommons.org/ns#"
   xmlns:rdf="http://www.w3.org/1999/02/22-rdf-syntax-ns#"
   xmlns:svg="http://www.w3.org/2000/svg"
   xmlns="http://www.w3.org/2000/svg"
   xmlns:sodipodi="http://sodipodi.sourceforge.net/DTD/sodipodi-0.dtd"
   xmlns:inkscape="http://www.inkscape.org/namespaces/inkscape"
   id="svg17636"
   height="22.3"
   width="27.88"
   version="1.1"
   inkscape:version="0.48.3.1 r9886"
   sodipodi:docname="shield_hwy_or3.svg">
  <defs
     id="defs7929" />
  <sodipodi:namedview
     pagecolor="#ffffff"
     bordercolor="#666666"
     borderopacity="1"
     objecttolerance="10"
     gridtolerance="10"
     guidetolerance="10"
     inkscape:pageopacity="0"
     inkscape:pageshadow="2"
     inkscape:window-width="1189"
     inkscape:window-height="1120"
     id="namedview7927"
     showgrid="false"
     inkscape:zoom="21.16592"
     inkscape:cx="12.136436"
     inkscape:cy="9.8999333"
     inkscape:window-x="65"
     inkscape:window-y="24"
     inkscape:window-maximized="0"
     inkscape:current-layer="g18161" />
  <metadata
     id="metadata17641">
    <rdf:RDF>
      <cc:Work
         rdf:about="">
        <dc:format>image/svg+xml</dc:format>
        <dc:type
           rdf:resource="http://purl.org/dc/dcmitype/StillImage" />
        <dc:title />
      </cc:Work>
    </rdf:RDF>
  </metadata>
  <g
     id="layer1"
     transform="translate(0 -1030.1)">
    <g
       id="g18161"
       transform="matrix(.037167 0 0 .037167 0 1013.2)">
      <path
         id="path8754"
         d="m 730.66654,629.39462 -2.12026,-9.45871 -2.12016,-8.9333 -3.18035,-8.93329 -3.18034,-8.9333 -4.24043,-8.40777 -4.24053,-8.40777 -5.3005,-8.40777 -5.30051,-7.35682 -5.83065,-7.35672 -6.36069,-7.35683 -6.89073,-6.30577 -7.42077,-6.30588 -7.42077,-5.78036 -7.95081,-5.25483 -8.48095,-4.72941 -8.48085,-4.20388 -8.48085,-4.20389 -9.01089,-3.15294 -8.48085,-2.62741 -8.48085,-2.102 -8.48096,-2.62741 -8.48085,-2.102 -8.48085,-2.10189 -8.48085,-2.10189 -8.48085,-2.10189 -8.48085,-1.57647 -8.48085,-2.10199 -8.48085,-1.57647 -8.48095,-1.57647 -9.01089,-1.57647 -8.48085,-1.57647 -8.48085,-1.57637 -8.48085,-1.05105 -9.011,-1.05094 -8.48085,-1.57647 -9.01089,-1.05084 -8.48085,-0.52555 -8.48095,-1.05094 -9.01089,-0.52552 -8.48085,-1.05094 -9.011,-0.52552 -8.48085,-0.52545 h -9.01089 l -8.48085,-0.5255 h -9.01099 -8.48085 l -9.01089,-0.52552 -8.48085,0.52552 h -9.011 -8.48085 l -9.01089,0.5255 -8.48095,0.52545 -9.01089,0.52552 -8.48085,0.52548 -9.011,0.52546 -8.48085,1.05105 -9.01089,0.5255 -8.48085,1.05094 -8.48085,1.05105 -9.01089,1.05084 -8.48085,1.57647 -9.01099,1.05095 -8.48085,1.57647 -8.48096,1.57647 -8.48085,1.57647 -8.48085,1.57647 -9.01089,2.10189 -8.48085,1.57647 -8.48085,2.10189 -8.48095,2.10189 -8.48085,2.10199 -8.48085,2.10189 -8.48085,2.10189 -8.48085,2.62742 -8.48085,2.10199 -7.95081,3.15294 -7.95081,3.15294 -7.95081,3.67836 -7.95081,3.67847 -7.420772,4.7292 -7.42077,4.72941 -6.890835,5.25483 -6.360585,5.25493 -6.36069,6.30588 -6.36069,6.30578 -5.300505,6.30588 -5.83065,6.8313 -4.77057,6.8314 -4.770465,7.35672 -3.710385,7.88235 -4.240425,7.88235 -3.180345,7.88214 -2.650305,7.88235 -2.6502,8.40777 -2.120265,8.40777 -1.59012,8.40788 -1.06008,8.93319 -0.530092,8.40777 -0.530019,10.50945 0.530019,10.50945 v 10.50945 l 1.060185,10.50945 1.060185,10.50945 1.06008,10.50945 1.59012,9.98424 1.59012,10.50945 2.12016,10.50945 2.650305,9.98424 2.650305,9.98434 2.650305,9.98424 3.710385,9.98424 3.18024,9.98424 3.710385,9.98424 4.240425,9.45882 4.240425,9.98424 4.240425,9.45872 5.30061,9.45882 4.770465,8.93329 5.30061,8.9333 5.830545,8.93329 5.300505,8.93319 5.30061,6.8313 4.770465,6.8313 5.30061,6.8313 5.830549,6.83141 5.3005,6.30577 5.83065,6.30588 5.83055,6.30588 6.36069,5.78036 5.83065,5.78035 6.36069,5.78036 6.36058,5.78035 6.89073,5.25483 6.36059,5.25494 6.89083,5.25483 6.89073,5.25483 7.42077,4.72941 6.89073,4.72941 7.42077,4.20388 7.42077,4.20389 7.42077,4.20388 7.42077,4.20389 7.95081,3.67842 7.95081,3.6784 7.42077,3.1528 7.95092,3.6786 7.95081,2.6274 8.48085,3.1529 7.95081,2.6274 8.48085,2.6274 7.95081,2.102 8.48085,2.1019 8.48085,2.1021 7.95081,1.5763 8.48085,1.5765 8.48085,1.051 8.48085,1.0509 8.48085,1.051 9.01099,0.5255 8.48085,0.5255 8.48085,0.5255 10.6008,-0.5255 10.6008,-0.5255 10.6008,-1.0509 10.6008,-1.051 10.07097,-1.5765 10.6008,-2.1019 10.6008,-2.1019 10.07108,-2.6275 10.07097,-2.6275 10.6008,-3.1528 10.07107,-3.6784 9.54104,-3.6784 10.07107,-3.6785 9.54104,-4.2038 9.54103,-4.72932 9.54093,-4.72941 9.011,-5.25483 9.54093,-5.25483 9.01099,-5.78036 8.48085,-5.78035 8.48085,-6.30578 8.48085,-6.30588 8.48085,-6.30588 7.95081,-7.35672 7.95081,-6.8313 7.42077,-7.35682 7.42077,-7.35683 6.89073,-7.88224 7.42088,-7.88235 6.36058,-8.40777 6.36069,-8.40777 6.36069,-8.40777 4.77057,-7.35683 5.30051,-6.8313 4.24053,-7.35682 4.77046,-7.35683 4.24043,-7.88224 4.24053,-7.35683 3.71038,-7.88235 4.24053,-7.88235 3.18024,-7.88224 3.71049,-7.88235 3.18035,-7.88235 3.18034,-8.40777 2.6502,-7.88235 2.65031,-8.40777 2.12016,-8.40777 2.6503,-8.40777 1.59012,-8.40777 2.12016,-8.40777 1.59012,-8.40788 1.06008,-8.40777 1.59012,-8.93329 1.06019,-8.40777 0.53003,-8.40777 0.53011,-8.9333 0.53003,-8.40777 v -8.93319 -8.40787 -8.93319 l -0.53003,-8.40777 -1.06019,-8.9333 -0.53002,-8.40777"
         style="fill:#ffffff;fill-rule:evenodd;stroke:#000000;stroke-width:21.18815041;stroke-miterlimit:4;stroke-opacity:1;stroke-dasharray:none"
         inkscape:connector-curvature="0" />
    </g>
  </g>
</svg>
