<?xml version="1.0" encoding="UTF-8" standalone="no"?>
<!-- Created with Inkscape (http://www.inkscape.org/) -->

<svg
   xmlns:dc="http://purl.org/dc/elements/1.1/"
   xmlns:cc="http://creativecommons.org/ns#"
   xmlns:rdf="http://www.w3.org/1999/02/22-rdf-syntax-ns#"
   xmlns:svg="http://www.w3.org/2000/svg"
   xmlns="http://www.w3.org/2000/svg"
   xmlns:sodipodi="http://sodipodi.sourceforge.net/DTD/sodipodi-0.dtd"
   xmlns:inkscape="http://www.inkscape.org/namespaces/inkscape"
   xml:space="preserve"
   height="27.558994"
   width="23.072565"
   version="1.1"
   id="svg12402"
   inkscape:version="0.48.3.1 r9886"
   sodipodi:docname="shield_hwy_pe2.svg"><sodipodi:namedview
   pagecolor="#ffffff"
   bordercolor="#666666"
   borderopacity="1"
   objecttolerance="10"
   gridtolerance="10"
   guidetolerance="10"
   inkscape:pageopacity="0"
   inkscape:pageshadow="2"
   inkscape:window-width="1338"
   inkscape:window-height="933"
   id="namedview12414"
   showgrid="false"
   inkscape:zoom="19.977784"
   inkscape:cx="13.029653"
   inkscape:cy="14.854517"
   inkscape:window-x="361"
   inkscape:window-y="284"
   inkscape:window-maximized="0"
   inkscape:current-layer="svg12402"
   fit-margin-top="0"
   fit-margin-left="0"
   fit-margin-right="0"
   fit-margin-bottom="0" /><metadata
   id="metadata12404"><rdf:RDF><cc:Work
       rdf:about=""><dc:format>image/svg+xml</dc:format><dc:type
         rdf:resource="http://purl.org/dc/dcmitype/StillImage" /><dc:title /></cc:Work></rdf:RDF></metadata><defs
   id="defs12406">
</defs><path
   d="M 11.23725,27.555071 C 7.1443775,27.514608 3.0054533,25.347203 1.0636537,21.679016 0.08205994,19.873838 -0.08101029,17.766765 0.03032978,15.744632 0.04055808,10.88425 -0.04818132,6.0197696 0.06430998,1.1619503 0.28750181,0.28033466 1.3146857,-0.13115309 2.1529598,0.0368824 8.7371699,0.065829 15.324962,-0.0235008 21.906613,0.084608 22.755325,0.29715277 23.201914,1.2774255 23.03961,2.1013243 23.0036,7.5736621 23.11417,13.048574 22.9779,18.518868 c -0.435731,3.606424 -3.115066,6.666078 -6.410753,8.022014 -1.675781,0.720998 -3.506342,1.059206 -5.329588,1.014137 z"
   id="path12408"
   inkscape:connector-curvature="0"
   style="fill:#ffffff;stroke:none" /><path
   style="text-indent:0;text-align:start;text-transform:none;direction:ltr;block-progression:tb;baseline-shift:baseline;color:#000000;fill:#008d61;enable-background:accumulate"
   d="m 1.9137263,0.99468038 c -0.5471756,0 -0.98634624,0.43990992 -0.98634624,0.98633992 v 0.34676 h -0.001541 V 17.186101 c 0,5.01508 4.67986754,9.23467 10.61259094,9.23467 5.932379,0 10.593851,-4.22028 10.593851,-9.23467 v -0.29744 -7.1357207 h 0.0015 v -0.9355 -3.51075 -3.32586 c 0,-0.54644 -0.440694,-0.98634992 -0.987875,-0.98634992 H 1.9136745 z"
   id="path12410"
   inkscape:connector-curvature="0" /><path
   style="text-indent:0;text-align:start;text-transform:none;direction:ltr;block-progression:tb;baseline-shift:baseline;color:#000000;fill:#ffffff;enable-background:accumulate"
   d="m 15.90115,1.8885503 c -0.03944,-5e-5 -0.08245,0.007 -0.129458,0.0231 -0.376024,0.12905 -0.312356,0.59743 -0.35755,0.75209 -0.150428,-0.084 -0.317781,-0.63891 -0.793713,-0.36988 -0.475922,0.26904 -0.10326,0.90931 -0.10326,0.90931 0,0 -0.167655,-0.19239 -0.470054,0.0385 -0.302398,0.23092 -0.126375,0.30515 -0.126375,0.30515 0,0 -0.549099,-0.1002 -0.696607,0.12329 -0.147518,0.2235 -0.02432,0.50807 0.0863,0.60108 0.14271,0.11993 0.192643,0.20652 0.192643,0.20652 0,0 -0.612866,-0.0334 -0.639596,0.38375 -0.02672,0.41718 0.463889,0.51014 0.463889,0.51014 0,0 -0.379369,0.16752 -0.363715,0.43923 0.01565,0.2717 0.247538,0.25633 0.249668,0.32518 0.0049,0.15896 0.0049,0.1283 -0.05856,0.26509 -0.06788,0.14634 -0.142073,0.0829 -0.203434,0.36063 -0.06137,0.27776 0.183451,0.48179 0.23734,0.57484 0.05389,0.0931 -0.143001,0.56991 0.312859,0.56409 0.455855,-0.006 0.421431,-0.22666 0.619524,-0.32981 0.31854,-0.0294 0.347238,-0.1908 0.448482,-0.24967 -0.0065,0.0477 -0.07598,0.16555 -0.129458,0.27895 -0.05169,0.1096 -0.06008,0.33762 0.220389,0.36834 0.280463,0.0307 0.402242,-0.11866 0.402242,-0.11866 0.07241,0.57272 -0.0068,1.10816 -0.03699,1.65518 0,0 0.02747,0.14387 -0.288201,0.24813 h -3.436824 c -0.09539,-0.0515 -0.174081,-0.12602 -0.181858,-0.24813 -0.03914,-0.29769 -0.02133,-0.56784 -0.0062,-0.83839 0.03717,-0.003 0.06327,-0.0265 0.09093,-0.0462 0,0 0.220645,0.17223 0.372962,0.0693 0.152316,-0.10287 0.06011,-0.35138 0.06011,-0.35138 0,0 0.340427,0.0516 0.443856,-0.0678 0.103566,-0.11935 -0.05524,-0.41772 -0.05524,-0.41772 0.02767,-0.1303 -0.134182,-0.42039 -0.127919,-0.50703 0.03032,-0.0357 0.319655,0.27294 0.520889,0.24967 0.201259,-0.0233 0.255612,-0.0351 0.385292,-0.3144 0.129685,-0.27927 -0.13254,-0.6288 -0.13254,-0.6288 0,0 0.225927,-0.24835 0.192643,-0.42998 -0.03328,-0.18163 -0.362177,-0.44232 -0.362177,-0.44232 0,0 0.158427,-0.27587 -0.03545,-0.53633 -0.193817,-0.26054 -0.638166,-0.39611 -0.638166,-0.39611 0,0 0.511075,-0.49944 0.39762,-0.8384 -0.113439,-0.33896 -0.457723,-0.30207 -0.457723,-0.30207 0,0 -0.123807,-0.41291 -0.371419,-0.48854 -0.247622,-0.0756 -0.445394,0.16336 -0.445394,0.16336 0,0 -0.293493,-0.28665 -0.590279,-0.19881 -0.296772,0.0878 -0.2882,0.6288 -0.2882,0.6288 -0.1045629,0.0875 -0.2106592,0.17547 -0.2527515,0.23272 -0.039557,0.10427 -0.091079,0.16856 -0.143326,0.33751 -0.120492,-0.003 -0.1648628,-0.0981 -0.1571989,-0.25583 0,0 0.2260607,-0.29288 0.1926433,-0.47776 -0.033413,-0.18488 0.00862,-0.36911 -0.3005298,-0.46543 -0.3091461,-0.0963 -0.733595,0.79213 -0.733595,0.79213 0,0 -0.1475574,-0.62174 -0.5532909,-0.5702 -0.4057286,0.0515 -0.2696325,0.63244 -0.2404219,0.80293 -0.018895,0.17051 -0.016029,0.10326 -0.095552,0.11096 -0.079524,0.008 -0.1010758,-0.10659 -0.1094252,-0.18031 -0.00835,-0.0737 0.2084149,-0.63881 -0.143326,-0.76905 -0.3517458,-0.13022 -0.770583,0.54712 -0.770583,0.54712 0,0 -0.1544914,-0.65853 -0.5409615,-0.65192 -0.3864603,0.007 -0.5163029,0.68738 -0.5163029,0.68738 0,0 -0.5496414,-0.065 -0.7227945,0.18032 -0.1731679,0.24535 0.2650805,0.77369 0.2650805,0.77369 0,0 -0.4080119,-0.19026 -0.625738,0.0586 -0.2177063,0.24882 0.1140463,0.66425 0.1140463,0.66425 0,0 -0.2592365,0.1618 -0.3745058,0.27895 -0.1045527,0.10627 -0.2292367,0.59235 0.00771,0.7043 0.1971805,0.0932 0.4121053,0.15264 0.4854698,0.0956 -0.032617,0.0622 -0.115728,0.21983 -0.1895659,0.33443 -0.089619,0.13909 -0.025842,0.40315 0.070894,0.53016 0.096736,0.12701 0.3052446,0.16191 0.3852915,0.11713 0.080047,-0.0448 0.1988129,-0.0755 0.1988129,-0.0755 0,0 0.05958,0.0607 0.00616,0.12176 -0.053421,0.0611 -0.070593,0.21732 -0.047777,0.34984 0.022815,0.13253 0.030887,0.30395 0.3667975,0.30207 0.3359105,-0.002 0.4623498,-0.27433 0.4623498,-0.27433 0,0 0.1248763,0.0515 0.2049726,0.0478 0.080101,-0.004 0.1618199,-0.0709 0.1618199,-0.0709 0.029856,0.47123 0.050195,0.94354 0.024659,1.41481 -0.00717,0.1344 -0.061928,0.20195 -0.143326,0.24813 H 1.9134866 1.5189481 v 7.4331007 c 0,4.64545 4.3666039,8.64434 10.0193039,8.64434 5.652701,0 10.002044,-3.9983 10.002044,-8.64434 V 9.7532003 h -0.394539 -4.270583 c -0.16904,-0.0309 -0.309816,-0.0543 -0.332892,-0.24813 -0.136115,-0.32535 -0.07882,-1.17977 -0.01079,-1.87711 0,0 0.08233,-0.0455 0.221928,0.0755 0.139593,0.12103 0.142029,0.50171 0.764418,0.30977 0.62239,-0.19193 -0.02636,-0.7762 0.07398,-0.83839 0.12972,0.0702 0.236546,0.54303 0.747453,0.46235 0.465058,-0.1349 0.174253,-0.55492 0.146414,-0.97402 -0.02784,-0.4191 -0.437691,-0.49317 -0.437691,-0.49317 0,0 0.786315,0.0401 0.787548,-0.43307 0.0012,-0.47317 -0.256248,-0.45379 -0.770583,-0.55787 0.270357,-0.14421 0.497069,-0.30067 0.510138,-0.50856 0.03709,-0.0566 0.02658,-0.081 0.01541,-0.12022 -0.01117,-0.0392 -0.119472,0.006 -0.143326,-0.037 -0.02386,-0.0426 0.03641,-0.17275 0.0046,-0.21577 -0.03179,-0.043 -0.174648,-0.0104 -0.209599,-0.0508 -0.03495,-0.0404 0.02404,-0.0794 -0.01233,-0.14333 -0.02366,-0.0416 0.01953,-0.14384 -0.06165,-0.15565 -0.08118,-0.0118 -0.07244,-0.15412 -0.07244,-0.15412 0,0 0.08878,-0.44497 -0.05086,-0.64882 -0.139637,-0.20386 -0.740105,-0.0483 -0.702772,-0.15258 0.166851,-0.46561 -0.0042,-0.75051 -0.180314,-0.84919 -0.176082,-0.0987 -0.536325,0.10017 -0.536325,0.10017 0,0 -0.03424,-0.0637 -0.164908,-0.0663 -0.130666,-0.003 -0.186478,0.0601 -0.186478,0.0601 0,0 -0.09691,-0.34797 -0.372962,-0.34831 z m -8.2359898,5.81649 c -0.00419,0.0707 -0.019428,0.41365 0.073976,0.51936 0.1037932,0.11747 0.2076209,0.14705 0.3729621,0.1048 0.1653462,-0.0423 0.4392298,-0.32519 0.4392298,-0.32519 0.024937,0.51379 0.024807,1.01524 -0.00616,1.50112 6.165e-4,0.11695 -0.07979,0.19335 -0.1602813,0.24812 H 7.380042 c -0.082671,-0.0661 -0.089822,-0.14657 -0.1094252,-0.24812 -0.0596,-0.57894 -0.08088,-1.08138 -0.084767,-1.54886 0,0 0.065794,0.0945 0.2774099,-0.0108 0.1587129,-0.0789 0.1939896,-0.18978 0.2018952,-0.24042 z m 1.6675169,0.33289 c 0,0 0.077448,0.32307 0.2465865,0.34984 0.1691387,0.0268 0.4099502,-0.33751 0.4099502,-0.33751 0,0 0.06793,0.36909 0.1803142,0.42998 0.112389,0.0609 0.2882,-0.0462 0.2882,-0.0462 0.01364,0.35674 0.02847,0.71436 -0.01233,1.07112 0.0089,0.13746 -0.09418,0.20118 -0.178774,0.24813 H 9.3342306 c -0.060483,-0.0629 -0.084022,-0.15325 -0.1032606,-0.24813 -0.064034,-0.46627 -0.079919,-0.94985 -0.060108,-1.44406 0.054116,0.0126 0.107704,-0.005 0.1618199,-0.0231 z"
   id="path12412"
   inkscape:connector-curvature="0" />
</svg>