<?xml version="1.0" encoding="UTF-8" standalone="no"?>
<!-- Created with Inkscape (http://www.inkscape.org/) -->

<svg
   xmlns:dc="http://purl.org/dc/elements/1.1/"
   xmlns:cc="http://creativecommons.org/ns#"
   xmlns:rdf="http://www.w3.org/1999/02/22-rdf-syntax-ns#"
   xmlns:svg="http://www.w3.org/2000/svg"
   xmlns="http://www.w3.org/2000/svg"
   xmlns:sodipodi="http://sodipodi.sourceforge.net/DTD/sodipodi-0.dtd"
   xmlns:inkscape="http://www.inkscape.org/namespaces/inkscape"
   xml:space="preserve"
   height="27.459373"
   width="27.59428"
   version="1.1"
   id="svg12402"
   inkscape:version="0.48.3.1 r9886"
   sodipodi:docname="shield_hwy_pe3.svg"><sodipodi:namedview
   pagecolor="#ffffff"
   bordercolor="#666666"
   borderopacity="1"
   objecttolerance="10"
   gridtolerance="10"
   guidetolerance="10"
   inkscape:pageopacity="0"
   inkscape:pageshadow="2"
   inkscape:window-width="1677"
   inkscape:window-height="1170"
   id="namedview12414"
   showgrid="false"
   inkscape:zoom="19.977784"
   inkscape:cx="-0.62864765"
   inkscape:cy="14.804707"
   inkscape:window-x="65"
   inkscape:window-y="27"
   inkscape:window-maximized="0"
   inkscape:current-layer="svg12402"
   fit-margin-top="0"
   fit-margin-left="0"
   fit-margin-right="0"
   fit-margin-bottom="0" /><metadata
   id="metadata12404"><rdf:RDF><cc:Work
       rdf:about=""><dc:format>image/svg+xml</dc:format><dc:type
         rdf:resource="http://purl.org/dc/dcmitype/StillImage" /><dc:title /></cc:Work></rdf:RDF></metadata><defs
   id="defs12406">
</defs><path
   d="M 13.439504,27.455467 C 8.5445179,27.415147 3.5944559,25.255579 1.2721064,21.600653 0.09814186,19.802 -0.09688654,17.702543 0.03627376,15.68772 c 0.012233,-4.842813 -0.093898,-9.6897103 0.04064,-14.5299698 0.2669325,-0.87842887 1.49542184,-1.28842921 2.49797904,-1.12100113 7.8745702,0.028842 15.7534242,-0.060165 23.6249342,0.0475531 1.015041,0.21177648 1.549152,1.18850573 1.35504,2.00942643 -0.04307,5.4525568 0.08917,10.9076784 -0.07381,16.3581984 -0.521126,3.593387 -3.725552,6.641983 -7.66712,7.993016 -2.004197,0.718392 -4.193509,1.055378 -6.374068,1.010471 z"
   id="path12408"
   inkscape:connector-curvature="0"
   style="fill:#ffffff;stroke:none" /><path
   style="text-indent:0;text-align:start;text-transform:none;direction:ltr;block-progression:tb;baseline-shift:baseline;color:#000000;fill:#008d61;enable-background:accumulate"
   d="m 2.2470238,0.94487117 c -0.6567839,0 -1.1839278,0.43990993 -1.1839278,0.98633993 v 0.34676 H 1.061246 V 17.136292 c 0,5.01508 5.6173235,9.23467 12.738472,9.23467 7.120734,0 12.715977,-4.22028 12.715977,-9.23467 v -0.29744 -7.1357209 h 0.0018 v -0.9355 -3.51075 -3.32586 c 0,-0.54644 -0.528973,-0.98634993 -1.185763,-0.98634993 H 2.2469617 z"
   id="path12410"
   inkscape:connector-curvature="0" />
<path
   style="text-indent:0;text-align:start;text-transform:none;direction:ltr;block-progression:tb;baseline-shift:baseline;color:#000000;fill:#ffffff;enable-background:accumulate"
   d="M 18.15625,1.84375 C 17.518998,1.8964651 17.888576,3.1225144 17.301566,2.2282778 16.187396,1.9510346 17.172568,3.4157239 16.3125,3.1875 c -0.05037,0.5539348 -1.31995,0.1381785 -0.75,1.03125 0.539865,0.3049524 -1.085486,0.4316651 -0.213145,1.0001925 0.557025,0.049746 -0.601837,0.6000202 0.119395,0.8748075 -0.506849,0.6255228 -0.04349,2.4430031 0.90625,1.4375 0.709321,-0.3052946 0.180732,-0.1596458 0.371478,0.3237416 C 17.697529,7.5256515 17.477168,9.3467922 17,9.71875 c -1.145833,0 -2.291667,0 -3.4375,0 C 13.133325,9.2309401 13.290432,8.4420342 13.917774,8.5278908 13.876661,8.1537009 14.694699,8.3182927 14.272511,7.6867056 13.763514,6.8140443 15.239403,8.1137411 15.09768,7.0032767 14.999712,6.4733025 15.129942,5.9991172 14.807079,5.5507975 14.771112,4.8313337 13.676154,4.9408472 14.484387,4.2435847 14.510417,3.7184232 13.879987,3.3630964 13.483425,3.1536531 13.129056,3.4425961 12.234122,2.7424721 12.34375,3.75 12.044759,4.2407863 11.578331,4.5634274 11.953551,3.7449884 12.079321,2.4661132 10.953986,3.6842856 10.906666,3.8374787 10.409685,2.6634116 10.006565,3.9317991 10.010594,4.265695 10.18055,3.538272 9.5761314,2.878902 9.0989732,3.7687972 9.0459674,3.7624388 8.388385,2.6982677 8.0894524,3.565125 8.0273444,4.1521942 6.6169836,3.8561896 7.4365858,4.7610648 7.2686036,4.6288625 6.370688,5.0594266 7,5.59375 6.0259833,5.9102161 6.8028526,6.7620669 7.0467078,6.808475 6.4979214,7.4034502 7.3713907,7.7205623 7.59375,7.6875 7.2145317,9.1301804 9.2732603,7.2200592 8.770772,8.749985 9.010551,9.6034242 8.455316,9.8600704 7.7431035,9.71875 c -1.9872845,0 -3.974569,0 -5.9618535,0 0.020341,2.684685 -0.042234,5.372217 0.0342,8.054985 0.383081,3.381451 3.3100464,5.844398 6.3285375,6.98599 4.4595793,1.671374 9.7658313,1.345692 13.7995953,-1.274374 2.30779,-1.478384 4.081,-4.07686 3.868917,-6.903057 0,-2.287848 0,-4.575696 0,-6.863544 -2.229167,0 -4.458333,0 -6.6875,0 C 18.473964,9.4993314 18.595053,7.6945217 19,7.65625 19.595393,8.7158675 20.233891,7.2658337 19.943817,7.2392034 20.836927,8.4387719 21.238261,6.3593273 20.3125,6.125 c 0.988687,0.2270912 0.983635,-1.1874694 0,-1 0.921175,-0.3753832 0.318407,-0.845685 0.04768,-1.3013 C 20.574557,3.2128448 20.16136,2.8483334 19.59375,2.9375 19.9991,1.4020637 18.590918,2.635472 18.15625,1.84375 z M 9.9375,7.65625 C 9.6323401,8.6521831 10.838059,7.9885418 10.820932,8.1607884 10.886334,8.8717648 10.996389,10.012365 9.9778681,9.71875 9.248245,9.8359746 9.2424697,7.8850911 9.71875,7.90625 L 9.8846757,7.7706563 9.9375,7.65625 z M 11.4375,8 c 0.243056,0.1500447 0.560879,0.6040878 0.8125,0 0.324936,0.539624 0.664833,0.6038822 0.46875,1.46875 -0.133135,0.3609558 -1.135974,0.4098575 -1.21875,0 C 11.43398,8.9824515 11.418481,8.490078 11.4375,8 z"
   id="path12412"
   inkscape:connector-curvature="0" /></svg>