<?xml version="1.0" encoding="UTF-8" standalone="no"?>
<!-- Created with Inkscape (http://www.inkscape.org/) -->

<svg
   xmlns:dc="http://purl.org/dc/elements/1.1/"
   xmlns:cc="http://creativecommons.org/ns#"
   xmlns:rdf="http://www.w3.org/1999/02/22-rdf-syntax-ns#"
   xmlns:svg="http://www.w3.org/2000/svg"
   xmlns="http://www.w3.org/2000/svg"
   xmlns:sodipodi="http://sodipodi.sourceforge.net/DTD/sodipodi-0.dtd"
   xmlns:inkscape="http://www.inkscape.org/namespaces/inkscape"
   id="svg2"
   height="30.755108"
   width="23.382383"
   version="1.0"
   inkscape:version="0.48.3.1 r9886"
   sodipodi:docname="shield_hwy_qc3.svg">
  <defs
     id="defs18" />
  <sodipodi:namedview
     pagecolor="#ffffff"
     bordercolor="#666666"
     borderopacity="1"
     objecttolerance="10"
     gridtolerance="10"
     guidetolerance="10"
     inkscape:pageopacity="0"
     inkscape:pageshadow="2"
     inkscape:window-width="1209"
     inkscape:window-height="794"
     id="namedview16"
     showgrid="false"
     fit-margin-top="0"
     fit-margin-left="0"
     fit-margin-right="0"
     fit-margin-bottom="0"
     inkscape:zoom="13.859293"
     inkscape:cx="9.5322265"
     inkscape:cy="15.382952"
     inkscape:window-x="529"
     inkscape:window-y="332"
     inkscape:window-maximized="0"
     inkscape:current-layer="svg2" />
  <metadata
     id="metadata8357">
    <rdf:RDF>
      <cc:Work
         rdf:about="">
        <dc:format>image/svg+xml</dc:format>
        <dc:type
           rdf:resource="http://purl.org/dc/dcmitype/StillImage" />
      </cc:Work>
    </rdf:RDF>
  </metadata>
  <path
     id="outline"
     d="m 12.578288,30.755108 h -1.73521 c 0.02225,-2.879134 -1.392804,-2.464925 -8.1702916,-2.464925 -1.1960458,0 -2.6711584,-1.183201 -2.6711584,-2.248072 L 0,0 h 23.382384 l -0.0016,26.042111 c 0,1.064871 -1.475112,2.248072 -2.671158,2.248072 -6.777487,0 -8.153114,-0.414115 -8.130877,2.464925 z"
     style="fill:#ffffff;fill-opacity:1;fill-rule:evenodd;stroke:none"
     inkscape:connector-curvature="0" />
  <path
     id="path3221"
     d="m 1.091657,9.0188542 h 21.184 V 25.285854 c -1.1349,4.5395 -10.214,-0.75659 -10.403,4.3504 h -0.37829 c -0.18915,-5.107 -9.2682,0.18915 -10.403,-4.3504 V 9.0188542 z"
     inkscape:connector-curvature="0"
     style="opacity:0" />
  <path
     id="green_shield"
     d="m 1.218777,25.595354 c 0.095367,0.77191 0.81334,1.299 1.5083,1.5154 0.9556,0.20405 1.9387,0.006 2.9065,0.0687 1.5382,-0.004 3.1271,-0.12162 4.6078,0.36819 0.75734,0.34174 1.2571,1.1405 1.2526,1.9688 0.06848,0.12442 0.26066,-0.005 0.37885,0.0473 0.1002,0.0272 0.1463,-0.0366 0.10655,-0.12786 0.06773,-0.82672 0.5575,-1.6804 1.3875,-1.9262 1.2125,-0.455 2.5402,-0.28019 3.811,-0.34926 1.2345,-0.005 2.4953,0.14412 3.7104,-0.10537 0.7173,-0.26117 1.4003,-0.91816 1.3308,-1.738 0.0069,-8.0305 0.0033,-16.0609998 0.0059,-24.0909998 h -21.007 c 3.949e-4,8.1232 7.891e-4,16.2459998 0.00118,24.3699998 z"
     inkscape:connector-curvature="0"
     style="fill:#0aa98b;fill-rule:evenodd" />
  <g
     id="g3009">
    <g
       style="fill:#ffffff;fill-rule:evenodd"
       id="use2431"
       transform="matrix(0.037829,0,0,0.037829,-1.993863,-0.14160978)">
      <path
         style="fill:#ffffff;fill-rule:evenodd"
         d="m 362.95,65.888 c -8.44847,9.611392 -18.2308,20.552743 -17.6089,34.22329 1.46652,13.40117 9.58742,24.89609 11.7517,38.15876 1.66345,7.75806 2.33848,15.7117 2.2272,23.63995 5.25707,2.36705 9.67389,-1.767 7.47617,-7.06469 0.082,-15.79939 5.27531,-30.95577 11.24543,-45.38693 3.12396,-8.76985 2.51299,-18.847565 -2.57824,-26.76861 C 372.06307,76.559095 367.569,71.127968 362.95,65.888 z"
         id="path2997"
         inkscape:connector-curvature="0" />
      <path
         style="fill:#ffffff;fill-rule:evenodd"
         d="m 329.46,114.17 c -10.81886,-2.16433 -19.93364,8.91062 -19.74945,19.07024 -0.12287,8.02323 4.72152,15.39194 11.03535,20.00476 1.41904,-6.67644 6.03988,-14.65618 13.82479,-14.26388 9.20481,1.35069 13.16872,11.80238 12.79638,20.07067 -0.27126,4.60226 9.72658,2.93486 6.99005,-2.36739 -0.8364,-9.67874 -1.45292,-19.75601 -6.3281,-28.44556 C 344.30715,121.01988 337.40551,115.81923 329.46,114.17 z"
         id="path2999"
         inkscape:connector-curvature="0" />
      <path
         style="fill:#ffffff;fill-rule:evenodd"
         d="m 359.63,161.81 c -7.87128,0.52888 -1.00621,14.37822 -10.61303,14.62661 -4.18001,-0.12026 -11.32136,1.36289 -5.28535,5.80265 3.8011,5.7182 15.27964,-1.26982 13.81318,7.36004 -0.79221,7.21022 9.57852,11.51864 10.47119,2.73001 -0.20141,-4.20344 1.13293,-10.24799 6.41557,-6.99916 3.9449,0.57981 13.33752,-5.00566 9.50568,-7.90911 -7.20576,0.8495 -14.64124,-4.71968 -12.81226,-12.42326 -1.21201,-5.20091 -7.73682,-2.50057 -11.49498,-3.18778 z"
         id="path3001"
         inkscape:connector-curvature="0" />
      <path
         style="fill:#ffffff;fill-rule:evenodd"
         d="m 397.16,114.24 c 10.81886,-2.16433 19.93364,8.91062 19.74945,19.07024 0.12287,8.02323 -4.72152,15.39194 -11.03535,20.00476 -1.41904,-6.67644 -6.03988,-14.65618 -13.82479,-14.26388 -9.20481,1.35069 -13.16872,11.80238 -12.79638,20.07067 0.27126,4.60226 -9.72658,2.93486 -6.99005,-2.36739 0.8364,-9.67874 1.45292,-19.75601 6.3281,-28.44556 3.72187,-7.21896 10.62351,-12.41961 18.56902,-14.06884 z"
         id="path3003"
         inkscape:connector-curvature="0" />
      <path
         style="fill:#ffffff;fill-rule:evenodd"
         d="m 335,157.36 c 0,3.33333 0,6.66667 0,10 18.90133,0 37.80267,0 56.704,0 0,-3.33333 0,-6.66667 0,-10 -18.90133,0 -37.80267,0 -56.704,0 z"
         id="path3005"
         inkscape:connector-curvature="0" />
    </g>
  </g>
  <g
     id="g3017">
    <g
       style="fill:#ffffff;fill-rule:evenodd"
       id="use2433"
       transform="matrix(0.037829,0,0,0.037829,4.355237,-0.13556978)">
      <path
         style="fill:#ffffff;fill-rule:evenodd"
         d="m 362.95,65.888 c -8.44847,9.611392 -18.2308,20.552743 -17.6089,34.22329 1.46652,13.40117 9.58742,24.89609 11.7517,38.15876 1.66345,7.75806 2.33848,15.7117 2.2272,23.63995 5.25707,2.36705 9.67389,-1.767 7.47617,-7.06469 0.082,-15.79939 5.27531,-30.95577 11.24543,-45.38693 3.12396,-8.76985 2.51299,-18.847565 -2.57824,-26.76861 C 372.06307,76.559095 367.569,71.127968 362.95,65.888 z"
         id="path3009"
         inkscape:connector-curvature="0" />
      <path
         style="fill:#ffffff;fill-rule:evenodd"
         d="m 329.46,114.17 c -10.81886,-2.16433 -19.93364,8.91062 -19.74945,19.07024 -0.12287,8.02323 4.72152,15.39194 11.03535,20.00476 1.41904,-6.67644 6.03988,-14.65618 13.82479,-14.26388 9.20481,1.35069 13.16872,11.80238 12.79638,20.07067 -0.27126,4.60226 9.72658,2.93486 6.99005,-2.36739 -0.8364,-9.67874 -1.45292,-19.75601 -6.3281,-28.44556 C 344.30715,121.01988 337.40551,115.81923 329.46,114.17 z"
         id="path3011"
         inkscape:connector-curvature="0" />
      <path
         style="fill:#ffffff;fill-rule:evenodd"
         d="m 359.63,161.81 c -7.87128,0.52888 -1.00621,14.37822 -10.61303,14.62661 -4.18001,-0.12026 -11.32136,1.36289 -5.28535,5.80265 3.8011,5.7182 15.27964,-1.26982 13.81318,7.36004 -0.79221,7.21022 9.57852,11.51864 10.47119,2.73001 -0.20141,-4.20344 1.13293,-10.24799 6.41557,-6.99916 3.9449,0.57981 13.33752,-5.00566 9.50568,-7.90911 -7.20576,0.8495 -14.64124,-4.71968 -12.81226,-12.42326 -1.21201,-5.20091 -7.73682,-2.50057 -11.49498,-3.18778 z"
         id="path3013"
         inkscape:connector-curvature="0" />
      <path
         style="fill:#ffffff;fill-rule:evenodd"
         d="m 397.16,114.24 c 10.81886,-2.16433 19.93364,8.91062 19.74945,19.07024 0.12287,8.02323 -4.72152,15.39194 -11.03535,20.00476 -1.41904,-6.67644 -6.03988,-14.65618 -13.82479,-14.26388 -9.20481,1.35069 -13.16872,11.80238 -12.79638,20.07067 0.27126,4.60226 -9.72658,2.93486 -6.99005,-2.36739 0.8364,-9.67874 1.45292,-19.75601 6.3281,-28.44556 3.72187,-7.21896 10.62351,-12.41961 18.56902,-14.06884 z"
         id="path3015"
         inkscape:connector-curvature="0" />
      <path
         style="fill:#ffffff;fill-rule:evenodd"
         d="m 335,157.36 c 0,3.33333 0,6.66667 0,10 18.90133,0 37.80267,0 56.704,0 0,-3.33333 0,-6.66667 0,-10 -18.90133,0 -37.80267,0 -56.704,0 z"
         id="path3017"
         inkscape:connector-curvature="0" />
    </g>
  </g>
  <g
     id="g3002">
    <path
       style="fill:#ffffff;fill-rule:evenodd"
       d="M 5.3952725,2.3249114 C 5.0756754,2.6885008 4.7056198,3.102401 4.7291455,3.619544 c 0.055477,0.5069529 0.3626824,0.9417945 0.4445552,1.4435078 0.062927,0.2934796 0.088462,0.5943581 0.084253,0.8942758 0.1988696,0.089543 0.3659534,-0.066844 0.2828161,-0.26725 C 5.5438724,5.0924024 5.7403291,4.5190519 5.9661728,3.9731352 6.084349,3.6413807 6.0612368,3.2601508 5.8686404,2.9605055 5.7400111,2.7285882 5.570005,2.523134 5.3952725,2.3249114 z"
       id="path3165"
       inkscape:connector-curvature="0" />
    <path
       style="fill:#ffffff;fill-rule:evenodd"
       d="M 4.1283793,4.1513711 C 3.7191124,4.0694966 3.3743095,4.4884509 3.3812775,4.8727792 3.3766293,5.17629 3.5598878,5.4550408 3.7987337,5.6295393 3.8524145,5.3769763 4.0272162,5.0751105 4.3217116,5.0899509 4.6699204,5.1410461 4.8198713,5.5364231 4.8057859,5.8492042 4.7955245,6.0233032 5.1737329,5.960226 5.0702124,5.7596475 5.0385724,5.3935105 5.0152501,5.0122977 4.830827,4.6835811 4.6906403,4.4110224 4.4282946,4.2133304 4.1283793,4.1513711 z"
       id="path3167"
       inkscape:connector-curvature="0" />
    <path
       style="fill:#ffffff;fill-rule:evenodd"
       d="M 5.2696803,5.9535447 C 4.9719181,5.9735524 5.2316169,6.4974589 4.8682,6.5068547 4.7100745,6.5023056 4.4399243,6.5584116 4.6682605,6.7263635 4.8120523,6.9426772 5.2462741,6.6783272 5.1908,7.0047859 5.1608311,7.2775414 5.5531447,7.4405246 5.586914,7.1080598 5.5792948,6.949048 5.6297714,6.7203886 5.8296084,6.8432885 5.97884,6.8652223 6.3341533,6.6539294 6.1891987,6.5440948 5.9166121,6.5762306 5.6353354,6.365554 5.7045237,6.0741354 5.6628122,5.8781952 5.4074972,5.9791633 5.2696803,5.9535447 z"
       id="path3175"
       inkscape:connector-curvature="0" />
    <path
       style="fill:#ffffff;fill-rule:evenodd"
       d="M 6.6894026,4.1540192 C 7.0986695,4.0721447 7.4434724,4.491099 7.4365045,4.8754272 7.4411527,5.178938 7.2578942,5.4576888 7.0190483,5.6321873 6.9653675,5.3796243 6.7905658,5.0777585 6.4960704,5.0925989 6.1478617,5.1436943 5.9979105,5.539071 6.011996,5.8518522 6.0222575,6.0259511 5.6440492,5.9628751 5.7475695,5.7622962 5.7792093,5.396159 5.8025319,5.0149461 5.986955,4.6862293 6.1271416,4.4136705 6.3894873,4.2159786 6.6894026,4.1540192 z"
       id="path3180"
       inkscape:connector-curvature="0" />
    <path
       style="fill:#ffffff;fill-rule:evenodd"
       d="m 4.337952,5.7852056 c 0,0.1260967 0,0.2521933 0,0.37829 0.7150185,0 1.4300371,0 2.1450556,0 0,-0.1260967 0,-0.2521933 0,-0.37829 -0.7150185,0 -1.4300371,0 -2.1450556,0 z"
       id="path3169"
       inkscape:connector-curvature="0" />
  </g>
  <rect
     id="rectangle"
     height="1.521956"
     width="21.566999"
     y="8.5837545"
     x="0.917027"
     style="fill:#ffffff" />
</svg>
