<?xml version="1.0" encoding="UTF-8" standalone="no"?>
<!-- Created with Inkscape (http://www.inkscape.org/) -->
<svg id="svg2" xmlns:rdf="http://www.w3.org/1999/02/22-rdf-syntax-ns#" xmlns="http://www.w3.org/2000/svg" height="22.3" width="27.88" version="1.0" xmlns:cc="http://creativecommons.org/ns#" xmlns:xlink="http://www.w3.org/1999/xlink" xmlns:dc="http://purl.org/dc/elements/1.1/">
 <metadata id="metadata7">
  <rdf:RDF>
   <cc:Work rdf:about="">
    <dc:format>image/svg+xml</dc:format>
    <dc:type rdf:resource="http://purl.org/dc/dcmitype/StillImage"/>
   </cc:Work>
  </rdf:RDF>
 </metadata>
 <g id="layer1" transform="translate(0,-217.7)">
  <rect id="rect2268" rx="1.3938" ry="1.3938" height="22.3" width="27.875" y="217.7" x="0" fill="#004baa"/>
  <rect id="rect2270" rx=".87342" ry=".88571" height="17.714" width="25.329" y="220.95" x="1.273" fill="#fff"/>
  <use id="use2473" stroke-linejoin="round" xlink:href="#state_outline" transform="translate(21496 -5155)" height="240" width="300" stroke="#000000" y="0" x="0" stroke-width="309" fill="#ffffff"/>
  <path id="path4763" d="m10.48 218.09c-0.44128 0.25158-0.94083 0.36582-1.4113 0.5476-0.27876 0.3058-0.71829 0.62704-0.61404 1.0977 0.17744 0.53136 0.89658 0.5727 1.1043 1.0823 0.095097 0.26659 0.37311 0.23298 0.59978 0.2426 2.7463 0.13538 5.4926 0.27075 8.2389 0.40612-0.7816-0.81312-1.5632-1.6262-2.3448-2.4394-0.62746-0.007-1.2549-0.0136-1.8824-0.0204-0.12689-0.15071-0.25378-0.30143-0.38066-0.45214-0.36079-0.33648-0.40128-0.37532-0.69133-0.38459-0.87281-0.0266-1.7456-0.0532-2.6184-0.0799z" fill="#fff"/>
  <path id="Abbeville" d="m10.683 218.44c-0.52086 0.33893-1.244 0.29023-1.6676 0.79253-0.3612 0.50885 0.30662 0.75417 0.62353 1.0008 0.39441 0.23312 0.29547 0.74439 0.61429 1.0319 0.26369 0.28913 0.56556 0.54952 0.79566 0.86418 0.45722 0.33134 0.52178 0.98583 1.0072 1.2841 0.50033 0.32331 0.3144 1.0023 0.70178 1.375 0.46008 0.2103 0.04875 0.78085 0.36883 1.0023 0.09167-0.19185 0.38862 0.0809 0.36754-0.26696-0.0234-0.63347 0.0582-1.2761-0.0595-1.9032-0.23658-0.19992-0.04687-0.6144-0.10246-0.75017-0.23194 0.15088-0.9192 0.67682-0.83075 0.04-0.11362-0.15325-0.48264-0.33753-0.32962-0.44357-0.20371 0.22526-0.30865 0.004-0.16724-0.18204-0.12454-0.18759 0.19252-0.42912-0.15659-0.30588-0.05097-0.12429 0.04875-0.45483-0.20367-0.31423 0.05379-0.21339-0.24979 0.0414-0.09819-0.18125 0.20012-0.14008 0.16406-0.40992 0.13765-0.53681 0.28828-0.24324 0.53625-0.62106 0.95562-0.61715 0.38219-0.009 0.26322-0.46299 0.62206-0.53834 0.23529-0.1349 0.55796 0.14888 0.75744-0.0412 0.19512 0.10231 0.05276 0.38848 0.30619 0.18287 0.31884-0.16084 0.47948 0.32212 0.57237 0.34792 0.24844-0.0541 0.48462 0.0316 0.28535 0.31839-0.25017 0.4652 0.59338 0.008 0.6412 0.46165 0.07061 0.35197-0.67178 0.18973-0.60314 0.33956 0.29601-0.0182 0.2905 0.29403 0.40357 0.45877-0.1471 0.12831 0.22019 0.42456-0.12294 0.3309-0.09402 0.14518-0.58486 0.34342-0.28584 0.61899-0.17563 0.36232-0.6699-0.13252-0.9095 0.16549-0.10941-0.21795-0.20001-0.13081-0.14361 0.0809-0.01748 0.44756-0.27919 0.86574-0.16599 1.3241-0.0083 0.18207-0.1374 0.85834 0.12846 0.69409 0.09904-0.54724 0.78154-0.32742 1.1134-0.69881 0.15988-0.15368 0.03331-0.4245 0.31495-0.23382 0.24647-0.39926 0.66086-0.66214 1.0668-0.89498 0.10187-0.26998-0.0073-0.58252 0.2869-0.77564 0.19778-0.44577 0.86973-0.56889 0.95284-1.0116-0.23236-0.38439-0.65749-0.61495-0.93201-0.97654-0.35938-0.35677-0.72341-0.70881-1.0823-1.0661-0.71444-0.004-1.2655-0.0339-1.9799-0.0378-0.22382-0.49513-0.61546-0.88436-1.0278-0.86558-0.71899 0.002-1.4368-0.0479-2.155-0.0728zm0.40941 0.61267c0.58278 0.21352 0.56631 1.1808-0.0087 1.3938-0.27948 0.18247-0.81135-0.0583-0.30083-0.11083 0.48238-0.18985 0.68657-0.8973 0.30122-1.2724l0.0083-0.0105z" fill="#004baa"/>
 </g>
</svg>
