<?xml version="1.0" encoding="UTF-8" standalone="no"?>
<!-- Generator: Adobe Illustrator 14.0.0, SVG Export Plug-In . SVG Version: 6.00 Build 43363)  -->

<svg
   xmlns:dc="http://purl.org/dc/elements/1.1/"
   xmlns:cc="http://creativecommons.org/ns#"
   xmlns:rdf="http://www.w3.org/1999/02/22-rdf-syntax-ns#"
   xmlns:svg="http://www.w3.org/2000/svg"
   xmlns="http://www.w3.org/2000/svg"
   xmlns:sodipodi="http://sodipodi.sourceforge.net/DTD/sodipodi-0.dtd"
   xmlns:inkscape="http://www.inkscape.org/namespaces/inkscape"
   id="Layer_1"
   enable-background="new -291 381 30 30"
   xml:space="preserve"
   height="18.0896"
   viewBox="-291 381 22.56831 18.0896"
   width="22.56831"
   version="1.1"
   y="0px"
   x="0px"
   inkscape:version="0.48.3.1 r9886"
   sodipodi:docname="shield_hwy_sks2.svg"><defs
   id="defs7" /><sodipodi:namedview
   pagecolor="#ffffff"
   bordercolor="#666666"
   borderopacity="1"
   objecttolerance="10"
   gridtolerance="10"
   guidetolerance="10"
   inkscape:pageopacity="0"
   inkscape:pageshadow="2"
   inkscape:window-width="1575"
   inkscape:window-height="1304"
   id="namedview5"
   showgrid="false"
   inkscape:zoom="7.8666667"
   inkscape:cx="-11.719599"
   inkscape:cy="8.28009"
   inkscape:window-x="766"
   inkscape:window-y="231"
   inkscape:window-maximized="0"
   inkscape:current-layer="Layer_1"
   fit-margin-top="0"
   fit-margin-left="0"
   fit-margin-right="0"
   fit-margin-bottom="0" /><metadata
   id="metadata3137"><rdf:RDF><cc:Work
       rdf:about=""><dc:format>image/svg+xml</dc:format><dc:type
         rdf:resource="http://purl.org/dc/dcmitype/StillImage" /><dc:title /></cc:Work></rdf:RDF></metadata>
<path
   style="fill:#ffffff;fill-opacity:1;stroke:none"
   inkscape:connector-curvature="0"
   id="path3131-9"
   d="m -290.9895,386.06055 c 0,-3.23893 1.60194,-5.06055 4.7097,-5.06055 l 13.25493,0 c 3.10775,0 4.59318,1.82162 4.59318,5.06055 l 0,8.31394 c 0,3.23449 -1.48543,4.71511 -4.59318,4.71511 l -13.25493,0 c -3.10776,0 -4.7097,-1.48062 -4.7097,-4.71511 l 0,-8.30949 -0.0105,0 z"
   stroke-miterlimit="3.8637"
   sodipodi:nodetypes="csssssssccc" /><path
   id="path3131"
   d="m -285.45197,382.7161 11.59741,0 c 2.6523,0 3.76914,1.32405 3.76914,3.94845 l 0,7.10552 c 0,2.6208 -1.11684,3.60343 -3.76914,3.60343 l -11.59741,0 c -2.6523,0 -3.88535,-0.98263 -3.88535,-3.60343 l 0,-6.63626 c 0,-3.27198 1.23509,-4.41771 3.88535,-4.41771 z"
   stroke-miterlimit="3.8637"
   inkscape:connector-curvature="0"
   style="fill:none;stroke:#58927a;stroke-width:1.20000005;stroke-linejoin:round;stroke-miterlimit:3.86369991;stroke-opacity:1;stroke-dasharray:none"
   sodipodi:nodetypes="sssssssss" />
</svg>