<?xml version="1.0" encoding="UTF-8" standalone="no"?>
<svg
   xmlns:dc="http://purl.org/dc/elements/1.1/"
   xmlns:cc="http://creativecommons.org/ns#"
   xmlns:rdf="http://www.w3.org/1999/02/22-rdf-syntax-ns#"
   xmlns:svg="http://www.w3.org/2000/svg"
   xmlns="http://www.w3.org/2000/svg"
   xmlns:sodipodi="http://sodipodi.sourceforge.net/DTD/sodipodi-0.dtd"
   xmlns:inkscape="http://www.inkscape.org/namespaces/inkscape"
   id="svg3139"
   xml:space="preserve"
   height="17.444382"
   width="27.583721"
   version="1.1"
   y="0px"
   x="0px"
   enable-background="new -3 0 36 30"
   viewBox="-3 0 27.583721 17.444382"
   inkscape:version="0.48.3.1 r9886"
   sodipodi:docname="shield_hwy_sks3.svg"><metadata
   id="metadata2991"><rdf:RDF><cc:Work
       rdf:about=""><dc:format>image/svg+xml</dc:format><dc:type
         rdf:resource="http://purl.org/dc/dcmitype/StillImage" /></cc:Work></rdf:RDF></metadata><defs
   id="defs2989" /><sodipodi:namedview
   pagecolor="#ffffff"
   bordercolor="#666666"
   borderopacity="1"
   objecttolerance="10"
   gridtolerance="10"
   guidetolerance="10"
   inkscape:pageopacity="0"
   inkscape:pageshadow="2"
   inkscape:window-width="1451"
   inkscape:window-height="1122"
   id="namedview2987"
   showgrid="false"
   fit-margin-top="0"
   fit-margin-left="0"
   fit-margin-right="0"
   fit-margin-bottom="0"
   inkscape:zoom="7.8666667"
   inkscape:cx="-8.7759367"
   inkscape:cy="7.6976421"
   inkscape:window-x="179"
   inkscape:window-y="275"
   inkscape:window-maximized="0"
   inkscape:current-layer="svg3139" />
<g
   transform="matrix(0.99807219,0,0,1.0681237,-1.684042,-7.2834287)"
   id="Shields-2"
   style="fill:#ffffff;fill-opacity:1;stroke:none"><path
     id="rect3248-9"
     d="m 3.0645508,6.8189 18.9980172,0 c 2.9916,0 4.255932,1.3914508 4.255932,4.383051 l 0,7.692817 c 0,2.9916 -1.264332,4.255932 -4.255932,4.255932 l -18.9980172,0 C 0.07295085,23.1507 -1.3185,21.886368 -1.3185,18.894768 l 0,-7.692817 C -1.3185,8.2103508 0.07295085,6.8189 3.0645508,6.8189 z"
     stroke-miterlimit="3.8637"
     inkscape:connector-curvature="0"
     style="fill:#ffffff;fill-opacity:1;stroke:none"
     sodipodi:nodetypes="sssssssss" /></g><g
   id="Shields"
   transform="matrix(0.9,0,0,0.9,-0.45814007,-4.7641286)"
   style="fill:none;stroke:#58927a;stroke-width:1.20000005;stroke-miterlimit:4;stroke-opacity:1;stroke-dasharray:none">
<path
   id="rect3248"
   d="m 3.0645508,6.8189 18.9980172,0 c 2.9916,0 4.255932,1.3914508 4.255932,4.383051 l 0,7.692817 c 0,2.9916 -1.264332,4.255932 -4.255932,4.255932 l -18.9980172,0 C 0.07295085,23.1507 -1.3185,21.886368 -1.3185,18.894768 l 0,-7.692817 C -1.3185,8.2103508 0.07295085,6.8189 3.0645508,6.8189 z"
   stroke-miterlimit="3.8637"
   inkscape:connector-curvature="0"
   style="fill:none;stroke:#58927a;stroke-width:1.33333337;stroke-miterlimit:4;stroke-opacity:1;stroke-dasharray:none"
   sodipodi:nodetypes="sssssssss" />
</g>
</svg>