<?xml version="1.0" encoding="UTF-8" standalone="no"?>
<!-- Generator: Adobe Illustrator 14.0.0, SVG Export Plug-In . SVG Version: 6.00 Build 43363)  -->
<!DOCTYPE svg  PUBLIC '-//W3C//DTD SVG 1.1//EN'  'http://www.w3.org/Graphics/SVG/1.1/DTD/svg11.dtd'>
<svg id="Layer_1" xmlns="http://www.w3.org/2000/svg" xml:space="preserve" height="30px" viewBox="0 0 30 30" width="30px" version="1.1" y="0px" x="0px" xmlns:xlink="http://www.w3.org/1999/xlink" enable-background="new 0 0 30 30">
<g id="Layer_1_1_">
	<path d="m24.079 23.973c0 0.565-0.463 1.027-1.028 1.027h-16.102c-0.565 0-1.028-0.462-1.028-1.027v-17.945c0-0.565 0.463-1.028 1.028-1.028h16.102c0.565 0 1.028 0.463 1.028 1.028v17.945z" fill="#259425"/>
	<path d="m8.217 11.346l0.151 0.132c0.082 0.073 0.172 0.176 0.198 0.229 0.027 0.054 0.076 0.35 0.107 0.658 0.053 0.513 0.071 0.589 0.223 0.89 0.227 0.458 0.21 0.738-0.053 0.847-0.123 0.051-0.14 0.048-0.418-0.067-0.073-0.03-0.076-0.018-0.053 0.184 0.031 0.266 0.179 0.596 0.355 0.797 0.074 0.083 0.293 0.248 0.488 0.365s0.44 0.282 0.542 0.364c0.22 0.181 0.403 0.276 0.829 0.429 0.391 0.143 0.565 0.301 0.496 0.452-0.032 0.069-0.102 0.115-0.223 0.146-0.36 0.092-0.513 0.174-0.784 0.418-0.153 0.137-0.278 0.267-0.278 0.287 0 0.045-0.017 0.039 0.461 0.182 0.314 0.094 0.398 0.14 0.694 0.391 0.38 0.32 0.535 0.385 1.087 0.449 0.242 0.027 0.442 0.08 0.584 0.148l0.217 0.104 0.136-0.103c0.075-0.059 0.319-0.162 0.542-0.234 0.394-0.127 0.419-0.143 0.702-0.436 0.163-0.166 0.315-0.303 0.339-0.303s0.084 0.035 0.136 0.076c0.09 0.072 0.092 0.088 0.052 0.381-0.029 0.209-0.027 0.443 0.001 0.748 0.039 0.396 0.035 0.467-0.032 0.668-0.043 0.124-0.066 0.236-0.053 0.25 0.053 0.053 0.345 0.137 0.441 0.129 0.097-0.009 0.104-0.025 0.114-0.27 0.009-0.154-0.024-0.451-0.078-0.721-0.104-0.527-0.108-0.713-0.018-0.889 0.061-0.115 0.249-0.25 0.351-0.25 0.026 0 0.179 0.128 0.345 0.283 0.277 0.264 0.318 0.287 0.603 0.352 0.213 0.049 0.37 0.116 0.531 0.23 0.209 0.148 0.231 0.156 0.312 0.102 0.221-0.162 0.418-0.232 0.75-0.271 0.582-0.065 0.67-0.103 1.082-0.433 0.327-0.264 0.424-0.316 0.731-0.41 0.478-0.141 0.469-0.137 0.452-0.174-0.008-0.018-0.146-0.154-0.307-0.306-0.25-0.233-0.336-0.286-0.584-0.36-0.273-0.08-0.418-0.168-0.418-0.248 0-0.16 0.164-0.271 0.665-0.446 0.259-0.091 0.453-0.197 0.704-0.386 0.191-0.142 0.48-0.341 0.645-0.442 0.184-0.113 0.353-0.258 0.438-0.38 0.207-0.281 0.366-0.776 0.277-0.865-0.013-0.013-0.087 0.003-0.162 0.034-0.199 0.083-0.296 0.073-0.411-0.042-0.156-0.156-0.138-0.391 0.064-0.811 0.145-0.305 0.168-0.396 0.207-0.816 0.058-0.634 0.095-0.757 0.266-0.894 0.079-0.062 0.145-0.135 0.145-0.162 0-0.091-0.377-0.198-0.699-0.198-0.295 0-0.336 0.012-0.844 0.257-0.375 0.181-0.584 0.257-0.695 0.257-0.316 0-0.413-0.243-0.184-0.458 0.164-0.153 0.12-0.206-0.187-0.231-0.201-0.018-0.267 0.001-0.632 0.171-0.225 0.104-0.426 0.19-0.448 0.19-0.026 0-0.093-0.039-0.152-0.086-0.124-0.097-0.139-0.229-0.054-0.475 0.031-0.088 0.068-0.271 0.083-0.403 0.028-0.235 0.021-0.263-0.204-0.753-0.22-0.48-0.23-0.521-0.215-0.772 0.014-0.22 0.037-0.285 0.129-0.382 0.061-0.063 0.109-0.129 0.109-0.145 0-0.049-0.311-0.031-0.479 0.028-0.088 0.031-0.255 0.114-0.369 0.186-0.27 0.166-0.429 0.196-0.562 0.11-0.125-0.083-0.317-0.441-0.44-0.826-0.165-0.511-0.264-0.652-0.668-0.967l-0.252-0.195-0.182 0.13c-0.436 0.312-0.604 0.549-0.787 1.116-0.053 0.159-0.128 0.354-0.17 0.438-0.09 0.179-0.3 0.364-0.412 0.364-0.047 0-0.255-0.092-0.464-0.205-0.302-0.163-0.422-0.207-0.573-0.207-0.2 0-0.235 0.036-0.127 0.126 0.113 0.095 0.183 0.276 0.182 0.479 0 0.146-0.054 0.319-0.207 0.67-0.255 0.584-0.273 0.711-0.165 1.128 0.047 0.179 0.085 0.358 0.085 0.397 0 0.085-0.186 0.244-0.287 0.244-0.037 0-0.234-0.086-0.436-0.189-0.336-0.172-0.389-0.187-0.604-0.172-0.319 0.022-0.366 0.076-0.201 0.231 0.229 0.213 0.136 0.458-0.175 0.458-0.122 0-0.315-0.07-0.702-0.257-0.521-0.249-0.546-0.257-0.865-0.257-0.255 0-0.373 0.021-0.533 0.095l-0.205 0.097z" fill="#fff"/>
	<path d="m8.628 21.338c0.038 0-0.012-0.117-0.146-0.34-0.113-0.188-0.204-0.354-0.204-0.37s0.156-0.201 0.349-0.411c0.191-0.209 0.35-0.396 0.35-0.415 0-0.02-0.114-0.153-0.254-0.3-0.294-0.307-0.294-0.307-0.385 0.174-0.033 0.172-0.07 0.328-0.083 0.35-0.014 0.021-0.206 0.037-0.435 0.037h-0.411l0.075 0.125c0.103 0.173 1.074 1.15 1.144 1.15z" fill="#fff"/>
	<path d="m9.512 21.703c0-0.045-0.748-0.619-0.773-0.594-0.043 0.043 0.521 0.762 0.6 0.762 0.012 0 0.058-0.03 0.098-0.068 0.042-0.037 0.075-0.082 0.075-0.1z" fill="#fff"/>
	<path d="m16.469 23.252c1.695-0.271 3.223-0.938 4.518-1.971 0.438-0.35 0.578-0.484 0.578-0.566 0-0.076-0.846-0.982-0.916-0.982-0.022 0-0.209 0.138-0.416 0.306-1.631 1.319-3.512 1.944-5.6 1.86-1.697-0.069-3.4-0.746-4.808-1.912-0.223-0.185-0.426-0.336-0.452-0.336s-0.257 0.209-0.512 0.466c-0.316 0.317-0.456 0.485-0.438 0.528 0.049 0.129 0.826 0.764 1.417 1.154 1.289 0.855 2.626 1.315 4.442 1.529 0.31 0.035 1.808-0.016 2.187-0.076z" fill="#fff"/>
	<path d="m20.947 21.717c0.207-0.236 0.425-0.543 0.398-0.568-0.039-0.039-0.771 0.566-0.771 0.638 0.001 0.193 0.166 0.164 0.373-0.07z" fill="#fff"/>
	<path d="m22.591 20.238c0-0.035-0.125-0.055-0.421-0.062l-0.423-0.012-0.062-0.387c-0.033-0.213-0.082-0.396-0.107-0.402-0.055-0.02-0.51 0.464-0.51 0.543 0 0.029 0.147 0.213 0.33 0.404 0.182 0.189 0.328 0.373 0.328 0.402 0 0.031-0.103 0.209-0.227 0.396-0.124 0.186-0.227 0.347-0.227 0.357 0 0.086 0.168-0.056 0.703-0.584 0.339-0.331 0.616-0.627 0.616-0.655z" fill="#fff"/>
</g>
</svg>
