<?xml version="1.0" encoding="UTF-8" standalone="no"?>
<!-- Created with Inkscape (http://www.inkscape.org/) -->
<svg id="svg3155" xmlns:rdf="http://www.w3.org/1999/02/22-rdf-syntax-ns#" xmlns="http://www.w3.org/2000/svg" height="22.39" width="27.96" version="1.1" xmlns:cc="http://creativecommons.org/ns#" xmlns:dc="http://purl.org/dc/elements/1.1/">
 <metadata id="metadata3160">
  <rdf:RDF>
   <cc:Work rdf:about="">
    <dc:format>image/svg+xml</dc:format>
    <dc:type rdf:resource="http://purl.org/dc/dcmitype/StillImage"/>
    <dc:title/>
   </cc:Work>
  </rdf:RDF>
 </metadata>
 <g id="layer1" transform="matrix(.037105 0 0 .037105 -1.8986 -3.7331)">
  <g id="g4152" stroke="#000">
   <rect id="rect3163" transform="scale(1,-1)" rx="37.562" ry="37.562" height="600" width="750" y="-703.79" x="51.429" fill="#fff"/>
   <rect id="rect3933" stroke-linejoin="round" rx="25" ry="25" height="568.17" width="718.58" y="119.4" x="67.646" stroke-width="15.668" fill="none"/>
   <polyline id="polyline37" stroke-linejoin="round" stroke-linecap="round" transform="matrix(1.5486 0 0 1.5238 54.544 120.27)" points="61.029 293.88 60.357 293.43 58.566 294.55 56.771 296.12 56.771 301.73 55.424 302.4 52.286 302.62 50.046 303.3 50.268 304.19 52.286 305.76 52.961 306.88 50.268 306.66 47.579 306.88 46.907 308.9 48.926 310.92 50.943 313.16 50.046 314.95 46.232 318.09 44.89 319.44 44.89 321.01 47.13 324.14 47.579 325.27 47.13 325.94 44.214 325.71 42.201 326.16 43.543 328.18 44.663 330.2 42.201 331.77 36.147 333.56 33.454 334.46 31.885 335.8 31.885 338.71 33.903 339.84 35.92 340.51 35.472 341.18 32.56 341.85 30.764 342.53 33.231 345.66 32.333 345.89 29.867 344.99 27.849 345.21 26.955 348.58 27.626 349.92 27.626 352.84 24.262 353.96 21.124 356.87 19.555 360.01 21.124 361.36 23.368 362.93 24.039 365.17 24.039 367.41 22.47 368.98 19.106 370.32 20.226 369.88 22.47 368.98 24.039 367.41 24.039 365.17 23.368 362.93 21.124 361.36 19.555 360.01 21.124 356.87 24.262 353.96 27.626 352.84 27.626 349.92 26.955 348.58 27.849 345.21 28.973 344.77 31.436 345.44 33.231 345.66 30.764 342.53 31.662 342.08 34.578 341.4 35.698 340.96 35.92 340.51 33.903 339.84 31.885 338.71 31.885 335.8 34.352 334.01 40.182 332.44 42.872 331.54 44.663 330.2 43.543 328.18 42.201 326.16 43.321 325.71 46.232 325.94 47.356 325.94 47.579 325.27 47.13 324.14 44.89 321.01 45.338 318.99 48.699 316.07 50.495 314.51 50.943 313.16 48.926 310.92 46.907 308.9 47.579 306.88 50.268 306.66 52.961 306.88 52.735 306.21 50.943 304.64 50.046 303.3 51.392 302.85 54.53 302.62 56.771 301.73 56.771 296.12 59.237 293.88 60.357 293.43 61.029 293.88 131.43 293.88 131.43 288.5 463.24 288.5 463.01 294.55 462.34 300.38 460.77 301.73 454.04 301.73 452.48 302.17 450.23 305.31 448.21 311.81 446.87 314.95 445.08 316.97 441.04 317.42 437.23 317.64 435.88 319.66 434.76 323.7 433.19 326.83 429.38 327.51 425.57 328.4 424.22 332.21 423.1 336.25 420.64 336.92 418.17 337.82 417.5 340.28 418.17 344.54 418.17 346.56 417.5 348.35 414.36 350.82 411 353.29 406.07 358.89 401.8 363.82 399.34 367.63 398.22 370.1 398 372.79" stroke-miterlimit="3.8637" stroke-width="8" fill="none"/>
  </g>
 </g>
</svg>
