<?xml version="1.0" encoding="UTF-8" standalone="no"?>
<!-- Generator: Adobe Illustrator 14.0.0, SVG Export Plug-In . SVG Version: 6.00 Build 43363)  -->

<svg
   xmlns:dc="http://purl.org/dc/elements/1.1/"
   xmlns:cc="http://creativecommons.org/ns#"
   xmlns:rdf="http://www.w3.org/1999/02/22-rdf-syntax-ns#"
   xmlns:svg="http://www.w3.org/2000/svg"
   xmlns="http://www.w3.org/2000/svg"
   xmlns:sodipodi="http://sodipodi.sourceforge.net/DTD/sodipodi-0.dtd"
   xmlns:inkscape="http://www.inkscape.org/namespaces/inkscape"
   id="Layer_1"
   xml:space="preserve"
   height="30px"
   viewBox="-291 381 30 30"
   width="30px"
   version="1.1"
   y="0px"
   x="0px"
   enable-background="new -291 381 30 30"
   inkscape:version="0.48.3.1 r9886"
   sodipodi:docname="shield_hwy_us3.svg"><metadata
   id="metadata9"><rdf:RDF><cc:Work
       rdf:about=""><dc:format>image/svg+xml</dc:format><dc:type
         rdf:resource="http://purl.org/dc/dcmitype/StillImage" /></cc:Work></rdf:RDF></metadata><defs
   id="defs7" /><sodipodi:namedview
   pagecolor="#ffffff"
   bordercolor="#666666"
   borderopacity="1"
   objecttolerance="10"
   gridtolerance="10"
   guidetolerance="10"
   inkscape:pageopacity="0"
   inkscape:pageshadow="2"
   inkscape:window-width="1114"
   inkscape:window-height="960"
   id="namedview5"
   showgrid="false"
   inkscape:zoom="54.809863"
   inkscape:cx="8.5745791"
   inkscape:cy="7.0020494"
   inkscape:window-x="0"
   inkscape:window-y="27"
   inkscape:window-maximized="0"
   inkscape:current-layer="Layer_1" />

<path
   style="fill:#ffffff;stroke:#37332f;stroke-width:0.75;stroke-miterlimit:4;stroke-dasharray:none"
   d="M 5.75,4.5 1.34375,8.09375 C 2.24487,8.96934 2.6875,9.8105 2.6875,10.9375 c 0,1.27 -2.3125,2.84775 -2.3125,6.09375 0,4.355 4.1775,7.8125 7.3125,7.8125 1.377,0 2.15025,-0.20525 2.78125,-0.40625 0.66,-0.182 1.15275,-0.375 1.59375,-0.375 0.63825,0 1.475313,0.390156 2.21875,0.90625 0.247812,0.172031 0.4985,0.371 0.71875,0.5625 0.239667,-0.203266 0.469994,-0.385512 0.6875,-0.5625 0.743437,-0.516094 1.54925,-0.90625 2.1875,-0.90625 0.441,0 0.93375,0.193 1.59375,0.375 0.631,0.201 1.4355,0.40625 2.8125,0.40625 3.135,0 7.28125,-3.4575 7.28125,-7.8125 0,-3.246 -2.28125,-4.82375 -2.28125,-6.09375 0,-1.127 0.44263,-1.96816 1.34375,-2.84375 L 24.21875,4.5 c -1.539,1.188 -3.2465,1.9375 -4.5625,1.9375 -0.943536,0 -2.131456,-0.3082484 -3.1875,-0.875 C 15.982874,5.2086111 15.528646,4.8808666 15,4.5 14.460751,4.9227451 13.93566,5.2467061 13.5,5.5625 12.437612,6.1379185 11.263413,6.4375 10.3125,6.4375 8.9965,6.4375 7.289,5.688 5.75,4.5 z"
   transform="translate(-291,381)"
   id="path3"
   inkscape:connector-curvature="0"
   sodipodi:nodetypes="ccssscssccscsssccscccsc" /></svg>