<?xml version="1.0" encoding="UTF-8" standalone="no"?>
<!-- Generator: Adobe Illustrator 12.0.0, SVG Export Plug-In . SVG Version: 6.00 Build 51448)  -->

<svg
   xmlns:dc="http://purl.org/dc/elements/1.1/"
   xmlns:cc="http://creativecommons.org/ns#"
   xmlns:rdf="http://www.w3.org/1999/02/22-rdf-syntax-ns#"
   xmlns:svg="http://www.w3.org/2000/svg"
   xmlns="http://www.w3.org/2000/svg"
   xmlns:sodipodi="http://sodipodi.sourceforge.net/DTD/sodipodi-0.dtd"
   xmlns:inkscape="http://www.inkscape.org/namespaces/inkscape"
   id="Layer_1"
   xml:space="preserve"
   overflow="visible"
   height="24.811897"
   viewBox="0 0 24.811897 24.811897"
   width="24.811897"
   version="1.1"
   enable-background="new 0 0 384 384"
   inkscape:version="0.48.3.1 r9886"
   sodipodi:docname="shield_hwy_vt2.svg"
   style="overflow:visible"><defs
   id="defs14" /><sodipodi:namedview
   pagecolor="#ffffff"
   bordercolor="#666666"
   borderopacity="1"
   objecttolerance="10"
   gridtolerance="10"
   guidetolerance="10"
   inkscape:pageopacity="0"
   inkscape:pageshadow="2"
   inkscape:window-width="995"
   inkscape:window-height="1030"
   id="namedview12"
   showgrid="false"
   fit-margin-top="0"
   fit-margin-left="0"
   fit-margin-right="0"
   fit-margin-bottom="0"
   inkscape:zoom="10.58296"
   inkscape:cx="-4.2245761"
   inkscape:cy="12.405965"
   inkscape:window-x="0"
   inkscape:window-y="27"
   inkscape:window-maximized="0"
   inkscape:current-layer="g7812" /><metadata
   id="metadata7848"><rdf:RDF><cc:Work
       rdf:about=""><dc:format>image/svg+xml</dc:format><dc:type
         rdf:resource="http://purl.org/dc/dcmitype/StillImage" /></cc:Work></rdf:RDF></metadata>
<g
   id="g7812"
   transform="matrix(0.058073,0,0,0.058073,1.2559321,1.2559321)">
	<g
   id="g7814"
   style="fill:#006b54;stroke:#ffffff;stroke-width:17.21970558;stroke-miterlimit:4;stroke-opacity:1;stroke-dasharray:none"
   transform="matrix(1.0648868,0,0,1.0648868,-12.458264,-12.458264)">
		<path
   id="path7816"
   d="M 0,24 C 0,10.745 10.745,0 24,0 h 336 c 13.255,0 24,10.745 24,24 v 336 c 0,13.255 -10.745,24 -24,24 H 24 C 10.745,384 0,373.25 0,360 V 24 z"
   style="stroke:#ffffff;stroke-width:17.21970558;stroke-miterlimit:4;stroke-opacity:1;stroke-dasharray:none"
   inkscape:connector-curvature="0" />
		<path
   id="path7818"
   d="M 192,192"
   style="stroke:#ffffff;stroke-width:17.21970558;stroke-miterlimit:4;stroke-opacity:1;stroke-dasharray:none"
   inkscape:connector-curvature="0" />
	</g>
	<path
   id="path7820"
   d="m 16,243.27 c 0,-44.35 15.098,-85.02 40.229,-116.74 h 271.54 c 25.13,31.72 40.23,72.39 40.23,116.74 0,44.34 -15.1,85.01 -40.23,116.73 H 56.229 C 31.097,328.28 15.999,287.61 15.999,243.27 z"
   inkscape:connector-curvature="0"
   style="fill:#ffffff" />
	<g
   id="g7822"
   transform="matrix(1,0,0,0.86588,0,3.2189)"
   style="fill:#ffffff">
		<path
   id="path7824"
   d="m 16,40 c 0,-8.8364 7.1631,-16 16,-16 h 320 c 8.8369,0 16,7.1636 16,16 v 64 c 0,8.8369 -7.1631,16 -16,16 H 32 c -8.8369,0 -16,-7.1631 -16,-16 V 40 z"
   inkscape:connector-curvature="0" />
		<path
   id="path7826"
   d="M 192,72"
   inkscape:connector-curvature="0" />
	</g>
</g>
</svg>