<?xml version="1.0" encoding="UTF-8" standalone="no"?>
<!-- Generator: Adobe Illustrator 14.0.0, SVG Export Plug-In . SVG Version: 6.00 Build 43363)  -->
<!DOCTYPE svg  PUBLIC '-//W3C//DTD SVG 1.1//EN'  'http://www.w3.org/Graphics/SVG/1.1/DTD/svg11.dtd'>
<svg id="Layer_1" xmlns="http://www.w3.org/2000/svg" xml:space="preserve" height="30px" viewBox="0 0 30 30" width="30px" version="1.1" y="0px" x="0px" xmlns:xlink="http://www.w3.org/1999/xlink" enable-background="new 0 0 30 30">
<path stroke="#000" stroke-width=".75" stroke-miterlimit="3.8637" d="m4.432 4l0.89 2.067v9.041c0 6.114 8.131 10.124 9.678 10.892 1.548-0.768 9.68-4.777 9.68-10.892v-9.041l0.888-2.067h-21.136z" fill="#259425"/>
<path d="m8.754 10.906s-0.1-1.434 0.78-2.339 2.843-2.464 5.207-2.264c2.363 0.201 4.377 1.133 4.854 2.918s1.056 4.477 0.679 6.062c-0.378 1.584-0.479 1.635-0.479 1.635l-0.301-0.402s0 1.182 1.106 2.792c0 0-3.068 0.427-5.735 2.615l-2.037-2.39s-1.357-0.326-1.937-0.276c-0.579 0.051-1.333-0.175-1.333-0.83 0-0.654 0.151-0.854 0.151-0.854s-0.101-0.075-0.177-0.227c-0.075-0.15-0.176-0.453-0.126-0.755 0.051-0.302-0.075-0.276-0.075-0.276s-0.15-0.402-0.025-0.629c0.126-0.227 0.202-0.201-0.024-0.276-0.227-0.076-0.429-0.227-0.429-0.227s-0.352 0.025-0.226-0.578c0.127-0.605 0.379-1.107 0.58-1.334s0.303-0.504 0.201-0.654c-0.101-0.151-0.201-0.303-0.176-0.479s0.126-1.156 0.378-1.533c0.251-0.378-0.051-0.428-0.177-0.177s-0.125 0.252-0.125 0.252-0.024-0.352 0.025-0.502c0.051-0.151-0.05-0.202-0.05-0.202s-0.353 0.578-0.327 0.931c0.024 0.352-0.102 0.175-0.202-0.001z" fill="#FFFD12"/>
</svg>
