<?xml version="1.0" encoding="UTF-8" standalone="no"?>
<!-- Generator: Adobe Illustrator 14.0.0, SVG Export Plug-In . SVG Version: 6.00 Build 43363)  -->

<svg
   xmlns:dc="http://purl.org/dc/elements/1.1/"
   xmlns:cc="http://creativecommons.org/ns#"
   xmlns:rdf="http://www.w3.org/1999/02/22-rdf-syntax-ns#"
   xmlns:svg="http://www.w3.org/2000/svg"
   xmlns="http://www.w3.org/2000/svg"
   xmlns:sodipodi="http://sodipodi.sourceforge.net/DTD/sodipodi-0.dtd"
   xmlns:inkscape="http://www.inkscape.org/namespaces/inkscape"
   version="1.1"
   id="Layer_1"
   x="0px"
   y="0px"
   width="30px"
   height="30px"
   viewBox="-291 381 30 30"
   enable-background="new -291 381 30 30"
   xml:space="preserve"
   inkscape:version="0.48.3.1 r9886"
   sodipodi:docname="ski_resort.svg"><metadata
   id="metadata3030"><rdf:RDF><cc:Work
       rdf:about=""><dc:format>image/svg+xml</dc:format><dc:type
         rdf:resource="http://purl.org/dc/dcmitype/StillImage" /><dc:title></dc:title></cc:Work></rdf:RDF></metadata><defs
   id="defs3028" /><sodipodi:namedview
   pagecolor="#ffffff"
   bordercolor="#666666"
   borderopacity="1"
   objecttolerance="10"
   gridtolerance="10"
   guidetolerance="10"
   inkscape:pageopacity="0"
   inkscape:pageshadow="2"
   inkscape:window-width="1920"
   inkscape:window-height="1056"
   id="namedview3026"
   showgrid="false"
   inkscape:zoom="30.3"
   inkscape:cx="15"
   inkscape:cy="15"
   inkscape:window-x="0"
   inkscape:window-y="24"
   inkscape:window-maximized="1"
   inkscape:current-layer="Layer_1" />


<path
   style="font-size:medium;font-style:normal;font-variant:normal;font-weight:normal;font-stretch:normal;text-indent:0;text-align:start;text-decoration:none;line-height:normal;letter-spacing:normal;word-spacing:normal;text-transform:none;direction:ltr;block-progression:tb;writing-mode:lr-tb;text-anchor:start;baseline-shift:baseline;color:#000000;fill:#ffffff;fill-opacity:1;stroke:none;stroke-width:2;marker:none;visibility:visible;display:inline;overflow:visible;enable-background:accumulate;font-family:Sans;-inkscape-font-specification:Sans"
   d="m -271.5,388.21875 c -1.00253,0 -1.73115,0.74514 -2.03125,1.65625 -0.11893,-0.0213 -0.21837,-0.0938 -0.34375,-0.0937 l 0,-0.0312 c -0.0312,-0.001 -0.0625,0 -0.0937,0 -0.0104,0 -0.0208,-1.6e-4 -0.0312,0 l -0.0625,0 -0.0312,0 -0.0625,0.0312 c -0.24324,0.0405 -0.47508,0.12478 -0.6875,0.25 l 0,-0.0312 -2.8125,1.59375 c -1.18268,0.68119 -1.3673,2.25043 -0.375,3.1875 l 0,0.0312 1.15625,1.0625 -1.03125,0.34375 c -0.60332,0.19781 -0.97971,0.65572 -1.1875,1.1875 l -3.125,-1.8125 -0.875,-0.53125 -0.5,0.875 -0.5,0.875 -0.5,0.875 0.875,0.5 10.625,6.15625 0.0312,0.0312 0.0625,0.0312 0.125,0.0625 0.28125,0 0.0625,0 0,-0.0312 c 0.54788,0.13072 1.12455,0.21759 1.59375,0.0625 0.56557,-0.1868 0.99091,-0.53582 1.3125,-0.84375 l 0.71875,-0.6875 -0.6875,-0.71875 -0.6875,-0.71875 -0.6875,-0.71875 -0.71875,0.6875 c -0.087,0.0833 -0.1047,0.11083 -0.125,0.125 l -0.0312,0 -3.5,-2.03125 2.875,-0.96875 c 0.0151,-0.005 0.0164,-0.0261 0.0312,-0.0312 0.70956,-0.24568 1.14623,-0.86115 1.28125,-1.46875 0.13614,-0.61261 -0.0122,-1.31982 -0.5625,-1.84375 l 0.0312,-0.0312 -0.0312,0 -1.5625,-1.5 0.375,-0.25 c 0.0139,-0.008 0.0176,-0.0233 0.0312,-0.0312 0.38208,-0.22135 0.67833,-0.53415 0.84375,-0.90625 0.18926,0.052 0.32705,0.21875 0.53125,0.21875 1.24579,0 2.28125,-1.03546 2.28125,-2.28125 0,-1.24579 -1.03546,-2.28125 -2.28125,-2.28125 z m 0,2 c 0.17593,0 0.28125,0.10532 0.28125,0.28125 0,0.17593 -0.10532,0.28125 -0.28125,0.28125 -0.17593,0 -0.28125,-0.10532 -0.28125,-0.28125 0,-0.17593 0.10532,-0.28125 0.28125,-0.28125 z"
   id="path3977"
   inkscape:connector-curvature="0" /><path
   style="font-size:medium;font-style:normal;font-variant:normal;font-weight:normal;font-stretch:normal;text-indent:0;text-align:start;text-decoration:none;line-height:normal;letter-spacing:normal;word-spacing:normal;text-transform:none;direction:ltr;block-progression:tb;writing-mode:lr-tb;text-anchor:start;baseline-shift:baseline;color:#000000;fill:#000000;fill-opacity:1;stroke:none;stroke-width:2;marker:none;visibility:visible;display:inline;overflow:visible;enable-background:accumulate;font-family:Sans;-inkscape-font-specification:Sans"
   d="m -271.50727,389.22571 c -0.71086,0 -1.28125,0.57039 -1.28125,1.28125 0,0.71086 0.57039,1.28125 1.28125,1.28125 0.71086,0 1.28125,-0.57039 1.28125,-1.28125 0,-0.71086 -0.57039,-1.28125 -1.28125,-1.28125 z m -2.5,1.53125 a 1.0001,1.0001 0 0 0 -0.34375,0.125 l -2.8125,1.59375 a 1.0001,1.0001 0 0 0 -0.1875,1.59375 l 2.375,2.21875 -2.625,0.875 a 1.0030471,1.0030471 0 1 0 0.625,1.90625 l 4.21875,-1.40625 a 1.0001,1.0001 0 0 0 0.375,-1.6875 l -2.59375,-2.4375 1.59375,-0.90625 a 1.0001,1.0001 0 0 0 -0.53125,-1.875 1.0001,1.0001 0 0 0 -0.0937,0 z m -8.71875,5.6875 -0.5,0.875 10.625,6.15625 0.0625,0 0.0312,0.0312 c 0.44535,0.16869 0.8755,0.15499 1.25,0.0312 0.3745,-0.12369 0.68442,-0.35142 0.9375,-0.59375 l -0.6875,-0.71875 c -0.19547,0.18717 -0.39454,0.31953 -0.5625,0.375 -0.16796,0.0555 -0.32854,0.0691 -0.59375,-0.0312 l -10.56245,-6.12495 z"
   id="path3961"
   inkscape:connector-curvature="0" /></svg>